/* XPM */
static char *result[] = {
/* columns rows colors chars-per-pixel */
"64 64 49 1 ",
"  c black",
". c #28200C",
"X c #382C14",
"o c #202020",
"O c #2C2C2C",
"+ c gray22",
"@ c #403018",
"# c #483818",
"$ c #543C1C",
"% c #5C4020",
"& c #6C4824",
"* c #744C28",
"= c #000040",
"- c #00004C",
"; c #000058",
": c #000064",
"> c #000070",
", c #00007C",
"< c #484848",
"1 c gray33",
"2 c #646464",
"3 c gray44",
"4 c #7C7C7C",
"5 c #80502C",
"6 c #885830",
"7 c #905C34",
"8 c #9C6038",
"9 c #A0643C",
"0 c #A86840",
"q c #B47044",
"w c #BC7848",
"e c #C87C4C",
"r c #D08050",
"t c #DC8854",
"y c #E88C58",
"u c #F0945C",
"i c #FC9C60",
"p c #FCA470",
"a c #000098",
"s c #0000A4",
"d c #0000A8",
"f c #980088",
"g c gray55",
"h c #989898",
"j c gray66",
"k c #FCB080",
"l c #FCB890",
"z c #C0C0C0",
"x c gainsboro",
/* pixels */
"ffffffffffffffffffffffffffffffffffffffffffffffffffffffffffffffff",
"ffffffffffffffffffffffffffffffffffffffffffffffffffffffffffffffff",
"ffffffffffffffffffffffffffffffffffffffffffffffffffffffffffffffff",
"ffffffffffffffffffffffffffffffffffffffffffffffffffffffffffffffff",
"ffffffffffffffffffffffffffffffffffffffffffffffffffffffffffffffff",
"ffffffffffffffffffffffffffffffffffffffffffffffffffffffffffffffff",
"ffffffffffffffffffffffffffffffffffffffffffffffffffffffffffffffff",
"ffffffffffffffffffffffffffffffffffffffffffffffffffffffffffffffff",
"ffffffffffffffffffffffffffffffffffffffffffffffffffffffffffffffff",
"ffffffffffffffffffffffffffffffffffffffffffffffffffffffffffffffff",
"ffffffffffffffffffffffffffffffffffffffffffffffffffffffffffffffff",
"ffffffffffffffffffffffffffffffffffffffffffffffffffffffffffffffff",
"ffffffffffffffffffffffffffffffffffffffffffffffffffffffffffffffff",
"ffffffffffffffffffffffffffffffffffffffffffffffffffffffffffffffff",
"ffffffffffffffffffffffffffffffffffffffffffffffffffffffffffffffff",
"ffffffffffffffffffffffffffffffffffffffffffffffffffffffffffffffff",
"ffffffffffffffffffffffffffjjj4433fffffffffffffffffffffffffffffff",
"fffffffffffffffffffffffffjz4332111ffffffffffffffffffffffffffffff",
"fffffffffffffffffffffffffj4111<<++<fffffffffffffffffffffffffffff",
"fffffffffffffffffffffffff44j 1<<++Offfffffffffffffffffffffffffff",
"ffffffffffffffffffffffffxzj  1<+++Offfffffffffffffffffffffffffff",
"ffffffffffffffffffffffffffgjjhg42<+Offffffffffffffffffffffffffff",
"ffffffffffffffffffffffffff8jjhg442<+Offfffffffffffffffffffffffff",
"ffffffffffffffffffffffffffll      ffffffffffffffffffffffffffffff",
"ffffffffffffffffffffffffffll 8***&ffffffffffffffffffffffffffffff",
"ffffffffffffffffffffffffffp kuw06&ffffffffffffffffffffffffffffff",
"ffffffffffffffffffffffffffffOOO    fffffffffffffffffffffffffffff",
"fffffffffffffffffffffffffffxOOO    #ffffffffffffffffffffffffffff",
"fffffffffffffffffffffffffiittq88$$ O fffffffffffffffffffffffffff",
"ffffffffffffffffffffffffiiwrrrrq**  $8ffffffffffffffffffffffffff",
"fffffffffffffffffffffffiit*99999*@  $*ffffffffffffffffffffffffff",
"fffffffffffffffffffffffit0$*9999*. $$#ffffffffffffffffffffffffff",
"fffffffffffffffffffffffitt6$*777@ @@$#ffffffffffffffffffffffffff",
"fffffffffffffffffffffffitt6$*77&  $$.$ffffffffffffffffffffffffff",
"fffffffffffffffffffffffttt$$**&  *$$.#ffffffffffffffffffffffffff",
"fffffffffffffffffffffffft$6$**  *$$$.#ffffffffffffffffffffffffff",
"ffffffffffffffffffffffft006$#  **$$.$#ffffffffffffffffffffffffff",
"fffffffffffffffffffffffftw7$        $#ffffffffffffffffffffffffff",
"fffffffffffffffffffffffttw$o        %%ffffffffffffffffffffffffff",
"fffffffffffffffffffffffttw$@%****%**5&ffffffffffffffffffffffffff",
"ffffffffffffffffffffffftw7$@%****%**5fffffffffffffffffffffffffff",
"fffffffffffffffffffffff55$@$*****$**5fffffffffffffffffffffffffff",
"fffffffffffffffffffffffl99$%*****X**5fffffffffffffffffffffffffff",
"fffffffffffffffffffffffuuw$%*****X**5fffffffffffffffffffffffffff",
"fffffffffffffffffffffffuu6$$$XXXXXXXXfffffffffffffffffffffffffff",
"ffffffffffffffffffffffffuw66655@.%$%%fffffffffffffffffffffffffff",
"fffffffffffffffffffffffff66686%@.%$&&fffffffffffffffffffffffffff",
"fffffffffffffffffffffffffyeq86%@.%$&&fffffffffffffffffffffffffff",
"fffffffffffffffffffffffffyeq86%@.$$&&fffffffffffffffffffffffffff",
"fffffffffffffffffffffffffeetq6%..$$&&fffffffffffffffffffffffffff",
"fffffffffffffffffffffffffei6w9$.$$$&&fffffffffffffffffffffffffff",
"fffffffffffffffffffffffffyii6$$.6XX$ffffffffffffffffffffffffffff",
"fffffffffffffffffffffffffyyti06@.&&&&fffffffffffffffffffffffffff",
"fffffffffffffffffffffffffeytq06@.$$&&fffffffffffffffffffffffffff",
"ffffffffffffffffffffffffffeq06%@.$$&&fffffffffffffffffffffffffff",
"ffffffffffffffffffffffffff>;=       ffffffffffffffffffffffffffff",
"ffffffffffffffffffffffffff>d-  o   =ffffffffffffffffffffffffffff",
"ffffffffffffffffffffffffffod-  o   =ffffffffffffffffffffffffffff",
"ffffffffffffffffffffffffffod-  o   =ffffffffffffffffffffffffffff",
"ffffffffffffffffffffffffffo:a o   =fffffffffffffffffffffffffffff",
"fffffffffffffffffffffffffff:- o   =fffffffffffffffffffffffffffff",
"fffffffffffffffffffffffff=d--  o   =ffffffffffffffffffffffffffff",
"fffffffffffffffffffffff=sdss-  o   =ffffffffffffffffffffffffffff",
"ffffffffffffffffffffff=,,::==  o    ffffffffffffffffffffffffffff"
};
