/* XPM */
static char *result[] = {
/* columns rows colors chars-per-pixel */
"64 64 44 1 ",
"  c black",
". c #28200C",
"X c #382C14",
"o c #202020",
"O c #2C2C2C",
"+ c gray22",
"@ c #403018",
"# c #483818",
"$ c #543C1C",
"% c #5C4020",
"& c #6C4824",
"* c #744C28",
"= c #000040",
"- c #00004C",
"; c #000064",
": c #000070",
"> c #600064",
", c #484848",
"< c gray33",
"1 c #646464",
"2 c gray44",
"3 c #7C7C7C",
"4 c #80502C",
"5 c #885830",
"6 c #905C34",
"7 c #9C6038",
"8 c #A0643C",
"9 c #A86840",
"0 c #B47044",
"q c #BC7848",
"w c #C87C4C",
"e c #D08050",
"r c #DC8854",
"t c #E88C58",
"y c #F0945C",
"u c #FCA470",
"i c #000098",
"p c #980088",
"a c gray55",
"s c #989898",
"d c #B4B4B4",
"f c #FCB080",
"g c #C0C0C0",
"h c #D0D0D0",
/* pixels */
"pppppppppppppppppppppppppppppppppppppppppppppppppppppppppppppppp",
"pppppppppppppppppppppppppppppppppppppppppppppppppppppppppppppppp",
"pppppppppppppppppppppppppppppppppppppppppppppppppppppppppppppppp",
"pppppppppppppppppppppppppppppppppppppppppppppppppppppppppppppppp",
"pppppppppppppppppppppppppppppppppppppppppppppppppppppppppppppppp",
"pppppppppppppppppppppppppppppppppppppppppppppppppppppppppppppppp",
"pppppppppppppppppppppppppppppppppppppppppppppppppppppppppppppppp",
"pppppppppppppppppppppppppppppppppppppppppppppppppppppppppppppppp",
"pppppppppppppppppppppppppppppppppppppppppppppppppppppppppppppppp",
"pppppppppppppppppppppppppppppppppppppppppppppppppppppppppppppppp",
"pppppppppppppppppppppppppppppppppppppppppppppppppppppppppppppppp",
"pppppppppppppppppppppppppppppppppppppppppppppppppppppppppppppppp",
"pppppppppppppppppppppppppppppppppppppppppppppppppppppppppppppppp",
"pppppppppppppppppppppppppppppppppppppppppppppppppppppppppppppppp",
"pppppppppppppppppppppppppppppppppppppppppppppppppppppppppppppppp",
"pppppppppppppppppppppppppppppppppppppppppppppppppppppppppppppppp",
"ppppppppppppppppppppppppppppppdaa332pppppppppppppppppppppppppppp",
"pppppppppppppppppppppppppppppdh1111,<ppppppppppppppppppppppppppp",
"ppppppppppppppppppppppppppppaa21<<,++,pppppppppppppppppppppppppp",
"ppppppppppppppppppppppppppppha11,,,+O+pppppppppppppppppppppppppp",
"pppppppppppppppppppppppppppp,a11,,,+O+pppppppppppppppppppppppppp",
"pppppppppppppppppppppppppppag21,+++++O+ppppppppppppppppppppppppp",
"pppppppppppppppppppppppppppdss321<,++OOppppppppppppppppppppppppp",
"pppppppppppppppppppppppppppp33221<,,OOpppppppppppppppppppppppppp",
"ppppppppppppppppppppppppppppp5q5*###Xppppppppppppppppppppppppppp",
"ppppppppppppppppppppppppppppp5fytt9* ppppppppppppppppppppppppppp",
"pppppppppppppppppppppppppppp,,+OOoo  Opppppppppppppppppppppppppp",
"pppppppppppppppppppppppppp9ww&+OOoo . Oppppppppppppppppppppppppp",
"pppppppppppppppppppppppp9ruuuuyyeyyee<<e9ppppppppppppppppppppppp",
"ppppppppppppppppppppppp9ruuyyyyyeeee+++ee9pppppppppppppppppppppp",
"ppppppppppppppppppppppp9uq9eettt7qe+++07e0pppppppppppppppppppppp",
"pppppppppppppppppppppp9yu440eee045$++00$49pppppppppppppppppppppp",
"pppppppppppppppppppppp9yy#*&90085$  00$@$99ppppppppppppppppppppp",
"pppppppppppppppppppppp9yq%.&8844o  886@$&99ppppppppppppppppppppp",
"pppppppppppppppppppppprye*.#&5X  o886#.&499ppppppppppppppppppppp",
"pppppppppppppppppppppprtq*.#$oooo$44&#.&498ppppppppppppppppppppp",
"pppppppppppppppppppppprtq#..oooX$44X#..&499ppppppppppppppppppppp",
"ppppppppppppppppppppppre7#O<,,,+++Oo  .$49eppppppppppppppppppppp",
"ppppppppppppppppppppppre6#O<1,,+++Oo  .@&9qppppppppppppppppppppp",
"ppppppppppppppppppppppre4&@4444&#%%%##.$$4qppppppppppppppppppppp",
"ppppppppppppppppppppppe04@40eewq709964#.&49ppppppppppppppppppppp",
"pppppppppppppppppppppp&&X@9ytewq709994#.X49ppppppppppppppppppppp",
"ppppppppppppppppppppppp94@9ytewq409994#.49pppppppppppppppppppppp",
"pppppppppppppppppppppppe4@9ttewq%09994# 4wpppppppppppppppppppppp",
"pppppppppppppppppppppppw9&$$$@@.>.#####.9qpppppppppppppppppppppp",
"ppppppppppppppppppppppppw800004#>.4006$#qppppppppppppppppppppppp",
"ppppppppppppppppppppppppp8qe006%.#60094Xpppppppppppppppppppppppp",
"ppppppppppppppppppppppppp8ttt06%.#6qqq6&pppppppppppppppppppppppp",
"ppppppppppppppppppppppppp8tt0&6%X@6qqq6&pppppppppppppppppppppppp",
"ppppppppppppppppppppppppp8wt00&.X@6qqq6&pppppppppppppppppppppppp",
"ppppppppppppppppppppppppptuyy07*X48wrw9&pppppppppppppppppppppppp",
"pppppppppppppppppppppppppuw064#$.@4466$&pppppppppppppppppppppppp",
"pppppppppppppppppppppppppryy00$.X$*99*9&pppppppppppppppppppppppp",
"ppppppppppppppppppppppppp8r96*$$.*66%#4&pppppppppppppppppppppppp",
"pppppppppppppppppppppppppp85&$$..@&$@@$ppppppppppppppppppppppppp",
"pppppppppppppppppppppppppp--o  op=o   oppppppppppppppppppppppppp",
"pppppppppppppppppppppppppp--o  op=o   oppppppppppppppppppppppppp",
"pppppppppppppppppppppppppp-i-  =p=o   oppppppppppppppppppppppppp",
"ppppppppppppppppppppppppppp:-  =p=o   pppppppppppppppppppppppppp",
"ppppppppppppppppppppppppppp:-  ppp=   pppppppppppppppppppppppppp",
"ppppppppppppppppppppppppppi;o  ppp=   ippppppppppppppppppppppppp",
"ppppppppppppppppppppppppp:i-o  =p=    ;;pppppppppppppppppppppppp",
"ppppppppppppppppppppppppp-;-o  =p=    oopppppppppppppppppppppppp",
"pppppppppppppppppppppppppp--o  op=    oppppppppppppppppppppppppp"
};
