/* XPM */
static char *result[] = {
/* columns rows colors chars-per-pixel */
"64 64 50 1 ",
"  c black",
". c #28200C",
"X c #382C14",
"o c #202020",
"O c #2C2C2C",
"+ c gray22",
"@ c #403018",
"# c #483818",
"$ c #543C1C",
"% c #5C4020",
"& c #6C4824",
"* c #744C28",
"= c #000040",
"- c #000064",
"; c #000070",
": c #00007C",
"> c #484848",
", c gray33",
"< c #646464",
"1 c gray44",
"2 c #7C7C7C",
"3 c #80502C",
"4 c #885830",
"5 c #905C34",
"6 c #9C6038",
"7 c #A0643C",
"8 c #A86840",
"9 c #B47044",
"0 c #BC7848",
"q c #C87C4C",
"w c #D08050",
"e c #DC8854",
"r c #E88C58",
"t c #F0945C",
"y c #FC9C60",
"u c #FCA470",
"i c #000088",
"p c #0000A4",
"a c #0000A8",
"s c #0000C8",
"d c #0000D4",
"f c #0004FC",
"g c #980088",
"h c gray55",
"j c gray66",
"k c #FCB080",
"l c #FCB890",
"z c #FCBC9C",
"x c #C0C0C0",
"c c #D0D0D0",
/* pixels */
"gggggggggggggggggggggggggggggggggggggggggggggggggggggggggggggggg",
"gggggggggggggggggggggggggggggggggggggggggggggggggggggggggggggggg",
"gggggggggggggggggggggggggggggggggggggggggggggggggggggggggggggggg",
"gggggggggggggggggggggggggggggggggggggggggggggggggggggggggggggggg",
"gggggggggggggggggggggggggggggggggggggggggggggggggggggggggggggggg",
"gggggggggggggggggggggggggggggggggggggggggggggggggggggggggggggggg",
"gggggggggggggggggggggggggggggggggggggggggggggggggggggggggggggggg",
"gggggggggggggggggggggggggggggggggggggggggggggggggggggggggggggggg",
"gggggggggggggggggggggggggggggggggggggggggggggggggggggggggggggggg",
"gggggggggggggggggggggggggggggggggggggggggggggggggggggggggggggggg",
"gggggggggggggggggggggggggggggggggggggggggggggggggggggggggggggggg",
"gggggggggggggggggggggggggggggggggggggggggggggggggggggggggggggggg",
"gggggggggggggggggggggggggggggggggggggggggggggggggggggggggggggggg",
"gggggggggggggggggggggggggggggggggggggggggggggggggggggggggggggggg",
"gggggggggggggggggggggggggggggggggggggggggggggggggggggggggggggggg",
"gggggggggggggggggggggggggggggggggggggggggggggggggggggggggggggggg",
"gggggggggggggggggggggggggggggggggggggggggggggggggggggggggggggggg",
"gggggggggggggggggggggggggggggggggggggggggggggggggggggggggggggggg",
"gggggggggggggggggggggggggggggjjh2,+ggggggggggggggggggggggggggggg",
"ggggggggggggggggggggggggggggjc<1,>+Ogggggggggggggggggggggggggggg",
"gggggggggggggggggggggggggggghh111>+Ogggggggggggggggggggggggggggg",
"ggggggggggggggggggggggggggg2hh111,>+Oggggggggggggggggggggggggggg",
"gggggggggggggggggggggggggg2xxcjjjh1,>+gggggggggggggggggggggggggg",
"gggggggggggggggggggggggggg2o>7f77f4 o+gggggggggggggggggggggggggg",
"gggggggggggggggggggggggggg>o6uzw7yy6oogggggggggggggggggggggggggg",
"gggggggggggggggggggggggggggg#yyttee#gggggggggggggggggggggggggggg",
"gggggggggggggggggggggggggggg#qe77q9#gggggggggggggggggggggggggggg",
"ggggggggggggggggggggggggggg  6ykke6  ggggggggggggggggggggggggggg",
"gggggggggggggggggggggggggg< ,, @9+O,< &ggggggggggggggggggggggggg",
"gggggggggggggggggggggggggg<+1xj   jjo505gggggggggggggggggggggggg",
"ggggggggggggggggggggggggg0r<$+o4.4 o90885ggggggggggggggggggggggg",
"gggggggggggggggggggggggg6rw+<>rr48ee08788ggggggggggggggggggggggg",
"gggggggggggggggggggggggg0eywwo>w9&86644#7*gggggggggggggggggggggg",
"ggggggggggggggggggggggggwyy0#OoO4&4*9w4#**gggggggggggggggggggggg",
"ggggggggggggggggggggggggwye8#6OO+@&%*6#.X%gggggggggggggggggggggg",
"ggggggggggggggggggggggggwry77%3*&O$&4#*.%%gggggggggggggggggggggg",
"ggggggggggggggggggggggggyy0yr9qy9$ o$&@%44gggggggggggggggggggggg",
"ggggggggggggggggggggggggryyyyykll6o  .@%88gggggggggggggggggggggg",
"ggggggggggggggggggggggggwwrty8uue8     Xw&gggggggggggggggggggggg",
"ggggggggggggggggggggggggg99999eue8     Xwggggggggggggggggggggggg",
"ggggggggggggggggggggggggggg663333$%##.X&gggggggggggggggggggggggg",
"gggggggggggggggggggggggggg964**3$78874$&gggggggggggggggggggggggg",
"gggggggggggggggggggggggggg9086*3$788w74@gggggggggggggggggggggggg",
"gggggggggggggggggggggggggg90964*588ww94@gggggggggggggggggggggggg",
"gggggggggggggggggggggggggg*0966$7&&&&&&@gggggggggggggggggggggggg",
"gggggggggggggggggggggggggg7*%%%#&5qqq5%@gggggggggggggggggggggggg",
"gggggggggggggggggggggggggg90664%4qeee55#gggggggggggggggggggggggg",
"gggggggggggggggggggggggggg89644%4qeeeq5#gggggggggggggggggggggggg",
"ggggggggggggggggggggggggggg3744%5qeeeq&ggggggggggggggggggggggggg",
"gggggggggggggggggggggggggg%7&33&%qwwww&ggggggggggggggggggggggggg",
"gggggggggggggggggggggggggg%&&&&$4www0w&ggggggggggggggggggggggggg",
"gggggggggggggggggggggggggg%@$$$#w7qq859#gggggggggggggggggggggggg",
"gggggggggggggggggggggggggggo@@@#$8qq83&#gggggggggggggggggggggggg",
"ggggggggggggggggggggggggggggooo@&89983@ggggggggggggggggggggggggg",
"gggggggggggggggggggggggggggg   o$&433&@ggggggggggggggggggggggggg",
"gggggggggggggggggggggggggggg-:== oooo gggggggggggggggggggggggggg",
"gggggggggggggggggggggggggggg-a== oa;o gggggggggggggggggggggggggg",
"ggggggggggggggggggggggggggggas=o aa;o gggggggggggggggggggggggggg",
"gggggggggggggggggggggggggggg-==og=i;o gggggggggggggggggggggggggg",
"ggggggggggggggggggggggggggggggggg a;o gggggggggggggggggggggggggg",
"ggggggggggggggggggggggggggggggggg-a; ggggggggggggggggggggggggggg",
"gggggggggggggggggggggggggggggggg=-ad; gggggggggggggggggggggggggg",
"ggggggggggggggggggggggggggggggg=-iipi gggggggggggggggggggggggggg",
"ggggggggggggggggggggggggggggggg=----= gggggggggggggggggggggggggg"
};
