/* XPM */
static char *result[] = {
/* columns rows colors chars-per-pixel */
"64 64 49 1 ",
"  c black",
". c #28200C",
"X c #382C14",
"o c #202020",
"O c #2C2C2C",
"+ c gray22",
"@ c #403018",
"# c #483818",
"$ c #543C1C",
"% c #5C4020",
"& c #6C4824",
"* c #744C28",
"= c #000040",
"- c #000058",
"; c #000064",
": c #000070",
"> c #00007C",
", c #484848",
"< c gray33",
"1 c #646464",
"2 c gray44",
"3 c #7C7C7C",
"4 c #80502C",
"5 c #885830",
"6 c #905C34",
"7 c #9C6038",
"8 c #A0643C",
"9 c #A86840",
"0 c #B47044",
"q c #BC7848",
"w c #C87C4C",
"e c #D08050",
"r c #DC8854",
"t c #E88C58",
"y c #F0945C",
"u c #FC9C60",
"i c #FCA470",
"p c #000088",
"a c #0000A8",
"s c #0000B0",
"d c #980088",
"f c gray55",
"g c #989898",
"h c gray66",
"j c #B4B4B4",
"k c #FCB080",
"l c #FCB890",
"z c #C0C0C0",
"x c #D0D0D0",
/* pixels */
"dddddddddddddddddddddddddddddddddddddddddddddddddddddddddddddddd",
"dddddddddddddddddddddddddddddddddddddddddddddddddddddddddddddddd",
"dddddddddddddddddddddddddddddddddddddddddddddddddddddddddddddddd",
"dddddddddddddddddddddddddddddddddddddddddddddddddddddddddddddddd",
"dddddddddddddddddddddddddddddddddddddddddddddddddddddddddddddddd",
"dddddddddddddddddddddddddddddddddddddddddddddddddddddddddddddddd",
"dddddddddddddddddddddddddddddddddddddddddddddddddddddddddddddddd",
"dddddddddddddddddddddddddddddddddddddddddddddddddddddddddddddddd",
"dddddddddddddddddddddddddddddddddddddddddddddddddddddddddddddddd",
"dddddddddddddddddddddddddddddddddddddddddddddddddddddddddddddddd",
"dddddddddddddddddddddddddddddddddddddddddddddddddddddddddddddddd",
"dddddddddddddddddddddddddddddddddddddddddddddddddddddddddddddddd",
"dddddddddddddddddddddddddddddddddddddddddddddddddddddddddddddddd",
"dddddddddddddddddddddddddddddddddddddddddddddddddddddddddddddddd",
"dddddddddddddddddddddddddddddddddddddddddddddddddddddddddddddddd",
"dddddddddddddddddddddddddddddddddddddddddddddddddddddddddddddddd",
"dddddddddddddddddddddddddddddddddddddddddddddddddddddddddddddddd",
"ddddddddddddddddddddddddddh3321<,ddddddddddddddddddddddddddddddd",
"dddddddddddddddddddddddddh311,,,O,dddddddddddddddddddddddddddddd",
"ddddddddddddddddddddddddd311<,,,+Odddddddddddddddddddddddddddddd",
"dddddddddddddddddddddddd2f21<,,oo+dddddddddddddddddddddddddddddd",
"dddddddddddddddddddddddgzzhhg32Oo+,ddddddddddddddddddddddddddddd",
"dddddddddddddddddddddddd+au9pa,2<<,ddddddddddddddddddddddddddddd",
"dddddddddddddddddddddddddwtukw7,,,,+dddddddddddddddddddddddddddd",
"ddddddddddddddddddddddddd8wuue7 #ddddddddddddddddddddddddddddddd",
"ddddddddddddddddddddddddd499wu7o#ddddddddddddddddddddddddddddddd",
"ddddddddddddddddddddddddd0wiy<o4#  ddddddddddddddddddddddddddddd",
"ddddddddddddddddddddddddddo kiw<3<  dddddddddddddddddddddddddddd",
"ddddddddddddddddddddddddd*o kw43x o**#dddddddddddddddddddddddddd",
"ddddddddddddddddddddddddd0O $ o .7yyqq4%dddddddddddddddddddddddd",
"dddddddddddddddddddddddd07+% rryyyyyqq85%ddddddddddddddddddddddd",
"ddddddddddddddddddddddd00y*O6rr664qq0q066$dddddddddddddddddddddd",
"ddddddddddddddddddddddd09yrO+rr9y0*%%55*6$dddddddddddddddddddddd",
"dddddddddddddddddddddd0&&yr*O+r880***%%5**$ddddddddddddddddddddd",
"dddddddddddddddddddddlt0&6r0&O+r@%q**d55**$ddddddddddddddddddddd",
"ddddddddddddddddddddluu5&*qq7&O+qq6**d55*%#ddddddddddddddddddddd",
"dddddddddddddddddddduutq##6q07&OO+*%%d554%#ddddddddddddddddddddd",
"dddddddddddddddddddddeq6#*o+jx<ooo  dd4&#%@ddddddddddddddddddddd",
"ddddddddddddddddddddddddddo+h1,ooo  dd8i8XXddddddddddddddddddddd",
"dddddddddddddddddddddddddd664q67*%%$$dlyw7dddddddddddddddddddddd",
"dddddddddddddddddddddddddd604qqqq66%$&www7dddddddddddddddddddddd",
"dddddddddddddddddddddddddd408rttqq66%&777ddddddddddddddddddddddd",
"dddddddddddddddddddddddddd408rttttqq6%&ddddddddddddddddddddddddd",
"dddddddddddddddddddddddddd44qqq97646%&dddddddddddddddddddddddddd",
"ddddddddddddddddddddddddddd@qttttt6@@#dddddddddddddddddddddddddd",
"ddddddddddddddddddddddddddd7tytttqq4XXdddddddddddddddddddddddddd",
"ddddddddddddddddddddddddddd0yiiuqq94X dddddddddddddddddddddddddd",
"dddddddddddddddddddddddddddeiiiutq4$Xddddddddddddddddddddddddddd",
"ddddddddddddddddddddddddddqyiiitie4$@ddddddddddddddddddddddddddd",
"ddddddddddddddddddddddddddeiiiii09$*%%dddddddddddddddddddddddddd",
"dddddddddddddddddddddddddqyiii0ye$6**@%ddddddddddddddddddddddddd",
"dddddddddddddddddddddddddqyiiii&&59q5*%%@ddddddddddddddddddddddd",
"dddddddddddddddddddddddddqyyt0ti559t85*@  dddddddddddddddddddddd",
"dddddddddddddddddddddddddqyytt*t&d5q88ooo  ddddddddddddddddddddd",
"ddddddddddddddddddddddddd4q7774&&ddd=::=o oddddddddddddddddddddd",
"dddddddddddddddddddddddddd=:;=  dddddd:-=o   ddddddddddddddddddd",
"dddddddddddddddddddddddddd=a;=  dddddddd==o  ddddddddddddddddddd",
"dddddddddddddddddddddddddd;p==  dddddddda=>  ddddddddddddddddddd",
"dddddddddddddddddddddddddd=ap=  dddddddd>>   ddddddddddddddddddd",
"dddddddddddddddddddddddddd=a==  dddddda>--  dddddddddddddddddddd",
"dddddddddddddddddddddddddda>=  ddddddd--==  dddddddddddddddddddd",
"dddddddddddddddddddddddd=as>=   dddddddddddddddddddddddddddddddd",
"dddddddddddddddddddddd=>>>>=    dddddddddddddddddddddddddddddddd",
"dddddddddddddddddddddd===== ++++dddddddddddddddddddddddddddddddd"
};
