/* XPM */
static char *result[] = {
/* columns rows colors chars-per-pixel */
"64 64 47 1 ",
"  c black",
". c #382C14",
"X c #202020",
"o c #2C2C2C",
"O c gray22",
"+ c #403018",
"@ c #483818",
"# c #543C1C",
"$ c #5C4020",
"% c #6C4824",
"& c #744C28",
"* c #000040",
"= c #00004C",
"- c #000064",
"; c #000070",
": c #00007C",
"> c #484848",
", c gray33",
"< c #646464",
"1 c gray44",
"2 c #7C7C7C",
"3 c #80502C",
"4 c #885830",
"5 c #905C34",
"6 c #9C6038",
"7 c #A0643C",
"8 c #A86840",
"9 c #B47044",
"0 c #BC7848",
"q c #C87C4C",
"w c #D08050",
"e c #DC8854",
"r c #E88C58",
"t c #F0945C",
"y c #FC9C60",
"u c #FCA470",
"i c #000098",
"p c #0000A4",
"a c #0000A8",
"s c #980088",
"d c gray55",
"f c gray66",
"g c #FCB080",
"h c #FCB890",
"j c #C0C0C0",
"k c #D0D0D0",
"l c gainsboro",
/* pixels */
"ssssssssssssssssssssssssssssssssssssssssssssssssssssssssssssssss",
"ssssssssssssssssssssssssssssssssssssssssssssssssssssssssssssssss",
"ssssssssssssssssssssssssssssssssssssssssssssssssssssssssssssssss",
"ssssssssssssssssssssssssssssssssssssssssssssssssssssssssssssssss",
"ssssssssssssssssssssssssssssssssssssssssssssssssssssssssssssssss",
"ssssssssssssssssssssssssssssssssssssssssssssssssssssssssssssssss",
"ssssssssssssssssssssssssssssssssssssssssssssssssssssssssssssssss",
"ssssssssssssssssssssssssssssssssssssssssssssssssssssssssssssssss",
"ssssssssssssssssssssssssssssssssssssssssssssssssssssssssssssssss",
"ssssssssssssssssssssssssssssssssssssssssssssssssssssssssssssssss",
"ssssssssssssssssssssssssssssssssssssssssssssssssssssssssssssssss",
"ssssssssssssssssssssssssssssssssssssssssssssssssssssssssssssssss",
"ssssssssssssssssssssssssssssssssssssssssssssssssssssssssssssssss",
"ssssssssssssssssssssssssssssssssssssssssssssssssssssssssssssssss",
"ssssssssssssssssssssssssssssssssssssssssssssssssssssssssssssssss",
"ssssssssssssssssssssssssssssssssssssssssssssssssssssssssssssssss",
"ssssssssssssssssssssssssssfff2211sssssssssssssssssssssssssssssss",
"sssssssssssssssssssssssssfkf11<,,,ssssssssssssssssssssssssssssss",
"sssssssssssssssssssssssssff2,,,>OO>sssssssssssssssssssssssssssss",
"sssssssssssssssssssssssssf2<fo,>>Oosssssssssssssssssssssssssssss",
"ssssssssssssssssssssssssllf> o,>>Oosssssssssssssssssssssssssssss",
"ssssssssssssssssssssssssss6fffdd2<>ossssssssssssssssssssssssssss",
"ssssssssssssssssssssssssssh6fffd22<>osssssssssssssssssssssssssss",
"sssssssssssssssssssssssssshhh     ssssssssssssssssssssssssssssss",
"sssssssssssssssssssssssssshhh 6%%%ssssssssssssssssssssssssssssss",
"ssssssssssssssssssssssssssuu g0863ssssssssssssssssssssssssssssss",
"ssssssssssssssssssssssssssssooo    sssssssssssssssssssssssssssss",
"sssssssssssssssssssssssssssdjoo    3ssssssssssssssssssssssssssss",
"ssssssssssssssssssssssssssyye9667&# %sssssssssssssssssssssssssss",
"sssssssssssssssssssssssssyyeewww97+ #sssssssssssssssssssssssssss",
"sssssssssssssssssssssssssyyeq99987+ #sssssssssssssssssssssssssss",
"ssssssssssssssssssssssssseye9&e88#  #sssssssssssssssssssssssssss",
"sssssssssssssssssssssssssryq93&77+ +#sssssssssssssssssssssssssss",
"sssssssssssssssssssssssss7eq97#7% ++#sssssssssssssssssssssssssss",
"sssssssssssssssssssssssss3r77#%%  +##sssssssssssssssssssssssssss",
"ssssssssssssssssssssssssss0803%  +##&sssssssssssssssssssssssssss",
"ssssssssssssssssssssssssss3t073 +###ssssssssssssssssssssssssssss",
"sssssssssssssssssssssssssst0073     ssssssssssssssssssssssssssss",
"sssssssssssssssssssssssssh73t73     ssssssssssssssssssssssssssss",
"sssssssssssssssssssssssssyet833$$$@$3sssssssssssssssssssssssssss",
"ssssssssssssssssssssssssss3t035&&&$&3sssssssssssssssssssssssssss",
"ssssssssssssssssssssssssssh777#&&&#&33ssssssssssssssssssssssssss",
"sssssssssssssssssssssssssygutq#&&&.&33ssssssssssssssssssssssssss",
"sssssssssssssssssssssssssy4uy4.&&&.$33ssssssssssssssssssssssssss",
"ssssssssssssssssssssssssyt0t03$+++++$&ssssssssssssssssssssssssss",
"ssssssssssssssssssssssssytt43$$#+++@$sssssssssssssssssssssssssss",
"sssssssssssssssssssssssqyytt03%#++#$$sssssssssssssssssssssssssss",
"sssssssssssssssssssssssyygr083%#$##@$$ssssssssssssssssssssssssss",
"ssssssssssssssssssssssqggy9q33##3%#@$$ssssssssssssssssssssssssss",
"ssssssssssssssssssssssqg8qq63%#43%##$$ssssssssssssssssssssssssss",
"ssssssssssssssssssssssyye866%#7755+++$ssssssssssssssssssssssssss",
"sssssssssssssssssssssqyyyq8%%s70835+++$sssssssssssssssssssssssss",
"sssssssssssssssssssssqtyq8%@@ss030+$%3%$ssssssssssssssssssssssss",
"sssssssssssssssssssss%q664&5ssss055%@@@$ssssssssssssssssssssssss",
"sssssssssssssssssssssaa@@@@sssss0%%@   =ssssssssssssssssssssssss",
"sssssssssssssssssssssaa=  Xssssss%@    =ssssssssssssssssssssssss",
"sssssssssssssssssssssaa=  ssssssss      =sssssssssssssssssssssss",
"sssssssssssssssssssssaai Xsssssssss=;   =sssssssssssssssssssssss",
"sssssssssssssssssssss:= X ssssssssss= =    sssssssssssssssssssss",
"ssssssssssssssssss;;a:=  ssssssssssss=;  XXsssssssssssssssssssss",
"sssssssssssssssss;pap==  sssssssssssss=  XXsssssssssssssssssssss",
"ssssssssssssssssss*-:==  sssssssssssa=  XXXsssssssssssssssssssss",
"ssssssssssssssssssss**XXXssssssssss=aa; XXssssssssssssssssssssss",
"ssssssssssssssssssssssssssssssssssss===XXXssssssssssssssssssssss"
};
