/* XPM */
static char *result[] = {
/* columns rows colors chars-per-pixel */
"64 64 45 1 ",
"  c black",
". c #28200C",
"X c #382C14",
"o c #202020",
"O c #2C2C2C",
"+ c gray22",
"@ c #403018",
"# c #483818",
"$ c #543C1C",
"% c #5C4020",
"& c #6C4824",
"* c #744C28",
"= c #000040",
"- c #00004C",
"; c #000064",
": c #000070",
"> c #484848",
", c gray33",
"< c #646464",
"1 c gray44",
"2 c #7C7C7C",
"3 c #80502C",
"4 c #885830",
"5 c #905C34",
"6 c #9C6038",
"7 c #A0643C",
"8 c #A86840",
"9 c #B47044",
"0 c #BC7848",
"q c #C87C4C",
"w c #D08050",
"e c #DC8854",
"r c #E88C58",
"t c #F0945C",
"y c #FC9C60",
"u c #FCA470",
"i c #000098",
"p c #980088",
"a c gray55",
"s c #989898",
"d c gray66",
"f c #B4B4B4",
"g c #FCB080",
"h c #C0C0C0",
"j c #D0D0D0",
/* pixels */
"pppppppppppppppppppppppppppppppppppppppppppppppppppppppppppppppp",
"pppppppppppppppppppppppppppppppppppppppppppppppppppppppppppppppp",
"pppppppppppppppppppppppppppppppppppppppppppppppppppppppppppppppp",
"pppppppppppppppppppppppppppppppppppppppppppppppppppppppppppppppp",
"pppppppppppppppppppppppppppppppppppppppppppppppppppppppppppppppp",
"pppppppppppppppppppppppppppppppppppppppppppppppppppppppppppppppp",
"pppppppppppppppppppppppppppppppppppppppppppppppppppppppppppppppp",
"pppppppppppppppppppppppppppppppppppppppppppppppppppppppppppppppp",
"pppppppppppppppppppppppppppppppppppppppppppppppppppppppppppppppp",
"pppppppppppppppppppppppppppppppppppppppppppppppppppppppppppppppp",
"pppppppppppppppppppppppppppppppppppppppppppppppppppppppppppppppp",
"pppppppppppppppppppppppppppppppppppppppppppppppppppppppppppppppp",
"pppppppppppppppppppppppppppppppppppppppppppppppppppppppppppppppp",
"pppppppppppppppppppppppppppppppppppppppppppppppppppppppppppppppp",
"pppppppppppppppppppppppppppppppppppppppppppppppppppppppppppppppp",
"pppppppppppppppppppppppppppppppppppppppppppppppppppppppppppppppp",
"ppppppppppppppppppppppppppppppfaa2,,pppppppppppppppppppppppppppp",
"pppppppppppppppppppppppppppppfjs<<,,+ppppppppppppppppppppppppppp",
"ppppppppppppppppppppppppppppaas1<,>+O+pppppppppppppppppppppppppp",
"ppppppppppppppppppppppppppppjd11,,>>+Opppppppppppppppppppppppppp",
"pppppppppppppppppppppppppppp>,11<,>>+Opppppppppppppppppppppppppp",
"pppppppppppppppppppppppppppaha1<,+++OO+ppppppppppppppppppppppppp",
"pppppppppppppppppppppppppppfss221<>++OOppppppppppppppppppppppppp",
"pppppppppppppppppppppppppppps2211<,>OOpppppppppppppppppppppppppp",
"ppppppppppppppppppppppppppppp404**##Xppppppppppppppppppppppppppp",
"ppppppppppppppppppppppppppppp>ggrr85 ppppppppppppppppppppppppppp",
"pppppppppppppppppppppppppppp>>+OOoo oppppppppppppppppppppppppppp",
"ppppppppppppppppppppppppp88rr9&$Ooo .opppppppppppppppppppppppppp",
"pppppppppppppppppppppppp8euuuuteetq9,,48pppppppppppppppppppppppp",
"pppppppppppppppppppppppp8uuttttewww,+*498ppppppppppppppppppppppp",
"ppppppppppppppppppppppp8q08wwrr800,+*49693pppppppppppppppppppppp",
"ppppppppppppppppppppppp8t739www56>++49r$88pppppppppppppppppppppp",
"ppppppppppppppppppppppp8t7*78993+o 400$&&83ppppppppppppppppppppp",
"ppppppppppppppppppppppp8t3$7773OO $705@5583ppppppppppppppppppppp",
"pppppppppppppppppppppppe8*$#7*+O $775#$&583ppppppppppppppppppppp",
"ppppppppppppppppppppppp84*$#++OX$*33&#&38wpppppppppppppppppppppp",
"ppppppppppppppppppppppp84#.++OX$*33X#.%588pppppppppppppppppppppp",
"ppppppppppppppppppppppp84#O<,,>>++Ooo %5wwpppppppppppppppppppppp",
"ppppppppppppppppppppppp&&#O<,,>>++Ooo %58wpppppppppppppppppppppp",
"pppppppppppppppppppppppp8&&9733&#%%%##%350pppppppppppppppppppppp",
"ppppppppppppppppppppppppw&39wwq08555*&%338pppppppppppppppppppppp",
"ppppppppppppppppppppppppp&8trrr0*7855*%338pppppppppppppppppppppp",
"ppppppppppppppppppppppppp&9tyyy87&8853#%8ppppppppppppppppppppppp",
"ppppppppppppppppppppppppp&9&&&&&##8853#3qppppppppppppppppppppppp",
"ppppppppppppppppppppppppp&$00044$.#####80ppppppppppppppppppppppp",
"ppppppppppppppppppppppppp7999974$3&&*5&0pppppppppppppppppppppppp",
"ppppppppppppppppppppppppp70wrr94$3&&356ppppppppppppppppppppppppp",
"ppppppppppppppppppppppppppqrrr95$3%%374ppppppppppppppppppppppppp",
"ppppppppppppppppppppppppppqrrrr5$%##%3&ppppppppppppppppppppppppp",
"pppppppppppppppppppppppppp7rq958.3***$6ppppppppppppppppppppppppp",
"ppppppppppppppppppppppppppruqq9&$&$#$74ppppppppppppppppppppppppp",
"ppppppppppppppppppppppppppuq95$#$3&%&3&ppppppppppppppppppppppppp",
"ppppppppppppppppppppppppppett99$.$$@@$pppppppppppppppppppppppppp",
"pppppppppppppppppppppppppp7e85*$$ oo opppppppppppppppppppppppppp",
"ppppppppppppppppppppppppppp74&$$.    ppppppppppppppppppppppppppp",
"ppppppppppppppppppppppppppp--o  o    ppppppppppppppppppppppppppp",
"ppppppppppppppppppppppppppp-io  o    ppppppppppppppppppppppppppp",
"ppppppppppppppppppppppppppp=i-  =   pppppppppppppppppppppppppppp",
"pppppppppppppppppppppppppppp:-  =   pppppppppppppppppppppppppppp",
"pppppppppppppppppppppppppppp=:   =  pppppppppppppppppppppppppppp",
"ppppppppppppppppppppppppppppi;o     pppppppppppppppppppppppppppp",
"ppppppppppppppppppppppppppp:i-o  =pppppppppppppppppppppppppppppp",
"ppppppppppppppppppppppppppp-;OOOOOpppppppppppppppppppppppppppppp",
"ppppppppppppppppppppppppppppoooooppppppppppppppppppppppppppppppp"
};
