/* XPM */
static char *result[] = {
/* columns rows colors chars-per-pixel */
"64 64 49 1 ",
"  c black",
". c #382C14",
"X c #202020",
"o c #2C2C2C",
"O c gray22",
"+ c #403018",
"@ c #483818",
"# c #543C1C",
"$ c #5C4020",
"% c #6C4824",
"& c #744C28",
"* c #000040",
"= c #00004C",
"- c #000058",
"; c #000064",
": c #000070",
"> c #484848",
", c gray33",
"< c #646464",
"1 c gray44",
"2 c #7C7C7C",
"3 c #80502C",
"4 c #885830",
"5 c #905C34",
"6 c #9C6038",
"7 c #A0643C",
"8 c #A86840",
"9 c #B47044",
"0 c #BC7848",
"q c #C87C4C",
"w c #D08050",
"e c #DC8854",
"r c #E88C58",
"t c #F0945C",
"y c #FC9C60",
"u c #FCA470",
"i c #000088",
"p c #000098",
"a c #0000A4",
"s c #0000A8",
"d c #0000C8",
"f c #980088",
"g c gray55",
"h c #989898",
"j c gray66",
"k c #B4B4B4",
"l c #FCB080",
"z c #FCB890",
"x c #D0D0D0",
/* pixels */
"ffffffffffffffffffffffffffffffffffffffffffffffffffffffffffffffff",
"ffffffffffffffffffffffffffffffffffffffffffffffffffffffffffffffff",
"ffffffffffffffffffffffffffffffffffffffffffffffffffffffffffffffff",
"ffffffffffffffffffffffffffffffffffffffffffffffffffffffffffffffff",
"ffffffffffffffffffffffffffffffffffffffffffffffffffffffffffffffff",
"ffffffffffffffffffffffffffffffffffffffffffffffffffffffffffffffff",
"ffffffffffffffffffffffffffffffffffffffffffffffffffffffffffffffff",
"ffffffffffffffffffffffffffffffffffffffffffffffffffffffffffffffff",
"ffffffffffffffffffffffffffffffffffffffffffffffffffffffffffffffff",
"ffffffffffffffffffffffffffffffffffffffffffffffffffffffffffffffff",
"ffffffffffffffffffffffffffffffffffffffffffffffffffffffffffffffff",
"ffffffffffffffffffffffffffffffffffffffffffffffffffffffffffffffff",
"ffffffffffffffffffffffffffffffffffffffffffffffffffffffffffffffff",
"ffffffffffffffffffffffffffffffffffffffffffffffffffffffffffffffff",
"ffffffffffffffffffffffffffffffffffffffffffffffffffffffffffffffff",
"ffffffffffffffffffffffffffffffffffffffffffffffffffffffffffffffff",
"fffffffffffffffffffffffffffhh21<,,ffffffffffffffffffffffffffffff",
"ffffffffffffffffffffffffffhx1<>>Oo,fffffffffffffffffffffffffffff",
"fffffffffffffffffffffffffh21<,>>Ooofffffffffffffffffffffffffffff",
"fffffffffffffffffffffffffh21,,>>Ooofffffffffffffffffffffffffffff",
"fffffffffffffffffffffffffh21,,>21>Ooofffffffffffffffffffffffffff",
"ffffffffffffffffffffffffhkjg212@s4ffffffffffffffffffffffffffffff",
"fffffffffffffffffffffffhkgg21,@6wwwfffffffffffffffffffffffffffff",
"ffffffffffffffffffffffffff3%# 6twwffffffffffffffffffffffffffffff",
"ffffffffffffffffffffffffffwwww tw5ffffffffffffffffffffffffffffff",
"ffffffffffffffffffffffffffzuue8 uwffffffffffffffffffffffffffffff",
"fffffffffffffffffffffffffOOoo484 fffffffffffffffffffffffffffffff",
"fffffffffffffffffffffffffOOooXX  fffffffffffffffffffffffffffffff",
"fffffffffffffffffffffffff.oooo 2>offffffffffffffffffffffffffffff",
"ffffffffffffffffffffffff.wyyyo5 2offffffffffffffffffffffffffffff",
"ffffffffffffffffffffffffwyuwwr5o  &fffffffffffffffffffffffffffff",
"ffffffffffffffffffffffffruw77q54  &fffffffffffffffffffffffffffff",
"fffffffffffffffffffffffrruw77364& +fffffffffffffffffffffffffffff",
"fffffffffffffffffffffffryw77%6643  &ffffffffffffffffffffffffffff",
"fffffffffffffffffffffffry097%6643+ &ffffffffffffffffffffffffffff",
"ffffffffffffffffffffff0llyr0%36$3# 3ffffffffffffffffffffffffffff",
"ffffffffffffffffffffffrry07#.3...#4&3fffffffffffffffffffffffffff",
"ffffffffffffffffffffffrlly76$   22453fffffffffffffffffffffffffff",
"fffffffffffffffffffffffry077$   ,,9&&3ffffffffffffffffffffffffff",
"fffffffffffffffffffffffer0973#&&&#.3#q6fffffffffffffffffffffffff",
"ffffffffffffffffffffffffer333#&&&&.933qfffffffffffffffffffffffff",
"ffffffffffffffffffffffff36qqw#&##&.f977fffffffffffffffffffffffff",
"ffffffffffffffffffffffff3urq3q#&...f44ffffffffffffffffffffffffff",
"ffffffffffffffffffffffffqzrr3###%%.fffffffffffffffffffffffffffff",
"ffffffffffffffffffffffff%tzrr#%5%#ffffffffffffffffffffffffffffff",
"fffffffffffffffffffffffff9y770555%#fffffffffffffffffffffffffffff",
"ffffffffffffffffffffffffq4eyye855%$#ffffffffffffffffffffffffffff",
"ffffffffffffffffffffffffq4etyye05&%#ffffffffffffffffffffffffffff",
"ffffffffffffffffffffffffq94eyyeq05&$#fffffffffffffffffffffffffff",
"fffffffffffffffffffffffqy994eyyee7&$#fffffffffffffffffffffffffff",
"ffffffffffffffffffffffqqyq45#yqq9e4%#fffffffffffffffffffffffffff",
"fffffffffffffffffffffqyyy3q&#.eyqe8&$#ffffffffffffffffffffffffff",
"ffffffffffffffffffff5qe6qq.#.fle83%%$#ffffffffffffffffffffffffff",
"ffffffffffffffffffff*55q3.&..f99y083&$#fffffffffffffffffffffffff",
"ffffffffffffffffffffii555&#.fff555&&$@#fffffffffffffffffffffffff",
"fffffffffffffffffff:dii  ..fffff:XXX  ffffffffffffffffffffffffff",
"ffffffffffffffffff:da;*  .ffffff:di*  ffffffffffffffffffffffffff",
"ffffffffffffffffff::a*   ffffffffddp* ffffffffffffffffffffffffff",
"ffffffffffffffff:dd-a*  fffffffff*pi*  fffffffffffffffffffffffff",
"fffffffffffffff:ddX*  ffffffffffff=*X Xfffffffffffffffffffffffff",
"fffffffffffffff::p*  fffffffffffffd:   fffffffffffffffffffffffff",
"ffffffffffffffff:i   ffffffffffff:dp     fffffffffffffffffffffff",
"ffffffffffffffff*:*    ffffffffff:di*      fffffffffffffffffffff",
"fffffffffffffffff****   fffffffff:::*      fffffffffffffffffffff"
};
