/* XPM */
static char *result[] = {
/* columns rows colors chars-per-pixel */
"64 64 48 1 ",
"  c black",
". c #382C14",
"X c #202020",
"o c #2C2C2C",
"O c gray22",
"+ c #483818",
"@ c #543C1C",
"# c #5C4020",
"$ c #6C4824",
"% c #744C28",
"& c #000040",
"* c #00004C",
"= c #000064",
"- c #000070",
"; c #00007C",
": c #484848",
"> c gray33",
", c #646464",
"< c gray44",
"1 c #7C7C7C",
"2 c #80502C",
"3 c #885830",
"4 c #905C34",
"5 c #9C6038",
"6 c #A0643C",
"7 c #A86840",
"8 c #B47044",
"9 c #BC7848",
"0 c #C87C4C",
"q c #D08050",
"w c #DC8854",
"e c #E88C58",
"r c #F0945C",
"t c #FC9C60",
"y c #FCA470",
"u c #0000A8",
"i c #0000BC",
"p c #980088",
"a c gray55",
"s c #989898",
"d c gray66",
"f c #B4B4B4",
"g c #FCB080",
"h c #FCB890",
"j c #C0C0C0",
"k c #D0D0D0",
"l c gainsboro",
"z c gray99",
/* pixels */
"pppppppppppppppppppppppppppppppppppppppppppppppppppppppppppppppp",
"pppppppppppppppppppppppppppppppppppppppppppppppppppppppppppppppp",
"pppppppppppppppppppppppppppppppppppppppppppppppppppppppppppppppp",
"pppppppppppppppppppppppppppppppppppppppppppppppppppppppppppppppp",
"pppppppppppppppppppppppppppppppppppppppppppppppppppppppppppppppp",
"pppppppppppppppppppppppppppppppppppppppppppppppppppppppppppppppp",
"pppppppppppppppppppppppppppppppppppppppppppppppppppppppppppppppp",
"pppppppppppppppppppppppppppppppppppppppppppppppppppppppppppppppp",
"pppppppppppppppppppppppppppppppppppppppppppppppppppppppppppppppp",
"pppppppppppppppppppppppppppppppppppppppppppppppppppppppppppppppp",
"pppppppppppppppppppppppppppppppppppppppppppppppppppppppppppppppp",
"pppppppppppppppppppppppppppppppppppppppppppppppppppppppppppppppp",
"pppppppppppppppppppppppppppppppppppppppppppppppppppppppppppppppp",
"pppppppppppppppppppppppppppppppppppppppppppppppppppppppppppppppp",
"pppppppppppppppppppppppppppppppppppppppppppppppppppppppppppppppp",
"pppppppppppppppppppppppppppppppppppppppppppppppppppppppppppppppp",
"pppppppppppppppppppppppppppppfsssaa<pppppppppppppppppppppppppppp",
"ppppppppppppppppppppppppppppdka,>>>:>ppppppppppppppppppppppppppp",
"ppppppppppppppppppppppppppppda,>>>>:O>pppppppppppppppppppppppppp",
"pppppppppppppppppppppppppppp11,>a >:OOpppppppppppppppppppppppppp",
"ppppppppppppppppppppppppppslljd1  >ooopppppppppppppppppppppppppp",
"ppppppppppppppppppppppppppppp5u+1<<>:ooppppppppppppppppppppppppp",
"pppppppppppppppppppppppppppphhr5+><,>:OOpppppppppppppppppppppppp",
"ppppppppppppppppppppppppppppphhr5 @+.ppppppppppppppppppppppppppp",
"pppppppppppppppppppppppppppppwhr 63+.ppppppppppppppppppppppppppp",
"pppppppppppppppppppppppppppppyy 963+.ppppppppppppppppppppppppppp",
"pppppppppppppppppppppppppppppp r%%    pppppppppppppppppppppppppp",
"pppppppppppppppppppppppppppppp        pppppppppppppppppppppppppp",
"pppppppppppppppppppppppppppppo,k %%%@.pppppppppppppppppppppppppp",
"pppppppppppppppppppppppppppppok,eeee5@.ppppppppppppppppppppppppp",
"ppppppppppppppppppppppppppppow eew8%@2.ppppppppppppppppppppppppp",
"ppppppppppppppppppppppppppppo9ee0w55@@.ppppppppppppppppppppppppp",
"ppppppppppppppppppppppppppppo$ew6w85%@.ppppppppppppppppppppppppp",
"pppppppppppppppppppppppppppp9o969w85%@.ppppppppppppppppppppppppp",
"pppppppppppppppppppppppppppppo$04wq85@pppppppppppppppppppppppppp",
"ppppppppppppppppppppppppppppp9oo%88q5#pppppppppppppppppppppppppp",
"ppppppppppppppppppppppppppppp4$o @%55#pppppppppppppppppppppppppp",
"ppppppppppppppppppppppppppppppz 8ww85@pppppppppppppppppppppppppp",
"ppppppppppppppppppppppppppppppd 8w85% pppppppppppppppppppppppppp",
"ppppppppppppppppppppppppppppp08e8w85.@.ppppppppppppppppppppppppp",
"ppppppppppppppppppppppppppppp88e8w5%.@.ppppppppppppppppppppppppp",
"pppppppppppppppppppppppppppp08gg5+++@@.ppppppppppppppppppppppppp",
"ppppppppppppppppppppppppppppt8gyy66@@@.ppppppppppppppppppppppppp",
"pppppppppppppppppppppppppppp084yy02@@@.ppppppppppppppppppppppppp",
"ppppppppppppppppppppppppppppwtwrr2    pppppppppppppppppppppppppp",
"ppppppppppppppppppppppppppppwtw96#..@@.ppppppppppppppppppppppppp",
"pppppppppppppppppppppppppppety8rw956%#.ppppppppppppppppppppppppp",
"pppppppppppppppppppppppppppeyywyywr9%#.ppppppppppppppppppppppppp",
"pppppppppppppppppppppppppppwyr9yy94#8#.ppppppppppppppppppppppppp",
"pppppppppppppppppppppppppp7yr47tty73@..ppppppppppppppppppppppppp",
"pppppppppppppppppppppppppp7ryye98ty6%#.ppppppppppppppppppppppppp",
"ppppppppppppppppppppppppppp99ee9r94%@..ppppppppppppppppppppppppp",
"pppppppppppppppppppppppppppp7333rrrw9%%.pppppppppppppppppppppppp",
"ppppppppppppppppppppppppppppp3$$Xwww5%%.=&pppppppppppppppppppppp",
"ppppppppppppppppppppppppppppppp  9955@@.&&&ppppppppppppppppppppp",
"ppppppppppppppppppppppppppppppppp--XXX    Xppppppppppppppppppppp",
"ppppppppppppppppppppppppppppppppp;u&&X   Xpppppppppppppppppppppp",
"ppppppppppppppppppppppppppppppppppu=&X   ppppppppppppppppppppppp",
"ppppppppppppppppppppppppppppppppppu=*   Xppppppppppppppppppppppp",
"pppppppppppppppppppppppppppppppppppuX *Xpppppppppppppppppppppppp",
"pppppppppppppppppppppppppppppppppp;==X ppppppppppppppppppppppppp",
"pppppppppppppppppppppppppppppppp;;i;=&X pppppppppppppppppppppppp",
"pppppppppppppppppppppppppppppp;;u;;===& pppppppppppppppppppppppp",
"ppppppppppppppppppppppppppppppXXXX      pppppppppppppppppppppppp"
};
