/* XPM */
static char *result[] = {
/* columns rows colors chars-per-pixel */
"64 64 39 1 ",
"  c black",
". c #202020",
"X c #2C2C2C",
"o c gray22",
"O c #403018",
"+ c #483818",
"@ c #543C1C",
"# c #5C4020",
"$ c #6C4824",
"% c #744C28",
"& c #000040",
"* c #000064",
"= c #484848",
"- c gray33",
"; c #646464",
": c gray44",
"> c #7C7C7C",
", c #80502C",
"< c #885830",
"1 c #905C34",
"2 c #9C6038",
"3 c #A0643C",
"4 c #A86840",
"5 c #B47044",
"6 c #BC7848",
"7 c #C87C4C",
"8 c #D08050",
"9 c #DC8854",
"0 c #E88C58",
"q c #F0945C",
"w c #FCA470",
"e c #0000A8",
"r c #0000FC",
"t c #980088",
"y c gray55",
"u c #989898",
"i c gray66",
"p c #B4B4B4",
"a c #C0C0C0",
/* pixels */
"tttttttttttttttttttttttttttttttttttttttttttttttttttttttttttttttt",
"tttttttttttttttttttttttttttttttttttttttttttttttttttttttttttttttt",
"tttttttttttttttttttttttttttttttttttttttttttttttttttttttttttttttt",
"tttttttttttttttttttttttttttttttttttttttttttttttttttttttttttttttt",
"tttttttttttttttttttttttttttttttttttttttttttttttttttttttttttttttt",
"tttttttttttttttttttttttttttttttttttttttttttttttttttttttttttttttt",
"tttttttttttttttttttttttttttttttttttttttttttttttttttttttttttttttt",
"tttttttttttttttttttttttttttttttttttttttttttttttttttttttttttttttt",
"tttttttttttttttttttttttttttttttttttttttttttttttttttttttttttttttt",
"tttttttttttttttttttttttttttttttttttttttttttttttttttttttttttttttt",
"tttttttttttttttttttttttttttttttttttttttttttttttttttttttttttttttt",
"tttttttttttttttttttttttttttttttttttttttttttttttttttttttttttttttt",
"tttttttttttttttttttttttttttttttttttttttttttttttttttttttttttttttt",
"tttttttttttttttttttttttttttttttttttttttttttttttttttttttttttttttt",
"tttttttttttttttttttttttttttttttttttttttttttttttttttttttttttttttt",
"tttttttttttttttttttttttttttttttttttttttttttttttttttttttttttttttt",
"ttttttttttttttttttttttttttttttttuyyy:--ttttttttttttttttttttttttt",
"tttttttttttttttttttttttttttttttupy:;===-tttttttttttttttttttttttt",
"ttttttttttttttttttttttttttttttuyy:-=ooo=tttttttttttttttttttttttt",
"ttttttttttttttttttttttttttttttu>::-=ooo=tttttttttttttttttttttttt",
"ttttttttttttttttttttttttttttttu:;--oXXXoottttttttttttttttttttttt",
"tttttttttttttttttttttttttttttaiy>;-=XXXttttttttttttttttttttttttt",
"ttttttttttttttttttttttttttttaiy>;-=XXX,ttttttttttttttttttttttttt",
"ttttttttttttttttttttttttttttttt###+O ,5ttttttttttttttttttttttttt",
"ttttttttttttttttttttttttttttttt2222, ,5ttttttttttttttttttttttttt",
"tttttttttttttttttttttttttttttttqqq86, ,ttttttttttttttttttttttttt",
"tttttttttttttttttttttttttttttt=oooX.. tttttttttttttttttttttttttt",
"tttttttttttttttttttttttttttttt=oooX..; ttttttttttttttttttttttttt",
"tttttttttttttttttttttttttttt6qqqq863XXX,tttttttttttttttttttttttt",
"ttttttttttttttttttttttttttt6qqwqwqXXXqq41ttttttttttttttttttttttt",
"tttttttttttttttttttttttttt6q8qq9qXXXq68811tttttttttttttttttttttt",
"tttttttttttttttttttttttttt62qqq9XX%q388411tttttttttttttttttttttt",
"ttttttttttttttttttttttttttq%7q7XX%qq%3841%tttttttttttttttttttttt",
"ttttttttttttttttttttttttttq2%7XX%77%%7741@tttttttttttttttttttttt",
"ttttttttttttttttttttttttttq2%%X@7773%791@@tttttttttttttttttttttt",
"ttttttttttttttttttttttttttq2%X%77777@797%@tttttttttttttttttttttt",
"tttttttttttttttttttttttttt52+X<777<7@74@1%tttttttttttttttttttttt",
"tttttttttttttttttttttttttt52+=oooX.  774@ttttttttttttttttttttttt",
"tttttttttttttttttttttttttt57+=oooX.  664%@tttttttttttttttttttttt",
"tttttttttttttttttttttttttt<5,33#3,,#+224%@tttttttttttttttttttttt",
"tttttttttttttttttttttttttttt33967961+$221@tttttttttttttttttttttt",
"tttttttttttttttttttttttttttt39q6q9661$221$tttttttttttttttttttttt",
"tttttttttttttttttttttttttttt39q3q9661@22%,tttttttttttttttttttttt",
"tttttttttttttttttttttttttttt39q,q9661%@@,7tttttttttttttttttttttt",
"ttttttttttttttttttttttttttttt1$+O####O@$q7tttttttttttttttttttttt",
"ttttttttttttttttttttttttttttt1,#54883#@$7<tttttttttttttttttttttt",
"ttttttttttttttttttttttttttttt1,58873%@Ottttttttttttttttttttttttt",
"tttttttttttttttttttttttttttttt158877<$O,tttttttttttttttttttttttt",
"tttttttttttttttttttttttttttttt1588777$O$tttttttttttttttttttttttt",
"tttttttttttttttttttttttttttttttt88703$O@tttttttttttttttttttttttt",
"ttttttttttttttttttttttttttttttt57q0772O@tttttttttttttttttttttttt",
"tttttttttttttttttttttttttttttttt22%OO%Ottttttttttttttttttttttttt",
"tttttttttttttttttttttttttttttte<00073$Ottttttttttttttttttttttttt",
"tttttttttttttttttttttttttttttee<1777$@Ottttttttttttttttttttttttt",
"tttttttttttttttttttttttttttee**<133%@@Ottttttttttttttttttttttttt",
"tttttttttttttttttttttttttt***e&**&.  ttttttttttttttttttttttttttt",
"tttttttttttttttttttttttttt..**&e*&.  ttttttttttttttttttttttttttt",
"ttttttttttttttttttttttttttt..& e*&.  ttttttttttttttttttttttttttt",
"ttttttttttttttttttttttttttt... **&.  ttttttttttttttttttttttttttt",
"tttttttttttttttttttttttttttt.. e*&. tttttttttttttttttttttttttttt",
"ttttttttttttttttttttttttttttt. e*&. tttttttttttttttttttttttttttt",
"ttttttttttttttttttttttttttttttr*&..  ttttttttttttttttttttttttttt",
"tttttttttttttttttttttttttttttte*&.     ttttttttttttttttttttttttt",
"tttttttttttttttttttttttttttttt**&.      tttttttttttttttttttttttt"
};
