/* XPM */
static char *result[] = {
/* columns rows colors chars-per-pixel */
"64 64 49 1 ",
"  c black",
". c #28200C",
"X c #382C14",
"o c #202020",
"O c #2C2C2C",
"+ c gray22",
"@ c #403018",
"# c #483818",
"$ c #543C1C",
"% c #5C4020",
"& c #6C4824",
"* c #744C28",
"= c #000040",
"- c #00004C",
"; c #000064",
": c #000070",
"> c #00007C",
", c #484848",
"< c gray33",
"1 c #646464",
"2 c gray44",
"3 c #7C7C7C",
"4 c #80502C",
"5 c #885830",
"6 c #905C34",
"7 c #9C6038",
"8 c #A0643C",
"9 c #A86840",
"0 c #B47044",
"q c #BC7848",
"w c #C87C4C",
"e c #D08050",
"r c #DC8854",
"t c #E88C58",
"y c #F0945C",
"u c #FC9C60",
"i c #FCA470",
"p c #000088",
"a c #000098",
"s c #0000A8",
"d c #0000B0",
"f c #0000BC",
"g c #980088",
"h c gray55",
"j c gray66",
"k c #FCB080",
"l c #FCB890",
"z c #C0C0C0",
"x c gray99",
/* pixels */
"gggggggggggggggggggggggggggggggggggggggggggggggggggggggggggggggg",
"gggggggggggggggggggggggggggggggggggggggggggggggggggggggggggggggg",
"gggggggggggggggggggggggggggggggggggggggggggggggggggggggggggggggg",
"gggggggggggggggggggggggggggggggggggggggggggggggggggggggggggggggg",
"gggggggggggggggggggggggggggggggggggggggggggggggggggggggggggggggg",
"gggggggggggggggggggggggggggggggggggggggggggggggggggggggggggggggg",
"gggggggggggggggggggggggggggggggggggggggggggggggggggggggggggggggg",
"gggggggggggggggggggggggggggggggggggggggggggggggggggggggggggggggg",
"gggggggggggggggggggggggggggggggggggggggggggggggggggggggggggggggg",
"gggggggggggggggggggggggggggggggggggggggggggggggggggggggggggggggg",
"gggggggggggggggggggggggggggggggggggggggggggggggggggggggggggggggg",
"gggggggggggggggggggggggggggggggggggggggggggggggggggggggggggggggg",
"gggggggggggggggggggggggggggggggggggggggggggggggggggggggggggggggg",
"gggggggggggggggggggggggggggggggggggggggggggggggggggggggggggggggg",
"gggggggggggggggggggggggggggggggggggggggggggggggggggggggggggggggg",
"gggggggggggggggggggggggggggggggggggggggggggggggggggggggggggggggg",
"gggggggggggggggggggggggggggggggggggggggggggggggggggggggggggggggg",
"gggggggggggggggggggggggggggggggggggggggggggggggggggggggggggggggg",
"ggggggggggggggggggggggggggj3321<,ggggggggggggggggggggggggggggggg",
"gggggggggggggggggggggggggjh<,,+OO,gggggggggggggggggggggggggggggg",
"ggggggggggggggggggggggggg31<,,,+OOgggggggggggggggggggggggggggggg",
"gggggggggggggggggggggggg231,,3o+OOgggggggggggggggggggggggggggggg",
"gggggggggggggggggggggggzzjj32OO+OO,ggggggggggggggggggggggggggggg",
"gggggggggggggggggggggggg+48s,22<,OOggggggggggggggggggggggggggggg",
"gggggggggggggggggggggggg+wlk7,++++++gggggggggggggggggggggggggggg",
"ggggggggggggggggggggggggg8uue ###ggggggggggggggggggggggggggggggg",
"ggggggggggggggggggggggggg49yuo44#ggggggggggggggggggggggggggggggg",
"ggggggggggggggggggggggggg8iy<o48# gggggggggggggggggggggggggggggg",
"gggggggggggggggggggggggggg wkiw<O  ggggggggggggggggggggggggggggg",
"ggggggggggggggggggggggggggo kw x %**gggggggggggggggggggggggggggg",
"ggggggggggggggggggggggggg0O w 2 8yyq5ggggggggggggggggggggggggggg",
"ggggggggggggggggggggggggg#O*$r.*yy088ggggggggggggggggggggggggggg",
"gggggggggggggggggggggggggyO*qq77yqq885gggggggggggggggggggggggggg",
"gggggggggggggggggggggggggyO*qyy7rqq88*gggggggggggggggggggggggggg",
"gggggggggggggggggggggggggg#Oqeer40q88*%ggggggggggggggggggggggggg",
"gggggggggggggggggggggggggg6Orq7r*rrq8*%ggggggggggggggggggggggggg",
"ggggggggggggggggggggggggggg 5rr0*X88q*%ggggggggggggggggggggggggg",
"gggggggggggggggggggggggggggoo***8t0&6%gggggggggggggggggggggggggg",
"ggggggggggggggggggggggggggil@8rrrwt8q%gggggggggggggggggggggggggg",
"ggggggggggggggggggggggggguee000000004#gggggggggggggggggggggggggg",
"ggggggggggggggggggggggggguee69988864&%$ggggggggggggggggggggggggg",
"ggggggggggggggggggggggggg0996&&&&&&&&X$ggggggggggggggggggggggggg",
"gggggggggggggggggggggggggggr*rreq75*$$Xggggggggggggggggggggggggg",
"ggggggggggggggggggggggggggg5555666*&$$@ggggggggggggggggggggggggg",
"ggggggggggggggggggggggggggg8rw04$$&66&@ggggggggggggggggggggggggg",
"gggggggggggggggggggggggggg7riiw4700664&@gggggggggggggggggggggggg",
"ggggggggggggggggggggggggggqiiit7www064&@gggggggggggggggggggggggg",
"ggggggggggggggggggggggggggqiiyt79ww0664@gggggggggggggggggggggggg",
"ggggggggggggggggggggggggg7yiitw05ww0964%gggggggggggggggggggggggg",
"gggggggggggggggggggggggggyiiirw8560094&@@ggggggggggggggggggggggg",
"gggggggggggggggggggggggggyiiuu05&g999664@%@ggggggggggggggggggggg",
"gggggggggggggggggggggggg7yiirru@gg69944$&&$ggggggggggggggggggggg",
"ggggggggggggggggggggggggqyterre4ggg6***&&%@ gggggggggggggggggggg",
"ggggggggggggggggggggggggqytt*04&gggg&&&&%@  gggggggggggggggggggg",
"gggggggggggggggggggggggggqq77&&#ggggg%%@@o   ggggggggggggggggggg",
"gggggggggggggggggggggggg==:;=  ggggggg-->--    ggggggggggggggggg",
"gggggggggggggggggggggggg=sp;=  gggggggggp=--   ggggggggggggggggg",
"gggggggggggggggggggggggg=fp== ggggggggggg===-  ggggggggggggggggg",
"gggggggggggggggggggggggg=fp=  gggggggggggg=>-  ggggggggggggggggg",
"gggggggggggggggggggggggg=s== ggggggggggggg a:o ggggggggggggggggg",
"ggggggggggggggggggggggggf>=  gggggggggggg;;ooo ggggggggggggggggg",
"gggggggggggggggggggggg=sd>=   gggggggggggoooo gggggggggggggggggg",
"gggggggggggggggggggg=>>>>=    gggggggggggggggggggggggggggggggggg",
"gggggggggggggggggggg===== ++++gggggggggggggggggggggggggggggggggg"
};
