/* XPM */
static char *result[] = {
/* columns rows colors chars-per-pixel */
"64 64 48 1 ",
"  c black",
". c #28200C",
"X c #382C14",
"o c #202020",
"O c #2C2C2C",
"+ c gray22",
"@ c #403018",
"# c #483818",
"$ c #543C1C",
"% c #5C4020",
"& c #6C4824",
"* c #744C28",
"= c #000040",
"- c #00004C",
"; c #000064",
": c #000070",
"> c #00007C",
", c #484848",
"< c gray33",
"1 c #646464",
"2 c gray44",
"3 c #7C7C7C",
"4 c #80502C",
"5 c #885830",
"6 c #905C34",
"7 c #9C6038",
"8 c #A0643C",
"9 c #A86840",
"0 c #B47044",
"q c #BC7848",
"w c #C87C4C",
"e c #D08050",
"r c #DC8854",
"t c #E88C58",
"y c #F0945C",
"u c #FC9C60",
"i c #FCA470",
"p c #000098",
"a c #0000A4",
"s c #0000A8",
"d c #980088",
"f c gray55",
"g c #989898",
"h c gray66",
"j c #FCB080",
"k c #FCB890",
"l c #C0C0C0",
"z c gainsboro",
/* pixels */
"dddddddddddddddddddddddddddddddddddddddddddddddddddddddddddddddd",
"dddddddddddddddddddddddddddddddddddddddddddddddddddddddddddddddd",
"dddddddddddddddddddddddddddddddddddddddddddddddddddddddddddddddd",
"dddddddddddddddddddddddddddddddddddddddddddddddddddddddddddddddd",
"dddddddddddddddddddddddddddddddddddddddddddddddddddddddddddddddd",
"dddddddddddddddddddddddddddddddddddddddddddddddddddddddddddddddd",
"dddddddddddddddddddddddddddddddddddddddddddddddddddddddddddddddd",
"dddddddddddddddddddddddddddddddddddddddddddddddddddddddddddddddd",
"dddddddddddddddddddddddddddddddddddddddddddddddddddddddddddddddd",
"dddddddddddddddddddddddddddddddddddddddddddddddddddddddddddddddd",
"dddddddddddddddddddddddddddddddddddddddddddddddddddddddddddddddd",
"dddddddddddddddddddddddddddddddddddddddddddddddddddddddddddddddd",
"dddddddddddddddddddddddddddddddddddddddddddddddddddddddddddddddd",
"dddddddddddddddddddddddddddddddddddddddddddddddddddddddddddddddd",
"dddddddddddddddddddddddddddddddddddddddddddddddddddddddddddddddd",
"dddddddddddddddddddddddddddddddddddddddddddddddddddddddddddddddd",
"ddddddddddddddddddddddddddhhh3322ddddddddddddddddddddddddddddddd",
"dddddddddddddddddddddddddhl3221<<<dddddddddddddddddddddddddddddd",
"dddddddddddddddddddddddddh3<<<,,++,ddddddddddddddddddddddddddddd",
"ddddddddddddddddddddddddd33h <,,++Oddddddddddddddddddddddddddddd",
"ddddddddddddddddddddddddzlh  <,+++Oddddddddddddddddddddddddddddd",
"ddddddddddddddddddddddddddfhhgf31,+Odddddddddddddddddddddddddddd",
"dddddddddddddddddddddddddd7hhgf331,+Oddddddddddddddddddddddddddd",
"ddddddddddddddddddddddddddkk      dddddddddddddddddddddddddddddd",
"ddddddddddddddddddddddddddkk 7***&dddddddddddddddddddddddddddddd",
"ddddddddddddddddddddddddddi jyq95&dddddddddddddddddddddddddddddd",
"ddddddddddddddddddddddddddddOOO    ddddddddddddddddddddddddddddd",
"dddddddddddddddddddddddddddzOOO    #dddddddddddddddddddddddddddd",
"ddddddddddddddddddddddddduurr077$$ O ddddddddddddddddddddddddddd",
"dddddddddddddddddddddddduuqeeee0**  $7dddddddddddddddddddddddddd",
"ddddddddddddddddddddddduur*88888*@  $*dddddddddddddddddddddddddd",
"dddddddddddddddddddddddur9$*8888*. $$#dddddddddddddddddddddddddd",
"dddddddddddddddddddddddurr5$*666@ @@$#dddddddddddddddddddddddddd",
"dddddddddddddddddddddddurr5$*66o O$$.$#ddddddddddddddddddddddddd",
"dddddddddddddddddddddddrrr$$**o O*$$.##ddddddddddddddddddddddddd",
"ddddddddddddddddddddddrrr$5$*o O*$$$.##ddddddddddddddddddddddddd",
"ddddddddddddddddddddddrr99*$  O**$$.$##ddddddddddddddddddddddddd",
"ddddddddddddddddddddddrr6**         $##ddddddddddddddddddddddddd",
"dddddddddddddddddddddrrr6*$o        %%#ddddddddddddddddddddddddd",
"ddddddddddddddddddddd4r6*d08%%%%%X%%&&dddddddddddddddddddddddddd",
"ddddddddddddddddddddk86$*w066*****$%&&dddddddddddddddddddddddddd",
"ddddddddddddddddddddyyq$dw066*****$%dddddddddddddddddddddddddddd",
"ddddddddddddddddddddy44ddw066*****X%dddddddddddddddddddddddddddd",
"dddddddddddddddddddddwddd006&$$XXXX%dddddddddddddddddddddddddddd",
"ddddddddddddddddddddddddddu***&&%XXddddddddddddddddddddddddddddd",
"dddddddddddddddddddddddddque77554%#ddddddddddddddddddddddddddddd",
"dddddddddddddddddddddddddque07554%#ddddddddddddddddddddddddddddd",
"dddddddddddddddddddddddddtuy085544%#dddddddddddddddddddddddddddd",
"ddddddddddddddddddddddddttuyw05544%#dddddddddddddddddddddddddddd",
"ddddddddddddddddddddddddteeur08&%%%#dddddddddddddddddddddddddddd",
"ddddddddddddddddddddddddteeiuuw954@##ddddddddddddddddddddddddddd",
"ddddddddddddddddddddddddwew0iw98%@@##ddddddddddddddddddddddddddd",
"dddddddddddddddddddddddd:w4**w869944#ddddddddddddddddddddddddddd",
"dddddddddddddddddddddddd:s-   q94&####dddddddddddddddddddddddddd",
"ddddddddddddddddddddddddos-   d94#   -dddddddddddddddddddddddddd",
"ddddddddddddddddddddddddss-  dd&#    -dddddddddddddddddddddddddd",
"ddddddddddddddddddddddddosp oddd      -ddddddddddddddddddddddddd",
"dddddddddddddddddddddddd>- o dddd-:   -ddddddddddddddddddddddddd",
"ddddddddddddddddddddd::s>-  dddddd- -    ddddddddddddddddddddddd",
"dddddddddddddddddddd:asa--  ddddddd-:  ooddddddddddddddddddddddd",
"ddddddddddddddddddddd=;>--  dddddddd-  ooddddddddddddddddddddddd",
"ddddddddddddddddddddddd==ooodddddds-  oooddddddddddddddddddddddd",
"ddddddddddddddddddddddddddddddddd-ss: oodddddddddddddddddddddddd",
"dddddddddddddddddddddddddddddddddd---ooodddddddddddddddddddddddd"
};
