/* XPM */
static char *result[] = {
/* columns rows colors chars-per-pixel */
"64 64 42 1 ",
"  c black",
". c #202020",
"X c #2C2C2C",
"o c gray22",
"O c #403018",
"+ c #483818",
"@ c #543C1C",
"# c #5C4020",
"$ c #6C4824",
"% c #744C28",
"& c #000040",
"* c #00004C",
"= c #000064",
"- c #000070",
"; c #00007C",
": c #484848",
"> c gray33",
", c #646464",
"< c gray44",
"1 c #7C7C7C",
"2 c #80502C",
"3 c #885830",
"4 c #905C34",
"5 c #9C6038",
"6 c #A0643C",
"7 c #A86840",
"8 c #B47044",
"9 c #BC7848",
"0 c #C87C4C",
"q c #D08050",
"w c #DC8854",
"e c #E88C58",
"r c #F0945C",
"t c #FC9C60",
"y c #FCA470",
"u c #000088",
"i c #0000A8",
"p c #980088",
"a c gray55",
"s c #989898",
"d c gray66",
"f c #C0C0C0",
/* pixels */
"pppppppppppppppppppppppppppppppppppppppppppppppppppppppppppppppp",
"pppppppppppppppppppppppppppppppppppppppppppppppppppppppppppppppp",
"pppppppppppppppppppppppppppppppppppppppppppppppppppppppppppppppp",
"pppppppppppppppppppppppppppppppppppppppppppppppppppppppppppppppp",
"pppppppppppppppppppppppppppppppppppppppppppppppppppppppppppppppp",
"pppppppppppppppppppppppppppppppppppppppppppppppppppppppppppppppp",
"pppppppppppppppppppppppppppppppppppppppppppppppppppppppppppppppp",
"pppppppppppppppppppppppppppppppppppppppppppppppppppppppppppppppp",
"pppppppppppppppppppppppppppppppppppppppppppppppppppppppppppppppp",
"pppppppppppppppppppppppppppppppppppppppppppppppppppppppppppppppp",
"pppppppppppppppppppppppppppppppppppppppppppppppppppppppppppppppp",
"pppppppppppppppppppppppppppppppppppppppppppppppppppppppppppppppp",
"pppppppppppppppppppppppppppppppppppppppppppppppppppppppppppppppp",
"pppppppppppppppppppppppppppppppppppppppppppppppppppppppppppppppp",
"pppppppppppppppppppppppppppppppppppppppppppppppppppppppppppppppp",
"pppppppppppppppppppppppppppppppppppppppppppppppppppppppppppppppp",
"ppppppppppppppppppppppppppppppppddaa<>>ppppppppppppppppppppppppp",
"pppppppppppppppppppppppppppppppdsa<,:::>pppppppppppppppppppppppp",
"ppppppppppppppppppppppppppppppdaa<>:ooo:pppppppppppppppppppppppp",
"ppppppppppppppppppppppppppppppd1<<>ooXo:pppppppppppppppppppppppp",
"pppppppppppppppppppppppppppppps<>>ooXXXooppppppppppppppppppppppp",
"pppppppppppppppppppppppppppppfa1,>:oXXX%pppppppppppppppppppppppp",
"ppppppppppppppppppppppppppppfa1,>:oXXX2%pppppppppppppppppppppppp",
"ppppppppppppppppppppppppppppppp###+O 284pppppppppppppppppppppppp",
"ppppppppppppppppppppppppppppppp55552 284pppppppppppppppppppppppp",
"ppppppppppppppppppppppppppppppprrrq92 2ppppppppppppppppppppppppp",
"pppppppppppppppppppppppppppppp:oooX.. pppppppppppppppppppppppppp",
"pppppppppppppppppppppppppppppp:oooX.., ppppppppppppppppppppppppp",
"pppppppppppppppppppppppppppp90rrrq96XXX2pppppppppppppppppppppppp",
"ppppppppppppppppppppppppppp9rryryrXXX0874ppppppppppppppppppppppp",
"pppppppppppppppppppppppppp9rqrrwrXXX09q844pppppppppppppppppppppp",
"pppppppppppppppppppppppppp95rrrwXX%86qq744pppppppppppppppppppppp",
"ppppppppppppppppppppppppprr%0r0XX%88%6q74%pppppppppppppppppppppp",
"ppppppppppppppppppppppppprr5%0XX%08%6%0874@ppppppppppppppppppppp",
"pppppppppppppppppppppppptr85%%X@00866%0w4@@ppppppppppppppppppppp",
"ppppppppppppppppppppppppyy82%X 000886@088%@ppppppppppppppppppppp",
"pppppppppppppppppppppppprrq2+X3000386%@87@4%pppppppppppppppppppp",
"pppppppppppppppppppppppprr22+:oooX.    8873@pppppppppppppppppppp",
"pppppppppppppppppppppppp0r82+:oooX.    387%@@ppppppppppppppppppp",
"pppppppppppppppppppppppp007$266#622#@@+@33%%@ppppppppppppppppppp",
"ppppppppppppppppppppppppp07$69w90w974%%@%%%%8ppppppppppppppppppp",
"ppppppppppppppppppppppppp07$94tttw977%%p@%%%8ppppppppppppppppppp",
"pppppppppppppppppppppppppp7494tttw9975%pp@@88ppppppppppppppppppp",
"pppppppppppppppppppppppppppp9422@26775%ppppppppppppppppppppppppp",
"pppppppppppppppppppppppppppp5%55562%#OOppppppppppppppppppppppppp",
"pppppppppppppppppppppppppppppp0tt006O++ppppppppppppppppppppppppp",
"ppppppppppppppppppppppppppppppttt006++#ppppppppppppppppppppppppp",
"pppppppppppppppppppppppppppppqttt053++++pppppppppppppppppppppppp",
"ppppppppppppppppppppppppppppp0tte06$++4+pppppppppppppppppppppppp",
"ppppppppppppppppppppppppppppp0qq532#++#+pppppppppppppppppppppppp",
"pppppppppppppppppppppppppppp0tttq$$#+#32+ppppppppppppppppppppppp",
"pppppppppppppppppppppppppppp0qq564$++52#+ppppppppppppppppppppppp",
"ppppppppppppppppppppppppppp0tttq+##+++$+ ppppppppppppppppppppppp",
"ppppppppppppppppppppppppppp000739+++     ppppppppppppppppppppppp",
"ppppppppppppppppppppppppppp*i-*++++&=    ppppppppppppppppppppppp",
"pppppppppppppppppppppppppppui-* #+p&=&   ppppppppppppppppppppppp",
"pppppppppppppppppppppppppp*i***  +ppu&   ppppppppppppppppppppppp",
"ppppppppppppppppppppppppppuiu*  pppp&=   ppppppppppppppppppppppp",
"ppppppppppppppppppppppppiii;*- pppppp=&  && pppppppppppppppppppp",
"pppppppppppppppppppppppp..&i& ppppppp=;      ppppppppppppppppppp",
"pppppppppppppppppppppppp.. &&pppppppp=;     pppppppppppppppppppp",
"pppppppppppppppppppppppp...  &&pppppp&&&  pppppppppppppppppppppp",
"pppppppppppppppppppppppp...     pppppppppppppppppppppppppppppppp",
"ppppppppppppppppppppppppp...   ppppppppppppppppppppppppppppppppp"
};
