/* XPM */
static char *result[] = {
/* columns rows colors chars-per-pixel */
"64 64 44 1 ",
"  c black",
". c #28200C",
"X c #382C14",
"o c #202020",
"O c #2C2C2C",
"+ c gray22",
"@ c #403018",
"# c #483818",
"$ c #543C1C",
"% c #5C4020",
"& c #6C4824",
"* c #744C28",
"= c #000040",
"- c #000064",
"; c #00007C",
": c #484848",
"> c gray33",
", c #646464",
"< c gray44",
"1 c #7C7C7C",
"2 c #80502C",
"3 c #885830",
"4 c #905C34",
"5 c #9C6038",
"6 c #A0643C",
"7 c #A86840",
"8 c #B47044",
"9 c #BC7848",
"0 c #C87C4C",
"q c #D08050",
"w c #DC8854",
"e c #E88C58",
"r c #F0945C",
"t c #FC9C60",
"y c #FCA470",
"u c #000088",
"i c #000098",
"p c #0000A8",
"a c #0000B0",
"s c #980088",
"d c gray55",
"f c #989898",
"g c gray66",
"h c #C0C0C0",
/* pixels */
"ssssssssssssssssssssssssssssssssssssssssssssssssssssssssssssssss",
"ssssssssssssssssssssssssssssssssssssssssssssssssssssssssssssssss",
"ssssssssssssssssssssssssssssssssssssssssssssssssssssssssssssssss",
"ssssssssssssssssssssssssssssssssssssssssssssssssssssssssssssssss",
"ssssssssssssssssssssssssssssssssssssssssssssssssssssssssssssssss",
"ssssssssssssssssssssssssssssssssssssssssssssssssssssssssssssssss",
"ssssssssssssssssssssssssssssssssssssssssssssssssssssssssssssssss",
"ssssssssssssssssssssssssssssssssssssssssssssssssssssssssssssssss",
"ssssssssssssssssssssssssssssssssssssssssssssssssssssssssssssssss",
"ssssssssssssssssssssssssssssssssssssssssssssssssssssssssssssssss",
"ssssssssssssssssssssssssssssssssssssssssssssssssssssssssssssssss",
"ssssssssssssssssssssssssssssssssssssssssssssssssssssssssssssssss",
"ssssssssssssssssssssssssssssssssssssssssssssssssssssssssssssssss",
"ssssssssssssssssssssssssssssssssssssssssssssssssssssssssssssssss",
"ssssssssssssssssssssssssssssssssssssssssssssssssssssssssssssssss",
"ssssssssssssssssssssssssssssssssssssssssssssssssssssssssssssssss",
"ssssssssssssssssssssssssssssssssssssssssssssssssssssssssssssssss",
"ssssssssssssssssssssssssssssssssssssssssssssssssssssssssssssssss",
"sssssssssssssssssssssssssssssssssdhf11,>ssssssssssssssssssssssss",
"ssssssssssssssssssssssssssssssssdhd,>:+O+sssssssssssssssssssssss",
"ssssssssssssssssssssssssssssssssgd,>::+OOsssssssssssssssssssssss",
"ssssssssssssssssssssssssssssssssf1>>::+OO+ssssssssssssssssssssss",
"ssssssssssssssssssssssssssssssssd<:d1,>::OOsssssssssssssssssssss",
"sssssssssssssssssssssssssssssssggfd:pu62iossssssssssssssssssssss",
"ssssssssssssssssssssssssssssssggf1:&qqr6+ossssssssssssssssssssss",
"sssssssssssssssssssssssssssssssss# 0yq822sssssssssssssssssssssss",
"sssssssssssssssssssssssssssssssss7o4q*3%ssssssssssssssssssssssss",
"ssssssssssssssssssssssssssssssss rto>q86ssssssssssssssssssssssss",
"sssssssssssssssssssssssssssssss  oo002@ ssssssssssssssssssssssss",
"ssssssssssssssssssssssssssssss>> >g 42$o*sssssssssssssssssssssss",
"ssssssssssssssssssssssssssssssw3>. > $ O&*ssssssssssssssssssssss",
"ssssssssssssssssssssssssssssswttr0*O o333&ssssssssssssssssssssss",
"ssssssssssssssssssssssssssssswtw9r0*  &33&ssssssssssssssssssssss",
"ssssssssssssssssssssssssssssstww9*73%  &3#ssssssssssssssssssssss",
"ssssssssssssssssssssssssssssstwww9*77%  &#ssssssssssssssssssssss",
"sssssssssssssssssssssssssssss6www99***@ #sssssssssssssssssssssss",
"sssssssssssssssssssssssssssss6wwww4***5r5sssssssssssssssssssssss",
"sssssssssssssssssssssssssssss96ww498859952ssssssssssssssssssssss",
"sssssssssssssssssssssssssssssOO0www985995&ssssssssssssssssssssss",
"sssssssssssssssssssssssssssssOO3ee8855@5*sssssssssssssssssssssss",
"ssssssssssssssssssssssssssss99%%0884**##ssssssssssssssssssssssss",
"sssssssssssssssssssssssssss9e0664%%%%%%#ssssssssssssssssssssssss",
"sssssssssssssssssssssssssss4e0553%%%#%%#ssssssssssssssssssssssss",
"sssssssssssssssssssssssssssw4e553&&%X...ssssssssssssssssssssssss",
"sssssssssssssssssssssssssss0044%%@@@#%%%ssssssssssssssssssssssss",
"ssssssssssssssssssssssssssw09952&&%#%%%%ssssssssssssssssssssssss",
"ssssssssssssssssssssssssssw09552&&##%%%%%sssssssssssssssssssssss",
"sssssssssssssssssssssssssse96632&%#&%%%%%sssssssssssssssssssssss",
"sssssssssssssssssssssssssse06322&#%&&%%%%sssssssssssssssssssssss",
"ssssssssssssssssssssssssswwe932&%s53&&%%%%ssssssssssssssssssssss",
"sssssssssssssssssssssssswwe492&&%s53*&%%%%ssssssssssssssssssssss",
"ssssssssssssssssssssssss5ee92&&%sss33&%%%%ssssssssssssssssssssss",
"ssssssssssssssssssssssss-542&&%%ssss%%%%%%#sssssssssssssssssssss",
"sssssssssssssssssssssss-- @&&%%ssss3*&%%%$#sssssssssssssssssssss",
"sssssssssssssssssssssssp-o    sssss33&%%%##sssssssssssssssssssss",
"sssssssssssssssssssssppp;=   sssssss@@@@@#ssssssssssssssssssssss",
"sssssssssssssssssssssp;;=  sssssssss-u=   ssssssssssssssssssssss",
"sssssssssssssssssssss;-==  sssssssss-a=   ssssssssssssssssssssss",
"sssssssssssssssssssss p    ssssssssssu    ssssssssssssssssssssss",
"sssssssssssssssssssss -==   sssssssss=    ssssssssssssssssssssss",
"ssssssssssssssssssssss ;-== sssssssss-au=  sssssssssssssssssssss",
"sssssssssssssssssssssss     sssssssss--=     sssssssssssssssssss",
"sssssssssssssssssssssssssssssssssssss=====    ssssssssssssssssss",
"sssssssssssssssssssssssssssssssssssssss====   ssssssssssssssssss"
};
