/* XPM */
static char *result[] = {
/* columns rows colors chars-per-pixel */
"64 64 49 1 ",
"  c black",
". c #28200C",
"X c #382C14",
"o c #202020",
"O c #2C2C2C",
"+ c gray22",
"@ c #403018",
"# c #483818",
"$ c #543C1C",
"% c #5C4020",
"& c #6C4824",
"* c #744C28",
"= c #000040",
"- c #00004C",
"; c #000064",
": c #00007C",
"> c #484848",
", c gray33",
"< c #646464",
"1 c gray44",
"2 c #7C7C7C",
"3 c #80502C",
"4 c #885830",
"5 c #905C34",
"6 c #9C6038",
"7 c #A0643C",
"8 c #A86840",
"9 c #B47044",
"0 c #BC7848",
"q c #C87C4C",
"w c #D08050",
"e c #DC8854",
"r c #E88C58",
"t c #F0945C",
"y c #FC9C60",
"u c #FCA470",
"i c #000088",
"p c #0000A4",
"a c #0004FC",
"s c #980088",
"d c gray55",
"f c #989898",
"g c gray66",
"h c #B4B4B4",
"j c #FCB080",
"k c #FCB890",
"l c #FCBC9C",
"z c #C0C0C0",
"x c #D0D0D0",
/* pixels */
"ssssssssssssssssssssssssssssssssssssssssssssssssssssssssssssssss",
"ssssssssssssssssssssssssssssssssssssssssssssssssssssssssssssssss",
"ssssssssssssssssssssssssssssssssssssssssssssssssssssssssssssssss",
"ssssssssssssssssssssssssssssssssssssssssssssssssssssssssssssssss",
"ssssssssssssssssssssssssssssssssssssssssssssssssssssssssssssssss",
"ssssssssssssssssssssssssssssssssssssssssssssssssssssssssssssssss",
"ssssssssssssssssssssssssssssssssssssssssssssssssssssssssssssssss",
"ssssssssssssssssssssssssssssssssssssssssssssssssssssssssssssssss",
"ssssssssssssssssssssssssssssssssssssssssssssssssssssssssssssssss",
"ssssssssssssssssssssssssssssssssssssssssssssssssssssssssssssssss",
"ssssssssssssssssssssssssssssssssssssssssssssssssssssssssssssssss",
"ssssssssssssssssssssssssssssssssssssssssssssssssssssssssssssssss",
"ssssssssssssssssssssssssssssssssssssssssssssssssssssssssssssssss",
"ssssssssssssssssssssssssssssssssssssssssssssssssssssssssssssssss",
"ssssssssssssssssssssssssssssssssssssssssssssssssssssssssssssssss",
"ssssssssssssssssssssssssssssssssssssssssssssssssssssssssssssssss",
"ssssssssssssssssssssssssssssssssssssssssssssssssssssssssssssssss",
"sssssssssssssssssssssssssssss2gd2,+sssssssssssssssssssssssssssss",
"ssssssssssssssssssssssssssss2g<1,>OOssssssssssssssssssssssssssss",
"ssssssssssssssssssssssssssssd211,>+Ossssssssssssssssssssssssssss",
"sssssssssssssssssssssssssss2d211,,>OOsssssssssssssssssssssssssss",
"ssssssssssssssssssssssssss22zxzgd1,,++ssssssssssssssssssssssssss",
"ssssssssssssssssssssssssss2> 7a73a3 o+ssssssssssssssssssssssssss",
"ssssssssssssssssssssssssssOo*ulw9lu*oOssssssssssssssssssssssssss",
"ssssssssssssssssssssssssssso#eyttye#osssssssssssssssssssssssssss",
"ssssssssssssssssssssssssssss#0eq9e0#ssssssssssssssssssssssssssss",
"sssssssssssssssssssssssssss  6yjjy#  sssssssssssssssssssssssssss",
"ssssssssssssssssssssssssss< ,, 49 ,,  &sssssssssssssssssssssssss",
"ssssssssssssssssssssssss88<+hf    f2 588ssssssssssssssssssssssss",
"sssssssssssssssssssssss*er9<$ >4.4  9eee8sssssssssssssssssssssss",
"sssssssssssssssssssssssqrww+<5rr6eeeewqq0*ssssssssssssssssssssss",
"ssssssssssssssssssssssqer099++5w6w553*7570ssssssssssssssssssssss",
"sssssssssssssssssssssswr083q5o+5$w5ww**&533sssssssssssssssssssss",
"sssssssssssssssssssssswr0&#555o++5*66#*X33$sssssssssssssssssssss",
"sssssssssssssssssssssqqw5&@$55$ o+5*#*$X**3sssssssssssssssssssss",
"sssssssssssssssssssssrr85&X@*33%  o+5$XX@%&sssssssssssssssssssss",
"sssssssssssssssssssssr06%%X@@%%%X$   ..#%77&ssssssssssssssssssss",
"sssssssssssssssssssss0rr53Xoooo2<<ooooo#7774ssssssssssssssssssss",
"sssssssssssssssssssss0wq73#oooo<<>oooo..7ke4ssssssssssssssssssss",
"sssssssssssssssssssssswkw&###&&&$&%##@@.kee6ssssssssssssssssssss",
"sssssssssssssssssssssske48%%*488$38884$@eee6ssssssssssssssssssss",
"ssssssssssssssssssssssuue8*%%*543700074s@e9sssssssssssssssssssss",
"sssssssssssssssssssssss8844&&**&370tt74sssssssssssssssssssssssss",
"sssssssssssssssssssssssss666***$3*443&%sssssssssssssssssssssssss",
"sssssssssssssssssssssssss$%&&&$$X3wtt03sssssssssssssssssssssssss",
"sssssssssssssssssssssssss55566638wttytwsssssssssssssssssssssssss",
"sssssssssssssssssssssssss59997738wtturwsssssssssssssssssssssssss",
"sssssssssssssssssssssssss5w997748wtyuy0sssssssssssssssssssssssss",
"ssssssssssssssssssssssssssw9977456uuuuusssssssssssssssssssssssss",
"ssssssssssssssssssssssssssw99774%t9tt0t0ssssssssssssssssssssssss",
"sssssssssssssssssssssssssswew774qt36886tssssssssssssssssssssssss",
"sssssssssssssssssssssssss5w7774$4$9833&sssssssssssssssssssssssss",
"sssssssssssssssssssssssss55&744$.#.$33$$ssssssssssssssssssssssss",
"ssssssssssssssssssssssssss&&&&&##@.@@@@sssssssssssssssssssssssss",
"ssssssssssssssssssssssssss@.@###.o ...osssssssssssssssssssssssss",
"sssssssssssssssssssssssssss ;o   i;=  osssssssssssssssssssssssss",
"sssssssssssssssssssssssssss ;o   -:=  ssssssssssssssssssssssssss",
"sssssssssssssssssssssssssss i=        ssssssssssssssssssssssssss",
"sssssssssssssssssssssssssss i;        ssssssssssssssssssssssssss",
"ssssssssssssssssssssssssssssi;    i=   sssssssssssssssssssssssss",
"ssssssssssssssssssssssssssss i    i=   sssssssssssssssssssssssss",
"sssssssssssssssssssssssssss ipp- s    ssssssssssssssssssssssssss",
"sssssssssssssssssssssssssss;ii;-- ssssssssssssssssssssssssssssss",
"sssssssssssssssssssssssssss;ooo   ssssssssssssssssssssssssssssss"
};
