/* XPM */
static char *result[] = {
/* columns rows colors chars-per-pixel */
"64 64 49 1 ",
"  c black",
". c #28200C",
"X c #382C14",
"o c #202020",
"O c #2C2C2C",
"+ c gray22",
"@ c #403018",
"# c #483818",
"$ c #543C1C",
"% c #5C4020",
"& c #6C4824",
"* c #744C28",
"= c #000040",
"- c #00004C",
"; c #000070",
": c #00007C",
"> c #484848",
", c gray33",
"< c #646464",
"1 c gray44",
"2 c #7C7C7C",
"3 c #80502C",
"4 c #885830",
"5 c #905C34",
"6 c #9C6038",
"7 c #A0643C",
"8 c #A86840",
"9 c #B47044",
"0 c #BC7848",
"q c #C87C4C",
"w c #D08050",
"e c #DC8854",
"r c #E88C58",
"t c #F0945C",
"y c #FC9C60",
"u c #FCA470",
"i c #000088",
"p c #0000A8",
"a c #0000BC",
"s c #980088",
"d c gray55",
"f c #989898",
"g c gray66",
"h c #B4B4B4",
"j c #FCB080",
"k c #FCB890",
"l c #C0C0C0",
"z c gainsboro",
"x c gray99",
/* pixels */
"ssssssssssssssssssssssssssssssssssssssssssssssssssssssssssssssss",
"ssssssssssssssssssssssssssssssssssssssssssssssssssssssssssssssss",
"ssssssssssssssssssssssssssssssssssssssssssssssssssssssssssssssss",
"ssssssssssssssssssssssssssssssssssssssssssssssssssssssssssssssss",
"ssssssssssssssssssssssssssssssssssssssssssssssssssssssssssssssss",
"ssssssssssssssssssssssssssssssssssssssssssssssssssssssssssssssss",
"ssssssssssssssssssssssssssssssssssssssssssssssssssssssssssssssss",
"ssssssssssssssssssssssssssssssssssssssssssssssssssssssssssssssss",
"ssssssssssssssssssssssssssssssssssssssssssssssssssssssssssssssss",
"ssssssssssssssssssssssssssssssssssssssssssssssssssssssssssssssss",
"ssssssssssssssssssssssssssssssssssssssssssssssssssssssssssssssss",
"ssssssssssssssssssssssssssssssssssssssssssssssssssssssssssssssss",
"ssssssssssssssssssssssssssssssssssssssssssssssssssssssssssssssss",
"ssssssssssssssssssssssssssssssssssssssssssssssssssssssssssssssss",
"ssssssssssssssssssssssssssssssssssssssssssssssssssssssssssssssss",
"ssssssssssssssssssssssssssssssssssssssssssssssssssssssssssssssss",
"ssssssssssssssssssssssssssssssssssssssssssssssssssssssssssssssss",
"ssssssssssssssssssssssssssg221<,>sssssssssssssssssssssssssssssss",
"sssssssssssssssssssssssssgd2,>>>O>ssssssssssssssssssssssssssssss",
"sssssssssssssssssssssssss12,,>>>+Ossssssssssssssssssssssssssssss",
"ssssssssssssssssssssssss1111>><o+Ossssssssssssssssssssssssssssss",
"sssssssssssssssssssssssdllgf21OO+O>sssssssssssssssssssssssssssss",
"ssssssssssssssssssssssss+p7ip>11,>Osssssssssssssssssssssssssssss",
"ssssssssssssssssssssssss+qkjj6>+++++ssssssssssssssssssssssssssss",
"sssssssssssssssssssssssss7yyw6 ##sssssssssssssssssssssssssssssss",
"sssssssssssssssssssssssss3q8y6o3#sssssssssssssssssssssssssssssss",
"sssssssssssssssssssssssss7uq,o37#  sssssssssssssssssssssssssssss",
"ssssssssssssssssssssssssss  juq,h   ssssssssssssssssssssssssssss",
"sssssssssssssssssssssssss*o jq x, ***#ssssssssssssssssssssssssss",
"ssssssssssssssssssssssss*9+ $ 0 .*tt07#sssssssssssssssssssssssss",
"ssssssssssssssssssssssss9#+3*eetttt6777#ssssssssssssssssssssssss",
"sssssssssssssssssssssss&4t3+*9888t50777*#sssssssssssssssssssssss",
"sssssssssssssssssssssss&8t6+*8tt8t$400*7*sssssssssssssssssssssss",
"sssssssssssssssssssssss&66e++800604$4*077*ssssssssssssssssssssss",
"sssssssssssssssssssssss&05e3+986084$##*7**ssssssssssssssssssssss",
"sssssssssssssssssssssss&0*00++90064$$4e07*ssssssssssssssssssssss",
"sssssssssssssssssssssss&0#00*+OO64&$$9ee7Xssssssssssssssssssssss",
"sssssssssssssssssssss9tt.*++zd+ooooo3ee7$sssssssssssssssssssssss",
"sssssssssssssssssssss9t9t@++g<+ooooo88&3Xsssssssssssssssssssssss",
"sssssssssssssssssssss9t9*..50*06*3&kre6$Xsssssssssssssssssssssss",
"sssssssssssssssssssssssssss5e5qq993tee7Xssssssssssssssssssssssss",
"ssssssssssssssssssssssssssswe5qq999qe7$%ssssssssssssssssssssssss",
"sssssssssssssssssssssssssssye50****&$$$%ssssssssssssssssssssssss",
"sssssssssssssssssssssssssss3385www7**3*%ssssssssssssssssssssssss",
"sssssssssssssssssssssssssssse8tttt00e**%ssssssssssssssssssssssss",
"ssssssssssssssssssssssssssss3uuttw07%*%sssssssssssssssssssssssss",
"ssssssssssssssssssssssssssssuuuttt07&##sssssssssssssssssssssssss",
"ssssssssssssssssssssssssssssujutt07&X#ssssssssssssssssssssssssss",
"sssssssssssssssssssssssssssuuuwuu&&#X#ssssssssssssssssssssssssss",
"sssssssssssssssssssssssssssjjuu9####Xsssssssssssssssssssssssssss",
"sssssssssssssssssssssssssssree9u5**.%sssssssssssssssssssssssssss",
"sssssssssssssssssssssssssssq88998#83$sssssssssssssssssssssssssss",
"ssssssssssssssssssssssssssss98&33#  .@ssssssssssssssssssssssssss",
"sssssssssssssssssssssssssssss&33#   . ssssssssssssssssssssssssss",
"ssssssssssssssssssssssssssssss        @sssssssssssssssssssssssss",
"sssssssssssssssssssssssssssssss ==      ssssssssssssssssssssssss",
"ssssssssssssssssssssssssssssssss#--      sssssssssssssssssssssss",
"ssssssssssssssssssssssssssssssssss  -    sssssssssssssssssssssss",
"ssssssssssssssssssssssssssssssssss :    ssssssssssssssssssssssss",
"sssssssssssssssssssssssssssssssssaai    ssssssssssssssssssssssss",
"ssssssssssssssssssssssssssssssss=:::     sssssssssssssssssssssss",
"ssssssssssssssssssssssssssssssss==- ==o  sssssssssssssssssssssss",
"sssssssssssssssssssssssssssssss;:===oo  ssssssssssssssssssssssss",
"sssssssssssssssssssssssssssssssO==o  +++ssssssssssssssssssssssss"
};
