/* XPM */
static char *result[] = {
/* columns rows colors chars-per-pixel */
"64 64 49 1 ",
"  c black",
". c #382C14",
"X c #202020",
"o c #2C2C2C",
"O c gray22",
"+ c #700000",
"@ c #403018",
"# c #483818",
"$ c #5C4020",
"% c #6C4824",
"& c #744C28",
"* c #000058",
"= c #00007C",
"- c #484848",
"; c gray33",
": c #646464",
"> c gray44",
", c #7C7C7C",
"< c #880000",
"1 c #980000",
"2 c #A80000",
"3 c #BC0000",
"4 c #C80000",
"5 c #D40000",
"6 c #E00000",
"7 c #FC0000",
"8 c #FC2020",
"9 c #80502C",
"0 c #885830",
"q c #905C34",
"w c #9C6038",
"e c #A0643C",
"r c #A86840",
"t c #B47044",
"y c #BC7848",
"u c #C87C4C",
"i c #D08050",
"p c #DC8854",
"a c #F0945C",
"s c #FC9C60",
"d c #000098",
"f c #0000A8",
"g c #0000B0",
"h c #980088",
"j c gray55",
"k c #989898",
"l c gray66",
"z c #B4B4B4",
"x c #D0D0D0",
/* pixels */
"hhhhhhhhhhhhhhhhhhhhhhhhhhhhhhhhhhhhhhhhhhhhhhhhhhhhhhhhhhhhhhhh",
"hhhhhhhhhhhhhhhhhhhhhhhhhhhhhhhhhhhhhhhhhhhhhhhhhhhhhhhhhhhhhhhh",
"hhhhhhhhhhhhhhhhhhhhhhhhhhhhhhhhhhhhhhhhhhhhhhhhhhhhhhhhhhhhhhhh",
"hhhhhhhhhhhhhhhhhhhhhhhhhhhhhhhhhhhhhhhhhhhhhhhhhhhhhhhhhhhhhhhh",
"hhhhhhhhhhhhhhhhhhhhhhhhhhhhhhhhhhhhhhhhhhhhhhhhhhhhhhhhhhhhhhhh",
"hhhhhhhhhhhhhhhhhhhhhhhhhhhhhhhhhhhhhhhhhhhhhhhhhhhhhhhhhhhhhhhh",
"hhhhhhhhhhhhhhhhhhhhhhhhhhhhhhhhhhhhhhhhhhhhhhhhhhhhhhhhhhhhhhhh",
"hhhhhhhhhhhhhhhhhhhhhhhhhhhhhhhhhhhhhhhhhhhhhhhhhhhhhhhhhhhhhhhh",
"hhhhhhhhhhhhhhhhhhhhhhhhhhhhhhhhhhhhhhhhhhhhhhhhhhhhhhhhhhhhhhhh",
"hhhhhhhhhhhhhhhhhhhhhhhhhhhhhhhhhhhhhhhhhhhhhhhhhhhhhhhhhhhhhhhh",
"hhhhhhhhhhhhhhhhhhhhhhhhhhhhhhhhhhhhhhhhhhhhhhhhhhhhhhhhhhhhhhhh",
"hhhhhhhhhhhhhhhhhhhhhhhhhhhhhhhhhhhhhhhhhhhhhhhhhhhhhhhhhhhhhhhh",
"hhhhhhhhhhhhhhhhhhhhhhhhhhhhhhhhhhhhhhhhhhhhhhhhhhhhhhhhhhhhhhhh",
"hhhhhhhhhhhhhhhhhhhhhhhhhhhhhhhhhhhhhhhhhhhhhhhhhhhhhhhhhhhhhhhh",
"hhhhhhhhhhhhhhhhhhhhhhhhhhhhhhhhhhhhhhhhhhhhhhhhhhhhhhhhhhhhhhhh",
"hhhhhhhhhhhhhhhhhhhhhhhhhhhhhhhhhhhhhhhhhhhhhhhhhhhhhhhhhhhhhhhh",
"hhhhhhhhhhhhhhhhhhhhhhhhhhhhhhhhhhhhhhhhhhhhhhhhhhhhhhhhhhhhhhhh",
"hhhhhhhhhhhhhhhhhhhhhhhhhhhhhhhhhhhhhhhhhhhhhhhhhhhhhhhhhhhhhhhh",
"hhhhhhhhhhhhhhhhhhhhhhhhhhhhhhhhhhhhhhhhhhhhhhhhhhhhhhhhhhhhhhhh",
"hhhhhhhhhhhhhhhhhhhhhhhhhhhhhhhhhhhhhhhhhhhhhhhhhhhhhhhhhhhhhhhh",
"hhhhhhhhhhhhhhhhhhhhhhhhhhhhhhhhhhhhhhhhhhhhhhhhhhhhhhhhhhhhhhhh",
"hhhhhhhhhhhhhhhhhhhhhhhhhhhhhhhhhhhhhhhhhhhhhhhhhhhhhhhhhhhhhhhh",
"hhhhhhhhhhhhhhhhhhhhhhhhhhhhhhhhhhhhhhhhhhhhhhhhhhhhhhhhhhhhhhhh",
"hhhhhhhhhhhhhhhhhhhhhhhhhhhhhhhhhhhhhhhhhhhhhhhhhhhhhhhhhhhhhhhh",
"hhhhhhhhhhhhhhhhhhhhhhhhhhhhhhhhhhhhhhhhhhhhhhhhhhhhhhhhhhhhhhhh",
"hhhhhhhhhhhhhhhhhhhhhhhhhhhhhhhhhhhhhhhhhhhhhhhhhhhhhhhhhhhhhhhh",
"hhhhhhhhhhhhhhhhhhhhhhhhhhhhhhhhhhhhhhhhhhhhhhhhhhhhhhhhhhhhhhhh",
"hhhhhhhhhhhhhhhhhhhhhhhhhhhhhhhhhhhhhhhhhhhhhhhhhhhhhhhhhhhhhhhh",
"hhhhhhhhhhhhhhhhhhhhhhhhhhhhhhhhhhhhhhhhhhhhhhhhhhhhhhh<hhhhhhhh",
"hhhhhhhhhhhhhhhhhhhhhhhhhhhhhhhhhhhhhhhhhhhhhhhhhhhhhhhhhhhhhhhh",
"hhhhhhhhhhhhhhhhhhhhhhhhhhhhhhhhhhhhhhhhhhhhhhhhhhhhhhhhhhhhhhhh",
"hhhhhhhhhhhhhhhhhhhhhhhhhhhhhhhhhhhhhhhhhhhhhhhhhhhhhhhhhhhhhhhh",
"hhhhhhhhhhhhhhhhhhhhhhhhhhhhhhhhhhhhhhhhhhhhhhhhhhhhhhhhhhhhhhhh",
"hhhhhhhhhhhhhhhhhhhhhhhhhhhhhhhhhhhhhhXhhhhhhhhhhhhhhhhhhhhhhhhh",
"hhhhhhhhhhhhhhhhhhhhhhhhhhhhhzkjj:;;hhhXhhhhhhhhhhh8hhh<hhhhhhhh",
"hhhhhhhhhhhhhhhhhhhhhhhhhhhhzxz,:;--OhXhhhhhhhhhhhhhhhhhh74hhhhh",
"hhhhhhhhhhhhhhhhhhhhhhhhhhhzXj,:;->jj>;hhhhhhhhhhhhhh<8hh4<hhhhh",
"hhhhhhhhhhhhhhhhhhhhhhhhhhhkjX:;-j>-  OOhhhhhhhhhhhhhhh7hhhh5hhh",
"hhhhhhhhhhhhhhhhhhhhhhhhhhhhkX>jj      Ohhhhhhhhhhh8<hhhhhhhhhhh",
"hhhhhhhhhhhhhhhhhhhhhhhhhhhkzlX      hhhhhhhhhhhhhhhhh27hhhhhhhh",
"hhhhhhhhhhhhhhhhhhhhhhhhhhhzO     Xhhhhhhhhhhhhhhhhh7h72hhhhhh71",
"hhhhhhhhhhhhhhhhhhhhhhhhhh,O     hhhhhhhhhhwwwww$hhhhhhhhhhhhh1h",
"hhhhhhhhhhhhhhhhhhhhhhhhhhhO   hhhhhhhhhhussssssuwssuhhhhhh5hhhh",
"hhhhhhhhhhhhhhhhhhhhhhhhhhhhhhhhhhhhhhhusssssssssu$sssuhhhhhhhhh",
"hhhhhhhhhhhhhhhhhhhhhhhhhhhhhhhhhhhhhhuss&&yyyyssswoyssshhhhhhhh",
"hhhhhhhhhhhhhhhhhhhhhhhhhhhhhhhhhhhhhur*gf=*sssysst uyywwhhhhhhh",
"hhhhhhhhhhhhhhhhhhhhhhhhhhhhhhhhhhhhusOOO;d**sss&st uyr0r0hhhhhh",
"hhhhhhhhhhhhhhhhhhhhhhhhhhhhhhhhhhhhssOOOOO  ess&e& ee&.0w0hhhhh",
"hhhhhhhhhhhhhhhhhhhhhhhhhhhhhhhhhussttOOOOO  &ee&e&X9&.#&w0h4hhh",
"hhhhhhhhhhhhhhhhhhhhhhhhhhhh*=gg=sssi&&OOOO  &&&$$o+++.$&0w0<hhh",
"hhhhhhhhhhhhhhhhhhhhhhhhhhhOOOO***iiirrOOOOO $$$$#++..$9&qw0hhhh",
"hhhhhhhhhhhhhhhhhhhhhhhhhhhOOOOO   iq0&&OOOO @@@@++e9hhhqq00&hhh",
"hhhhhhhhhhhhhhhhhhhhhhhhhhhOOOOO   q&&##OOOO h+++h+hhhhhhqq0&hhh",
"hhhhhhhhhhhhhhhhhhhhhhhhhhhhOOOO   @@@@&#OOOhh+h+hhhhhhhhhqq&&hh",
"hhhhhhhhhhhhhhhhhhhhhhhhhhhhOOOOO hhhhsie&hhhh1h1h1hhhhhhhqq9&hh",
"hhhhhhhhhhhhhhhhhhhhhhhhhhhhOOOOO hhhhhe%hhhhh5h1hh<hhhhhh%%.hhh",
"hhhhhhhhhhhhhhhhhhhhhhhhhhhhhOOOO hhhhhp0thhhhhh1hh3hhhhhhuw&hhh",
"hhhhhhhhhhhhhhhhhhhhhhhhhhhhhhOO hhhhhhue0hhhhhh4hhhhhhhhhau9hhh",
"hhhhhhhhhhhhhhhhhhhhhhhhhhhhhhhhhhhhhhhhtehhhhhh6hhhhhhhhau9hhhh",
"hhhhhhhhhhhhhhhhhhhhhhhhhhhhhhhhhhhhhhhhhhhhhhhhhhhhhhhhhhhhhhhh",
"hhhhhhhhhhhhhhhhhhhhhhhhhhhhhhhhhhhhhhhhhhhhhhhhhhhhhhhhhhhhhhhh",
"hhhhhhhhhhhhhhhhhhhhhhhhhhhhhhhhhhhhhhhhhhhhhhhhhhhhhhhhhhhhhhhh",
"hhhhhhhhhhhhhhhhhhhhhhhhhhhhhhhhhhhhhhhhhhhhhhhhhhhhhhhhhhhhhhhh",
"hhhhhhhhhhhhhhhhhhhhhhhhhhhhhhhhhhhhhhhhhhhhhhhhhhhhhhhhhhhhhhhh"
};
