/* XPM */
static char *result[] = {
/* columns rows colors chars-per-pixel */
"64 64 60 1 ",
"  c black",
". c #28200C",
"X c #382C14",
"o c #202020",
"O c #2C2C2C",
"+ c gray22",
"@ c #403018",
"# c #483818",
"$ c #543C1C",
"% c #5C4020",
"& c #6C4824",
"* c #744C28",
"= c #000040",
"- c #00004C",
"; c #000058",
": c #000064",
"> c #000070",
", c #00007C",
"< c #484848",
"1 c gray33",
"2 c #646464",
"3 c gray44",
"4 c #7C7C7C",
"5 c #9C4C00",
"6 c #80502C",
"7 c #885830",
"8 c #905C34",
"9 c #9C6038",
"0 c #A0643C",
"q c #CC6000",
"w c #FC7800",
"e c #A86840",
"r c #B47044",
"t c #BC7848",
"y c #C87C4C",
"u c #D08050",
"i c #DC8854",
"p c #E88C58",
"a c #F0945C",
"s c #FC9C60",
"d c #FCA470",
"f c #000088",
"g c #0000A4",
"h c #0000A8",
"j c #0000BC",
"k c #0000D4",
"l c #0004FC",
"z c #980088",
"x c gray55",
"c c #989898",
"v c gray66",
"b c #B4B4B4",
"n c #FCB080",
"m c #FCB890",
"M c #FCBC9C",
"N c #FCC4A4",
"B c #C0C0C0",
"V c #D0D0D0",
"C c gainsboro",
"Z c gray99",
/* pixels */
"zzzzzzzzzzzzzzzzzzzzzzzzzzzzzzzzzzzzzzzzzzzzzzzzzzzzzzzzzzzzzzzz",
"zzzzzzzzzzzzzzzzzzzzzzzzzzzzzzzzzzzzzzzzzzzzzzzzzzzzzzzzzzzzzzzz",
"zzzzzzzzzzzzzzzzzzzzzzzzzzzzzzzzzzzzzzzzzzzzzzzzzzzzzzzzzzzzzzzz",
"zzzzzzzzzzzzzzzzzzzzzzzzzzzzzzzzzzzzzzzzzzzzzzzzzzzzzzzzzzzzzzzz",
"zzzzzzzzzzzzzzzzzzzzzzzzzzzzzzzzzzzzzzzzzzzzzzzzzzzzzzzzzzzzzzzz",
"zzzzzzzzzzzzzzzzzzzzzzzzzzzzzzzzzzzzzzzzzzzzzzzzzzzzzzzzzzzzzzzz",
"zzzzzzzzzzzzzzzzzzzzzzzzzzzzzzzzzzzzzzzzzzzzzzzzzzzzzzzzzzzzzzzz",
"zzzzzzzzzzzzzzzzzzzzzzzzzzzzzzzzzzzzzzzzzzzzzzzzzzzzzzzzzzzzzzzz",
"zzzzzzzzzzzzzzzzzzzzzzzzzzzzzzzzzzzzzzzzzzzzzzzzzzzzzzzzzzzzzzzz",
"zzzzzzzzzzzzzzzzzzzzzzzzzzzzzzzzzzzzzzzzzzzzzzzzzzzzzzzzzzzzzzzz",
"zzzzzzzzzzzzzzzzzzzzzzzzzzzzzzzzzzzzzzzzzzzzzzzzzzzzzzzzzzzzzzzz",
"zzzzzzzzzzzzzzzzzzzzzzzzzzzzzzzzzzzzzzzzzzzzzzzzzzzzzzzzzzzzzzzz",
"zzzzzzzzzzzzzzzzzzzzzzzzzzzzzzzzzzzzzzzzzzzzzzzzzzzzzzzzzzzzzzzz",
"zzzzzzzzzzzzzzzzzzzzzzzzzzzzzzzzzzzzzzzzzzzzzzzzzzzzzzzzzzzzzzzz",
"zzzzzzzzzzzzzzzzzzzzzzzzzzzzzzzzzzzzzzzzzzzzzzzzzzzzzzzzzzzzzzzz",
"zzzzzzzzzzzzzzzzzzzzzzzzzzzzzzzzzzzzzzzzzzzzzzzzzzzzzzzzzzzzzzzz",
"zzzzzzzzzzzzzzzzzzzzzzzzzzzzzvvx41+zzzzzzzzzzzzzzzzzzzzzzzzzzzzz",
"zzzzzzzzzzzzzzzzzzzzzzzzzzzzvv231<OOzzzzzzzzzzzzzzzzzzzzzzzzzzzz",
"zzzzzzzzzzzzzzzzzzzzzzzzzzzzx433111Ozzzzzzzzzzzzzzzzzzzzzzzzzzzz",
"zzzzzzzzzzzzzzzzzzzzzzzzzzz+BVBvx311Ozzzzzzzzzzzzzzzzzzzzzzzzzzz",
"zzzzzzzzzzzzzzzzzzzzzzzzzzz4o#&77&#oozzzzzzzzzzzzzzzzzzzzzzzzzzz",
"zzzzzzzzzzzzzzzzzzzzzzzzzz4< elntle oozzzzzzzzzzzzzzzzzzzzzzzzzz",
"zzzzzzzzzzzzzzzzzzzzzzzzzz o*aMteMa*oozzzzzzzzzzzzzzzzzzzzzzzzzz",
"zzzzzzzzzzzzzzzzzzzzzzzzzzzo#unaanu#ozzzzzzzzzzzzzzzzzzzzzzzzzzz",
"zzzzzzzzzzzzzzzzzzzzzzzzzzzz#9r##r9#zzzzzzzzzzzzzzzzzzzzzzzzzzzz",
"zzzzzzzzzzzzzzzzzzzzzzzzzzzz 9pnnp# zzzzzzzzzzzzzzzzzzzzzzzzzzzz",
"zzzzzzzzzzzzzzzzzzzzzzzzzzz   &000   zzzzzzzzzzzzzzzzzzzzzzzzzzz",
"zzzzzzzzzzzzzzzzzzzzzzzzrd2 Z3 &i 3V 888zzzzzzzzzzzzzzzzzzzzzzzz",
"zzzzzzzzzzzzzzzzzzzzzzzdsd2+3V    V3ruuuezzzzzzzzzzzzzzzzzzzzzzz",
"zzzzzzzzzzzzzzzzzzzzzzdausi26 <6@6 raaayuezzzzzzzzzzzzzzzzzzzzzz",
"zzzzzzzzzzzzzzzzzzzzzdau9is+26ssesssssyupuzzzzzzzzzzzzzzzzzzzzzz",
"zzzzzzzzzzzzzzzzzzzzdaue6$is++ss*s997*y*ypuzzzzzzzzzzzzzzzzzzzzz",
"zzzzzzzzzzzzzzzzzzzdaue*XX0ruo+u@s9ss$6*eupezzzzzzzzzzzzzzzzzzzz",
"zzzzzzzzzzzzzzzzzzzu9&6XXz*0uuo++u788@@.8upu&zzzzzzzzzzzzzzzzzzz",
"zzzzzzzzzzzzzzzzzzaddtXzzz%*ruu o+r*@6@.8erpezzzzzzzzzzzzzzzzzzz",
"zzzzzzzzzzzzzzzzzzade6Xzzzz%0u7u  o+r6.X&X6eu&zzzzzzzzzzzzzzzzzz",
"zzzzzzzzzzzzzzzzzz0ddu9Xzzz#0r70 u   #.z.%ppu&zzzzzzzzzzzzzzzzzz",
"zzzzzzzzzzzzzzzzzz8a$$$ zz oo++Cbc+OOo zz#&8t&zzzzzzzzzzzzzzzzzz",
"zzzzzzzzzzzzzzzzzzz$ranp%aa6XOO44<ooo  zz#eutzzzzzzzzzzzzzzzzzzz",
"zzzzzzzzzzzzzzzzzzz*rn8o<%rar@t6 r9r0#%@z.686zzzzzzzzzzzzzzzzzzz",
"zzzzzzzzzzzzzzzzzzzz*au<vw%6ur@6 ruur6@@z.##0zzzzzzzzzzzzzzzzzzz",
"zzzzzzzzzzzzzzzzzzzzz**o3vq%%886 9uur8&@znae#zzzzzzzzzzzzzzzzzzz",
"zzzzzzzzzzzzzzzzzzzzzzzzo55q@..% 9uur0&@zX9uzzzzzzzzzzzzzzzzzzzz",
"zzzzzzzzzzzzzzzzzzzzzzzzzo55@%@. 9uur0&@#uuzzzzzzzzzzzzzzzzzzzzz",
"zzzzzzzzzzzzzzzzzzzzzzzzzzX%@%%XXXXXXXX.zzzzzzzzzzzzzzzzzzzzzzzz",
"zzzzzzzzzzzzzzzzzzzzzzzzzzt9e96%X6666%%.zzzzzzzzzzzzzzzzzzzzzzzz",
"zzzzzzzzzzzzzzzzzzzzzzzzztadae9*X*pu00%.zzzzzzzzzzzzzzzzzzzzzzzz",
"zzzzzzzzzzzzzzzzzzzzzzzzzaadaueXzXpuu00.zzzzzzzzzzzzzzzzzzzzzzzz",
"zzzzzzzzzzzzzzzzzzzzzzzztadaue6Xz#0du0$.zzzzzzzzzzzzzzzzzzzzzzzz",
"zzzzzzzzzzzzzzzzzzzzzzzztaNu66XXzX7du0&@zzzzzzzzzzzzzzzzzzzzzzzz",
"zzzzzzzzzzzzzzzzzzzzzzztaNnde$Xzz6tpd06.zzzzzzzzzzzzzzzzzzzzzzzz",
"zzzzzzzzzzzzzzzzzzzzzzzyan9ed6@zzX#nmdy$.zzzzzzzzzzzzzzzzzzzzzzz",
"zzzzzzzzzzzzzzzzzzzzzzzyada6@@zzzz#te86$.zzzzzzzzzzzzzzzzzzzzzzz",
"zzzzzzzzzzzzzzzzzzzzzzzadaue6XzzzX8pdu0$.zzzzzzzzzzzzzzzzzzzzzzz",
"zzzzzzzzzzzzzzzzzzzzzzz6t96$.XzzzX#8e7&@.zzzzzzzzzzzzzzzzzzzzzzz",
"zzzzzzzzzzzzzzzzzzzzzzz      zzzzz      zzzzzzzzzzzzzzzzzzzzzzzz",
"zzzzzzzzzzzzzzzzzzzzzzz h-oo zzzzz oooo zzzzzzzzzzzzzzzzzzzzzzzz",
"zzzzzzzzzzzzzzzzzzzzzzz ,-oo zzzzz h>oo zzzzzzzzzzzzzzzzzzzzzzzz",
"zzzzzzzzzzzzzzzzzzzzzz hjf= zzzzzz =h-o zzzzzzzzzzzzzzzzzzzzzzzz",
"zzzzzzzzzzzzzzzzzzzzzz f>o  zzzzzzz h-o zzzzzzzzzzzzzzzzzzzzzzzz",
"zzzzzzzzzzzzzzzzzzzzzz h-oozzzzzzzz h> zzzzzzzzzzzzzzzzzzzzzzzzz",
"zzzzzzzzzzzzzzzzzzzzz hkg:= zzzzzz =hk> zzzzzzzzzzzzzzzzzzzzzzzz",
"zzzzzzzzzzzzzzzzzzzz ;ff-=o zzzzzz :-g:= zzzzzzzzzzzzzzzzzzzzzzz",
"zzzzzzzzzzzzzzzzzzzz oooooozzzzzzzzooooo zzzzzzzzzzzzzzzzzzzzzzz"
};
