/* XPM */
static char *result[] = {
/* columns rows colors chars-per-pixel */
"64 64 38 1 ",
"  c #047C00",
". c #7C7C7C",
"X c #048800",
"o c #049800",
"O c #04A400",
"+ c #00A800",
"@ c #04B000",
"# c #04BC00",
"$ c #04C800",
"% c #00D400",
"& c #00E000",
"* c #00EC00",
"= c #00FC00",
"- c #40FC40",
"; c #60FC5C",
": c #848400",
"> c #9C9C00",
", c #B4AC00",
"< c #CCC400",
"1 c #E4D800",
"2 c #FCF400",
"3 c #FCF420",
"4 c #80FC7C",
"5 c #FCF440",
"6 c #FCFC54",
"7 c #FCF85C",
"8 c #FCFC7C",
"9 c #980088",
"0 c gray55",
"q c #989898",
"w c gray66",
"e c #B4B4B4",
"r c #9CFC9C",
"t c #FCFC9C",
"y c #FCFCB8",
"u c #C0C0C0",
"i c #D0D0D0",
"p c #FCFCD8",
/* pixels */
"9999999999999999999999999999999999999999999999999999999999999999",
"9999999999999999999999999999999999999999999999999999999999999999",
"9999999999999999999999999999999999999999999999999999999999999999",
"9999999999999999999999999999999999999999999999999999999999999999",
"9999999999999999999999999999999999999999999999999999999999999999",
"9999999999999999999999999999999999999999999999999999999999999999",
"9999999999999999999999999999999999999999999999999999999999999999",
"9999999999999999999999999999999999999999999999999999999999999999",
"9999999999999999999999999999999999999999999999999999999999999999",
"9999999999999999999999999999999999999999999999999999999999999999",
"9999999999999999999999999999999999999999999999999999999999999999",
"9999999999999999999999999999999999999999999999999999999999999999",
"9999999999999999999999999999999999999999999999999999999999999999",
"9999999999999999999999999999999999999999999999999999999999999999",
"9999999999999999999999999999999999999999999999999999999999999999",
"9999999999999999999999999999999999999999999999999999999999999999",
"9999999999999999999999999999999999999999999999999999999999999999",
"9999999999999999999999999999999999999999999999999999999999999999",
"9999999999999999999999999999999999999999999999999999999999999999",
"9999999999999999999999999999999999999999999999999999999999999999",
"9999999999999999999999999999999999999999999999999999999999999999",
"9999999999999999999999999999999999999999999999999999999999999999",
"9999999999999999999999999999999999999999999999999999999999999999",
"999999999999999999999999999XXXXXXXXXXX99999999999999999999999999",
"999999999999999999999999XXXoO@@@@@@@OoXXX99999999999999999999999",
"9999999999999999999999 X@$%%%%%%%%%%%%%$@X 999999999999999999999",
"999999999999999999999 o@$%&&&**---***&&%$@o 99999999999999999999",
"999999999999999999999 o@$&&*==4rrr4==*&&$@o 99999999999999999999",
"9999999999999999999999 X+&*===4rrr4===*&+X 999999999999999999999",
"999999999999999999999999X+#$=;4rrr4;=$#+o99999999999999999999999",
"9999999999999999999999999Xo+#&;444;&#Ooo999999999999999999999999",
"99999999999999999999999999999997p7999999999999999999999999999999",
"99999999999999999999999999999997p7999999999999999999999999999999",
"99999999999999999999999999999997y7999999999999999999999999999999",
"99999999999999999999999999999997y7999999999999999999999999999999",
"99999999999999999999999999999997y7999999999999999999999999999999",
"99999999999999999999999999999993y3999999999999999999999999999999",
"99999999999999999999999999999993y3999999999999999999999999999999",
"99999999999999999999999999999993t3999999999999999999999999999999",
"99999999999999999999999999999993t3999999999999999999999999999999",
"9999999999999999999999999999999181999999999999999999999999999999",
"9999999999999999999999999999999181999999999999999999999999999999",
"9999999999999999999999999999999181999999999999999999999999999999",
"9999999999999999999999999999999<7<999999999999999999999999999999",
"9999999999999999999999999999999<7<999999999999999999999999999999",
"9999999999999999999999999999999<7<999999999999999999999999999999",
"9999999999999999999999999999999,7,999999999999999999999999999999",
"9999999999999999999999999999999,6,999999999999999999999999999999",
"9999999999999999999999999999999,5,999999999999999999999999999999",
"9999999999999999999999999999999>5>999999999999999999999999999999",
"9999999999999999999999999999999>1>999999999999999999999999999999",
"9999999999999999999999999999999>1>999999999999999999999999999999",
"9999999999999999999999999999999:<:999999999999999999999999999999",
"9999999999999999999999999999999:,:999999999999999999999999999999",
"9999999999999999999999999999999:,:999999999999999999999999999999",
"9999999999999999999999999999999>1>999999999999999999999999999999",
"99999999999999999999....000000,<2<,0000000..99999999999999999999",
"99999999999999999...0qqeuii88538883588iiuueq00..9999999999999999",
"999999999999999...00qwui8558tttyyyttt8858iiuwq00..99999999999999",
"99999999999999...00qwei,88tyyypppppyyyt82,iiewqq0..9999999999999",
"99999999999999...0qqweii,<38ttyyyyyyt88<,iiiewqq0..9999999999999",
"99999999999999...0qqweuiie,,,,,,,,,,,,,eiiiuewqq0..9999999999999",
"999999999999999...0qqweeuuuuuuuuuuuuuuuuuueewqqq0..9999999999999",
"99999999999999999..0qqqwwwwwwwwwwwwwwwwwwwqqqq00..99999999999999"
};
