/* XPM */
static char *result[] = {
/* columns rows colors chars-per-pixel */
"64 64 48 1 ",
"  c black",
". c #2C2C2C",
"X c gray22",
"o c #044000",
"O c #044C00",
"+ c #045800",
"@ c #046400",
"# c #047000",
"$ c #047C00",
"% c #404000",
"& c #585400",
"* c #706C00",
"= c #484848",
"- c gray33",
"; c #646464",
": c gray44",
"> c #048800",
", c #049800",
"< c #04A400",
"1 c #00A800",
"2 c #04B000",
"3 c #04BC00",
"4 c #04C800",
"5 c #00D400",
"6 c #00E000",
"7 c #00FC00",
"8 c #54FC54",
"9 c #60FC5C",
"0 c #848400",
"q c #9C9C00",
"w c #B4AC00",
"e c #CCC400",
"r c #E4D800",
"t c #FCF400",
"y c #FCF440",
"u c #FCFC54",
"i c #FCFC7C",
"p c #980088",
"a c gray55",
"s c gray66",
"d c #B4B4B4",
"f c #FCFC9C",
"g c #FCFCB8",
"h c #C0C0C0",
"j c #D0D0D0",
"k c #FCFCD8",
"l c #ECECEC",
"z c gray99",
/* pixels */
"pppppppppppppppppppppppppppppppppppppppppppppppppppppppppppppppp",
"pppppppppppppppppppppppppppppppppppppppppppppppppppppppppppppppp",
"pppppppppppppppppppppppppppppppppppppppppppppppppppppppppppppppp",
"pppppppppppppppppppppppppppppppppppppppppppppppppppppppppppppppp",
"pppppppppppppppppppppppppppppppppppppppppppppppppppppppppppppppp",
"pppppppppppppppppppppppppppppppppppppppppppppppppppppppppppppppp",
"pppppppppppppppppppppppppppppppppppppppppppppppppppppppppppppppp",
"pppppppppppppppppppppppppppppppppppppppppppppppppppppppppppppppp",
"pppppppppppppppppppppppppppppppppppppppppppppppppppppppppppppppp",
"pppppppppppppppppppppppppppppppppppppppppppppppppppppppppppppppp",
"pppppppppppppppppppppppppppppp5ppppppppppppppppppppppppppppppppp",
"ppppppppppppppppppppppppppppp58#pppppppppppppppppppppppppppppppp",
"ppppppppppppppppppppppppppppp,,#pp<ppppppppppppppppppppppppppppp",
"pppppppppppppppppppppppppppppp@@p<4<#ppppppppppppppppppppppppppp",
"ppppppppppppppppppppppppppp3pp55,p551+pppppppppppppppppppppppppp",
"pppppppppppppppppppppppppp38$o358#58<+pppppppppppppppppppppppppp",
"ppppppppppppppppppppppppppp$@1$<##+<+ppppppppppppppppppppppppppp",
"pppppppppppppppppppppppp3<>@@o2#,+1opppppppppppppppppppppppppppp",
"ppppppppppppppppppppp<2p98>8<28#+2821,,p@<@ppppppppppppppppppppp",
"pppppppppppppppppppp<78>74>8@,2++282$55#o>1#pppppppppppppppppppp",
"pppppppppppppppppppp<4@1@1@@58,+oo#O$,5o1>1#pppppppppppppppppppp",
"ppppppppppppppppppppp#1@$@@O858,8#opo$@##opppppppppppppppppppppp",
"pppppppppppppppppppppp#po6Oo@8@1o1#o1<@@22#ppppppppppppppppppppp",
"ppppppppppppppppppppp#1$83>83>o@@1>#o1<+,2#pp@,ppppppppppppppppp",
"pppppppppppppppppppp771o$$133156@#,5#1o+o,+p#@@#pppppppppppppppp",
"ppppppppppppppppppp376$555$77>58>+16+opo++Ooo+@#pppppppppppppppp",
"pppppppppppppppppp3p7$585<8778>+1##@op#+oo@ppp#ppppppppppppppppp",
"ppppppppppppppppp31,$+55p$782>+61+ooO#,,+#1#+ppppppppppppppppppp",
"pppppppppppppppppp3,8o<>#>26#+o1#-p#1O,>,##+,+pppppppppppppppppp",
"pppppppppppppppppppp+128>o###1#1#o72#oO+2pop+ppppppppppppppppppp",
"ppppppppppppppppppp55$8215o#o#p#1o52o>o#2+@+pppppppppppppppppppp",
"pppppppppppppppppp<8$o$o55+op#o#1-@$oo+ppo@+p+#+pppppppppppppppp",
"ppppppppppppppppppp<op$p5$8#o#1#o-#1$+1+p+++op+#+ppppppppppppppp",
"ppppppppppppppppppppppp$1$<<pp765-#1$##1+1+pppp+pppppppppppppppp",
"ppppppppppppppppppppppp$1$686p785-po#<o1+o++pppppppppppppppppppp",
"pppppppppppppppppppppp6p$$787#psj-p51#p+pp+o+ppppppppppppppppppp",
"ppppppppppppppppppppp6<$8$<71#psjap51#ppppp+pppppppppppppppppppp",
"ppppppppppppppppppppp6<p$ppp#ppsjappoppppppppppppppppppppppppppp",
"ppppppppppppppppppppp<pppppppppsjapppppppppppppppppppppppppppppp",
"pppppppppppppppppppppppppppppppsjapppppppppppppppppppppppppppppp",
"pppppppppppppppppppppppppppppppdjsappppppppppppppppppppppppppppp",
"pppppppppppppppppppppppppppppppdjsappppppppppppppppppppppppppppp",
"pppppppppppppppppppppppppppppppdlsappppppppppppppppppppppppppppp",
"ppppppppppppppppppppppppppppppphljhhpppppppppppppppppppppppppppp",
"ppppppppppppppppppppppppppppppphlzzh:ppppppppppppppppppppppppppp",
"ppppppppppppppppppppppppppppppphlzzs:ppppppppppppppppppppppppppp",
"ppppppppppppppppppppppppppppppphjzj:pppppppppppppppppppppppppppp",
"ppppppppppppppppppppppppppppppphlzs:pppppppppppppppppppppppppppp",
"ppppppppppppppppppppppppppppppphlzsapppppppppppppppppppppppppppp",
"ppppppppppppppppppppppppppppppphlzsapppppppppppppppppppppppppppp",
"ppppppppppppppppppppppppppppppphlzjapppppppppppppppppppppppppppp",
"ppppppppppppppppppppppppppppppphljzaappppppppppppppppppppppppppp",
"ppppppppppppppppppppppppppptttthljzapeww0ppppppppppppppppppppppp",
"pppppppppppppppppppppppppffw&&&dlzja-&&&&0%ppppppppppppppppppppp",
"pppppppppppppppppppppppptzw%   ajjda-   %&0%pppppppppppppppppppp",
"pppppppppppppppppppppppptzz*%  ;ss;;   %*0*%pppppppppppppppppppp",
"pppppppppppppppppppppppppefzzuzuurwr00w0*&%ppppppppppppppppppppp",
"pppppppppppppppppppppppppteq0**&&&%%%%%%%%%ppppppppppppppppppppp",
"ppppppppppppppppppppppppptgyreqq0**&&&&&&&%ppppppppppppppppppppp",
"ppppppppppppppppppppppppptgkzguttrrw0****&%ppp;pp;;p;;pppppppppp",
"ppppppppppppppppppppppppptgkfguttrrww0*0*&%====-----;;;p;ppppppp",
"ppppppppppppppppppppppppptgkiguttrrww0*0*&%.XXXXXXXX=--;p;pppppp",
"pppppppppppppppppppppppppptkyguttrrww0*0&%  .......XX==-;;;ppppp",
"pppppppppppppppppppppppppppttttrrrww0***%.......XXXX==-;pppppppp"
};
