/* XPM */
static char *result[] = {
/* columns rows colors chars-per-pixel */
"64 64 24 1 ",
"  c black",
". c #2C2C2C",
"X c gray22",
"o c #000070",
"O c #484848",
"+ c gray33",
"@ c #646464",
"# c #000088",
"$ c #000098",
"% c #0000A4",
"& c #0000B0",
"* c #0000BC",
"= c #0000C8",
"- c #0000D4",
"; c #0000E0",
": c #0000EC",
"> c #0000FC",
", c #2024FC",
"< c #4040FC",
"1 c #5C60FC",
"2 c #980088",
"3 c #7C80FC",
"4 c #9C9CFC",
"5 c #B8BCFC",
/* pixels */
"2222222222222222222222222222222222222222222222222222222222222222",
"2222222222222222222222222222222222222222222222222222222222222222",
"2222222222222222222222222222222222222222222222222222222222222222",
"2222222222222222222222222222222222222222222222222222222222222222",
"2222222222222222222222222222222222222222222222222222222222222222",
"2222222222222222222222222222222222222222222222222222222222222222",
"2222222222222222222222222222222222222222222222222222222222222222",
"2222222222222222222222222222222222222222222222222222222222222222",
"2222222222222222222222222222222222222222222222222222222222222222",
"2222222222222222222222222222222222222222222222222222222222222222",
"2222222222222222222222222222222222222222222222222222222222222222",
"2222222222222222222222222222222222222222222222222222222222222222",
"2222222222222222222222222222222222222222222222222222222222222222",
"2222222222222222222222222222222222222222222222222222222222222222",
"2222222222222222222222222222222222222222222222222222222222222222",
"2222222222222222222222222222222222222222222222222222222222222222",
"2222222222222222222222222222222222222222222222222222222222222222",
"2222222222222222222222222222222222222222222222222222222222222222",
"2222222222222222222222222222222222222222222222222222222222222222",
"2222222222222222222222222222222222222222222222222222222222222222",
"2222222222222222222222222222222222222222222222222222222222222222",
"2222222222222222222222222222222222222222222222222222222222222222",
"2222222222222222222222222222222222222222222222222222222222222222",
"2222222222222222222222222222222222222222222222222222222222222222",
"2222222222222222222222222222222222222222222222222222222222222222",
"2222222222222222222222222222222222222222222222222222222222222222",
"2222222222222222222222222222222222222222222222222222222222222222",
"2222222222222222222222222222222222222222222222222222222222222222",
"2222222222222222222222222222222222222222222222222222222222222222",
"2222222222222222222222222222222222222222222222222222222222222222",
"2222222222222222222222222222222222222222222222222222222222222222",
"2222222222222222222222222222222222222222222222222222222222222222",
"2222222222222222222222222222222222222222222222222222222222222222",
"222222222222222222222222222225 $;;;;>322222222222222222222222222",
"22222222222222222222222222222,5533333>22222222222222222222222222",
"222222222222222222222222222333<$$$$$$$##222222222222222222222222",
"2222222222222222222222222233455431<:=%%$#22222222222222222222222",
"2222222222222222222222222335555431<,-*%%$#2222222222222222222222",
"2222222222222222222222222345555431<,:-*%$#2222222222222222222222",
"2222222222222222222222223355555431<,:-*%$##222222222222222222222",
"2222222222222222222222223455554311<,:-*%$##222222222222222222222",
"222222222222222222222222345554331<<::-*%$##222222222222222222222",
"222222222222222222222222345544311<,:-=*%$##222222222222222222222",
"222222222222222222222222345543311<,;-=*%$##222222222222222222222",
"22222222222222222222222234554311<<,;-=*%$##222222222222222222222",
"22222222222222222222222234554311<<,;-=*%$##222222222222222222222",
"22222222222222222222222234454311<<,;-=*%$##222222222222222222222",
"22222222222222222222222234454311<<,;-=*%$##222222222222222222222",
"22222222222222222222222233454311<<,;-=*%$##222222222222222222222",
"22222222222222222222222233454311<<,;-=*%$##222222222222222222222",
"22222222222222222222222223454311<<,;-=*%$#2222222222222222222222",
"22222222222222222222222223454311<<,;-=*%$#2222222222222222222222",
"22222222222222222222222223454311<<,;-=*%$#2222222222222222222222",
"22222222222222222222222223444311<<,;-=*%$#2222222222222222222222",
"22222222222222222222222221444311<<,;-=*%$#2222222222222222222222",
"22222222222222222222222222344311<<,;-*&$#22222222222222222222222",
"22222222222222222222222222344311<,,;-*&$#22222222222222222222222",
"22222222222222222222222222133311<,,;-*%$#22222222222222222222222",
"22222222222222222222222222213311<,,;-&$#222222222222222222222222",
"22222222222222222222222222211311<,,;-&$#222222222222222222222222",
"22222222222222222222222222211111,,,;*&$#+++++@@@@@@@@@2222222222",
"2222222222222222222222222222<11<,,,;*&#.......XXXOO+++@@@@@@@222",
"2222222222222222222222222222<<<<,>;**$#......XXOO+++@@@@@2222222",
"22222222222222222222222222222ooooooooo@@@@@@@@@@@@@2222222222222"
};
