/* XPM */
static char *result[] = {
/* columns rows colors chars-per-pixel */
"64 64 22 1 ",
"  c #202020",
". c #2C2C2C",
"X c gray22",
"o c #403018",
"O c #5C4020",
"+ c #744C28",
"@ c #484848",
"# c gray33",
"$ c #646464",
"% c #9C4C00",
"& c #B45400",
"* c #885830",
"= c #9C6038",
"- c #A0643C",
"; c #CC6000",
": c #E46C00",
"> c #FC7800",
", c #A86840",
"< c #FC8820",
"1 c #FC9840",
"2 c #FCA85C",
"3 c #980088",
/* pixels */
"33333333333333333333333333%%%%%%%%%%%333333333333333333333333333",
"3333333333333333333333333333&&&&%%%33333333333333333333333333333",
"333333333333333333333333333333&:%3333333333333333333333333333333",
"333333333333333333333333333333&:%3333333333333333333333333333333",
"33333333333333333333333333333:2>;%333333333333333333333333333333",
"33333333333333333333333333<<111::::::333333333333333333333333333",
"333333333333333333333333:<<11><>%>><%::3333333333333333333333333",
"33333333333333333333333:><12>%<>%%:>:%&:333333333333333333333333",
"3333333333333333333333>;<22>33<>%33:>;%+%33333333333333333333333",
"333333333333333333333>;;22>333<>%333:;%%+%3333333333333333333333",
"333333333333333333333:;322>333<;%333:;%3+%3333333333333333333333",
"33333333333333333333:>12122222222111>>>>>%O333333333333333333333",
"33333333333333333333:>><<11111<<<<>>>::;&%O333333333333333333333",
"33333333333333333333:%&&;;::::;;;&&&%%OOOOO333333333333333333333",
"33333333333333333333:;%3<:%333:;%333%%+3%+O333333333333333333333",
"33333333333333333333:>%311%333::%333;%+3%+O333333333333333333333",
"33333333333333333333:>%311%333:>%333;%+3%+O333333333333333333333",
"33333333333333333333:>%312%333:>%333;%+3%+O333333333333333333333",
"33333333333333333333:>%312%333:>%333;%+3%+O333333333333333333333",
"33333333333333333333:>%312%333:>%333;%+3%+O333333333333333333333",
"33333333333333333333:>%312%333:>%333;%+3%+O333333333333333333333",
"33333333333333333333:>%312%333:>%333;%+3%+O333333333333333333333",
"33333333333333333333:>%312%333:>%333;%+3%+O333333333333333333333",
"33333333333333333333:>%312%333:>%333;%+3%+O333333333333333333333",
"33333333333333333333:>%312%333:>%333;%+3%+O333333333333333333333",
"33333333333333333333:>%311%333:>%333;%+3%+O333333333333333333333",
"33333333333333333333:>%311%333:>%333;%+3%+O333333333333333333333",
"333333333333333333331<;31>%333:;%333;%+3*+O333333333333333333333",
"33333333333333333333<11222222222111>>>==++O333333333333333333333",
"33333333333333333333<<<<1111111<<>>>>;;*OOO333333333333333333333",
"33333333333333333333:;;;:::::;&&+++OOOOO%+O333333333333333333333",
"33333333333333333333:>%3<:%333>;%333%%+3%+O333333333333333333333",
"33333333333333333333:>%311%333<>%333:%+3&+O333333333333333333333",
"33333333333333333333:>%312%333<>%333:%+3&+O333333333333333333333",
"33333333333333333333:>%312%333<>%333:%+3&+O333333333333333333333",
"33333333333333333333:>%312%333<>%333:%+3&+O333333333333333333333",
"33333333333333333333:>%312%333<>%333:%+3&+O333333333333333333333",
"33333333333333333333:>%312%333<>%333:%+3&+O333333333333333333333",
"33333333333333333333:>%312%333<>%333:%+3&+O333333333333333333333",
"33333333333333333333:>%312%333<>%333:%+3&+O333333333333333333333",
"33333333333333333333:>%311%<<<<>%<<<:%+3&+O333333333333333333333",
"33333333333333333333:;%:11%:::<>%::::%+<&+O333333333333333333333",
"33333333333333333333<<11<1%;;;<:%;;;:%+>;=O333333333333333333333",
"33333333333333333333:><2222222211<<<<>>*++O333333333333333333333",
"33333333333333333333:><<1122211<<<>;;;=*++O333333333333333333333",
"333333333333333333333,,11122211<<<>;;;=+oo3333333333333333333333",
"33333333333333333333333--***+++++ooooooo333333333333333333333333",
"3333333333333333333333333333333333333333333333333333333333333333",
"3333333333333333333333333333333333333333333333333333333333333333",
"3333333333333333333333333333333333333333333333333333333333333333",
"3333333333333333333333333333333333333333333333333333333333333333",
"3333333333333333333333333333333333333333333333333333333333333333",
"3333333333333333333333333333333333333333333333333333333333333333",
"3333333333333333333333333333333333333333333333333333333333333333",
"3333333333333333333333333333333333333333333333333333333333333333",
"3333333333333333333333333333333333333333333333333333333333333333",
"3333333333333333333333333333333333333333333333333333333333333333",
"3333333333333333333333333333333333333333333333333333333333333333",
"3333333333333333333333333333333333333333333333333333333333333333",
"3333333333333333333333333333333333333333333333333333333333333333",
"3333333333333333333333333$$$$################$$$$333333333333333",
"33333333333333333333333$$##@@XXXXXXXXXXXXXXXXX@#$$33333333333333",
"333333333333333333333$$##@XXXX..          .X@@#$$$33333333333333",
"33333333333333333333333$##@@@XXXXXXXXXXXX@@##$$$3333333333333333"
};
