/* XPM */
static char *result[] = {
/* columns rows colors chars-per-pixel */
"64 64 17 1 ",
"  c #2C2C2C",
". c gray22",
"X c #484848",
"o c gray33",
"O c #646464",
"+ c gray44",
"@ c #7C7C7C",
"# c #980088",
"$ c gray55",
"% c #989898",
"& c gray66",
"* c #B4B4B4",
"= c #C0C0C0",
"- c #D0D0D0",
"; c gainsboro",
": c #ECECEC",
"> c gray99",
/* pixels */
"################################################################",
"################################################################",
"################################################################",
"################################################################",
"################################################################",
"################################################################",
"################################################################",
"################################################################",
"################################################################",
"################################################################",
"################################################################",
"################################################################",
"################################################################",
"################################################################",
"################################################################",
"################################################################",
"################################################################",
"################################################################",
"################################################################",
"################################################################",
"################################################################",
"################################################################",
"################################################################",
"################################################################",
"################################################################",
"################################################################",
"################################################################",
"################################################################",
"################################################################",
"################################################################",
"################################################################",
"################################################################",
"################################################################",
"################################################################",
"################################################################",
"################################################################",
"################################################################",
"################################################################",
"################################################################",
"################################################################",
"################################################################",
"################################################################",
"################################################################",
"################################################################",
"################################################################",
"################################################################",
"################################################################",
"################################################################",
"################################################################",
"########################****####################################",
"#######################*;;***##;#########-&-####################",
"#################--%##*;;=%%&*;&$;$$####-----####;;#############",
"#################-X%%#*==@@@O;;;;==$$##-&-&-&&&##;;;############",
"##############&&#%+%;;;=%OOOo+=;&$+X$$&*&OOO&&$$#;==%###########",
"###########&&#&&&;&;>>>>=&Ooo+;=$X  $&=-%@@@$$$@-=#%############",
"###############&;&%O$;=;>:*:>$=$X-----&=%@X@@@@-=####&-----&####",
"##########;;####;&>@.=&=;:O:;&$$->>;;;- + Oooo-=%**#&-&+-+&%&###",
"###--##&-;&&&##;&o>>>;@=&-O-&&&+=>;;;;= XX&@o-=&+%%*&&+++&-%&#&#",
"###-&&&-&&X+&&-&@o;=@@o@@@oo+++.=@@&@@=+X&-;;*&o@%%%++&&++-%##&#",
"##########$$$$;&o$%%@.ooooo.-+.=;.O.o.;= O&--=.@@;&+&&&&+---=*$#",
"#######&---&+;&X####o.+.o---*@o%;;>$=;;% XO&&@..@%&;----%*===$$#",
"######&##-##;X&X#>-*+o%o=;;+%ooo+-;;;-+o.+%-;-%oo+%&&%%%%#######",
"########&###&&&X#>-*=*%%&$X*+   $$===$$.+$&--$%ooo@@@@@@@@@#####",
"########################=;;*O+#+*=;;;*%...o$$oo++#oooooo########"
};
