/* XPM */
static char *result[] = {
/* columns rows colors chars-per-pixel */
"64 64 14 1 ",
"  c black",
". c #202020",
"X c #2C2C2C",
"o c gray22",
"O c #484848",
"+ c gray33",
"@ c #646464",
"# c #7C7C7C",
"$ c #980088",
"% c gray55",
"& c #989898",
"* c gray66",
"= c #B4B4B4",
"- c #C0C0C0",
/* pixels */
"$$$$$$$$$$$$$$$$$$$$$$$$$$$$$$$$$$$$$$$$$$$$$$$$$$$$$$$$$$$$$$$$",
"$$$$$$$$$$$$$$$$$$$$$$$$$$$$$$$$$$$$$$$$$$$$$$$$$$$$$$$$$$$$$$$$",
"$$$$$$$$$$$$$$$$$$$$$$$$$$$$$$$$$$$$$$$$$$$$$$$$$$$$$$$$$$$$$$$$",
"$$$$$$$$$$$$$$$$$$$$$$$$$$$$$$$$$$$$$$$$$$$$$$$$$$$$$$$$$$$$$$$$",
"$$$$$$$$$$$$$$$$$$$$$$$$$$$$$$$$$$$$$$$$$$$$$$$$$$$$$$$$$$$$$$$$",
"$$$$$$$$$$$$$$$$$$$$$$$$$$$$$$$$$$$$$$$$$$$$$$$$$$$$$$$$$$$$$$$$",
"$$$$$$$$$$$$$$$$$$$$$$$$$$$$$$$$$$$$$$$$$$$$$$$$$$$$$$$$$$$$$$$$",
"$$$$$$$$$$$$$$$$$$$$$$$$$$$$$$$$$$$$$$$$$$$$$$$$$$$$$$$$$$$$$$$$",
"$$$$$$$$$$$$$$$$$$$$$$$$$$$$$$$$$$$$$$$$$$$$$$$$$$$$$$$$$$$$$$$$",
"$$$$$$$$$$$$$$$$$$$$$$$$$$$$$$$$$$$$$$$$$$$$$$$$$$$$$$$$$$$$$$$$",
"$$$$$$$$$$$$$$$$$$$$$$$$$$$$$$$$$$$$$$$$$$$$$$$$$$$$$$$$$$$$$$$$",
"$$$$$$$$$$$$$$$$$$$$$$$$$$$$$$$$$$$$$$$$$$$$$$$$$$$$$$$$$$$$$$$$",
"$$$$$$$$$$$$$$$$$$$$$$$$$$$$$$$$$$$$$$$$$$$$$$$$$$$$$$$$$$$$$$$$",
"$$$$$$$$$$$$$$$$$$$$$$$$$$$$$$$$$$$$$$$$$$$$$$$$$$$$$$$$$$$$$$$$",
"$$$$$$$$$$$$$$$$$$$$$$$$$$$$$$$$$$$$$$$$$$$$$$$$$$$$$$$$$$$$$$$$",
"$$$$$$$$$$$$$$$$$$$$$$$$$$$$$$$$$$$$$$$$$$$$$$$$$$$$$$$$$$$$$$$$",
"$$$$$$$$$$$$$$$$$$$$$$$$$$$$$$$$$$$$$$$$$$$$$$$$$$$$$$$$$$$$$$$$",
"$$$$$$$$$$$$$$$$$$$$$$$$$$$$$$$$$$$$$$$$$$$$$$$$$$$$$$$$$$$$$$$$",
"$$$$$$$$$$$$$$$$$$$$$$$$$$$$$$$$$$$$$$$$$$$$$$$$$$$$$$$$$$$$$$$$",
"$$$$$$$$$$$$$$$$$$$$$$$$$$$$$$$$$$$$$$$$$$$$$$$$$$$$$$$$$$$$$$$$",
"$$$$$$$$$$$$$$$$$$$$$$$$$$$$$$$$$$$$$$$$$$$$$$$$$$$$$$$$$$$$$$$$",
"$$$$$$$$$$$$$$$$$$$$$$$$$$$$$$$$$$$$$$$$$$$$$$$$$$$$$$$$$$$$$$$$",
"$$$$$$$$$$$$$$$$$$$$$$$$$$$$$$$$$$$$$$$$$$$$$$$$$$$$$$$$$$$$$$$$",
"$$$$$$$$$$$$$$$$$$$$$$$$$$$$$$$$$$$$$$$$$$$$$$$$$$$$$$$$$$$$$$$$",
"$$$$$$$$$$$$$$$$$$$$$$$$$$$$$$$$$$$$$$$$$$$$$$$$$$$$$$$$$$$$$$$$",
"$$$$$$$$$$$$$$$$$$$$$$$$$$$$$$$$$$$$$$$$$$$$$$$$$$$$$$$$$$$$$$$$",
"$$$$$$$$$$$$$$$$$$$$$$$$$$$$$$$$$$$$$$$$$$$$$$$$$$$$$$$$$$$$$$$$",
"$$$$$$$$$$$$$$$$$$$$$$$$$$$$$$$$$$$$$$$$$$$$$$$$$$$$$$$$$$$$$$$$",
"$$$$$$$$$$$$$$$$$$$$$$$$$$$$$$$$$$$$$$$$$$$$$$$$$$$$$$$$$$$$$$$$",
"$$$$$$$$$$$$$$$$$$$$$$$$$$$$$$$$$$$$$$$$$$$$$$$$$$$$$$$$$$$$$$$$",
"$$$$$$$$$$$$$$$$$$$$$$$$$$$$$$$$$$$$$$$$$$$$$$$$$$$$$$$$$$$$$$$$",
"$$$$$$$$$$$$$$$$$$$$$$$$$$$$$$$$$$$$$$$$$$$$$$$$$$$$$$$$$$$$$$$$",
"$$$$$$$$$$$$$$$$$$$$$$$$$$$$$$$$$$$$$$$$$$$$$$$$$$$$$$$$$$$$$$$$",
"$$$$$$$$$$$$$$$$$$$$$$$$$$$$$$$$$$$$$$$$$$$$$$$$$$$$$$$$$$$$$$$$",
"$$$$$$$$$$$$$$$$$$$$$$$$$$$$$$$$$$$$$$$$$$$$$$$$$$$$$$$$$$$$$$$$",
"$$$$$$$$$$$$$$$$$$$$$$$$$$$$$$$$$$$$$$$$$$$$$$$$$$$$$$$$$$$$$$$$",
"$$$$$$$$$$$$$$$$$$$$$$$$$$$$$$$$$$$$$$$$$$$$$$$$$$$$$$$$$$$$$$$$",
"$$$$$$$$$$$$$$$$$$$$$$$$$$$$$$$$$$$$$$$$$$$$$$$$$$$$$$$$$$$$$$$$",
"$$$$$$$$$$$$$$$$$$$$$$$$$$$$$$$$$$$$$$$$$$$$$$$$$$$$$$$$$$$$$$$$",
"$$$$$$$$$$$$$$$$$$$$$$$$$$$$$$$$$$$$$$$$$$$$$$$$$$$$$$$$$$$$$$$$",
"$$$$$$$$$$$$$$$$$$$$$$$$$$$$$$$$$$$$$$$$$$$$$$$$$$$$$$$$$$$$$$$$",
"$$$$$$$$$$$$$$$$$$$$$$$$$$$$$$$$$$$$$$$$$$$$$$$$$$$$$$$$$$$$$$$$",
"$$$$$$$$$$$$$$$$$$$$$%*=------------*%$$$$$$$$$$$$$$$$$$$$$$$$$$",
"$$$$$$$$$$$$$$$$$$$$&&&&&&&&&&&&&&&&&&%#$$$$$$$$$$$$$$$$$$$$$$$$",
"$$$$$$$$$$$$$$$$$#&######################&&#$$$$$$$$$$$$$$$$$$$$",
"$$$$$$$$$$$$$$$#============================*#$$$$$$$$$$$$$$$$$$",
"$$$$$$$$$$$$$#--------------------------------*#$$$$$$$$$$$$$$$$",
"$$$$$$$$$$$$#-----------------------------------*#$$$$$$$$$$$$$$",
"$$$$$$$$$$$$-*&&&&&&&&&&&&&&&&&&&&&&&&&&&&&&&&&&&##$$$$$$$$$$$$$",
"$$$$$$$$$$$$-*%%%%%%%%%%%%%%%%%%%%%%%%%%%%%%%%%%%%#$$$$$$$$$$$$$",
"$$$$$$$$$$$$-*%%%%%%%%%%%%%%%%%%%%%%%%%%%%%%%%%%%##$$$$$$$$$$$$$",
"$$$$$$$$$$$$%#####################################@$$$$$$$$$$$$$",
"$$$$$$$$$$$$O+OOOOOOOOOOOOOOOOOOOOOOOOOOOOOOOOOOOOo$$$$$$$$$$$$$",
"$$$$$$$$$$$O+Ooooooooooooooooooooooooooooooooooooooo$$$$$$$$$$$$",
"$$$$$$$$$$$OOoXXXXXXXXXXXXXXXXXXXXXXXXXXXXXXXXXXXXoX$$$$$$$$$$$$",
"$$$$$$$$$$$OoX$$$X $$$$$$$$$$$$$$$$$$$$$$$$$X $$$XoX$$$$$$$$$$$$",
"$$$$$$$$$$$OoX$$$X $$$$$$$$$$$$$$$$$$$$$$$$$X $$$XoX$$$$$$$$$$$$",
"$$$$$$$$$$$OoX$$$$$$@@+++OOOOOOOOOOOOOO++++++@@@$XoX$$$$$$$$$$$$",
"$$$$$$$$$$$OoX$$$$$@@+OooooooooooooooooooOO+++@@@XoX$$$$$$$$$$$$",
"$$$$$$$$$$$OoX$$$$@@+OoXX.............XXXoOOO+++@XoX$$$$$$$$$$$$",
"$$$$$$$$$$$OoX$$$@@+OoXX...............XXXooOO+++XoX@$$$$$$$$$$$",
"$$$$$$$$$$$OoX$$@@+OoXXXXXXXXXXXXXXXXXXXXXXooOOO+XoX@@@$$$$$$$$$",
"$$$$$$$$$$$OoX$@@+OoooooooooooooooooooooooooooOOOXoX+@@@$$$$$$$$",
"$$$$$$$$$$$OoX@@+++++++++++++++++++++++++++++++++XoX++@@@@$$$$$$"
};
