/* XPM */
static char *result[] = {
/* columns rows colors chars-per-pixel */
"64 64 25 1 ",
"  c gray22",
". c #483818",
"X c #543C1C",
"o c #5C4020",
"O c #6C4824",
"+ c #744C28",
"@ c #484848",
"# c gray33",
"$ c #646464",
"% c #80502C",
"& c #885830",
"* c #905C34",
"= c #9C6038",
"- c #A0643C",
"; c #A86840",
": c #B47044",
"> c #BC7848",
", c #C87C4C",
"< c #D08050",
"1 c #DC8854",
"2 c #E88C58",
"3 c #F0945C",
"4 c #FC9C60",
"5 c #FCA470",
"6 c #980088",
/* pixels */
"6666666666666666666666666666666666666666666666666666666666666666",
"6666666666666666666666666666666666666666666666666666666666666666",
"6666666666666666666666666666666666666666666666666666666666666666",
"6666666666666666666666666666666666666666666666666666666666666666",
"6666666666666666666666666666666666666666666666666666666666666666",
"6666666666666666666666666666666666666666666666666666666666666666",
"6666666666666666666666666666666666666666666666666666666666666666",
"6666666666666666666666666666666666666666666666666666666666666666",
"6666666666666666666666666666666666666666666666666666666666666666",
"6666666666666666666666666666666666666666666666666666666666666666",
"6666666666666666666666666666666666666666666666666666666666666666",
"6666666666666666666666666666666666666666666666666666666666666666",
"6666666666666666666666666666666666666666666666666666666666666666",
"6666666666666666666666666666666666666666666666666666666666666666",
"6666666666666666666666666666666666666666666666666666666666666666",
"6666666666666666666666666666666666666666666666666666666666666666",
"6666666666666666666666666666666666666666666666666666666666666666",
"6666666666666666666666666666666666666666666666666666666666666666",
"6666666666666666666666666666666666666666666666666666666666666666",
"6666666666666666666666666666666666666666666666666666666666666666",
"6666666666666666666666666666666666666666666666666666666666666666",
"6666666666666666666666666666666666666666666666666666666666666666",
"6666666666666666666666666666666666666666666666666666666666666666",
"6666666666666666666666666666666666666666666666666666666666666666",
"6666666666666666666666666666666666666666666666666666666666666666",
"6666666666666666666666666666666666666666666666666666666666666666",
"6666666666666666666666666666666666666666666666666666666666666666",
"6666666666666666666666666666666666666666666666666666666666666666",
"6666666666666666666666666666666666666666666666666666666666666666",
"6666666666666666666666666666666666666666666666666666666666666666",
"6666666666666666666666666666666666666666666666666666666666666666",
"6666666666666666666666666666666666666666666666666666666666666666",
"6666666666666666666666666666666666666666666666666666666666666666",
"6666666666666666666666666666666666666666666666666666666666666666",
"6666666666666666666666666666666666666666666666666666666666666666",
"6666666666666666666666666666666666666666666666666666666666666666",
"6666666666666666666666666666666666666666666666666666666666666666",
"6666666666666666666666666666666666666666666666666666666666666666",
"6666666666666666666666666666666666666666666666666666666666666666",
"6666666666666666666666666666666666666666666666666666666666666666",
"6666666666666666666666666666666666666666666666666666666666666666",
"6666666666666666666666666666666666666666666666666666666666666666",
"6666666666666666666666666666666666666666666666666666666666666666",
"6666666666666666666666666666666666666666666666666666666666666666",
"6666666666666666666666666666666666666666666666666666666666666666",
"6666666666666666666666666666666666666666666666666666666666666666",
"6666666666666666666666666666666666666666666666666666666666666666",
"6666666666666666666666666666666666666666666666666666666666666666",
"6666666666666666666666666-------------66666666666666666666666666",
"66666666666666666666666,-OOOOOOOOOOOOO-,666666666666666666666666",
"6666666666666666666666,O....XXXXXXXXoOOO,66666666666666666666666",
"66666666666666666666661-..XXXXXXXXXXXXO-;66666666666666666666666",
"666666666666666666666614,,,,,,,,;****;,,=66666666666666666666666",
"6666666666666666666661O34554,4433,OO:<,;O=6666666666666666666666",
"6666666666666666666661::152444333,%%:<>=&%6666666666666666666666",
"666666666666666666666:--14<544333,%%:,>=&+6666666666666666666666",
"66666666666666666666666634<344333,%*<,;6666666666666666666666666",
"66666666666666666666666634<244132,%;,>;6666666666666666666666666",
"666666666666666666666666>3<244,32,;<,>=6666666666666666666666666",
"666666666666666666666666613<54,32,%<,;66666666666666666666666666",
"6666666666666666666666666132541321;,>=66666666666666666666666666",
"6666666666666666666666666614543321<>= @##$$$66666666666666666666",
"666666666666666666666666666,,,::::;= @@@###$$6666666666666666666",
"6666666666666666666666666666666666666666666666666666666666666666"
};
