/* XPM */
static char *result[] = {
/* columns rows colors chars-per-pixel */
"64 64 41 1 ",
"  c black",
". c #202020",
"X c #2C2C2C",
"o c gray22",
"O c #585400",
"+ c #706C00",
"@ c #004040",
"# c #005858",
"$ c #006C6C",
"% c #007474",
"& c #007878",
"* c #007C7C",
"= c gray25",
"- c #484848",
"; c #4C4C4C",
": c gray33",
"> c gray36",
", c #646464",
"< c gray44",
"1 c #848400",
"2 c #9C9C00",
"3 c #B4AC00",
"4 c #CCC400",
"5 c #E4D800",
"6 c #FCFC54",
"7 c #980088",
"8 c #008484",
"9 c #008C8C",
"0 c #009898",
"q c #00A4A4",
"w c #20B0B0",
"e c #20B4B4",
"r c #48C0C0",
"t c #74C8C8",
"y c #989898",
"u c gray66",
"i c #B4B4B4",
"p c #9CDCDC",
"a c #B8E8E8",
"s c #C0C0C0",
"d c #ECECEC",
/* pixels */
"7777777777777777777777777777777777777777777777777777777777777777",
"7777777777777777777777777777777777777777777777777777777777777777",
"7777777777777777777777777777777777777777777777777777777777777777",
"7777777777777777777777777777777777777777777777777777777777777777",
"7777777777777777777777777777777777777777777777777777777777777777",
"7777777777777777777777777777777777777777777777777777777777777777",
"7777777777777777777777777777777777777777777777777777777777777777",
"7777777777777777777777777777777777777777777777777777777777777777",
"7777777777777777777777777777777777777777777777777777777777777777",
"7777777777777777777777777777777777777777777777777777777777777777",
"7777777777777777777777777777777777777777777777777777777777777777",
"7777777777777777777777777777777777777777777777777777777777777777",
"7777777777777777777777777777777777777777777777777777777777777777",
"7777777777777777777777777777777777777777777777777777777777777777",
"7777777777777777777777777777777777777777777777777777777777777777",
"7777777777777777777777777777777777777777777777777777777777777777",
"7777777777777777777777777777777777777777777777777777777777777777",
"7777777777777777777777777777777777777777777777777777777777777777",
"7777777777777777777777777777777777777777777777777777777777777777",
"7777777777777777777777777777777777777777777777777777777777777777",
"7777777777777777777777777777777777777777777777777777777777777777",
"7777777777777777777777777777777777777777777777777777777777777777",
"7777777777777777777777777777777777777777777777777777777777777777",
"7777777777777777777777777777777777777777777777777777777777777777",
"7777777777777777777777777777777777777777777777777777777777777777",
"7777777777777777777777777777777777777777777777777777777777777777",
"7777777777777777777777777777777777777777777777777777777777777777",
"7777777777777777777777777777777777777777777777777777777777777777",
"7777777777777777777777777777777777777777777777777777777777777777",
"7777777777777777777777777777777777777777777777777777777777777777",
"7777777777777777777777777777777777777777777777777777777777777777",
"7777777777777777777777777777777777777777777777777777777777777777",
"7777777777777777777777777777777777777777777777777777777777777777",
"7777777777777777777777777777777777777777777777777777777777777777",
"7777777777777777777777777777777777777777777777777777777777777777",
"7777777777777777777777777777777777777777777777777777777777777777",
"7777777777777777777777777777777777777777777777777777777777777777",
"7777777777777777777777777777777777777777777777777777777777777777",
"7777777777777777777777777777777777777777777777777777777777777777",
"7777777777777777777777777777777777777777777777777777777777777777",
"7777777777777777777777777777777777777777777777777777777777777777",
"7777777777777777777777777777777777777777777777777777777777777777",
"7777777777777777777777777777777777777777777777777777777777777777",
"7777777777777777777777777777777777777777777777777777777777777777",
"7777777777777777777777777777777777777466666665422777777777777777",
"7777777777777777777777777777777777774333333331OO+177777777777777",
"77777777777777777777777777777prwqqq$OOOOOOOOOOX O+77777777777777",
"777777777ii7777777777777ttttupppppp$--oooXXXXXXpppptq98777777777",
"77777dpppyytaaaaaaaaaaaaaaaa%wwwwww08*%%%%%*80ettttq988$77777777",
"77777$$@@<< 88888888888#0ee0#88888*&%$$$$$$$$%*8888%%$##77777777",
"7777qsrrr,,%qqqqqqqqqqqq%%%%o##########################@77777777",
"77777#@@@-- @@@@@@@@@@@ @@@@X@@@@@@@@@@@@@@@@@@@@@@@@@@@77777777",
"77777o   oo             .... ..........................777777777",
"777777777  777777777777777.ooooo..      . 7  #     o  7777777777",
"777777777777777777777777777X----.77777777.            o777777777",
"77777777777777777777777777o-----.777777777777777o      o77777777",
"777777777777777777777777777o----o7777777777777777o  o  o77777777",
"77777777777777777777777777o------o777777777777777o     o77777777",
"77777777777777777777777777o.......7777777777777777ooooo777777777",
"7777777777777777777777777777777777777777777777777777777777777777",
"777777777777,,,>>>:::::::::::::::::::::::::::::::::::::>>>,77777",
"7777777777,,>:::------------===========------------=======-:,777",
"7777777777,,>:::------------==ooooooo==------------=ooooo=-::,77",
"7777777777777,,,,>>>>:::::::;;-------;;:::::::::::::;---:>,,,777"
};
