/* XPM */
static char *result[] = {
/* columns rows colors chars-per-pixel */
"64 64 32 1 ",
"  c gray22",
". c #640000",
"X c #700000",
"o c #7C0000",
"O c #484848",
"+ c gray33",
"@ c #646464",
"# c gray44",
"$ c #7C7C7C",
"% c #880000",
"& c #980000",
"* c #A40000",
"= c #A80000",
"- c #BC0000",
"; c #D40000",
": c #E00000",
"> c #EC0000",
", c #FC0000",
"< c #FC2020",
"1 c #FC5454",
"2 c #FC5C5C",
"3 c #980088",
"4 c gray55",
"5 c #989898",
"6 c gray66",
"7 c #B4B4B4",
"8 c #FC9C9C",
"9 c #C0C0C0",
"0 c #D0D0D0",
"q c gainsboro",
"w c #ECECEC",
"e c gray99",
/* pixels */
"3333333333333333333333333333333333333333333333333333333333333333",
"3333333333333333333333333333333333333333333333333333333333333333",
"3333333333333333333333333333333333333333333333333333333333333333",
"3333333333333333333333333333333333333333333333333333333333333333",
"3333333333333333333333333333333333333333333333333333333333333333",
"3333333333333333333333333333333333333333333333333333333333333333",
"3333333333333333333333333333333333333333333333333333333333333333",
"3333333333333333333333333333333333333333333333333333333333333333",
"3333333333333333333333333333333333333333333333333333333333333333",
"3333333333333333333333333333333333333333333333333333333333333333",
"3333333333333333333333333333333333333333333333333333333333333333",
"3333333333333333333333333333333333333333333333333333333333333333",
"3333333333333333333333333333333333333333333333333333333333333333",
"3333333333333333333333333333333333333333333333333333333333333333",
"3333333333333333333333333333333333333333333333333333333333333333",
"3333333333333333333333333333333333333333333333333333333333333333",
"3333333333333333333333333333333333333333333333333333333333333333",
"3333333333333333333333333333333333333333333333333333333333333333",
"3333333333333333333333333333333333333333333333333333333333333333",
"3333333333333333333333333333333333333333333333333333333333333333",
"3333333333333333333333333333333333333333333333333333333333333333",
"3333333333333333333333333333333333333333333333333333333333333333",
"3333333333333333333333333333333333333333333333333333333333333333",
"3333333333333333333333333333333333333333333333333333333333333333",
"3333333333333333333333333333333333333333333333333333333333333333",
"3333333333333333333333333333333333333333333333333333333333333333",
"3333333333333333333333333333333333333333333333333333333333333333",
"3333333333333333333333333333333333333333333333333333333333333333",
"3333333333333333333333333333333333333333333333333333333333333333",
"3333333333333333333333333333333333333333333333333333333333333333",
"3333333333333333333333333333333333333333333333333333333333333333",
"3333333333333333333333333333333333333333333333333333333333333333",
"3333333333333333333333333333333333333333333333333333333333333333",
"3333333333333333333333333333333333333333333333333333333333333333",
"3333333333333333333333333333333333333333333333333333333333333333",
"3333333333333333333333333333333333333333333333333333333333333333",
"3333333333333333333333333333333333333333333333333333333333333333",
"3333333333333333333333333333333333333333333333333333333333333333",
"3333333333333333333333333333333333333333333333333333333333333333",
"3333333333333333333333333333333333333333333333333333333333333333",
"3333333333333333333333333333333333333333333333333333333333333333",
"3333333333333333333333333333333333333333333333333333333333333333",
"3333333333333333333333333333333333333333333333333333333333333333",
"3333333333333333333333333333333333333333333333333333333333333333",
"3333333333333333333333333333333333333333333333333333333333333333",
"3333333333333333333333333333333333333333333333333333333333333333",
"3333333333333333333333333333333333333333333333333333333333333333",
"3333333333333333333333333333333333333333333333333333333333333333",
"3333333333333333333333333333333333333333333333333333333333333333",
"3333333333333333333333333333333333333333333333333333333333333333",
"3333333333333333333333333333333333333333333333333333333333333333",
"3333333333333333333333333333333333333333333333333333333333333333",
"33333333333333wwq09333333333333333333333333333333333333333333333",
"3333333333333www9wq933333333333333333333333333333333333333333333",
"333333333333wwwqqw$@53333333333333333333333333333333333333333333",
"333333333333wwq096 @5O333333333333333333333333333333333333333333",
"333333333333qq0060q055333333&3333333333&&&3333333&33333333333333",
"33333333333&50965#q765$&333333333w033333333003333333333333333333",
"3333&&333333355##OO+$$OO=====ooo05@5oo3333075#=7=3373===3&3>3333",
"3333333333&&&&&&&&&&&O+@@33=====#55555555555##;7;337333333333333",
"333&%%&&&&&<&&&&&&&&%%%%3==33w4woooooooooo,,,900093533:::&3&3--3",
"3&&3....%%&&&4ewwq04X---=1==3ew2823333,,111,,777754#3-:--=o33333",
"33333333.....4444444-<<<-=33<@4822w6w33,,11111####*3&3=ooo33==33",
"33333=333333333,,3=333---33,,,22450@63333,,,,,;;;333333333333333"
};
