/* XPM */
static char *result[] = {
/* columns rows colors chars-per-pixel */
"64 64 19 1 ",
"  c black",
". c #202020",
"X c #2C2C2C",
"o c gray22",
"O c #484848",
"+ c gray33",
"@ c #646464",
"# c gray44",
"$ c #7C7C7C",
"% c #980088",
"& c gray55",
"* c #989898",
"= c gray66",
"- c #B4B4B4",
"; c #C0C0C0",
": c #D0D0D0",
"> c gainsboro",
", c #ECECEC",
"< c gray99",
/* pixels */
"%%%%%%%%%%%%%%%%%%%%%%%%%%%%%%%%%%%%%%%%%%%%%%%%%%%%%%%%%%%%%%%%",
"%%%%%%%%%%%%%%%%%%%%%%%%%%%%%%%%%%%%%%%%%%%%%%%%%%%%%%%%%%%%%%%%",
"%%%%%%%%%%%%%%%%%%%%%%%%%%%%%%%%%%%%%%%%%%%%%%%%%%%%%%%%%%%%%%%%",
"%%%%%%%%%%%%%%%%%%%%%%%%%%%%%%%%%%%%%%%%%%%%%%%%%%%%%%%%%%%%%%%%",
"%%%%%%%%%%%%%%%%%%%%%%%%%%%%%%%%%%%%%%%%%%%%%%%%%%%%%%%%%%%%%%%%",
"%%%%%%%%%%%%%%%%%%%%%%%%%%%%%%%%%%%%%%%%%%%%%%%%%%%%%%%%%%%%%%%%",
"%%%%%%%%%%%%%%%%%%%%%%%%%%%%%%%%%%%%%%%%%%%%%%%%%%%%%%%%%%%%%%%%",
"%%%%%%%%%%%%%%%%%%%%%%%%%%%%%%%%%%%%%%%%%%%%%%%%%%%%%%%%%%%%%%%%",
"%%%%%%%%%%%%%%%%%%%%%%%%%%%%%%%%%%%%%%%%%%%%%%%%%%%%%%%%%%%%%%%%",
"%%%%%%%%%%%%%%%%%%%%%%%%%%%%%%%%%%%%%%%%%%%%%%%%%%%%%%%%%%%%%%%%",
"%%%%%%%%%%%%%%%%%%%%%%%%%%%%%%%%%%%%%%%%%%%%%%%%%%%%%%%%%%%%%%%%",
"%%%%%%%%%%%%%%%%%%%%%%%%%%%%%%%%%%%%%%%%%%%%%%%%%%%%%%%%%%%%%%%%",
"%%%%%%%%%%%%%%%%%%%%%%%%%%%%%%%%%%%%%%%%%%%%%%%%%%%%%%%%%%%%%%%%",
"%%%%%%%%%%%%%%%%%%%%%%%%%%%%%%%%%%%%%%%%%%%%%%%%%%%%%%%%%%%%%%%%",
"%%%%%%%%%%%%%%%%%%%%%%%%%%%%%%%%%%%%%%%%%%%%%%%%%%%%%%%%%%%%%%%%",
"%%%%%%%%%%%%%%%%%%%%%%%%%%%%%%%%%%%%%%%%%%%%%%%%%%%%%%%%%%%%%%%%",
"%%%%%%%%%%%%%%%%%%%%%%%%%%%%%%%%%%%%%%%%%%%%%%%%%%%%%%%%%%%%%%%%",
"%%%%%%%%%%%%%%%%%%%%%%%%%%%%%%%%%%%%%%%%%%%%%%%%%%%%%%%%%%%%%%%%",
"%%%%%%%%%%%%%%%%%%%%%%%%%%%%%%%%%%%%%%%%%%%%%%%%%%%%%%%%%%%%%%%%",
"%%%%%%%%%%%%%%%%%%%%%%%%%%%%%%%%%%%%%%%%%%%%%%%%%%%%%%%%%%%%%%%%",
"%%%%%%%%%%%%%%%%%%%%%%%%%%%%%%%%%%%%%%%%%%%%%%%%%%%%%%%%%%%%%%%%",
"%%%%%%%%%%%%%%%%%%%%%%%%%%%%%%%%%%%%%%%%%%%%%%%%%%%%%%%%%%%%%%%%",
"%%%%%%%%%%%%%%%%%%%%%%%%%%%%%%%%%%%%%%%%%%%%%%%%%%%%%%%%%%%%%%%%",
"%%%%%%%%%%%%%%%%%%%%%%%%%%%%%%%%%%%%%%%%%%%%%%%%%%%%%%%%%%%%%%%%",
"%%%%%%%%%%%%%%%%%%%%%%%%%%%%%%%%%%%%%%%%%%%%%%%%%%%%%%%%%%%%%%%%",
"%%%%%%%%%%%%%%%%%%%%%%%%%%%%%%%%%%%%%%%%%%%%%%%%%%%%%%%%%%%%%%%%",
"%%%%%%%%%%%%%%%%%%%%%%%%%%%%%%%%%%%%%%%%%%%%%%%%%%%%%%%%%%%%%%%%",
"%%%%%%%%%%%%%%%%%%%%%%%%%%%%%%%%%%%%%%%%%%%%%%%%%%%%%%%%%%%%%%%%",
"%%%%%%%%%%%%%%%%%%%%%%%%%%%%%%%%%%%%%%%%%%%%%%%%%%%%%%%%%%%%%%%%",
"%%%%%%%%%%%%%%%%%%%%%%%%%%%%%%%%%%%%%%%%%%%%%%%%%%%%%%%%%%%%%%%%",
"%%%%%%%%%%%%%%%%%%%%%%%%%%%%%%%%%%%%%%%%%%%%%%%%%%%%%%%%%%%%%%%%",
"%%%%%%%%%%%%%%%%%%%%%%%%%%%%%%%%%%%%%%%%%%%%%%%%%%%%%%%%%%%%%%%%",
"%%%%%%%%%%%%%%%%%%%%%%%%%%%%%%%%%%%%%%%%%%%%%%%%%%%%%%%%%%%%%%%%",
"%%%%%%%%%%%%%%%%%%%%%%%%%%%%%%%%%%%%%%%%%%%%%%%%%%%%%%%%%%%%%%%%",
"%%%%%%%%%%%%%%%%%%%%%%%%%%%%%%%%%%%%%%%%%%%%%%%%%%%%%%%%%%%%%%%%",
"%%%%%%%%%%%%%%%%%%%%%%%%%%%%%%%%%%%%%%%%%%%%%%%%%%%%%%%%%%%%%%%%",
"%%%%%%%%%%%%%%%%%%%%%%%%%%%%%%%%%%%%%%%%%%%%%%%%%%%%%%%%%%%%%%%%",
"%%%%%%%%%%%%%%%%%%%%%%%%%%%%%%%%%%%%%%%%%%%%%%%%%%%%%%%%%%%%%%%%",
"%%%%%%%%%%%%%%%%%%%%%%%%%%%%%%%%%%%%%%%%%%%%%%%%%%%%%%%%%%%%%%%%",
"%%%%%%%%%%%%%%%%%%%=:::::%=::%%:::::::==%%%%%%%%%%%%%%%%%%%%%%%%",
"%%%%%%%%%%%%>>>>>$:,,,:::$,::$:,,,,,::::$::::%%%%%%%%%%%%%%%%%%%",
"%%%%%%%%%%->><::=+*===*$$+$$$+$$$****===+$==::;*%%%%%%%%%%%%%%%%",
"%%%%%%%%%-===&*#+o+@@+Ooo.ooo.ooOOO+@@@@o@$$$====#%%%%%%%%%%%%%%",
"%%%%%%%%%->,:&#Oo.XXXXX.  ooO.  Xo+++++o.o@@+$=>;*#%%%%%%%%%%%%%",
"%%%%%%%%%*>,,:&+XXXXXXXXo  XX.ooooooooo  +++o@####O%%%%%%%%%%%%%",
"%%%%%%%%%$->,<-&::==*&&$##@OOOO@@##$$$**===$=:*=o#O%%%%%%%%%%%%%",
"%%%%%%%%%%#-::-@<<:;*:::::==*:>>>>>>=$><<>=$:*#@oO%%%%%%%%%%%%%%",
"%%%%%%%%%::#**&+<===#<<;;;;=$<,,::::=$:=$#$O##+O +O%%%%%%%%%%%%%",
"%%%%%%%%%:<=#$$$$$$$######++$:======$O###OO+XXXXO+O%%%%%%%%%%%%%",
"%%%%%%%%%::#<<<>=#=<:=*#@$$$$$$$###@@oOOO+*-&#@XO+o%%%%%%%%%%%%%",
"%%%%%%%%%%=#<>::=#<::::::*@*>::-===&&$$#+o-&&#@X+oX%%%%%%%%%%%%%",
"%%%%%%%%%=<+::::=+<=======#$>,==&&&&$$$@+o-&$#+XOO%%%%%%%%%%%%%%",
"%%%%%%%%%=:<#===#++###$$$#@o+*$$$$###@@++X&$@OXoOXX%%%%%%%%%%%%%",
"%%%%%%%%%#=:::##+++o++oooooo++OOOOOXXXXXXXXXXXoO+XX%%%%%%%%%%%%%",
"%%%%%%%%%%##=:O<<>>;;=&$+*=======+@*-=--==#@+OXO+Xo%%%%%%%%%%%%%",
"%%%%%%%%%>>-+#$<>;;;;;=&$&::::::=$o-==*&&$#@+OX++oX%%%%%%%%%%%%%",
"%%%%%%%%%>,<*O$&*=--;;=&+#&=====$+o--&&&$$#@+oX+X %%%%%%%%%%%%%%",
"%%%%%%%%%-<,>*@$OOOOO+++O oooooooo+++++XXXXXXX...OX@@@@@@@@%%%%%",
"%%%%%%%%%*>:;*@$><:-*#oooo+#***&$&*$$$@###+X@@Oo.OX++++++++@@%%%",
"%%%%%%%%%$*:;&@$<>;;;;;=&#O*>;;;;-==*&@=*$@X$@OoXOoooooooOO++@%%",
"%%%%%%%%%%$*&#X$>;======&#o&;-=******&@**$@X$@Oo+o. ..XXXooO+@%%",
"%%%%%%%%%%%$#@XO+$***&&&#oo+=***&&&*$#o$@++X+OoXX. ...XXXooOO+@%",
"%%%%%%%%%%%%%OOOOO++++++oo++OOOOOOOOOo ooooooooooooooooooooO+@@%",
"%%%%%%%%%%%%%%%%%%%@@@@@@@@@@@@@@@@@@@@@@@@@@@@@@@@@@@@@@@@@@@%%"
};
