/* XPM */
static char *result[] = {
/* columns rows colors chars-per-pixel */
"64 64 28 1 ",
"  c black",
". c #202020",
"X c #2C2C2C",
"o c #343434",
"O c gray22",
"+ c #004040",
"@ c #005858",
"# c #007070",
"$ c gray25",
"% c #484848",
"& c #4C4C4C",
"* c gray33",
"= c gray36",
"- c #646464",
"; c gray44",
": c #7C7C7C",
"> c #980088",
", c #008484",
"< c #009C9C",
"1 c #00B4B4",
"2 c #00CCCC",
"3 c #00E4E4",
"4 c #00FCFC",
"5 c #54FCFC",
"6 c gray55",
"7 c gray66",
"8 c #B8FCFC",
"9 c gray99",
/* pixels */
">>>>>>>>>>>>><#+>>>>>>>>>>>>>>>>>%*X>>>>>>>**>>>>>>>>>>>>>>>>>>>",
">>>>>>>>>>>>><#+>>>>>>>>>>>>>>>>>%7X>>>>>>>-O>>>>>>>>>>>>>>>>>>>",
">>>>>>>>>>>>><#+>>>>>>>>>>>>>>>>>%7X>>>>>7>6O>>>>>>>>>>>>>>>>>>>",
">>>>>>>>>>>>><#+>>>>>>>>>>>>>>>>>%;X>>>>>6621,#>>>>>>>>>>>>>>>>>",
">>>>>>>>>>>>><#+>>>>>>>>>>>>>>>>%:*X>>>>>>-#11#>>>>>>>>>>>>>>>>>",
">>>>>>>>>>>>#+#+>>>>>>>>>>>>>>>>% *X>>>>>>>>#2#>>>>>>>>>>>>>>>>>",
">>>>>>>>>>>,#+++>>>>>>>>>>>>>>>>%%*X>>>>>>>>#2#>>>>>>>>>>>>>>>>>",
">>>>>>>>>>,21#+++>>>>>>>>>>>>>>>%-*X>>>>>>>>#2#>>>>>>>>>>>>>>>>>",
">>>>>>>>>,2341#++++>>>>>>>>>>>>>%:*X>>>>>>>>#1#>>>>>>>>>>>>>>>>>",
">>>>>>>>,234451#++++>>>>>>>>>>>>%:*X>>>>>>>>#1#>>>>>>>>>>>>>>>>>",
">>>>>>>,23445991#++++>>>>>>>>>>::-=O>>>>>>>>#<#>>>>>>>>>>>>>>>>>",
">>>>>>,2344599951#++++>>>>>>>::-***$X.>>>>>>#<#>>>>>>>>>>>>>>>>>",
">>>>>,234459998442#++++>>>>>:-=*****$X.>>>>>#,#>>>>>>>>>>>>>>>>>",
">>>>,23445999818832#@+++>>>:;=******&OX.>>>>#,#>>>>>>>>>>>>>>>>>",
">>>,2344599951,,881<,#++>>>:-********$o.>>>>###>>>>>>>>>>>>>>>>>",
">>>,3445999541@,@1<,#@@+>>:;=********&OX.>>>#1#>>>>>>>>>>>>>>>>>",
">>>14459995442<@,<,#@@+>>>:;**********OX.>>@,151@>>>>>>>>>>>>>>>",
">>>>259995442<21<,#@@+>>>>:;**********OX.>>@,24941@>>>>>>>>>>>>>",
">>>>>2995442<21<,#@@+>>>>>:;*********&OX.>>@<249511,@>>>>>>>>>>>",
">>>>>>25442<21<,#@@+>>>>>>:;*********&oX.>>>@<1511,,@@>>>>>>>>>>",
">>>>>>>112<21<,#@@+>>>>>>>>;*********$X.>>>>>>@<1,@@@>>>>>>>>>>>",
">>>>>>>>>121<,#@@+>>>>>>>>>-=*******&oX >>>>>>>>@@@>>>>>>>>>>>>>",
">>>>>>>>>>,,,#@@+>>>>>>>>>>>%******&$X.>>>>>>>>>>>>>>>>>>>>>>>>>",
">>>>>>>>>>>>++++>>>>>>>>>>>>>%%%%$$Oo.>>>>>>>>>>>>>>>>>>>>>>>>>>",
">>>>>>>>>>>>>>>>>>>>>>>>>>>>>>>OOOO.>>>>>>>>>>>>>>>>>>>>>>>>>>>>",
">>>>>>>>>>>>>>>>>>>>>>>>>>>>>>>>>>>>>>>>>>>>>>>>>>>>>>>>>>>>>>>>",
">>>>>>>>>>>>>>>>>>>>>>>>>>>>>>>>>>>>>>>>>>>>>>>>>>>>>>>>>>>>>>>>",
">>>>>>>>>>>>>>>>>>>>>>>>>>>>>>>>>>>>>>>>>>>>>>>>>>>>>>>>>>>>>>>>",
">>>>>>>>>>>>>>>>>>>>>>>>>>>>>>>>>>>>>>>>>>>>>>>>>>>>>>>>>>>>>>>>",
">>>>>>>>>>>>>>>>>>>>>>>>>>>>>>>>>>>>>>>>>>>>>>>>>>>>>>>>>>>>>>>>",
">>>>>>>>>>>>>>>>>>>>>>>>>>>>>>>>>>>>>>>>>>>>>>>>>>>>>>>>>>>>>>>>",
">>>>>>>>>>>>>>>>>>>>>>>>>>>>>>>>>>>>>>>>>>>>>>>>>>>>>>>>>>>>>>>>",
">>>>>>>>>>>>>>>>>>>>>>>>>>>>>>>>>>>>>>>>>>>>>>>>>>>>>>>>>>>>>>>>",
">>>>>>>>>>>>>>>>>>>>>>>>>>>>>>>>>>>>>>>>>>>>>>>>>>>>>>>>>>>>>>>>",
">>>>>>>>>>>>>>>>>>>>>>>>>>>>>>>>>>>>>>>>>>>>>>>>>>>>>>>>>>>>>>>>",
">>>>>>>>>>>>>>>>>>>>>>>>>>>>>>>>>>>>>>>>>>>>>>>>>>>>>>>>>>>>>>>>",
">>>>>>>>>>>>>>>>>>>>>>>>>>>>>>>>>>>>>>>>>>>>>>>>>>>>>>>>>>>>>>>>",
">>>>>>>>>>>>>>>>>>>>>>>>>>>>>>>>>>>>>>>>>>>>>>>>>>>>>>>>>>>>>>>>",
">>>>>>>>>>>>>>>>>>>>>>>>>>>>>>>>>>>>>>>>>>>>>>>>>>>>>>>>>>>>>>>>",
">>>>>>>>>>>>>>>>>>>>>>>>>>>>>>>>>>>>>>>>>>>>>>>>>>>>>>>>>>>>>>>>",
">>>>>>>>>>>>>>>>>>>>>>>>>>>>>>>>>>>>>>>>>>>>>>>>>>>>>>>>>>>>>>>>",
">>>>>>>>>>>>>>>>>>>>>>>>>>>>>>>>>>>>>>>>>>>>>>>>>>>>>>>>>>>>>>>>",
">>>>>>>>>>>>>>>>>>>>>>>>>>>>>>>>>>>>>>>>>>>>>>>>>>>>>>>>>>>>>>>>",
">>>>>>>>>>>>>>>>>>>>>>>>>>>>>>>>>>>>>>>>>>>>>>>>>>>>>>>>>>>>>>>>",
">>>>>>>>>>>>>>>>>>>>>>>>>>>>>>>>>>>>>>>>>>>>>>>>>>>>>>>>>>>>>>>>",
">>>>>>>>>>>>>>>>>>>>>>>>>>>>>>>>>>>>>>>>>>>>>>>>>>>>>>>>>>>>>>>>",
">>>>>>>>>>>>>>>>>>>>>>>>>>>>>>>>>>>>>>>>>>>>>>>>>>>>>>>>>>>>>>>>",
">>>>>>>>>>>>>>>>>>>>>>>>>>>>>>>>>>>>>>>>>>>>>>>>>>>>>>>>>>>>>>>>",
">>>>>>>>>>>>>>>>>>>>>>>>>>>>>>>>>>>>>>>>>>>>>>>>>>>>>>>>>>>>>>>>",
">>>>>>>>>>>>>>>>>>>>>>>>>>>>>>>>>>>>>>>>>>>>>>>>>>>>>>>>>>>>>>>>",
">>>>>>>>>>>>>>>>>>>>>>>>>>>>>>>>>>>>>>>>>>>>>>>>>>>>>>>>>>>>>>>>",
">>>>>>>>>>>>>>>>>>>>>>>>>>>>>>>>>>>>>>>>>>>>>>>>>>>>>>>>>>>>>>>>",
">>>>>>>>>>>>>>>>>>>>>>>>>>>>>>>>>>>>>>>>>>>>>>>>>>>>>>>>>>>>>>>>",
">>>>>>>>>>>>>>>>>>>>>>>>>>>>>>>>>>>>>>>>>>>>>>>>>>>>>>>>>>>>>>>>",
">>>>>>>>>>>>>>>>>>>>>>>>>>>>>>>>>>>>>>>>>>>>>>>>>>>>>>>>>>>>>>>>",
">>>>>>>>>>>>>>>>>>>>>>>>>>>>>>>>>>>>>>>>>>>>>>>>>>>>>>>>>>>>>>>>",
">>>>>>>>>>>>>>>>>>>>>>>>>>>>>>>>>>>>>>>>>>>>>>>>>>>>>>>>>>>>>>>>",
">>>>>>>>>>>>>>>>>>>>>>>>>>>>>>>>>>>>>>>>>>>>>>>>>>>>>>>>>>>>>>>>",
">>>>>>>>>>>>>>>>>>>>>>>>>>>>>>>>>>>>>>>>>>>>>>>>>>>>>>>>>>>>>>>>",
">>>>>>>>>>>>>>>>>>>>>>>>>>>>>>>>>>>>>>>>>>>>>>>>>>>>>>>>>>>>>>>>",
">>>>>>>>>>>>>>>>>>>>>>>>>>>>>>>>>>>>>>>>>>>>>>>>>>>>>>>>>>>>>>>>",
">>>>>>>>>>>>>>>>>>>------------------->>------------->>------->>",
">>>>>>>>>>>>>>>>----*%%OOOOOOOOOO%%**----*%OOOOOO%%*--**%OOO%%*>",
">>>>>>>>>>>>>>>>>>---**%%%%%%%%%**-----*%%%%%%%%%%---*%%%%%%**>>"
};
