/* XPM */
static char *result[] = {
/* columns rows colors chars-per-pixel */
"64 64 56 1 ",
"  c black",
". c #382C14",
"X c #202020",
"o c #2C2C2C",
"O c gray22",
"+ c #640000",
"@ c #700000",
"# c #7C0000",
"$ c #5C4020",
"% c #6C4824",
"& c #000040",
"* c #000058",
"= c #000070",
"- c #00007C",
"; c #484848",
": c gray33",
"> c #646464",
", c gray44",
"< c #7C7C7C",
"1 c #880000",
"2 c #980000",
"3 c #A40000",
"4 c #B00000",
"5 c #BC0000",
"6 c #D40000",
"7 c #E00000",
"8 c #FC0000",
"9 c #FC2020",
"0 c #80502C",
"q c #885830",
"w c #9C6038",
"e c #A0643C",
"r c #FC7800",
"t c #A86840",
"y c #B47044",
"u c #BC7848",
"i c #C87C4C",
"p c #FC7C7C",
"a c #FCF400",
"s c #D08050",
"d c #DC8854",
"f c #E88C58",
"g c #F0945C",
"h c #FCA85C",
"j c #FC9C60",
"k c #FCA470",
"l c #000098",
"z c #0000B0",
"x c #0000BC",
"c c #980088",
"v c gray55",
"b c #989898",
"n c gray66",
"m c #B4B4B4",
"M c #FCB080",
"N c #D0D0D0",
/* pixels */
"cccccccccccccccccccccccccccccccccccccccccccccccccccccccccccccccc",
"cccccccccccccccccccccccccccccccccccccccccccccccccccccccccccccccc",
"cccccccccccccccccccccccccccccccccccccccccccccccccccccccccccccccc",
"cccccccccccccccccccccccccccccccccccccccccccccccccccccccccccccccc",
"cccccccccccccccccccccccccccccccccccccccccccccccccccccccccccccccc",
"cccccccccccccccccccccccccccccccccccccccccccccccccccccccccccccccc",
"cccccccccccccccccccccccccccccccccccccccccccccccccccccccccccccccc",
"cccccccccccccccccccccccccccccccccccccccccccccccccccccccccccccccc",
"cccccccccccccccccccccccccccccccccccccccccccccccccccccccccccccccc",
"cccccccccccccccccccccccccccccccccccccccccccccccccccccccccccccccc",
"cccccccccccccccccccccccccccccccccccccccccccccccccccccccccccccccc",
"cccccccccccccccccccccccccccccccccccccccccccccccccccccccccccccccc",
"cccccccccccccccccccccccccccccccccccccccccccccccccccccccccccccccc",
"cccccccccccccccccccccccccccccccccccccccccccccccccccccccccccccccc",
"cccccccccccccccccccccccccccccccccccccccccccccccccccccccccccccccc",
"cccccccccccccccccccccccccccccccccccccccccccccccccccccccccccccccc",
"cccccccccccccccccccccccccccccccccccccccccccccccccccccccccccccccc",
"cccccccccccccccccccccccccccccccccccccccccccccccccccccccccccccccc",
"cccccccccccccccccccccccccccccccccccccccccccccccccccccccccccccccc",
"cccccccccccccccccccccccccccccccccccccccccccccccccccccccccccccccc",
"cccccccccccccccccccccccccccccccccccccccccccccccccccccccccccccccc",
"cccccccccccccccccccccccccccccccccccccccccccccccccccccccccccccccc",
"cccccccccccccccccccccccccccccccccccccccccccccccccccccccccccccccc",
"cccccccccccccccccccccccccccccccccccccccccccccccccccccccccccccccc",
"cccccccccccccccccccccccccccccccccccccccccccccccccccccccccccccccc",
"cccccccccccccccccccccccccccccccccccccccccccccccccccccccccccccccc",
"cccccccccccccccccccccccccccccccccccccccccccccccccccccccccccccccc",
"cccccccccccccccccccccccccccccccccccccccccccccccccccccccccccccccc",
"cccccccccccccccccccccccccccccccccccccccccccccccccccccccccccccccc",
"cccccccccccccccccccccccccccccccccccccccccccccccccccccccccccccccc",
"cccccccccccccccccccccccccccccccccccccccccccccccccccccccccccccccc",
"cccccccccccccccccccccccccccccccccccccccccccccccccccccccccccccccc",
"cccccccccccccccccccccccccccccccccccccccccccccccccccccccccccccccc",
"cccccccccccccccccccccccccccccccccccccccccccccccccccccccccccccccc",
"cccccccccccccccccccccccccccccccccccccccccccccccccccccccccccccccc",
"cccccccccccccccccccccccccccccccccccccccccccccccccccccccccccccccc",
"cccccccccccccccccccccccccccccccccccccccccccccccccccccccccccccccc",
"cccccccccccccccccccccccccccccccccccccccccccccccccccccccccccccccc",
"cccccccccccccccccccccccccccccccccccccccccccccccccccccccccccccccc",
"cccccccccccccccccccccccccccccccccccccccccccccccccccccccccccccccc",
"cccccccccccccccccccccccccccccccccccccccccccccccccccccccccccccccc",
"cccccccccccccccccccccccccccccccccccccccccccccccccccccccccccccccc",
"cccccccccccccccccccccccccccccccccccccccccccccccccccccccccccccccc",
"cccccccccccccccccccccccccccccccccccccccccccccccccccccccccccccccc",
"cccccccccccccccccccccccccccccccccccccccccccccccccccccccccccccccc",
"cccccccccccccccccccccccccccccccccccccccccccccccccccccccccccccccc",
"cccccccccccccccccccccccccccccccccccccccccccccccccccccccccccccccc",
"cccccccccccccccccccccccccccccccccccccccccccccccccccccccccccccccc",
"cccccccccccccccccccccccccccccccccccccccccccccccccccccccccccccccc",
"cccccccccccccccccccccccccccccccccccccccccccccccccccccccccccccccc",
"ccccccccccccccccccccccccbb<,>:;ccccccccccccccccccccccccccccccccc",
"cccccccccccccccccccccccbN,>>>::;cccccccccccccccccccccccccccccccc",
"ccccccccccccccccccccccb<,>:;;Oo;cccccccchaaaahcccccccccccccccccc",
"ccccccccccccccccccccccb<,::;;Ooocccckkkkkkkkkrrccccccccccccccccc",
"cccccccccccccccccccccbm<,::;<,;Ojkktttt75#ttt6kkiccccccccccccccc",
"ccccccccccccccccccccbmmnv<,<cjkkkyykkkkkkkkkkqq6kkjjicc1ccc11ccc",
"cccccccccccccccccccccmvekjje:zzzzjjjyffyiyjfjpp06dj9jjjisccccccc",
"ccccccccccccccccccc851ekiqq:OO&&**yuywyuzz--::y0#6ssssgjjjfjiccc",
"ccccccccccccccc85cccccMttcOOOOOOX**iqwqzx----q###22qqqyyyy%kkkec",
"cccccccccccccccccccc85cccOOOOOOOX**wq$.l=OOO&&-##24442qqqq%tttfc",
"ccccccccccccccccccccccccOOOOOOOXXX$$..c=OOOOOO&&-@11#@@+c11ccccc",
"ccccccccccccccccccccccccOOOOOXXXX..cccc*OOOOOOOO& cccccccccccccc",
"cccccccccccccccccccccccccOOXXXcccccccccccOOOOOOOO cccc311@cccccc",
"cccccccccccccccccccccccccccccccccccccccccccOOOOOOccccccccccccccc"
};
