/* XPM */
static char *result[] = {
/* columns rows colors chars-per-pixel */
"64 64 22 1 ",
"  c black",
". c #202020",
"X c #2C2C2C",
"o c gray22",
"O c #580000",
"+ c #7C0000",
"@ c #706C00",
"# c #484848",
"$ c gray33",
"% c #646464",
"& c gray44",
"* c #7C7C7C",
"= c #A80000",
"- c #D40000",
"; c #FC0000",
": c #FC5454",
"> c #FC7C7C",
", c #E4D800",
"< c #980088",
"1 c gray55",
"2 c #989898",
"3 c gray66",
/* pixels */
"<<<<<<<<<<<<<<<<<<<<<<<<<<<<<<<<<<<<<<<<<<<<<<<<<<<<<<<<<<<<<<<<",
"<<<<<<<<<<<<<<<<<<<<<<<<<<<<<<<<<<<<<<<<<<<<<<<<<<<<<<<<<<<<<<<<",
"<<<<<<<<<<<<<<<<<<<<<<<<<<<<<<<<<<<<<<<<<<<<<<<<<<<<<<<<<<<<<<<<",
"<<<<<<<<<<<<<<<<<<<<<<<<<<<<22211**<<<<<<<<<<<<<<<<<<<<<<<<<<<<<",
"<<<<<<<<<<<<<<<<<<<<<<<<<<<2333322*$<<<<<<<<<<<<<<<<<<<<<<<<<<<<",
"<<<<<<<<<<<<<<<<<<<<<<<<<<232211*&$*$<<<<<<<<<<<<<<<<<<<<<<<<<<<",
"<<<<<<<<<<<<<<<<<<<<<<<<<23211**&$$$&$<<<<<<<<<<<<<<<<<<<<<<<<<<",
"<<<<<<<<<<<<<<<<<<<<<<<<<2321**&%%$#%$<<<<<<<<<<<<<<<<<<<<<<<<<<",
"<<<<<<<<<<<<<<<<<<<<<<<<<231&&$#oXo#$o<<<<<<<<<<<<<<<<<<<<<<<<<<",
"<<<<<<<<<<<<<<<<<<<<<<<<<13%$1&%$o.o#o<<<<<<<<<<<<<<<<<<<<<<<<<<",
"<<<<<<<<<<<<<<<<<<<<<<<<<12$&1&%$#o o.<<<<<<<<<<<<<<<<<<<<<<<<<<",
"<<<<<<<<<<<<<<<<<<<<<<<<<*2%&1&%$#o.o.<<<<<<<<<<<<<<<<<<<<<<<<<<",
"<<<<<<<<<<<<<<<<<<<<<<<<<<*%&1&%$#o..<<<<<<<<<<<<<<<<<<<<<<<<<<<",
"<<<<<<<<<<<<<<<<<<<<<<<<<<<o#%$oX.  <<<<<<<<<<<<<<<<<<<<<<<<<<<<",
"<<<<<<<<<<<<<<<<<<<<<<<<<<<%&1&%$#o.<<<<<<<<<<<<<<<<<<<<<<<<<<<<",
"<<<<<<<<<<<<<<<<<<<<<<<<<<<%&1&%$#o.<<<<<<<<<<<<<<<<<<<<<<<<<<<<",
"<<<<<<<<<<<<<<<<<<<<<<<<<<<%&1&%$#o.<<<<<<<<<<<<<<<<<<<<<<<<<<<<",
"<<<<<<<<<<<<<<<<<<<<<<<<<<<%&1&%$#o.<<<<<<<<<<<<<<<<<<<<<<<<<<<<",
"<<<<<<<<<<<<<<<<<<<<<<<<<<<o#%$oX.  <<<<<<<<<<<<<<<<<<<<<<<<<<<<",
"<<<<<<<<<<<<<<<<<<<<<<<<<<<%&1&%$#o.<<<<<<<<<<<<<<<<<<<<<<<<<<<<",
"<<<<<<<<<<<<<<<<<<<<<<<<<<<%&1&%$#o.<<<<<<<<<<<<<<<<<<<<<<<<<<<<",
"<<<<<<<<<<<<<<<<<<<<<<<<<<<%&1&%$#o.<<<<<<<<<<<<<<<<<<<<<<<<<<<<",
"<<<<<<<<<<<<<<<<<<<<<<<<<<<%&1&%$#o.<<<<<<<<<<<<<<<<<<<<<<<<<<<<",
"<<<<<<<<<<<<<<<<<<<<<<<<<<<o#%$oX.  <<<<<<<<<<<<<<<<<<<<<<<<<<<<",
"<<<<<<<<<<<<<<<<<<<<<<<<<<<%&1&%$#o.<<<<<<<<<<<<<<<<<<<<<<<<<<<<",
"<<<<<<<<<<<<<<<<<<<<<<<<<<<%&1&%$#o.<<<<<<<<<<<<<<<<<<<<<<<<<<<<",
"<<<<<<<<<<<<<<<<<<<<<<<<<<<%&1&%$#o.<<<<<<<<<<<<<<<<<<<<<<<<<<<<",
"<<<<<<<<<<<<<<<<<<<<<<<<<<<%&1&%$#o.<<<<<<<<<<<<<<<<<<<<<<<<<<<<",
"<<<<<<<<<<<<<<<<<<<<<<<<<<<o#%$oX.  <<<<<<<<<<<<<<<<<<<<<<<<<<<<",
"<<<<<<<<<<<<<<<<<<<<<<<<<<<%&1&%$#o.<<<<<<<<<<<<<<<<<<<<<<<<<<<<",
"<<<<<<<<<<<<<<<<<<<<<<<<<<<%&1&%$#o.<<<<<<<<<<<<<<<<<<<<<<<<<<<<",
"<<<<<<<<<<<<<<<<<<<<<<<<<<<%&1&%$#o.<<<<<<<<<<<<<<<<<<<<<<<<<<<<",
"<<<<<<<<<<<<<<<<<<<<<<<<<<<%&1&%$#o.<<<<<<<<<<<<<<<<<<<<<<<<<<<<",
"<<<<<<<<<<<<<<<<<<<<<<<<<<<o#%$oX.  <<<<<<<<<<<<<<<<<<<<<<<<<<<<",
"<<<<<<<<<<<<<<<<<<<<<<<<<<<%&1&%$#o.<<<<<<<<<<<<<<<<<<<<<<<<<<<<",
"<<<<<<<<<<<<<<<<<<<**122222221**%%%%%%$$##oX<<<<<<<<<<<<<<<<<<<<",
"<<<<<<<<<<<<<<<<<<%%&**1111*&*&&&&%%%%%$$$#oX<<<<<<<<<<<<<<<<<<<",
"<<<<<<<<<<<<<<<<<<<$$$$$$$$$$######oooXXXXXX<<<<<<<<<<<<<<<<<<<<",
"<<<<<<<<<<<<<<<<<<<<<Xo#####ooooXXX....   <<<<<<<<<<<<<<<<<<<<<<",
"<<<<<<<<<<<<<<<<<<<<<#&111*%%%$$###oooX.. <<<<<<<<<<<<<<<<<<<<<<",
"<<<<<<<<<<<<<<<<<<<<#&*11*&%%$$$###oooXX.. <<<<<<<<<<<<<<<<<<<<<",
"<<<<<<<<<<<<<<<<<<<<#&111*%%$****$o#oooX.. <<<<<<<<<<<<<<<<<<<<<",
"<<<<<<<<<<<<<<<<<<<<#*11*&%%*#*o$X$ooooX.. <<<<<<<<<<<<<<<<<<<<<",
"<<<<<<<<<<<<<<<<<<<#&*%%%%%%$$$$$$$$$$$$.   <<<<<<<<<<<<<<<<<<<<",
"<<<<<<<<<<<<<<<<<<<#&1%&&&&&&&&%%%%%$$##.   <<<<<<<<<<<<<<<<<<<<",
"<<<<<<<<<<<<<<<<<<<#&1%& O+& O+% O+$ O+#.   <<<<<<<<<<<<<<<<<<<<",
"<<<<<<<<<<<<<<<<<<<#&1%&.=%&.=%%.=$$.=$#.   <<<<<<<<<<<<<<<<<<<<",
"<<<<<<<<<<<<<<<<<<<#&1%&X-1&X;1%X;%$X-$#.   <<<<<<<<<<<<<<<<<<<<",
"<<<<<<<<<<<<<<<<<<<#&1%&X;1&X>1%X>&$X;%o.   <<<<<<<<<<<<<<<<<<<<",
"<<<<<<<<<<<<<<<<<<<#&1%&X:1&X,@%X,&$X>%o.   <<<<<<<<<<<<<<<<<<<<",
"<<<<<<<<<<<<<<<<<<<#&1$&X11&X@@%X@&$X@%o.   <<<<<<<<<<<<<<<<<<<<",
"<<<<<<<<<<<<<<<<<<<#&1$&&&&&&&%%%$$###oo.   <<<<<<<<<<<<<<<<<<<<",
"<<<<<<<<<<<<<<<<<<<#&1oXXXX..............   <<<<<<<<<<<<<<<<<<<<",
"<<<<<<<<<<<<<<<<<<<#&11%#%oX oooooX# X ...  <<<<<<<<<<<<<<<<<<<<",
"<<<<<<<<<<<<<<<<<<<<#*11$#oo$$$$$##oXXXX.. <<<<<<<<<<<<<<<<<<<<<",
"<<<<<<<<<<<<<<<<<<<<#&*1*%$$$$$$$####ooX.. <<<<<<<<<<<<<<<<<<<<<",
"<<<<<<<<<<<<<<<<<<<<#&***&%$$$$$####ooXX.. <<<<<<<<<<<<<<<<<<<<<",
"<<<<<<<<<<<<<<<<<<<<<#&***%%$$$$####ooX.. <<<<<<<<<<<<<<<<<<<<<<",
"<<<<<<<<<<<<<<<<<<<**122222221**%%%%$$#ooX..<<<<<<<<<<<<<<<<<<<<",
"<<<<<<<<<<<<<<<<<<%%&**1111*&*&&&&%$$##ooXX..<<<<<<<<<<<<<<<<<<<",
"<<<<<<<<<<<<<<<<<<<$$$$$$$$$$######oooXX....<<<<<<<<<<<<<<<<<<<<",
"<<<<<<<<<<<<<<<<<<<<<<X.. <<<<<<<<<<<X...<<<<<<<<<<<<<<<<<<<<<<<",
"<<<<<<<<<<<<<<<<<<<<<<#%$X           X%#.   ..Xooo##$$%%<<<<<<<<",
"<<<<<<<<<<<<<<<<<<<<<#%$X             X%#...XXoo###$$%%%<<<<<<<<"
};
