/* XPM */
static char *result[] = {
/* columns rows colors chars-per-pixel */
"23 31 52 1 ",
"  c #28200C",
". c #382C14",
"X c #202020",
"o c #2C2C2C",
"O c gray22",
"+ c #403018",
"@ c #483818",
"# c #543C1C",
"$ c #5C4020",
"% c #6C4824",
"& c #744C28",
"* c #000064",
"= c #484848",
"- c gray33",
"; c gray44",
": c #7C7C7C",
"> c #A80000",
", c #9C4C00",
"< c #A85400",
"1 c #B45400",
"2 c #80502C",
"3 c #885830",
"4 c #905C34",
"5 c #9C6038",
"6 c #A0643C",
"7 c #CC6000",
"8 c #E46C00",
"9 c #FC7800",
"0 c #A86840",
"q c #B47044",
"w c #BC7848",
"e c #C87C4C",
"r c #FC8820",
"t c #D08050",
"y c #DC8854",
"u c #E88C58",
"i c #F0945C",
"p c #FC9C60",
"a c #FCA470",
"s c #0000A4",
"d c #0000A8",
"f c #0000FC",
"g c #FCB080",
"h c #FCB890",
"j c #FCBC9C",
"k c #FCC4A4",
"l c #FCCCB0",
"z c #FCD4BC",
"x c #C0C0C0",
"c c #FCD8C4",
"v c #FCE8DC",
"b c #ECECEC",
/* pixels */
"====OOOOOOOOOOOOO======",
"===o,7177878888887,O===",
"==o,<17177777789887,O==",
"==#<<<<<<<<<11789r97%==",
"=o,<<,#&%%<&&2279r883O=",
"=o,<,#&@@&&<$#&,89<&7O=",
"=o,,&6yyyq5&$.#&8<6&,O=",
"=o#55ahhaayye6557gy5&O=",
"=o#5eypagkkguy6p<gkq#o=",
"=o#5gaghkkkkguepgkky#o=",
"=o+qyOo-;ckkkyegkvgy#o=",
"o0+q-4&##;hhgpy=OOcy+o=",
"oy yw**:=#000XXo-;=g eo",
"oq4yydsbx>wi0>dfbxyy po",
"oypyhgaaghgzakgaaghy4wo",
"opwazzvvzhackkkzvvzaayo",
"=w2akzzkktgzkikkzzkagpo",
"=o2wgkkki03335akkkgw2e=",
"=O2aygkhapptahahkkyp2o=",
"==2ppakgihhggkgihkpa2O=",
"==opaakkw5wttw55akaao==",
"==oeggkkaphkclkpgkhaX==",
"==o5ygkkkgaiuiagkkhgX==",
"==o55yjkzvzkkkkzvkgaX==",
"==o454yakkkgygkkkaihO==",
"==o4%45wyyye0eyyywqkO==",
"==O4$4%@@@@@$%&340ekO==",
"==O4$2&&2555550ekkua===",
"===&$&255yqeee0gjkky===",
"===&&25tygykkaeyzhgw===",
"===&&556pgyakhaehaw6==="
};
