/* XPM */
static char *result[] = {
/* columns rows colors chars-per-pixel */
"23 31 51 1 ",
"  c black",
". c #28200C",
"X c #382C14",
"o c #202020",
"O c #2C2C2C",
"+ c gray22",
"@ c #403018",
"# c #483818",
"$ c #543C1C",
"% c #5C4020",
"& c #6C4824",
"* c #744C28",
"= c #00007C",
"- c #484848",
"; c gray33",
": c gray44",
"> c #A80000",
", c #9C4C00",
"< c #A85400",
"1 c #B45400",
"2 c #80502C",
"3 c #885830",
"4 c #905C34",
"5 c #9C6038",
"6 c #A0643C",
"7 c #CC6000",
"8 c #E46C00",
"9 c #FC7800",
"0 c #A86840",
"q c #B47044",
"w c #BC7848",
"e c #C87C4C",
"r c #FC8820",
"t c #D08050",
"y c #DC8854",
"u c #E88C58",
"i c #F0945C",
"p c #FC9C60",
"a c #FCA470",
"s c #0000A8",
"d c #0000FC",
"f c gray66",
"g c #FCB080",
"h c #FCB890",
"j c #FCBC9C",
"k c #FCC4A4",
"l c #FCD4BC",
"z c #D0D0D0",
"x c #FCD8C4",
"c c #FCE8DC",
"v c gray99",
/* pixels */
"----+++++++++++++------",
"---O,7177878888887,+---",
"--O,<17177777789887,+--",
"--$<<<<<<<<<11789r97&--",
"-O,<<,$*&&<**2279r883+-",
"-O,<,$*##**<%$*,89<*7+-",
"-O,,*6yyyq5*%X$*8<6*,+-",
"-O$55ahhaayye6557gy5*+-",
"-O$5ykkkkkkguy6p<gkq$O-",
"-O$5gpagkkkkguepgkky$O-",
"-O@qygkxcxkkkyegkcgy$O-",
"-O@qg+O0yghhgpy0-;xy@O-",
"Oa.y;:=   000  O=:;g.aO",
"Oy.yyzsdf>wi0>fsdvyy.pO",
"Oq4yhaaaahglakaaaahy4qO",
"OypallcclhaxkkklcclahyO",
"OpwakllkktglkikkllkayaO",
"-02wgkkki03335akkkgw20-",
"-O2ayakhapptahgkkayp2O-",
"-+2gphkaghhahkgakgpa2+-",
"--Ogagkw5wtttw5wkgagO--",
"--Ogggkgphkkxkpgkgjho--",
"--Oyggkkgaiuiagkkggho--",
"--O5ygklclkkkklckgako--",
"--O45yakkkgygkkkaipk+--",
"--O4&5wyyye0eyyyw5kk+--",
"--+4%&#####%&**44ekk+--",
"--+4%2**2555550ekkea---",
"---*%*255yqeee0gjkke---",
"---**25tygykkaeylaa6---",
"---**556pgyakhaeha66---"
};
