/* XPM */
static char *result[] = {
/* columns rows colors chars-per-pixel */
"23 31 54 1 ",
"  c #28200C",
". c #382C14",
"X c #202020",
"o c #2C2C2C",
"O c gray22",
"+ c #403018",
"@ c #483818",
"# c #543C1C",
"$ c #5C4020",
"% c #6C4824",
"& c #744C28",
"* c #000064",
"= c #484848",
"- c gray33",
"; c gray44",
": c #7C7C7C",
"> c #880000",
", c #A80000",
"< c #9C4C00",
"1 c #A85400",
"2 c #B45400",
"3 c #80502C",
"4 c #885830",
"5 c #905C34",
"6 c #9C6038",
"7 c #A0643C",
"8 c #CC6000",
"9 c #E46C00",
"0 c #FC7800",
"q c #A86840",
"w c #B47044",
"e c #BC7848",
"r c #FC5C5C",
"t c #C87C4C",
"y c #FC8820",
"u c #D08050",
"i c #DC8854",
"p c #E88C58",
"a c #F0945C",
"s c #FC9C60",
"d c #FCA470",
"f c #0000A4",
"g c #0000A8",
"h c #0000FC",
"j c #FCB080",
"k c #FCB890",
"l c #FCBC9C",
"z c #FCC4A4",
"x c #FCCCB0",
"c c #FCD4BC",
"v c #C0C0C0",
"b c #FCD8C4",
"n c #FCE8DC",
"m c #ECECEC",
/* pixels */
"====OOOOOOOOOOOOO======",
"===o<8288989999998<O===",
"==o<128288888890998<O==",
"==#11111111122890y08%==",
"=o<11<#&%%1&&3380y994O=",
"=o<1<#&@@&&1$#&<901&8O=",
"=o<<&7iiiw6&$.#&917&<O=",
"=o#66dkkddiit7668ji6&O=",
"=o#6tisdjzzjpi7s1jzw#o=",
"=o#6jdjkzzzzjptsjzzi#o=",
"=o+wiOo-;bzzzitjznji#o=",
"oq+w=5&##;kkjsi=oObi+o=",
"oi ie**:=#qqqXXX-;=j to",
"ow5iigfmv,eaq,ghmvii so",
"oisikjddjkjcdzjddjki5eo",
"osedccnnckdbzzzcnncddio",
"=e3dzcczzujczazzcczdjso",
"=o3ejzzzaq4446dzzzje3t=",
"=O3dijzkdssudkdkzzis3o=",
"==3ssdzjakkjjzjakzsd3O=",
"==osddzde6euue>6dzddo==",
"==otjjzzdskzbxrsjzkdX==",
"==o6ijzzzjdapadjzzkjX==",
"==o66ilzcnczzzzcnzjdX==",
"==o565idzzzjijzzzdakO==",
"==o5%56eiiitqtiiiewzO==",
"==O5$5%@@@@@$%&45qtzO==",
"==O5$3&&366666qtzzpd===",
"===&$&366iwtttqjlzzi===",
"===&&36uijizzdtickje===",
"===&&667sjidzkdtkde7==="
};
