/* XPM */
static char *result[] = {
/* columns rows colors chars-per-pixel */
"23 31 56 1 ",
"  c #28200C",
". c #382C14",
"X c #202020",
"o c #2C2C2C",
"O c gray22",
"+ c #403018",
"@ c #483818",
"# c #543C1C",
"$ c #5C4020",
"% c #6C4824",
"& c #744C28",
"* c #000064",
"= c #484848",
"- c gray33",
"; c #646464",
": c gray44",
"> c #7C7C7C",
", c #880000",
"< c #A80000",
"1 c #9C4C00",
"2 c #A85400",
"3 c #B45400",
"4 c #80502C",
"5 c #885830",
"6 c #905C34",
"7 c #9C6038",
"8 c #A0643C",
"9 c #CC6000",
"0 c #E46C00",
"q c #FC7800",
"w c #A86840",
"e c #B47044",
"r c #BC7848",
"t c #FC4040",
"y c #C87C4C",
"u c #FC8820",
"i c #D08050",
"p c #DC8854",
"a c #E88C58",
"s c #F0945C",
"d c #FC9C60",
"f c #FCA470",
"g c #0000A8",
"h c #0000C8",
"j c #0000FC",
"k c #2024FC",
"l c #B4B4B4",
"z c #FCB080",
"x c #FCB890",
"c c #FCBC9C",
"v c #FCC4A4",
"b c #FCD4BC",
"n c #D0D0D0",
"m c gainsboro",
"M c #FCD8C4",
"N c #FCE8DC",
/* pixels */
"====OOOOOOOOOOOOO======",
"===o193990900000091O===",
"==o123939999990q0091O==",
"==#2222222223390quq9%==",
"=o1221#&%%2&&449qu005O=",
"=o121#&@@&&2$#&10q2&9O=",
"=o11&8pppe7&$.#&028&1O=",
"=o#77fxxffppy8779zp7&O=",
"=o#7pvvvvvvzap8d2dve#o=",
"=o#7zdfzvvvzfaydzMsp#o=",
"=o+epzvMNMvvxpXoooMp#o=",
"=o+ezOO=wpxfiX@$%r;p+6=",
"oy p-:-XXXwww&O;>*fz zo",
"oa pplngj<rsw<lmhkfp&ao",
"or6pxffffxzbfvffffxpeyo",
"opdfbbNNbxfMvvvbNNbfxdo",
"odrfvbbvvizbvsvvbbvfido",
"=e4rzvvvsw5557fvvvzr4&=",
"=&4apfxvfdapfxzvvzsd4o=",
"=O4fdxvszxfzxvszvxdf4O=",
"=O4zfvv7erii,7rvvxzzo==",
"=O4zxvzdxvvMtdfvxxxxX==",
"==4zvvvzfsasfzvvxzzxX==",
"==opcvbNbvvvvbNvzfxvX==",
"==o7pfvvvzpzvvvfsdvvO==",
"==o%7rpppywypppr7xvvO==",
"==O6$@@@@@$%&&66yavvO==",
"==O6$4&&477777wyvfpf===",
"===&$&477peyyyrzcvdy===",
"===&&47ipzpvxsyfbff8===",
"===&&778dzsfvzsyxf88==="
};
