/* XPM */
static char *result[] = {
/* columns rows colors chars-per-pixel */
"23 31 57 1 ",
"  c #28200C",
". c #382C14",
"X c #202020",
"o c #2C2C2C",
"O c gray22",
"+ c #403018",
"@ c #483818",
"# c #543C1C",
"$ c #5C4020",
"% c #6C4824",
"& c #744C28",
"* c #000064",
"= c #484848",
"- c gray33",
"; c gray44",
": c #7C7C7C",
"> c #880000",
", c #A80000",
"< c #E00000",
"1 c #FC2020",
"2 c #9C4C00",
"3 c #A85400",
"4 c #B45400",
"5 c #80502C",
"6 c #885830",
"7 c #905C34",
"8 c #9C6038",
"9 c #A0643C",
"0 c #CC6000",
"q c #E46C00",
"w c #FC7800",
"e c #A86840",
"r c #B47044",
"t c #BC7848",
"y c #FC5C5C",
"u c #C87C4C",
"i c #FC7C7C",
"p c #FC8820",
"a c #D08050",
"s c #DC8854",
"d c #E88C58",
"f c #F0945C",
"g c #FC9C60",
"h c #FCA470",
"j c #0000A4",
"k c #0000A8",
"l c #0000FC",
"z c #FC9C9C",
"x c #FCB080",
"c c #FCB890",
"v c #FCBC9C",
"b c #FCC4A4",
"n c #FCD4BC",
"m c #C0C0C0",
"M c #FCD8C4",
"N c #FCE8DC",
"B c #ECECEC",
/* pixels */
"====OOOOOOOOOOOOO======",
"===o20400q0qqqqqq02O===",
"==o23404000000qwqq02O==",
"==#333333333440qwpw0%==",
"=o2332#&%%3&&550wpqq6O=",
"=o232#&@@&&3$#&2qw3&0O=",
"=o22&9sssr8&$.#&q39&2O=",
"=o#88hcchhssu9880xs8&O=",
"=o#8usghxbbxds9g3xbr#o=",
"=o#8xhxcbbbbxdugxbbs#o=",
"=o+rsOo-;MbbbsuxbNxs#o=",
"oe+r=7&##;ccxgs=OOMs+o=",
"os st**:=#eeeXXX-;=x uo",
"or7sskjBm,tfe,klBmss go",
"osgscxhhxcxnhbxhhxcs7to",
"ogthnnNNnchMbbbnNNnhhso",
"=t5hbnnbbaxnbfbbnnbhxgo",
"=o5txbbbfe6668hbbbxt5u=",
"=O5hsxbchgga<chcbxsg5o=",
"==5gghbxfccxyixfbbgh5O=",
"==oghhbht8taat>8hbhho==",
"==ouxxbxhgcbMzy1xbchX==",
"==o8sxbbbxhfdfhxbbcxX==",
"==o88svbnNnbbbbnNbxhX==",
"==o787shbbbxsxbbbhfcO==",
"==o7%78tsssueussstrbO==",
"==O7$7%@@@@@$%&67eubO==",
"==O7$5&&588888eubbdh===",
"===&$&588sruuuexvbbs===",
"===&&58asxsbbhusncxt===",
"===&&889gxshbchucht9==="
};
