/* XPM */
static char *result[] = {
/* columns rows colors chars-per-pixel */
"23 31 57 1 ",
"  c black",
". c #28200C",
"X c #382C14",
"o c #202020",
"O c #2C2C2C",
"+ c gray22",
"@ c #403018",
"# c #483818",
"$ c #543C1C",
"% c #5C4020",
"& c #6C4824",
"* c #744C28",
"= c #00007C",
"- c #484848",
"; c gray33",
": c gray44",
"> c #980000",
", c #A80000",
"< c #E00000",
"1 c #FC0000",
"2 c #9C4C00",
"3 c #A85400",
"4 c #B45400",
"5 c #80502C",
"6 c #885830",
"7 c #905C34",
"8 c #9C6038",
"9 c #A0643C",
"0 c #CC6000",
"q c #E46C00",
"w c #FC7800",
"e c #A86840",
"r c #B47044",
"t c #BC7848",
"y c #FC4040",
"u c #FC5C5C",
"i c #C87C4C",
"p c #FC7C7C",
"a c #FC8820",
"s c #D08050",
"d c #DC8854",
"f c #E88C58",
"g c #F0945C",
"h c #FC9C60",
"j c #FCA470",
"k c #0000A8",
"l c #0000FC",
"z c #B4B4B4",
"x c #FCB080",
"c c #FCB890",
"v c #FCBC9C",
"b c #FCC4A4",
"n c #FCD4BC",
"m c #D0D0D0",
"M c #FCD8C4",
"N c #FCE8DC",
"B c gray99",
/* pixels */
"----+++++++++++++------",
"---O20400q0qqqqqq02+---",
"--O23404000000qwqq02+--",
"--$333333333440qwaw0&--",
"-O2332$*&&3**550waqq6+-",
"-O232$*##**3%$*2qw3*0+-",
"-O22*9dddr8*%X$*q39*2+-",
"-O$88jccjjddi9880xd8*+-",
"-O$8dbbbbbbxfd9h3xbr$O-",
"-O$8xhjxbbbbxfihxbbd$O-",
"-O@rdxbMNMbbbdixbNxd$O-",
"-O@rx+Oedxccxhd-++Md@O-",
"Oj.d;:=   eeeooo=:-x.jO",
"Od.ddmklz,tge,pklBdd.hO",
"Or7dcjjjjcxnjbjjjjcd7rO",
"OdhjnnNNncjMbbbnNNnjcdO",
"OhtjbnnbbsxnbgbbnnbjdjO",
"-e5txbbbge6668jbbbxt5e-",
"-O5jdjbcjhhs<cxbbjdh5O-",
"-+5xhxbgxccjubxgbxhj5+-",
"--Oxjxbt8tsss>8tbxjxO--",
"--Oxxxbxhcbbpy1xbxvco--",
"--Odxxbbxjgfgjxbbxxco--",
"--O8dxbnNnbbbbnNbxjbo--",
"--O78djbbbxdxbbbjghb+--",
"--O7&8tdddieidddt8bb+--",
"--+7%&#####%&**77ibb+--",
"--+7%5**588888eibbij---",
"---*%*588driiiexvbbi---",
"---**58sdxdbbjidnjj9---",
"---**889hxdjbcjicj99---"
};
