/* XPM */
static char *result[] = {
/* columns rows colors chars-per-pixel */
"23 31 63 1 ",
"  c #28200C",
". c #382C14",
"X c #202020",
"o c #2C2C2C",
"O c gray22",
"+ c #403018",
"@ c #483818",
"# c #543C1C",
"$ c #5C4020",
"% c #6C4824",
"& c #744C28",
"* c #000064",
"= c #484848",
"- c gray33",
"; c gray44",
": c #7C7C7C",
"> c #880000",
", c #980000",
"< c #A80000",
"1 c #B00000",
"2 c #D40000",
"3 c #E00000",
"4 c #FC2020",
"5 c #9C4C00",
"6 c #A85400",
"7 c #B45400",
"8 c #80502C",
"9 c #885830",
"0 c #905C34",
"q c #9C6038",
"w c #A0643C",
"e c #CC6000",
"r c #E46C00",
"t c #FC7800",
"y c #A86840",
"u c #B47044",
"i c #BC7848",
"p c #FC4040",
"a c #FC5C5C",
"s c #C87C4C",
"d c #FC7C7C",
"f c #FC8820",
"g c #D08050",
"h c #DC8854",
"j c #E88C58",
"k c #F0945C",
"l c #FC9C60",
"z c #FCA470",
"x c #0000A4",
"c c #0000A8",
"v c #0000FC",
"b c #FC9C9C",
"n c #FCB080",
"m c #FCB890",
"M c #FCBC9C",
"N c #FCC4A4",
"B c #FCCCB0",
"V c #FCD4BC",
"C c #C0C0C0",
"Z c #FCD8C4",
"A c #FCE0D0",
"S c #FCE8DC",
"D c #ECECEC",
/* pixels */
"====OOOOOOOOOOOOO======",
"===o5e7eererrrrrre5O===",
"==o567e7eeeeeertrre5O==",
"==#66666666677ertfte%==",
"=o5665#&%%6&&88etfrr9O=",
"=o565#&@@&&6$#&5rt6&eO=",
"=o55&whhhuq&$.#&r6w&5O=",
"=o#qqzmmzzhhswqqenhq&O=",
"=o#qshlznNNnjhwl6nNu#o=",
"=o#qnznmNNNNnjslnNNh#o=",
"=o+uh=o-;ZNNNhsnNSnh#o=",
"oy+u-0&##;mmnlh=OOZh+o=",
"oh hi**:=#yyyXXX-;-n so",
"ou0hhcxDC<iky<cvbpnh lo",
"ohlhmnzznmnVzNnnmNBn0io",
"olizVVSSVmzZNNNVSSAVzho",
"=i8zNVVNNgnVNkNZSSAVnlo",
"=o8inNNNky999qmNZZZVis=",
"=O8zhnmmzl3g3mzmNMMMyo=",
"==8llzmnkmmnadnkmNnzwO=",
"==olzzNziqig1,>qzNzz0==",
"==osnnNnzlmNdaa4dNmz%==",
"==oqhnNNNnzkjkz2NNmn@==",
"==oqqhMNVSVNNNNdSNnzX==",
"==o0q0hzNNNnhnNNNzkmO==",
"==o0%0qihhhsyshhhiuNO==",
"==O0$0%@@@@@$%&90ysNO==",
"==O0$8&&8qqqqqysNNjz===",
"===&$&8qqhusssynMNNh===",
"===&&8qghnhNNzshVmni===",
"===&&qqwlnhzNmzsmziw==="
};
