/* XPM */
static char *result[] = {
/* columns rows colors chars-per-pixel */
"23 31 62 1 ",
"  c #28200C",
". c #382C14",
"X c #202020",
"o c #2C2C2C",
"O c gray22",
"+ c #403018",
"@ c #483818",
"# c #543C1C",
"$ c #5C4020",
"% c #6C4824",
"& c #744C28",
"* c #000064",
"= c #484848",
"- c gray33",
"; c #646464",
": c gray44",
"> c #7C7C7C",
", c #880000",
"< c #A80000",
"1 c #B00000",
"2 c #E00000",
"3 c #EC0000",
"4 c #9C4C00",
"5 c #A85400",
"6 c #B45400",
"7 c #80502C",
"8 c #885830",
"9 c #905C34",
"0 c #9C6038",
"q c #A0643C",
"w c #CC6000",
"e c #E46C00",
"r c #FC7800",
"t c #A86840",
"y c #B47044",
"u c #BC7848",
"i c #FC4040",
"p c #FC5C5C",
"a c #C87C4C",
"s c #FC7C7C",
"d c #FC8820",
"f c #D08050",
"g c #DC8854",
"h c #E88C58",
"j c #F0945C",
"k c #FC9C60",
"l c #FCA470",
"z c #0000A8",
"x c #0000C8",
"c c #0000FC",
"v c #2024FC",
"b c #B4B4B4",
"n c #FC9C9C",
"m c #FCB080",
"M c #FCB890",
"N c #FCBC9C",
"B c #FCC4A4",
"V c #FCCCB0",
"C c #FCD4BC",
"Z c #D0D0D0",
"A c #FCD8C4",
"S c #FCE8DC",
/* pixels */
"====OOOOOOOOOOOOO======",
"===o4w6wweweeeeeew4O===",
"==o456w6wwwwwwereew4O==",
"==#55555555566werdrw%==",
"=o4554#&%%5&&77wrdee8O=",
"=o454#&@@&&5$#&4er5&wO=",
"=o44&qgggy0&$.#&e5q&4O=",
"=o#00lMMllggaq00wmg0&O=",
"=o#0gBBBBBBmhgqk5kBy#o=",
"=o#0mklmBBBmlhakmAjg#o=",
"=o+ygmBASABBMgXoo=Ag#o=",
"=o+ymOO=tgMlfX@$%u;g+9=",
"oa g=:-XXXttt&O;>*lm mo",
"oh ggbZzc<ujt<inxvlg&ho",
"ou9gMllllMmClBlMMBVmyao",
"ogklCCSSCMlABBBASSSAmko",
"okulBCCBBfmCBjBASSSAjko",
"=y7umBBBjt8880MVAAAVa&=",
"=&7hglMBlk2g2MmBBBBmyo=",
"=O7lkMBjmMlppBjmBMmj0O=",
"=O7mlMB0yuf,,0umBMlm8==",
"=O7mBlmkMBnsi3smBNMM%==",
"==7mBBBmljhjl1BBBmmMX==",
"==ogNBCSCBBBBsSBmlMBX==",
"==o0glBBBmgmBBBljkBBO==",
"==o%0ugggatagggu0MBBO==",
"==O9$@@@@@$%&&99ahBBO==",
"==O9$7&&700000taBlgl===",
"===&$&700gyaaaumNBka===",
"===&&70fgmgBMjalCllq===",
"===&&00qkmjlBmjaMlqq==="
};
