/* XPM */
static char *result[] = {
/* columns rows colors chars-per-pixel */
"23 31 66 1 ",
"  c #28200C",
". c #382C14",
"X c #202020",
"o c #2C2C2C",
"O c gray22",
"+ c #640000",
"@ c #403018",
"# c #483818",
"$ c #543C1C",
"% c #5C4020",
"& c #6C4824",
"* c #744C28",
"= c #000064",
"- c #484848",
"; c gray33",
": c gray44",
"> c #7C7C7C",
", c #880000",
"< c #980000",
"1 c #A40000",
"2 c #A80000",
"3 c #B00000",
"4 c #D40000",
"5 c #E00000",
"6 c #EC0000",
"7 c #FC2020",
"8 c #9C4C00",
"9 c #A85400",
"0 c #B45400",
"q c #80502C",
"w c #885830",
"e c #905C34",
"r c #9C6038",
"t c #A0643C",
"y c #CC6000",
"u c #E46C00",
"i c #FC7800",
"p c #A86840",
"a c #B47044",
"s c #BC7848",
"d c #FC4040",
"f c #FC5C5C",
"g c #C87C4C",
"h c #FC7C7C",
"j c #FC8820",
"k c #D08050",
"l c #DC8854",
"z c #E88C58",
"x c #F0945C",
"c c #FC9C60",
"v c #FCA470",
"b c #0000A4",
"n c #0000A8",
"m c #0000FC",
"M c #FCB080",
"N c #FCB890",
"B c #FCBC9C",
"V c #FCC4A4",
"C c #FCCCB0",
"Z c #FCD4BC",
"A c #C0C0C0",
"S c #FCD8C4",
"D c #FCE0D0",
"F c #FCE8DC",
"G c #ECECEC",
"H c gray99",
/* pixels */
"----OOOOOOOOOOOOO------",
"---o8y0yyuyuuuuuuy8O---",
"--o890y0yyyyyyuiuuy8O--",
"--$99999999900yuijiy&--",
"-o8998$*&&9**qqyijuuwO-",
"-o898$*##**9%$*8ui9*yO-",
"-o88*tlllar*%.$*u9t*8O-",
"-o$rrvNNvvllgtrryMlr*O-",
"-o$rglcvMVVMzltc9MVa$o-",
"-o$rMvMNVVVVMzgcMVVl$o-",
"-o@alOo;:SVVVlgMVFMl$o-",
"op@a;e*$$:NNMcl-O-Sl@o-",
"ol ls==>-$pppXXX1M;M go",
"oaellnbGA2sxp2nmh7lc co",
"olcvNvNNvNMZvVNCDDZNeso",
"ocsBZDFFZNvSVVSFHHHSNlo",
"-sqBCZZSVkMZVxSFFFFSNco",
"-oqlMVVVxpwwwrVZSSSCvg-",
"-OqvlMNNvc5k5NvNVCCVko-",
"--qccvNMxNfMfhMxNVBvpO-",
"--ocvvVvs+<k3<,rvVMMw--",
"--ogMMVMv6NVhff7hVBN%--",
"--orlMVVV1vxzxv4VVMNX--",
"--orrlBVZFZVVVVhFVMvX--",
"--oerelvVVVMlMVdVvxNO--",
"--oe&erslllgpglllsaVO--",
"--Oe%e&#####%&*wepgVO--",
"--Oe%q**qrrrrrpgVVzv---",
"---*%*qrrlagggpMBVVl---",
"---**qrklMlVVvglZNMs---",
"---**rrtcMlvVNvgNvst---"
};
