/* XPM */
static char *result[] = {
/* columns rows colors chars-per-pixel */
"23 31 61 1 ",
"  c black",
". c #202020",
"X c #2C2C2C",
"o c gray22",
"O c #640000",
"+ c #7C0000",
"@ c #403018",
"# c #483818",
"$ c #543C1C",
"% c #5C4020",
"& c #6C4824",
"* c #744C28",
"= c #000058",
"- c #000064",
"; c #484848",
": c gray33",
"> c #7C7C7C",
", c #980000",
"< c #A80000",
"1 c #BC0000",
"2 c #C80000",
"3 c #EC0000",
"4 c #FC0000",
"5 c #9C4C00",
"6 c #A85400",
"7 c #B45400",
"8 c #80502C",
"9 c #885830",
"0 c #905C34",
"q c #9C6038",
"w c #A0643C",
"e c #CC6000",
"r c #E46C00",
"t c #FC7800",
"y c #A86840",
"u c #B47044",
"i c #BC7848",
"p c #FC5454",
"a c #C87C4C",
"s c #FC8820",
"d c #D08050",
"f c #DC8854",
"g c #FC9840",
"h c #E88C58",
"j c #F0945C",
"k c #FC9C60",
"l c #FCA470",
"z c #0000A8",
"x c #C800CC",
"c c #FC20FC",
"v c #FC54FC",
"b c #FC7CFC",
"n c #FCB080",
"m c #FCB890",
"M c #FCBC9C",
"N c #FCC4A4",
"B c #FCCCB0",
"V c #FCD4BC",
"C c #FCD8C4",
"Z c #FCE0D0",
"A c #FCE8DC",
/* pixels */
";;;;ooooooooooooo;;;;;;",
";;;Xerrrrrrrrrrrrr6o;;;",
";;Xeerrrrtttttssstr6o;;",
";;7eerrrtttttttssstt6;;",
";X67eeerrtstrrrtsgtteo;",
";X57700eeeteeettsgtteo;",
";X868***57r8807etste8o;",
";X86&&&&857%%80tet758o;",
";X&6&00qqy7%%%%7er%%&o;",
";X&%0dfkhuuy8%07eek%&o;",
";X$%ufnNnhnfi0y6e7na$o;",
";*$%doo;;BNnfih6hnNk$o;",
"Xh$u:9***;BNna6;o>Cn$ao",
"Xi%ui-=1:9fji  .X;;C%lo",
"Xw%dnz;p3<qyi,4p4<pM%yo",
"XjfnNnnnllhllncxvbNCndo",
"XifmNCCCNNlNNNBCCAAZBko",
";ofmNVCVNanVCjBVVZZABy;",
";odlnMNNMhdkllmBBCCZB%;",
";ouhlmMmnn+q+nnmBBBNn*;",
";;8ajnnlljpapkhnmmmmh;;",
";;8adjlhu*OOO*@ulmnnd;;",
";;.9uajd<pnMp<<2pjnku;;",
";;.9*uhm2<jfafj4lNNf*;;",
";;X9*#ulNpNmlmNpNNkn@;;",
";;X9*##uajjjaj<jjjiNo;;",
";;o8%&9#####%**qyajno;;",
";;o8%8**8qqqqqyaNNkl;;;",
";;;*%*8qqfuaaainMNna;;;",
";;;**8qdfnfNmjalVllw;;;",
";;;**qqwknjlNnjamlww;;;"
};
