/* XPM */
static char *result[] = {
/* columns rows colors chars-per-pixel */
"23 31 56 1 ",
"  c #202020",
". c #2C2C2C",
"X c gray22",
"o c #640000",
"O c #7C0000",
"+ c #403018",
"@ c #483818",
"# c #543C1C",
"$ c #5C4020",
"% c #6C4824",
"& c #744C28",
"* c #000064",
"= c #484848",
"- c #A80000",
"; c #C80000",
": c #D40000",
"> c #FC0000",
", c #9C4C00",
"< c #A85400",
"1 c #B45400",
"2 c #80502C",
"3 c #885830",
"4 c #905C34",
"5 c #9C6038",
"6 c #A0643C",
"7 c #CC6000",
"8 c #E46C00",
"9 c #FC7800",
"0 c #A86840",
"q c #B47044",
"w c #BC7848",
"e c #FC5454",
"r c #C87C4C",
"t c #FC8820",
"y c #D08050",
"u c #DC8854",
"i c #FC9840",
"p c #E88C58",
"a c #F0945C",
"s c #FC9C60",
"d c #FCA470",
"f c #0000A8",
"g c #C800CC",
"h c #FC20FC",
"j c #FC54FC",
"k c #FC7CFC",
"l c #FCB080",
"z c #FCB890",
"x c #FCBC9C",
"c c #FCC4A4",
"v c #FCCCB0",
"b c #FCD4BC",
"n c gainsboro",
"m c #FCD8C4",
"M c #FCE0D0",
"N c #FCE8DC",
/* pixels */
"====XXXXXXXXXXXXX======",
"===.78888888888888<X===",
"==.77888889999ttt98<X==",
"==1778889999999ttt99<==",
"=.<1777888988889ti997X=",
"=.,1111777t77799ti997X=",
"=.2<1222118224179t972X=",
"=.2<2$$$211$$249791,2X=",
"=.%<$$qq501$$$$178$$%X=",
"=.%$$qusp5<r5$0178s$%X=",
"=.#$qulclylurq0<71lr#X=",
"=.#$yazzcvcluyp<plcs#X=",
".y#qaXX=yzvcla<=XXml#yX",
".s$q=y*   uau    ==m$lX",
".4$ylnf=e-50w-:>e-ex$4X",
".yulccllddpddlhgjkcmlyX",
".puzcmmmccdcccvmmNNmvpX",
"=XuzcbmbcrlbmavbbMMNv@=",
"=Xydlxccxpysddzvvmmmv$=",
"=XqddzxzllO5Olzzvvvcl&=",
"==2rallddaerelllzzzzy==",
"==2raady+&ooo&+alzzzq==",
"== qrdy-elxe--;eazzl4==",
"== 3qpz;-aurua>dcclu&==",
"==.3@qdceczdzceccssl+==",
"==.3@@qraaara-aaa4lcX==",
"==X3@3@@@@@$&&&&4yccX==",
"==X4$2&&2555550rcdud===",
"===&$&255uqrrrwlxcsr===",
"===&&25yuluczardbdd6===",
"===&&556sladclarzd66==="
};
