/* XPM */
static char *result[] = {
/* columns rows colors chars-per-pixel */
"23 31 56 1 ",
"  c #382C14",
". c #202020",
"X c #2C2C2C",
"o c gray22",
"O c #4C0000",
"+ c #580000",
"@ c #7C0000",
"# c #403018",
"$ c #483818",
"% c #543C1C",
"& c #5C4020",
"* c #6C4824",
"= c #744C28",
"- c #484848",
"; c #880000",
": c #980000",
"> c #A40000",
", c #A80000",
"< c #B00000",
"1 c #BC0000",
"2 c #D40000",
"3 c #E00000",
"4 c #EC0000",
"5 c #FC0000",
"6 c #FC2020",
"7 c #9C4C00",
"8 c #A85400",
"9 c #80502C",
"0 c #885830",
"q c #905C34",
"w c #9C6038",
"e c #CC6000",
"r c #E46C00",
"t c #FC7800",
"y c #A86840",
"u c #B47044",
"i c #BC7848",
"p c #FC5454",
"a c #FC5C5C",
"s c #C87C4C",
"d c #FC8820",
"f c #D08050",
"g c #DC8854",
"h c #E88C58",
"j c #F0945C",
"k c #FC9C60",
"l c #FCA470",
"z c #840084",
"x c #B400B4",
"c c #FC00FC",
"v c #FC9C9C",
"b c #FCB080",
"n c #FCB890",
"m c #FCBC9C",
"M c #FCC4A4",
"N c #FCCCB0",
/* pixels */
"-----------------------",
"-----------------------",
"-----------------------",
"----ooooooooooooo------",
"---ottttddddddddddto---",
"--oerrrttttttttttdddo--",
"--8errrrrrrrrrrtttddd--",
"-X8errrrrrrrrrrrttdddo-",
"-X8errrrrrrrrrrrrtdddo-",
"-X98errrrrrrrrrrrtddro-",
"-X98eerrrrrrrrrrrtdd0o-",
"-X988eerrrrrrrrrrddr0o-",
"-X9888eeeeeeeeerert80o-",
"-*=8=&98888888er8rd=0q-",
"Xs=8&#&8#78#&77t8rt&0so",
"Xb=8#0y8&#89&#7e8ery=bo",
"Xs&#yy8gyy700%778ryf=so",
"X#&yssgjgy7iw7%7w8gb%=o",
"Xi&yyoX-ljjjy%77o8bN%io",
"-Xgkoy,...qy%7...-onbo-",
"-oglk33:;O===.;14,ypao-",
"--ybakcxzksggzcxx66v6o-",
"--ykbmmbbfhkkbybmmvp<--",
"--.fbbbbkyfkbpjbbbbb.--",
"--.9fkky$s,y,s$ylll5.--",
"--.&9qu,39*+++33gggb.--",
"--X& %0@,yh42:,3iwyMX--",
"--X&  *y@@y=y@@>y&mNX--",
"--o&## ====&====&smNo--",
"---&$&%#%%%y%%%&yshy---",
"---&&0y99yssjbs=&yy9---"
};
