/* XPM */
static char *result[] = {
/* columns rows colors chars-per-pixel */
"23 31 38 1 ",
"  c black",
". c #28200C",
"X c #382C14",
"o c #202020",
"O c #2C2C2C",
"+ c gray22",
"@ c #7C0000",
"# c #403018",
"$ c #483818",
"% c #543C1C",
"& c #5C4020",
"* c #6C4824",
"= c #744C28",
"- c #484848",
"; c gray33",
": c #646464",
"> c gray44",
", c #7C7C7C",
"< c #C80000",
"1 c #FC2020",
"2 c #9C4C00",
"3 c #A85400",
"4 c #B45400",
"5 c #80502C",
"6 c #885830",
"7 c #CC6000",
"8 c #E46C00",
"9 c #FC7800",
"0 c #FC8820",
"q c gray55",
"w c #989898",
"e c gray66",
"r c #B4B4B4",
"t c #C0C0C0",
"y c #D0D0D0",
"u c gainsboro",
"i c #ECECEC",
"p c gray99",
/* pixels */
"----+++++++++++++------",
"---O274778788888872+---",
"--O23474777777898872+--",
"--%33333333344789097*--",
"-O2332%=**3==55790886+-",
"-O232%=$$==3&%=2893=7+-",
"-O22=>wewqq:;X;>83>=2+-",
"-O%:>errewewq>>>7re>=+-",
"-O%,uttttwwqq,:,3tu>%O-",
"-O%>euerttttrwqeruyq%O-",
"-O#,qutyuyeewq,tyutq%O-",
"-O#tt+Owerwrweew-;uu#O-",
"Ow.w;>@ ::;,;::O@>;w.qO",
"Ot.wwy<   >w>   1pww.rO",
"O,:wtewwruturtewweyw>>O",
"OeteuuiiuutuytyuiiueyqO",
"Ot,eyuuyyeyuyeyyuuyeerO",
"-,:q>eyyeq:::,eyye>,:>-",
"-O-r,eytreeqettyye,w-O-",
"-++twryrtyyetytryeqe++-",
"--Otetyq-:>>>:-qyrwrO--",
"--Ouyyytetuyyteturyro--",
"--Otuyuytrewertyuuyro--",
"--Oqtuuuiutttyiuyreto--",
"--Oq,qtyyyrwryyyrqqt+--",
"--Oq:>qqqqw>wqqq,;tt+--",
"--+,;-+++++O+++-;qrt+--",
"--+>-;--;::::::,trqr---",
"---:-:;;:>,wwq:,etrq---",
"---;;:;>>,wrtq,qttw:---",
"----;;;;>,ertqq>ew::---"
};
