/* XPM */
static char *result[] = {
/* columns rows colors chars-per-pixel */
"64 64 61 1 ",
"  c black",
". c #010101",
"X c #020202",
"o c gray1",
"O c #040404",
"+ c gray2",
"@ c #060606",
"# c #070707",
"$ c gray3",
"% c #090909",
"& c gray4",
"* c #0B0B0B",
"= c #0C0C0C",
"- c gray5",
"; c #0E0E0E",
": c gray6",
"> c #101010",
", c #111111",
"< c gray7",
"1 c #131313",
"2 c gray8",
"3 c #151515",
"4 c #161616",
"5 c gray9",
"6 c #181818",
"7 c #191919",
"8 c gray10",
"9 c #1B1B1B",
"0 c gray11",
"q c #1D1D1D",
"w c #1E1E1E",
"e c gray12",
"r c #202020",
"t c gray13",
"y c #222222",
"u c #232323",
"i c gray14",
"p c #252525",
"a c gray15",
"s c #272727",
"d c #282828",
"f c gray16",
"g c #2A2A2A",
"h c gray17",
"j c #2C2C2C",
"k c #2D2D2D",
"l c gray18",
"z c #2F2F2F",
"x c gray19",
"c c #313131",
"v c #323232",
"b c gray20",
"n c #343434",
"m c #353535",
"M c gray21",
"N c gray22",
"B c #393939",
"V c gray23",
"C c #3C3C3C",
"Z c gray25",
"A c #414141",
/* pixels */
",689900qqqq0098889900q90qqqqq00q00qwwwqqwwwwwqqqwwwwwerrewwwqqw0",
"7tuiyyuiippiuuyyyttyyuiiuyyyyyyuppiiiiuuiiyyuipuuiuuipaapiyywwui",
"eiipiipaaiiiiiuuuuuiiiuuiiiiiiipiiiiipppppiiippaddssssddsaut00rp",
"taassaaiuiiiiiiiupiipiuipppiipppppiiipsiaaiiipassfadffffdauw87wp",
"tasdddsaappaauiiippppppssssppasspppppsssssssssdfdfsgggggday9420a",
"tsdfhvbksggffgddfgfffffffffffffffdffffdgddggffghffgjkzlkpew8420s",
"tdffkCZkghgffgfffdddfgffgggfggffhghghffgffggghhkghjjjzlk7>75210a",
"tssdhkzaupiiiuiiuuuuuiiiiiiuiiiipipipyytyyyuyyyuiippuyua2+36310a",
"yssdgfp46887768888878997887780099900099888877667999889wa3O47220p",
"yaafldp-5tutrreyuyytytyruytyyiiuuytyyyyyyyuuuyytyytterpa3o36220p",
"yppfjsi-7knkjjkkjhhhkgjjkhgjhjkjhhjlkkkkhhkllllkzzkfwqsa3o47229u",
"ruadhai=8kMmklllklljjlkklkjkzkkkzzzzzkllzlzzzlzxclje>5ss4O56229a",
"ruadgpu=8hgcjfdddffddsaafdsadsssdddssdfffdsaaasdfsp>@4sf5O56229i",
"riasfpu=7aaft867778766666555667777666676555543570et&O4as4O57218i",
"ripadpu=6uia7&&**=*&*&*************&&&*&&&&****-2wt&O6ap4+47217i",
"ruiadpu=6api4.+>133333333222222222233333333322459yt&O5ai4@47217i",
"etupfpy*4sps2.O5ruuyyyyyyiyuuytyyyyyyyuuiiiyewetyyt&+6aa5+882<7u",
"etuiday&5apd2.+9fVcsaappappisapappppppsfspay75quuut&O5pa5+771,6y",
"etuisay&6sia2.+qjBCfaaddaiiipppaaassaaapasit:O3iiit&o5ia5O66<>5y",
"etuisat&7sps1 @wdhxauuppppiaiiipppiuyipuuuuy:.1pppt&o6ip4O761<6u",
"etuisie&8dsd1 @eadpuuuuuyyuuyytryytyuyuyyyte-.>ippt&O7pp4O761<7i",
"wyyusue&9apa1 @wdsauytyyyyyuttttyyyyytttyytt-.>iaat%O8ai5@56217i",
"wyyydaw%6pia1 @wdaauytyyyyyutyyyyyyyytttyyrr=.,ippy%o7iy3+67216u",
"eyyufpe&9pip1 @edspuytyyyyyuyyuuyyyyyttyyttt;.,uiiy%o7ii4@78216y",
"eyyudpw%7sip1.@esspuytyyyyyyyyyyyyyttyyyttrt; <ippy&O8as5#80318p",
"eyyyspe%7sip2X@esspuytyyyyyyyyyyyyyuuyytttyy: <yuuu*+8ap4#991<7a",
"wyyyspe%7spa<.@esspyyytyyyyuyyyyyyttyyyyyyyr; ,uipi=+8ip4+981<5i",
"wyyuspe$6spa, @esspyyyyytttutytyyytryyyyyytr- ,tiau*O7ii4+981<5i",
"wyyyspw#5spa, @edsiyyyyttrtuyytyyyttyyyyyytr- ,uiiy%o7iu5+981<5u",
"wtyyspe$6app,.@tdaittttttyuyyyttyyyyyuyyyyyt=.,upir%O7ii4O76<15u",
"wtyyspe$6app,.#tsppttttttyuyyyuuyyyyyyttyyyt=.,iapt*+7ii4+87<15u",
"wrtysaw$6spa,.@taiiyyyyyyyyyyyuuyyyyyuyyyytr-.,ippu*O7ip6+86<<5u",
"qrtydpq$7spa,.+raiiyyyyyyyyyyyttyyyyyuytyytr;.,uiiy&+9ip6@081:6u",
"0etyfpq#7spa,.+rppityyyyyyyyyyyyyyyyyuytyytr;.,uiit%@0ip6@q91,5u",
"9ettppw#8fpp; +eappyyyyyyyyyyyyyyyyyyyyyyytr; <yppy%O0ui5+962,6i",
"0wtrppw#7sas; @rsaiyyyyyyyyyyyyyyyyyyyyyyytr; <uaai&O0up6@772,6i",
"0wrtppq#8fpp; @tfsiyyyyyyyyyyyyyyyyyyyyyyytt- ,uaap&+qii4@85<,6i",
"ewrysdw#8sip; @tdapyyyyyyyytttrryyyyyyyyyytt- ,yaap&@esp4+86<,5p",
"qwrypsq#8dua; @tsiiyyyyyyyyyyyttyyyyyyyyyytt- ,yaai*@0ip4+981,5p",
"0etypaq$9sip>.#tsppyyyyyyyyyyyyyyyyyyyuyyytr; <uiiy*+0ui6+982,5i",
"0etypaq#8sip>.#tsppyyyyyyyyttyyyyyyyyyuyyytr; <ippu&O9iu4O981,4i",
"0etyap0@8sip>.#rappyyyyyyyyyyyyyyyyyyuuyyytr- <iaai&o0ii5+88<:4i",
"0ettsi0@8app>.@rappyyttyyyyyyyyytyuyyuyyyytt- <paau*Oqiu4O971>4i",
"0wrrsi0@8sap>.@rappyytrttyyyyyyytyuyyuiiyytt;.1paat=+qiu4+962,5i",
"0ertap0@7ssi; @eiyuyytrrtyyyrrtttryyyrrtteee%.3sapi&O0ii4@061>5i",
"qertsaq@7fau; +qt4423433222112221<21111121<>+o5diai%O0ia6%q81>5i",
"qerydaq@7ssi; @9r3**%%%%&==**---=**&&==--*-=->0aspi%O0ii4#971>5i",
"qrrysi9@8dsi- $7ew9988009990900000099qqqqwertrufsai%+0ip4#871<6u",
"qeetsp8@8dsi;.=wiiiuipsssdsapsssddsaadffffhhhhkMcsi%+epp4#871<6u",
"qretai8@8dai,@6upsdfafdddddffdsdssdddhhjhgjkkjxNAvi%+eip3#862,6u",
"qewtsi9@9dap97ypipsspsddsssffddfdfggggghjjlkjkkkmvt%+qip3#752,6y",
"0wwrdp8@9daiqwrrrryrrrtteeeyyrerrtyttyyyiuyuiipuytq%@0yp3#752,6y",
"90qeau6+8st8322233322235322233212243344442214334341;$0up3#653<6y",
"0wwtau6@7u03<<112321122332232112323443333334566423453ras3+663,6u",
"9wwtdp8#5rw090q0qqqwewrttrerewweeerteyuyyyuiiiiiipuyisfd3+66438u",
"0wwtda0<epppippupaasdaassdfgfffffggjdhjhhhjklxxzxczlxxcg2+55327y",
"qwwtppequiiiiipipiipaipapiiapippsdsdadfdssdffffhhfgghhjs>+56327t",
"9wweu033443433432223332223311222334442121<22112333211<,>*;67327t",
"8qwwr0322<,<<<,<<1111122333233133344433333555545553333344894339t",
"80qwwqww009990wwqqwrrreeeeerrrereeerrrreetttrtrtttewwwwqeq86440t",
"90qwwwwwqewwrtrreetttttttttyttttrrrrtrtrttrtrttyyyrrrreeew7566qy",
"90qwqwertrtrerertttuuutttttuuyttyyyyytyttttytttyyyrrttreee0889rt",
"90qweertyeerrreytyyuuuyytttyytttuuuyuyuyttyuyttyyyttytrrreww0qit",
"8eerrrttttttttrryyyuiiiiuupiiiuupppuippasppppipsaidapiuuuuuuipcy"
};
