/* XPM */
static char *_9192_ecab1a6f3b5e0c1ac8a4ef029e85ec820779efa4c2283cb97552f4deaf245d8c[] = {
/* columns rows colors chars-per-pixel */
"64 64 256 2 ",
"   c black",
".  c #800000",
"X  c #008000",
"o  c #808000",
"O  c navy",
"+  c #800080",
"@  c #008080",
"#  c #C0C0C0",
"$  c #C0DCC0",
"%  c #D4D0C8",
"&  c #040404",
"*  c #0C0C0C",
"=  c gray8",
"-  c gray11",
";  c gray14",
":  c #2C2C2C",
">  c #343434",
",  c #3C3C3C",
"<  c #444444",
"1  c #4C4C4C",
"2  c gray33",
"3  c gray36",
"4  c #646464",
"5  c #6C6C6C",
"6  c #747474",
"7  c #200000",
"8  c #340000",
"9  c #480000",
"0  c #5C0000",
"q  c #700404",
"w  c #840404",
"e  c #980808",
"r  c #AC0C0C",
"t  c #C01010",
"y  c #C42424",
"u  c #CC3838",
"i  c #D05050",
"p  c #D86464",
"a  c #DC7C7C",
"s  c #E49898",
"d  c #ECB4B4",
"f  c #2C1400",
"g  c #3C1C00",
"h  c #502400",
"j  c #643000",
"k  c #743804",
"l  c #884404",
"z  c #984C08",
"x  c #AC580C",
"c  c #C06410",
"v  c #C47024",
"b  c #CC8038",
"n  c #D09050",
"m  c #D89C64",
"M  c #DCAC7C",
"N  c #E4C098",
"B  c #ECD0B4",
"V  c #2C2C00",
"C  c #3C3C00",
"Z  c #505000",
"A  c #646400",
"S  c #747804",
"D  c #848808",
"F  c #94980C",
"G  c #A4A814",
"H  c #B4B81C",
"J  c #C4C824",
"K  c #CCCC38",
"L  c #D0D450",
"P  c #D8D868",
"I  c #E0E080",
"U  c #E4E49C",
"Y  c #ECECB8",
"T  c #0C1400",
"R  c #202C00",
"E  c #344400",
"W  c #445C00",
"Q  c #587400",
"!  c #6C8C00",
"~  c #7CA400",
"^  c #90BC00",
"/  c #98C010",
"(  c #A4C828",
")  c #B0D040",
"_  c #BCD85C",
"`  c #C8E078",
"'  c #D4E498",
"]  c #E0ECB4",
"[  c #ECF4D8",
"{  c #001400",
"}  c #002C00",
"|  c #004400",
" . c #005C00",
".. c #007400",
"X. c #008C00",
"o. c #00A400",
"O. c #00C000",
"+. c #10C410",
"@. c #28CC28",
"#. c #44D444",
"$. c #5CD85C",
"%. c #78E078",
"&. c #98E898",
"*. c #B8ECB8",
"=. c #D8F4D8",
"-. c #00140C",
";. c #002C1C",
":. c #004428",
">. c #005C38",
",. c #007448",
"<. c #048C58",
"1. c #04A468",
"2. c #04BC78",
"3. c #18C084",
"4. c #30C890",
"5. c #48D09C",
"6. c #60D8AC",
"7. c #7CE0BC",
"8. c #9CE4C8",
"9. c #B8ECD8",
"0. c #D8F4E8",
"q. c #001414",
"w. c #002C2C",
"e. c #004444",
"r. c #005C5C",
"t. c #007474",
"y. c #008C8C",
"u. c #00A4A4",
"i. c #00BCBC",
"p. c #10C0C0",
"a. c #28C8C8",
"s. c #40D0D0",
"d. c #5CD8D8",
"f. c #78E0E0",
"g. c #98E4E4",
"h. c #B4ECEC",
"j. c #D8F4F4",
"k. c #00142C",
"l. c #001C3C",
"z. c #002850",
"x. c #003064",
"c. c #043C74",
"v. c #044488",
"b. c #085098",
"n. c #0C5CAC",
"m. c #1068C0",
"M. c #2474C4",
"N. c #3884CC",
"B. c #5090D0",
"V. c #64A0D8",
"C. c #7CACDC",
"Z. c #98C0E4",
"A. c #B4D0EC",
"S. c #00002C",
"D. c #00003C",
"F. c #000050",
"G. c #000064",
"H. c #040474",
"J. c #040488",
"K. c #080898",
"L. c #0C0CAC",
"P. c #1010C0",
"I. c #2828C8",
"U. c #4040D0",
"Y. c #5C5CD8",
"T. c #7878E0",
"R. c #9898E4",
"E. c #B4B4EC",
"W. c #D8D8F4",
"Q. c #7C7C7C",
"!. c #848484",
"~. c gray55",
"^. c #989898",
"/. c #A0A0A0",
"(. c gray66",
"). c gray69",
"_. c #BCBCBC",
"`. c gray77",
"'. c gray80",
"]. c #D8D8D8",
"[. c gray88",
"{. c gray91",
"}. c gray94",
"|. c gray99",
" X c #3C1800",
".X c #401C00",
"XX c #482004",
"oX c #502804",
"OX c #542C08",
"+X c #5C340C",
"@X c #603814",
"#X c #684018",
"$X c #704820",
"%X c #C8CC28",
"&X c #C8B024",
"*X c #C89020",
"=X c #C4701C",
"-X c #C45018",
";X c #C03014",
":X c #2C0014",
">X c #3C001C",
",X c #500024",
"<X c #640030",
"1X c #740438",
"2X c #880444",
"3X c #98084C",
"4X c #AC0C58",
"5X c #C01064",
"6X c #C42470",
"7X c #CC3880",
"8X c #D05090",
"9X c #D8649C",
"0X c #DC7CAC",
"qX c #E498C0",
"wX c #ECB4D0",
"eX c #201408",
"rX c #301C0C",
"tX c #402810",
"yX c #503418",
"uX c #60401C",
"iX c #805424",
"pX c #94602C",
"aX c #A06C3C",
"sX c #A8784C",
"dX c #B08458",
"fX c #BC906C",
"gX c #C4A080",
"hX c #D0B094",
"jX c #D8BCA8",
"kX c #E4D0C0",
"lX c #081420",
"zX c #0C1C30",
"xX c #142840",
"cX c #183450",
"vX c #204060",
"bX c #244870",
"nX c #2C5480",
"mX c #346090",
"MX c #3C6CA0",
"NX c #4C78A8",
"BX c #5884B0",
"VX c #6C90BC",
"CX c #80A0C4",
"ZX c #94B0D0",
"AX c #A8BCD8",
"SX c #C0D0E4",
"DX c #FFFBF0",
"FX c #FFFBF0",
"GX c #808080",
"HX c red",
"JX c green",
"KX c yellow",
"LX c blue",
"PX c magenta",
"IX c cyan",
"UX c white",
/* pixels */
": : : : : : : : : : : : : : : : : : : : : : ; > , < : ; > , < : ; > , < : ; > , < : : : : : : : : : : : : : : : : : : : : : : : ",
": : : : : : : : : : : : : : : : : : : : : : ; > , < : ; > , < : ; > , < : ; > , < : : : : : : : : : : : : : : : : : : : : : : : ",
": : : : : : : : : : : : : : : : : : : : : : ; > , < : ; > , < : ; > , < : ; > , < : : : : : : : : : : : : : : : : : : : : : : : ",
": : : : : : : : : : : : : : : : : : : : : : ; > , < : ; > , < : ; > , < : ; > , < : : : : : : : : : : : : : : : : : : : : : : : ",
": : : : : : : : : : : : : : : : : : : : : : ; > , < : ; > , < : ; > , < : ; > , < : : : : : : : : : : : : : : : : : : : : : : : ",
": : : : : : : : : : : : : : : : : : : : : : ; > , < : ; > , < : ; > , < : ; > , < : : : : : : : : : : : : : : : : : : : : : : : ",
": : : : : : : : : : : : : : : : : : : : : : ; > > > : ; > > > : ; > > > : ; > > > : : : : : : : : : : : : : : : : : : : : : : : ",
": : : : : : : : : : : : : : : : : : : ; ; ; ; ; ; ; ; ; ; ; ; ; ; ; ; ; ; ; ; ; ; ; ; ; : : : : : : : : : : : : : : : : : : : : ",
": : : : : : : : : : : : : : : : : : ; : : : : : : : : : : : : : : : : : : : : : : : > , < , : : : : : : : : : : : : : : : : : : ",
": : : : : : : : : : : : : : : : : ; : > > > > > > > > > > > > > > > > > > > > > > > > > , < , : : : : : : : : : : : : : : : : : ",
": : : : : : : : : : : : : : : : ; : > > > > > > > > > > > > > > > > > > > > > > > > > > > , < , : : : : : : : : : : : : : : : : ",
": : : : : : : : : : : : : : : ; : > > > > > > > > > > > > > > > > > > > > > > > > > > > > > , < , : : : : : : : : : : : : : : : ",
": : : : : : : : : : : : : : ; : > > > > > > > > > > > > > > > > > > > > > > > > > > > > > > > , < , : : : : : : : : : : : : : : ",
": : : : : : : : : : : : : ; : > > > > > > > > > > > > > > > > > > > > > > > > > > > > > > > > > , < , : : : : : : : : : : : : : ",
": : : : : : : : : : : : ; : > > > > > > > > > > > > > > > > > > > > > > > > > > > > > > > > > > > , < , : : : : : : : : : : : : ",
": : : : : : : : : : : ; : > > > > > > > > > > > > > > > > > > > > > > > > > > > > > > > > > > > > > , < , : : : : : : : : : : : ",
": : : : : : : : : : ; : > > > > > > > > > > > > > > > > > > > > > > > > > > > > > > > > > > > > > > > , < , : : : : : : : : : : ",
": : : : : : : : : ; : > > > > > > > > > > > > > > > > > > > > > > > > > > > > > > > > > > > > > > > > > , < , : : : : : : : : : ",
": : : : : : : : ; : > > > > > > > > > > > > > > > > > > > > > > > > > > > > > > > > > > > > > > > > > > > , < , : : : : : : : : ",
": : : : : : : ; : > > > > > > > > > > > > > > > > > > > > > > > > > > > > > > > > > > > > > > > > > > > > > , < , : : : : : : : ",
": : : : : : ; : > > > > > > > > > > > > > > > > > > > > > > > > > > > > > > > > > > > > > > > > > > > > > > > , < , : : : : : : ",
": : : : : ; : > > > > > > > > > > > > > > > > > > > > > > > > > > > > > > > > > > > > > > > > > > > > > > > > > , < , : : : : : ",
"; ; ; ; ; ; : > > > > > > > > > > > > > > > > > > > > > > > > > > > > > > > > > > > > > > > > > > > > > > > > > , < , ; ; ; ; ; ",
"> > > > > ; : > > > > > > > > > > > > > > > > > > > > > > > > > > > > > > > > > > > > > > > > > > > > > > > > > , < , > > > > > ",
", , , , , ; : > > > > > > > > > > > > > > > > > > > > > > > > > > > > > > > > > > > > > > > > > > > > > > > > > , < , , , , , , ",
"< < < < > ; : > > > > > > > > > > > > > > > > > > > > > > > > > > > > > > > > > > > > > > > > > > > > > > > > > , < , < < < < < ",
": : : : : ; : > > > > > > > > > > > > > > > > > > > > > > > > > > > > > > > > > > > > > > > > > > > > > > > > > , < , : : : : : ",
"; ; ; ; ; ; : > > > > > > > > > > > > > > > > > > > > > > > > > > > > > > > > > > > > > > > > > > > > > > > > > , < , ; ; ; ; ; ",
"> > > > > ; : > > > > > > > > > > > > > > > > > > > > > > > > > > > > > > > > > > > > > > > > > > > > > > > > > , < , > > > > > ",
", , , , , ; : > > > > > > > > > > > > > > > > > > > > > > > > > > > > > > > > > > > > > > > > > > > > > > > > > , < , , , , , , ",
"< < < < > ; : > > > > > > > > > > > > > > > > > > > > > > > > > > > > > > > > > > > > > > > > > > > > > > > > > , < , < < < < < ",
": : : : : ; : > > > > > > > > > > > > > > > > > > > > > > > > > > > > > > > > > > > > > > > > > > > > > > > > > , < , : : : : : ",
"; ; ; ; ; ; : > > > > > > > > > > > > > > > > > > > > > > > > > > > > > > > > > > > > > > > > > > > > > > > > > , < , ; ; ; ; ; ",
"> > > > > ; : > > > > > > > > > > > > > > > > > > > > > > > > > > > > > > > > > > > > > > > > > > > > > > > > > , < , > > > > > ",
", , , , , ; : > > > > > > > > > > > > > > > > > > > > > > > > > > > > > > > > > > > > > > > > > > > > > > > > > , < , , , , , , ",
"< < < < > ; : > > > > > > > > > > > > > > > > > > > > > > > > > > > > > > > > > > > > > > > > > > > > > > > > > , < , < < < < < ",
": : : : : ; : > > > > > > > > > > > > > > > > > > > > > > > > > > > > > > > > > > > > > > > > > > > > > > > > > , < , : : : : : ",
"; ; ; ; ; ; : > > > > > > > > > > > > > > > > > > > > > > > > > > > > > > > > > > > > > > > > > > > > > > > > > , < , ; ; ; ; ; ",
"> > > > > ; : > > > > > > > > > > > > > > > > > > > > > > > > > > > > > > > > > > > > > > > > > > > > > > > > > , < , > > > > > ",
", , , , , ; : > > > > > > > > > > > > > > > > > > > > > > > > > > > > > > > > > > > > > > > > > > > > > > > > > , < , , , , , , ",
"< < < < > ; : > > > > > > > > > > > > > > > > > > > > > > > > > > > > > > > > > > > > > > > > > > > > > > > > > , < , < < < < < ",
": : : : : ; : > > > > > > > > > > > > > > > > > > > > > > > > > > > > > > > > > > > > > > > > > > > > > > > > > , < , : : : : : ",
": : : : : ; : > > > > > > > > > > > > > > > > > > > > > > > > > > > > > > > > > > > > > > > > > > > > > > > > > , < , : : : : : ",
": : : : : : ; : > > > > > > > > > > > > > > > > > > > > > > > > > > > > > > > > > > > > > > > > > > > > > > > , < , : : : : : : ",
": : : : : : : ; : > > > > > > > > > > > > > > > > > > > > > > > > > > > > > > > > > > > > > > > > > > > > > , < , : : : : : : : ",
": : : : : : : : ; : > > > > > > > > > > > > > > > > > > > > > > > > > > > > > > > > > > > > > > > > > > > , < , : : : : : : : : ",
": : : : : : : : : ; : > > > > > > > > > > > > > > > > > > > > > > > > > > > > > > > > > > > > > > > > > , < , : : : : : : : : : ",
": : : : : : : : : : ; : > > > > > > > > > > > > > > > > > > > > > > > > > > > > > > > > > > > > > > > , < , : : : : : : : : : : ",
": : : : : : : : : : : ; : > > > > > > > > > > > > > > > > > > > > > > > > > > > > > > > > > > > > > , < , : : : : : : : : : : : ",
": : : : : : : : : : : : ; : > > > > > > > > > > > > > > > > > > > > > > > > > > > > > > > > > > > , < , : : : : : : : : : : : : ",
": : : : : : : : : : : : : ; : > > > > > > > > > > > > > > > > > > > > > > > > > > > > > > > > > , < , : : : : : : : : : : : : : ",
": : : : : : : : : : : : : : ; : > > > > > > > > > > > > > > > > > > > > > > > > > > > > > > > , < , : : : : : : : : : : : : : : ",
": : : : : : : : : : : : : : : ; > > > > > > > > > > > > > > > > > > > > > > > > > > > > > > , < , : : : : : : : : : : : : : : : ",
": : : : : : : : : : : : : : : : ; , > > > > > > > > > > > > > > > > > > > > > > > > > > > , < , : : : : : : : : : : : : : : : : ",
": : : : : : : : : : : : : : : : : ; , , , , , , , , , , , , , , , , , , , , , , , , , , , < , : : : : : : : : : : : : : : : : : ",
": : : : : : : : : : : : : : : : : : ; < < < < < < < < < < < < < < < < < < < < < < < < < < , : : : : : : : : : : : : : : : : : : ",
": : : : : : : : : : : : : : : : : : : : : : ; > , < : ; > , < : ; > , < : ; > , < : : : : : : : : : : : : : : : : : : : : : : : ",
": : : : : : : : : : : : : : : : : : : : : : ; > , < : ; > , < : ; > , < : ; > , < : : : : : : : : : : : : : : : : : : : : : : : ",
": : : : : : : : : : : : : : : : : : : : : : ; > , < : ; > , < : ; > , < : ; > , < : : : : : : : : : : : : : : : : : : : : : : : ",
": : : : : : : : : : : : : : : : : : : : : : ; > , < : ; > , < : ; > , < : ; > , < : : : : : : : : : : : : : : : : : : : : : : : ",
": : : : : : : : : : : : : : : : : : : : : : ; > , < : ; > , < : ; > , < : ; > , < : : : : : : : : : : : : : : : : : : : : : : : ",
": : : : : : : : : : : : : : : : : : : : : : ; > , < : ; > , < : ; > , < : ; > , < : : : : : : : : : : : : : : : : : : : : : : : ",
": : : : : : : : : : : : : : : : : : : : : : ; > , < : ; > , < : ; > , < : ; > , < : : : : : : : : : : : : : : : : : : : : : : : ",
": : : : : : : : : : : : : : : : : : : : : : ; > , < : ; > , < : ; > , < : ; > , < : : : : : : : : : : : : : : : : : : : : : : : "
};
