/* XPM */
static char *_b8e825cc96943f1f4ee13dea5b65a57XPYgdqpbdYHuwDlg[] = {
/* columns rows colors chars-per-pixel */
"34 34 146 2 ",
"   c black",
".  c gray6",
"X  c #160D0D",
"o  c gray7",
"O  c #1C1B1B",
"+  c #2A0201",
"@  c #2B1514",
"#  c #231E1D",
"$  c #2C1B1B",
"%  c #28201F",
"&  c #311F20",
"*  c #3E1F20",
"=  c #232324",
"-  c #2D2322",
";  c #2A2A2A",
":  c #312222",
">  c #3F2524",
",  c #312828",
"<  c #343333",
"1  c #383434",
"2  c #3A3A3A",
"3  c #531D1D",
"4  c #7B1414",
"5  c #432323",
"6  c #4D2525",
"7  c #562424",
"8  c #592E2E",
"9  c #433E3D",
"0  c #553636",
"q  c #5B3130",
"w  c #563939",
"e  c #6C2121",
"r  c #742323",
"t  c #782625",
"y  c #454544",
"u  c #4D4D4D",
"i  c #504746",
"p  c #544C4B",
"a  c gray33",
"s  c #595554",
"d  c #5B5B5B",
"f  c #645857",
"g  c #645A59",
"h  c #705F5F",
"j  c #626262",
"k  c #6C6767",
"l  c #6C6C6C",
"z  c #7B6A69",
"x  c #747474",
"c  c #7A7676",
"v  c #7C7C7C",
"b  c #8F0000",
"n  c #9D0707",
"m  c #9B0B0C",
"M  c #8E1D1C",
"N  c #941515",
"B  c #9E1514",
"V  c #941D1D",
"C  c #9C1B1B",
"Z  c #A6090A",
"A  c #B71616",
"S  c #BD1514",
"D  c #B31919",
"F  c #BA1C1C",
"G  c #8D201F",
"H  c #8E2120",
"J  c #A32222",
"K  c #C51515",
"L  c #CB1515",
"P  c #C41D1D",
"I  c #CB1E1E",
"U  c #D21515",
"Y  c #E41D1D",
"T  c #EA1E1E",
"R  c #F31E1E",
"E  c #FE1E1E",
"W  c #EC201F",
"Q  c #FF2121",
"!  c #8B5353",
"~  c #826F6F",
"^  c #867373",
"/  c #937E7E",
"(  c #858584",
")  c #8D8D8D",
"_  c #9A8383",
"`  c #938F8F",
"'  c #949494",
"]  c #999695",
"[  c #9C9B9B",
"{  c #A49C9C",
"}  c #A4A4A4",
"|  c #ACACAC",
" . c #B4AFAE",
".. c #B3B3B3",
"X. c #BFB6B5",
"o. c #BBBBBB",
"O. c #C5BEBE",
"+. c #C0BFC0",
"@. c #C3C3C3",
"#. c #CAC3C1",
"$. c gray79",
"%. c #C8C8C8",
"&. c #CACACA",
"*. c gray80",
"=. c #CDCDCD",
"-. c #CECECE",
";. c #CBCBCB",
":. c #D0D0D0",
">. c gray82",
",. c #D2D2D2",
"<. c LightGray",
"1. c gray83",
"2. c gray84",
"3. c #D7D7D7",
"4. c #D5D4D4",
"5. c #D8D8D8",
"6. c gray86",
"7. c gainsboro",
"8. c gray87",
"9. c #DFDFDF",
"0. c #DEDEDE",
"q. c #E2E2E2",
"w. c gray89",
"e. c gray88",
"r. c #E4E4E4",
"t. c gray90",
"y. c #E7E7E7",
"u. c #E5E4E4",
"i. c #EAE7E7",
"p. c gray91",
"a. c #E9E9E9",
"s. c #EAEAEA",
"d. c gray92",
"f. c #ECECEC",
"g. c gray93",
"h. c #EEEEEE",
"j. c #EFEFEF",
"k. c #EDECEC",
"l. c gray94",
"z. c #F1F1F1",
"x. c gray95",
"c. c #F3F3F3",
"v. c #F4F4F4",
"b. c gray96",
"n. c #F6F6F6",
"m. c #F3F3F3",
/* pixels */
"x.f.x.v.f.x.v.x.c.c.x.c.x.c.c.x.v.x.x.v.x.x.c.x.v.c.x.c.x.x.v.x.c.c.",
"f.=.3.w.f.x.v.v.c.c.c.x.c.c.x.c.c.c.c.c.c.c.x.c.x.c.c.x.c.x.x.x.x.c.",
"x.:.$.$.$.:.5.f.c.v.c.c.c.x.c.c.x.c.c.x.x.x.x.c.x.c.c.x.c.c.x.c.c.c.",
"x.5.$.$.$.@.@.@.%.7.l.v.c.x.c.x.c.x.x.c.x.c.c.x.v.c.x.c.x.x.v.x.v.c.",
"l.w.%.;.O.O.@.@.o. ...%.y.c.c.c.l.c.v.x.v.x.x.c.x.c.c.x.c.c.l.c.x.c.",
"m.d.$.@.@.! _ | ..o...| } | :.q.f.c.c.c.c.c.c.x.c.c.x.c.x.c.c.c.c.c.",
"v.x.:.+.@./ b 4 f v [ | | } [ [ ..%.8.c.v.v.c.c.c.c.x.c.x.x.c.x.c.c.",
"l.v.w.o.O.[ 4 Z Z 3 2 a v [ } } ' ) ' [ @.d.v.n.x.c.v.x.c.c.x.v.x.c.",
"v.v.d.o.o.| s m B V C 6 > : u ^ ] ] ) ( v c [ :.x.x.m.v.x.x.v.x.c.c.",
"v.x.v.:.....x 3 V L L D r 6 * + ; s v ( v x j d c o.w.f.x.x.m.m.x.c.",
"x.x.v.w.| ..` 1 V L K U L G r 6 > @ X 2 y 2 a v [ ..+.1.d.m.l.m.x.c.",
"v.x.v.x.o.| } i 6 D U U F Y W J 7 5 - O O = < d [ =.8.w.a.x.v.m.v.c.",
"x.v.v.v.3.} | l > r U F T E Q E I 6 5 & % O O O O u [ 5.v.v.x.v.x.c.",
"x.x.x.v.t.} } ) : 6 G Y Q Q Q R F A e > : # % O O o     x @.a.j.x.c.",
"v.x.x.v.f.o.[ [ 9 > t T Q Q W P U L K M 6 % O = ; 2 u k ( [ | :.s.c.",
"l.v.v.l.v.1.] [ l @ 6 J E R P U U K L L N ; 1 u l ` | o.@.;.1.e.t.l.",
"b.x.x.v.x.w.} ' ( # 5 7 I F U L L L L C 8 i ^ | 4.t.k.x.j.l.x.f.l.x.",
"c.x.c.x.c.l...) ` y $ 6 7 S L L K K J 0 h { 4.k.x.x.c.x.x.c.c.c.c.c.",
"x.c.c.x.v.c.-.) ) l X : 5 r K L K C w ~ O.e.c.v.x.c.c.x.c.c.x.c.x.c.",
"b.x.x.v.l.v.t.' ( x ; # & > C L C 0 ^ #.i.c.c.z.c.x.x.c.x.x.c.l.c.c.",
"x.c.c.l.v.x.l.| v v 1 O = : 7 N q z O.i.n.c.c.c.x.c.v.x.v.c.x.v.x.c.",
"c.c.x.c.x.v.b.1.x x 2 O # % % , f  .i.c.c.c.c.c.c.c.x.c.c.c.c.c.c.c.",
"v.x.x.v.l.v.v.s.( j d < O O O 9 ] q.c.c.c.c.c.z.c.c.x.v.x.x.c.x.c.c.",
"l.c.c.x.v.x.x.v...d ) j O O ; l ;.c.c.x.c.c.z.v.x.c.v.x.c.c.x.v.x.c.",
"v.x.x.v.x.c.c.x.8.j } [ O O 2 [ d.c.x.c.x.c.c.x.c.x.x.c.x.x.c.x.v.c.",
"c.c.c.c.c.c.x.c.f.' o.$.< O d +.f.c.c.c.x.c.c.c.c.c.c.c.c.x.x.c.c.c.",
"x.c.c.l.v.x.x.v.x.%.@.t.l . x 3.x.x.c.x.c.x.x.c.x.c.c.x.c.c.x.c.x.c.",
"v.x.x.v.l.c.c.x.v.w.$.f...  ) 8.c.c.x.c.x.c.c.x.c.c.x.c.x.x.v.x.c.c.",
"x.c.c.x.v.x.x.v.x.j.w.f.w.< [ t.x.c.c.x.c.c.x.c.x.c.c.x.c.c.x.c.x.c.",
"c.c.c.x.c.c.x.c.m.m.j.x.f.) | d.c.c.c.x.c.c.c.c.x.c.c.c.c.c.x.c.c.c.",
"v.x.x.v.l.x.v.x.v.x.x.v.x.*.| p.c.c.x.v.x.c.c.x.c.x.x.c.x.x.v.x.v.c.",
"x.c.v.x.v.x.x.v.x.x.v.x.m.t.+.k.x.c.c.x.v.c.x.c.x.c.c.x.c.c.x.v.x.c.",
"v.x.x.v.l.c.c.x.c.x.x.c.x.j.9.s.c.c.x.c.x.c.c.x.v.c.x.c.x.x.v.x.c.c.",
"c.c.c.c.x.c.c.c.c.c.c.c.c.x.h.h.c.c.c.c.c.c.c.c.c.c.c.c.c.c.x.c.c.c."
};
