/* XPM */
static char *_3117_d42d25f11d3b6ba2e7c46113f39c254a7781d1a53a8a145e92ebc644c12d491f[] = {
/* columns rows colors chars-per-pixel */
"64 64 10 1 ",
"  c gray46",
". c #767676",
"X c #777777",
"o c gray47",
"O c #797979",
"+ c gray48",
"@ c #7B7B7B",
"# c #7C7C7C",
"$ c gray49",
"% c #7E7E7E",
/* pixels */
"@#$@@@$O+o@O+O@@#+@@@@@O@O@oOO@@@+@@#$@OO@O@oO+@++@@@@@@#@@+##@+",
"O##@+@+X@@#@@+@#@+@@@#@o@@#@@+@oO+@++@@+@@o@#+@@OoO@@#@O+@#@@@@@",
"OO+@O@$@+@#@@@@+@@@@oO$@+@#@@@@@++@#@@@@@Oo@OOO#++@@o+OO@+@@@@@o",
"OO.#@O@OOO@#@@@@@@@$@++O+o+#@@@@@@o@@o@@@Oo@OOO@@+@@$@+@@@+Oo@oO",
"@OO+O@@OO@@O@@+@O@+@@@@OO+@O@@@@+@@o+@+#@#+@@@@+O##@@@+@#@+@@@@o",
"+@@@O@@@@@@@+O+@@+++@@#+@@#+oO@@@@@#@@@@O$@ooo@#@@@+O@@@@O@@@@OO",
"O@@@@@@@@%@#@@@%###@#@@@@$@$@@@#o@@O@@@O+O++@oX@o#@@oo@@O#@+@@+@",
"@@o++@O##@Oo@++@@@@#@@O+#@O+@@@@O@@O++ooOXo@O@#+O@@O@@#@.oOO@Oo#",
"@XOOXO@O@@@OO@@@@@o@O+@@@#@Oo@@@+$#@o#OO@OO@@+@@@@@@+OO+@@+OOO@@",
"@o@+OO@O@@@oO@+@@@#+O@@O+@@oO@+O@#@o+@oO+@@@@@@+@$O#@O@@@$@OO++O",
"@Oo@#@+++@@@#@OO@@@@@@++@@@@#@@@@+O@@@@O@@@@@@@@@@@@@@@@@+#O++++",
"@+@+@@+#$@+@$#OooOO@@@@@@@@@$#+@O#OO+$@@@#@@@+@+@@@oOO#@@@#@@+@@",
"@+O+@@@@@@+@+@+@$#oo@OO#@@oO@@@+.+++@+#@@+XO@@@O@++@OXO@@O@+@OO$",
"@O@o@@+@OO@@@@@#@+OO@O@+@.++oO@+@#OO++@+@+o#++oO+.+#@+@OoO+O+@O+",
".@O@+@+@O@@@@+@@@@++o@+o@o@+OO@@@#O@@#O+OO@OO@X@++O@@+@@o#O.@+oo",
"O@#+@@@Oo#@OOOo+@@+O$OO@@oO@#@@++o@@@@@o@#OO@+oO@#@@@O@@o@+#@O@O",
"@@@@@o@+@O@o@+XO+@@@@O@@@O+O@@@+@@OX@@@+@Oo@@@+O#@#@OO@O+O#@@++@",
"@O@O@+OO@O@oO@OOO@O+@OO+@@@@@o+@@@OO++o.+@OO@@@@@@@oO+#@O@@@O#+#",
"@++@+@$O+O@OOo@@#@O+@+O@@#@@+O+$#@@@$@@o@@O+#@#@oo@#++#@@@@oo@O#",
"+@@@+#+o@@@+@OO@#OO#@OO+#+#@+@@+@@@+@#@O@O+o++@OOO@OOo+@@@+@#+O+",
"o#++o+$++@@@@@@@@#o@@+@@@O+O@@@@@+@+#@@O@@O@#O@@Oo#OO+@O#++@@@@o",
"+@#+++OoOO+@o#+#O$@OO#+@@@@O@#+@@@@+@+$@+O@@@+@@$++@+@@#@OO@Oo#+",
"@@@@+O@OX@@OO@@@O@@@+oO@@@+@@#+@@@@#@O@@+@oO@@@O#@O+O@@@@@@@++O@",
"@@#@+@@@@OOo##ooO+o@@+Oo+@@@++@O@$+ooO+o@@O+OOOO+O@@oOoO@@@@@@O@",
"@@+@#@oO@$o@o+@O@O.@+OO+@o@++@@@@O@O+@o.@@@@%o@OXo@+@#@O@@#Oo@@@",
"@@O@+@@oX@O+O@Oo@+@+@++@@#O+O@@@oo@Oo+@@@@@+@oOO+O@@+@@+#OoOO@@@",
"@@OOO+@@@#++O@O+O@@@@O#$@@O@@#@@Oo@OOO@@@OOO@OOo@++O@@$@@OO@@+@o",
"@@oOOoO@@@X++#@O+@@+@ooOOO@O@@+o++#@O+@#+O@@@+@O@OOO+@@++++O@@#@",
"@@o@+oO@O$#+@$@@@@OX@@#@+Oo@@+@#O@#@@@@oo+O@#@@+$+@@@oOOO@+@@+#@",
"@@oO@$++@@OOo+##@@+@@+@@O@+@++OO+O@@@@@+@@+@+#@@O@+@@#@@+@#+Oo@O",
"@+@@+@@+o$OO+@o@++@@@@@++O@@+O$OO@@O@O+@@@+@@+@+O@X@+@@@@@+oOOO.",
"+##@+#@#@@@@@@#O++@##@o+@@#@#@++@@@@+O+@@@@+@OOO@+O++O+@@@@+o@O@",
"@+++@++#@#+@$@@+@+$@@#O+@@O@#@+@o#@#+@@#OO+#@#@@#+@$@+o@OO@o@O@@",
"@@@@+O+O#O@#@O+#@@@Oo@O@#OOO++@OoooO@@@+++X+O+@@@@@@@@@@@+@@@O@#",
"X@@@.@OXo@OO@@OO@@+@@#+##o@O O@@@@@@@@@oO@@@+O@#$#@@@@#@o+$@@@@O",
"+@O@OO++O@O@@+++@@+@$#+@@o++@+OOO@@@+@+@@@@$@OO+$@@#@@@O+O+##@@O",
"@+O@oo++@@++@@O@#oo##OOO+OO+@@O+@@o@+++@+@#@#@$O@+@@@@@OO+@O@@@@",
"@#OOO+o+@O@@$@+@#@@@$+o+@+@O@++@@@@O+@@@@@+@@@+@##@+@@o++@@+O+@+",
"+@@+@+o+@@@@o@$@O+o$@@@@@$@#@O@o#@#@@@@+@@O@@@OOO#O@++@OO@##@@@+",
"OOO@@@#@@@$+O+++#O.OO#@@@@@#@+OoOOO@@@@@#oO+++@+X@#OO+@@oooO@+oO",
"+.O@@@@@+@+oO+.O@@@##X@O+@+@@@@@#@Xo++@O@o+O.@#O@@#+@@@+@@#O@#@@",
"+#+##+o@@@@o+O@O@++@@#+O+@+O#@@+@@O@+@+#@o@O#++XOO+@+@@@++@@@@OO",
"+@@OO@$O+@+oO@@@#@O@@$o@@@@@O@@@@@O@@@O@o+O@@@+#@@oo##+@@@@+@OoO",
"++@++@+X+@@++@+@#@@@@@@@$@@@o@+@@@O@@@+#@+@@#@@@@@oO@+OO@@@@+@@+",
"+OOoo+@OO#@@+@@+O+O@+@@@#@@@O@@+O@+@o@o+@@@#+@@O@@+##O+@@O++O#@@",
"+OO++@+++@@#@@@@#@O##O@@o##@O#OO++@@#@@O+#+OoO+@+@@@+@@#@#@++@@@",
"@@@OX@O+o+@@@++@@@@@@@@@O$#@@@+o@@$@@@@@@+o@+@@@+@@@O@X@@@O@@@++",
"@@@@o@@O@#OO+O@+O@@@O@@O+@+o@@OO+@@+O@@@@o@@OO@oOOOO#+X+oO@@@@@+",
"+@+$@@O+@@@@@@@@oO@@@$##@#++O+++XO@#Oo+@@#$#@@#o@O.+@O@@@Oo@@+X@",
"#@O@@+@@#@+@+#++O@@+o@@O@@oO@+@OO@@O@O@@++@@O@@oO@@+++@@O@O$@@+@",
"ooO+o@@@#@OO@@@+@@@+@@OOX+OOO@@@+@@++@@++$@oOo+OOO+@+@+@@@@@@@O@",
"OO@O @@O$#+O@@O@#@#o+@o+@#O@O@@@@#O@@@@#O#@OO@@+@+@@@@@@@#@XO@@@",
"Oo++@+o+@Oo+@o@Oo+@oo$#+@@@@@@oo@+O@oO+@o#@o+#@@@@@@@O+@@#@#@O@@",
"o+O@@@@@#+++OX@@@@+@O+OOO@%@@@+@@O@@@#@Oo#@OoO@$@@@@@+@@@O+#@Oo+",
"@++@@+@@@++++@@@#@@oO#oO@@O@@+@O@#O@@##@@#@OO+++@@+@@+#@OoOOo+O#",
"@@@@ooOOoOo@@@+@@OO@@@+@@#@O+@@@@@O@Oo@Oo@@o@+@+OO+@@@O@X+O.+O@#",
"@@@@+@++@O@@@O@@##@#@@@@$@#@@+@+@+@OOO@@@@@@##@@@@@$++O@o++@O+O+",
"o#++@@@@@O@@ooo+@@X@@O@$@O+@@@@+@@@@+#@@+@O@$@X+@@@@@++@OOO$@O@@",
"@O+@@o#@@@@@@+O@@@OO+++@@@OO@#O@@@o.+@$@++@O+@@OO@@@@+@@+@+#@#@@",
"@@@OXO@oo+@+@@@#@O@@@Oo@@+OO@@O$$@+@@@@@@@@+@@+O+#@O$@@@@+@+o+$@",
"O@++OO+@@@@@@@@@+@+@#+@@@@+%@oO@+@#++@@@@O+o+@@@#+OO@+#@#@@+O@@O",
"OO@@$@+@+#@oOO+X@@Oo+@+@@#@+OOOO@@@o@ooOOo+O+@@$#@@@OOO@@@o+@@#@",
"@+@@+O@+@O@O++oX@+@@#+OO@O@o++oX@+@@#OO+O@@@@OO@@o+@+@O@O@O@+@@+",
"+#@+@O+++O#Oo@O@@@#@+@O@@o@Oo@+@@@@@@OOO++@#@oO@@O+$@+@@##@oOO@@"
};
