/* XPM */
static char *result[] = {
/* columns rows colors chars-per-pixel */
"64 64 27 1 ",
"  c black",
". c #202020",
"X c #2C2C2C",
"o c #543C1C",
"O c #744C28",
"+ c #484848",
"@ c gray33",
"# c #646464",
"$ c gray44",
"% c #7C7C7C",
"& c #80502C",
"* c #A86840",
"= c #B47044",
"- c #C87C4C",
"; c #DC8854",
": c #E88C58",
"> c #F0945C",
", c #FC9C60",
"< c #FCA470",
"1 c #980088",
"2 c gray55",
"3 c #989898",
"4 c gray66",
"5 c #FCB080",
"6 c #FCB890",
"7 c #FCC4A4",
"8 c #FCD8C4",
/* pixels */
"1111111111111111111111111111111111111111111111111111111111111111",
"1111111111111111111111111111111111111111111111111111111111111111",
"1111111111111111111111111111111111111111111111111111111111111111",
"1111111111111111111111111111111111111111111111111111111111111111",
"1111111111111111111111111111111111111111111111111111111111111111",
"1111111111111111111111111111111111111111111111111111111111111111",
"1111111111111111111111111111111111111111111111111111111111111111",
"1111111111111111111111111111111111111111111111111111111111111111",
"1111111111111111111111111111111111111111111111111111111111111111",
"1111111111111111111111111111111111111111111111111111111111111111",
"1111111111111111111111111111111111111111111111111111111111111111",
"1111111111111111111111111111111111111111111111111111111111111111",
"1111111111111111111111111111111111111111111111111111111111111111",
"1111111111111111111111111111111111111111111111111111111111111111",
"1111111111111111111111111111111111111111111111111111111111111111",
"1111111111111111111111111111111111111111111111111111111111111111",
"1111111111111111111111111111111111111111111111111111111111111111",
"1111111111111111111111111111111111111111111111111111111111111111",
"1111111111111111111111111111111111111111111111111111111111111111",
"1111111111111111111111111111111111111111111111111111111111111111",
"1111111111111111111111111111111111111111111111111111111111111111",
"1111111111111111111111111111111111111111111111111111111111111111",
"1111111111111111111111111111111111111111111111111111111111111111",
"1111111111111111111111111111111111111111111111111111111111111111",
"1111111111111111111111111111111111111111111111111111111111111111",
"1111111111111111111111111111111111111111111111111111111111111111",
"1111111111111111111111111111111111111111111111111111111111111111",
"1111111111111111111111111111111111111111111111111111111111111111",
"1111111111111111111111111111111111111111111111111111111111111111",
"1111111111111111111111111111111111111111111111111111111111111111",
"1111111111111111111111111111111111111111111111111111111111111111",
"1111111111111111111111111111111111111111111111111111111111111111",
"1111111111111111111111111111111111111111111111111111111111111111",
"1111111111111111111111111111111111111111111111111111111111111111",
"1111111111111111111111111111111111111111111111111111111111111111",
"1111111111111111111111111111111111111111111111111111111111111111",
"1111111111111111111111111111111111111111111111111111111111111111",
"1111111111111111111111111111111111111111111111111111111111111111",
"1111111111111111111111111111111111111111111111111111111111111111",
"1111111111111111111111111111111111111111111111111111111111111111",
"11111111111111111111111111111111 1111111111111111111111111111111",
"1111111111111111111111111111111@$@111111111111111111111111111111",
"111111111111111111111111111111+%4%+11111111111111111111111111111",
"111111111111111111111111111111+%4%+11111111111111111111111111111",
"11111111111111111111111111111%%+%+%%1111111111111111111111111111",
"1111111111111111111111111111X%3XXX#%@111111111111111111111111111",
"1111111111111111111111111111X%4$%$#%+111111111111111111111111111",
"1111111111111111111111111111X%4333#%X111111111111111111111111111",
"1111111111111111111111111111X+3444++ 111111111111111111111111111",
"1111111111111111111111111111X.%+++ . *11111111111111111111111111",
"111111111111111111111111111>X.#XXX . *=1111111111111111111111111",
"11111111111111111111111111>55.#XXX .o*=1111111111111111111111111",
"11111111111111111111111111<78-    ..O===111111111111111111111111",
"11111111111111111111111111<588-&&&=::;-=111111111111111111111111",
"1111111111111111111111111<558888765<::;=111111111111111111111111",
"1111111111111111111111111<5:5888765<,:;-111111111111111111111111",
"1111111111111111111111111<5<:55555<,,:;-111111111111111111111111",
"1111111111111111111111111>55,,555<<,,:;-111111111111111111111111",
"1111111111111111111111111333::->>>>>333%%11111111111111111111111",
"11111111111111111111111134432$#***#34433%#1111111111111111111111",
"1111111111111111111111134433%$#@+#%244333%#111111111111111111111",
"111111111111111111111134433%%$#@@#%2322233#@11111111111111111111",
"1111111111111111111111%%33%$###@@#%#%34433%#+1111111111111111111",
"111111111111111111111%34433%%$#@@###333443%#++111111111111111111"
};
