/* XPM */
static char *_f448081fc294de5c1b0541c908272b9BaNsmHH9PADPehkj[] = {
/* columns rows colors chars-per-pixel */
"213 40 43 1 ",
"  c black",
". c #202020",
"X c #2C2C2C",
"o c gray22",
"O c #400000",
"+ c #4C0000",
"@ c #580000",
"# c #640000",
"$ c #700000",
"% c #7C0000",
"& c #484848",
"* c gray33",
"= c #646464",
"- c gray44",
"; c #7C7C7C",
": c #880000",
"> c #980000",
", c #A40000",
"< c #A80000",
"1 c #B00000",
"2 c #BC0000",
"3 c #C80000",
"4 c #D40000",
"5 c #E00000",
"6 c #EC0000",
"7 c #FC0000",
"8 c #FC2020",
"9 c #FC4040",
"0 c #FC5454",
"q c #FC5C5C",
"w c #FC7C7C",
"e c gray55",
"r c #989898",
"t c gray66",
"y c #B4B4B4",
"u c #FC9C9C",
"i c #FCB8B8",
"p c #C0C0C0",
"a c #D0D0D0",
"s c gainsboro",
"d c #FCD8D8",
"f c #ECECEC",
"g c gray99",
/* pixels */
"=========================================================================************************************************&&&&&&&&&&&&&&&&&&&&&&&&&&&&&&&&&&&oooooooooooooooooooooooooooXXXXXXXXXXXXXXXXXXXXXXXXXXXXXX",
"=                                                                                                                                                                                                                    ",
"=                                                                                                                                                                                                                    ",
"=  ;*o                                                                                                                                                                                                          ;*o  ",
"=  *o.                         q                                                                                                                                                                tag-            *o.  ",
"=  o..                     ##<q0;                                                                                                                                                              0s--tg-          o..  ",
"=                        ##79q<#g;                                                                                         *epssgat*o                                                          8e---tg-              ",
"*                       #,7======gttappar*                                                                                $   ==rsggat*o                                                       8e-----y              ",
"*                      #7=-------==**&&opg*                                                                              >oetttttttagggatX                                                     8e--;;-y              ",
"*                     #>=----------------pgt=                                                                           <-etttttttttttaggio                                                    7e;;;;;g              ",
"*                    #7=;;;;;;;;;;;;;;;;;;;;pg*                                                                      <<<-eyyyyyyyyyyyyyyyfwo                                                   2-eeeeeg              ",
"*                    1=eeeeeeeeeeeeeeeeeeeeeeyp                                                                      3*eyyyyyy<<yyyyyyyyyyr0                                                   <=eeeeeg              ",
"*                   #9eeeeeeeeeeeeeeeeeeeeeeeeg                                                                      5pppppppp*0<<pppppppp;0                                                   2&rrrrrs              ",
"*                   =wrrrrrrrrrrr*=----rrrrrrrgy                                                                     6pppppppp*<00<ppppppp&q                                                   3orrrrrp              ",
"*                   -wttttfttttttd   &*-ttttttga                                                  ;ea*               8aaaaaaaa*<*0<aaaaaaaXw    @@      @             ;ea*                     =Xtttttt              ",
"*                   euttt=ptttttti     *-etttttg ge tgasggae*      0t*    ;ta*    ;ta*         **-tttg*              9aaaaaaaao<*0*aaaaaaa w   %%=st   %@gs*       **-tttg*                    *.tttttt              ",
"*                   tiyy  =yyyyyyu               atggatyaaggaw     00gt*  o;gat*  o;gat*     <;*rttttta*             qpfssssss.* 0 pfsssssXu  6-ttttgg<-tttaga   <;-rttttta*    00ggt  ;*gt  t * yyyyye              ",
"*                   tgp;  *ppppppw     *=        :yyyyyyyyyyyfw  0<ttttar*tttttag*tttttag  <0ryyyyyyyyyg*            qrgggggggX= <.rggggggXu 00yyyyyy0ryyyyyy0 <0ryyyyyyyyyg*  0<ttggg *taggtt * ppppp;              ",
"&                   -gp<  &aaaaaa0   =rtt=       *yyyyyyyyyyyyr  <yyyyyy&*yyyyyyy*yyyyyyy0 *;yyyyyyyyyyyg            w -ttttago; <. -tttagot  7ppppp0<*ppppp0  *;yyyyyyyyyyyg 0yyyyyye*;ttttt< * aaaaa=              ",
"&                    *a<  &tfffff7 =ssssst=*X     0rpp-  ppppp&  <*ppppp;pppppppppppppp<0  *;pppppppppppg            w      &;&r .X     &;ot   ;pppp0#4;pppp8  *;pppppppppppg0<yyyyyy=;yyyyyy  * aaaaa-              ",
"&                     tp< o-ggggg6 &ggggfat;=*X    8  <  aaaaaX  <<pppppppppppppppppppp<0  **pppppppppppa            u       o-p .o      o&t   oaaaa7#4<aaaa,  **pppppppppppa  <*pppp;pppppp0  * tgggge              ",
"&                     *t< X ttttt3 X=ttttttttrt     *essasssssX   0aaaaaaa&aaaaaaa&aaaa0t  **aaaaa  aaaaa            u@@@@@@@ ea X&@@@@@@ *p   ossss7#4*fssr@  **aaaaa  aaaaa  <*aaaaaaa<  7   &  ttagr              ",
"&                      *  X   X**< *   .   o*tg     rgggggggggX   0pfssssr&psssaar&psss0t  ;opssss *sssss            t$$$$$$$$rs o*$$$$$$$*a   oyggg<#4*ggg;@  ;opssss *sssss  0*fssssr*       o     oe              ",
"&                         &      <  t**&     ot   <        o=;o   t ;ttt;*  ttttr*  ttt<0  e* sggg *rpgg;            t::::::::tg **:::::::=s    o o**o-o  o,   e* sggg *rpgg;  0 ggggg;*              ;              ",
"&                         &####OO*  &tg& ###+ t  w           o&   a   X***   X**t*   X*<t  pe   X* t   *o            t>>>>>>>>pg -&>>>>>>>=g    o   *oe*   @   pe   X* t   *o  ao   Xt*         X:::::-              ",
"&                         *%%%%%%*     &%%%%%+t  w@@@@   @@@@o&   g@@@  *X @@O  aX @@O  a  st      g  -o             r,,,,,,,,rg*;o<,,,<<<-g    o$$$$oe$$$$@   st      g  -o   go    *&          oo>>>*              ",
"&                         *111111i    *-111111t  u$$$$* 0$$$$$*   a$$$$ *  $$$$ t  $$$$ t  p;$$$$$ <%to              e22222222es*rX2222222;s     o:::o-:::,    p;$$$$$ <%to    a&$$$$               o**              ",
"&                         =333333i  tge*333333y  t::::o 0:::::=   e>>>>>*  >>>>*e  >>>>*e  t*:::::<:to               ;33333333eatX33333333et     o,,,,,,,,@    t*:::::<:to     t*::::          X===&oX               ",
"o                         -555555dttg**5555555a  t,,,,o 0<,,<<- ot-<<<<<*  <<<<=;  <<<<=;  eo<<<<<<*                 -55555555-tX55555555*=*     o22222222@    eo<<<<<<*       -e<<<<-         X&88==o               ",
"o                         -9999999999999999999g  r2222*=<22222;  r*33333*X 3333t*X 3333t*  - 33333*g   *r            =88888888&X88888888=;*      o5555555<     - 33333*g   *r  =t2222e         &o888*&o              ",
"o                         =&000000000000000000g  ;5555-t5555555 8;*44444t* 4444a** 4444a*  = 555554tgp;*;            *99999999X99999999*t*        =8888888>    = 555554tgp;*;  *-4444s*        &o9999=o              ",
"o                         t=qqqqqqqqqqqqqqqqqyp  -8888&X88888888***999999* 999999* 999999t *o99999999999t            o;qqqqqqqqqqqqqq0*to         *8888888>    *o99999999999t  *&8888gt*       X&&0000&              ",
"o                          twwwwwwwwwwwwwwpggt   *qqqqqqqqoqqqqqt* 00000*=000000*=000000*****00000000000t            .o*;wwwwwwwwwwww*t&          &899999>@    **00000000000t   000000=         X*=www&              ",
"o                          -;uuuuuuuuuuuupgt     o;wwwwwwoowwwwwt *o *u* X&o*uu; X&o*uu;  o &* *&*wuuww*;             .o**ooXX..  .Xot*           o-qqqq<@      &* *&*wuuww*;    wwwwt*          X --w&              ",
"o                           =******--;;rpg*       .o**==;e **==;X  oo *t   oX *    oX *      &*;tt*&X..;                .o****==-;;et*             .-ee>@        &*;tt*&X..;     oX;t*              &-&              ",
"o  ;*o                                                         X                                    XXXX                                                                XXXX        *                &          ;*o  ",
"X  *o.                                                                                                                                                                                                          *o.  ",
"X  o..                                                                                                                                                                                                          o..  ",
"X                                                                                                                                                                                                                    ",
"X                                                                                                                                                                                                                    "
};
