/* XPM */
static char *result[] = {
/* columns rows colors chars-per-pixel */
"8 16 4 1 ",
"  c #0000A4",
". c #5C60FC",
"X c #B8BCFC",
"o c #D8D8FC",
/* pixels */
"        ",
"        ",
"  .Xo   ",
"  Xoo   ",
"  ooo   ",
"  ooo   ",
"  ooo   ",
"  ooo   ",
"  ooo   ",
"  ooo   ",
"  ooo   ",
"  ooo   ",
"  ooo   ",
"  ooo   ",
"  ooo   ",
"  ooo   "
};
