/* XPM */
static char *f5b1c5ae698b46f1a6784c50e7da9220V7sfvgxomEGxgRNL[] = {
/* columns rows colors chars-per-pixel */
"304 35 63 1 ",
"  c black",
". c #28200C",
"X c #382C14",
"o c #202020",
"O c #2C2C2C",
"+ c gray22",
"@ c #403018",
"# c #483818",
"$ c #543C1C",
"% c #5C4020",
"& c #6C4824",
"* c #744C28",
"= c #000040",
"- c #000070",
"; c #00007C",
": c #005858",
"> c #007070",
", c #484848",
"< c gray33",
"1 c gray44",
"2 c #A80000",
"3 c #9C4C00",
"4 c #A85400",
"5 c #B45400",
"6 c #80502C",
"7 c #885830",
"8 c #905C34",
"9 c #9C6038",
"0 c #A0643C",
"q c #CC6000",
"w c #E46C00",
"e c #FC7800",
"r c #A86840",
"t c #B47044",
"y c #BC7848",
"u c #C87C4C",
"i c #FC8820",
"p c #D08050",
"a c #DC8854",
"s c #E88C58",
"d c #F0945C",
"f c #FC9C60",
"g c #FCA470",
"h c #0000A4",
"j c #0000A8",
"k c #0000FC",
"l c #2024FC",
"z c #4040FC",
"x c #5C60FC",
"c c #008484",
"v c #7C80FC",
"b c #FCB080",
"n c #FCB890",
"m c #FCBC9C",
"M c #FCC4A4",
"N c #FCD4BC",
"B c #9C9CFC",
"V c #B8BCFC",
"C c #D0D0D0",
"Z c #FCD8C4",
"A c #FCE8DC",
"S c #D8D8FC",
"D c gray99",
/* pixels */
"                                                                                                                 ooooooooooooooooooooooooooooooooooooooooooooooooooooooooooooooooooooooooooooooooooooooooooooooooooooooooooooooooooooooooooooooooooooooooooooooooooooooooooooooooooooooooooooooooooooooooooooooO",
" vvvvxxxxxxxxxxxxxxxxxxxxxxxxxxxxhvvvvvvvvvvxxxxxxxxxxxxxxxxxxxxxxxxxxxxxxxxxxxxxxxxxxxxxxxhvvvvxxxxxxxxxxxxxxxxxxxxxxxxxxxxhvvvvvvxxxxxxxxxxxxxxxxxxxxxxxxx,vvvxxxxxxxxxxxxxxxxxxxxxxxxxxxxxxxxxxxhvvvvvvxxxxxxxxxxxxxxxxxxxxxxxxxxxxxhvvxxxxxhvvvvvvvvvvvvvxxxxxxxxxxxxxxxxxxxxxxxxxxxxxxxxxxxxxxxxxxxxxxxxxh>",
" vhhhhhhhhhhhhhhhhhhhhhhhhhhhhhhh-vhhhhhhhhhhhhhhhhhhhhhhhhhhhhhhhhhhhhhhhhhhhhhhhhhhhhhhhh-vhhhhhhhhhhhhhhhhhhhhhhhhhhhhhhh-v,,,,,,,,,,,,,,,,,,,,,,,,,,,,,,-vhhhhhhhhhhhhhhhhhhhhhhhhhhhhhhhhhhhhh-vhhhhhhhhhhhhhhhhhhhhhhhhhhhhhhhhhh-vhhhhhh-vhhhhhhhhhhhhhhhhhhhhhhhhhhhhhhhhhhhhhhhhhhhhhhhhhhhhhhhhhhhhh->",
" vhhhBBhhhhvBBhBBhBBhhvBBhBBhhhhh-vhhhhhhhhhhhhhhhhvBzhhxBzhhvBxhhhvvvhhhvBBhhhhhhhhhhhhhhh-vhhhBBhhhBBhBBhBBhhvBBhhvBzhhhhh-v,,,,,,,+++++++++++++,,,,,,,,,,-vhhBBhBBhhvBBhhhvBhhhBBhxBBBBBhBBhBBhh-vhhhhhhvBhhhBBlBBBhBBlBBBhhvBxhhhhh-vhhhhhh-vhhhhhhhhhhhhhhhhhhhhhhhhhhhhhhhhhhhhhhhhhhhhhhhhhhhhhhhhhhhhh->",
" vhhhBBhhhvBBBhBBhBBhvBBBhBBhhhhh-vhhhhhhhhhhhhhhhBBBBvxBBBxvBBBzhvBBBvhvBBBhhhhhhhhhhhhhhh-vhhhBBhhhBBhBBhBBhvBBBhBBBBvhhhh-v,,,,,,O3q5qqwqwwwwwwq3+,,,,,,,-vhhBBhBBhvBBBhhvBBxhhBBhBBBBBBhBBhBBhh-vhhhhhvBBxhhBBxBBBhBBxBBBhvBBBzhhhh-vhhhhhh-vhhhhhhhhhhhhhhhhhhhhhhhhhhhhhhhhhhhhhhhhhhhhhhhhhhhhhhhhhhhhh->",
" vhhhBBhhhBBhhhBBhBBhBBhhhBBhhhhh-vhhhhhhhhhhhhhhBBBhBzBBzBzBBzBvhBBhBBhBBhhhhhhhhhhhhhhhhh-xhhhBBhhhBBhBBhBBhBBhhxBBhBzhhhh-v,,,,,O345q5qqqqqqwewwq3+,,,,,,-vhhBBhBBhBBhhhhBBBxhhBBhhhBBhhhBBhBBhh-vhhhhhBBBxhhBBvBBBhBBvBBBhBBzBvhhhh-vhhhhhh-vhhhhhhhhhhhhhhhhhhhhhhhhhhhhhhhhhhhhhhhhhhhhhhhhhhhhhhhhhhhhh->",
" xhhhBBhhhBBhhhBBhBBhBBhhhBBhhhhh-xhhhhhhhhhhhhhhvBBBhhBBhhhBBhBBhBBhBxhBBhhhhhhhhhhhhhhhhh-xhhhBBhhhBBhBBhBBhBBhhxBBBhhhhhh-x,,,,,$44444444455qweieq&,,,,,,-xhhBBhBBhBBhhhlBxBvhhBBhhhBBhhhBBhBBhh-xhhhhlBxBvhhBBvBBBhBBvBBBhBBhBBhhhh-xhhhhhh-vhhhhhhhhhhhhhhhhhhhhhhhhhhhhhhhhhhhhhhhhhhhhhhhhhhhhhhhhhhhhh->",
" xhhhBBhhhBBBBhBBhBBhBBBBhBBhhhhh-xhhhhhhhhhhhhhhhvBBBhBBhhhBBhBBhBBBvhhBBBBhhhhhhhhhhhhhhh-xhhhBBhhhBBhBBhBBhBBBBhvBBBhhhhh-x,,,,O3443$*&&4**66qeiww7+,,,,,-xhhBBBBBhBBBBhxBhBBhhBBhhhBBhhhBBBBBhh-xhhhhxBhBBhhBvBvBBhBvBvBBhBBhBBhhhh-xhhhhhh-xhhhhhhhhhhhhhhhhhhhhhhhhhhhhhhhhhhhhhhhhhhhhhhhhhhhhhhhhhhhhh->",
" xhhhBBhhhBBhhhBBhBBhBBhhhBBhhhhh-xhhhhhhhhhhhhhhhhvBBvBBhhhBBhBBhBBBBxhBBhhhhhhhhhhhhhhhhh-xhhhBBhhhBBhBBhBBhBBhhhhvBBvhhhh-x,,,,O343$*##**4%$*3we4*q+,,,,,-xhhBBhBBhBBhhhxBhBBlhBBhhhBBhhhBBhBBhh-xhhhhxBhBBlhBxBzBBhBxBzBBhBBhBBhhhh-xhhhhhh-xhhhhhhhhhhhhhhhhhhhhhhhhhhhhhhhhhhhhhhhhhhhhhhhhhhhhhhhhhhhhh->",
" xhhhBBhhhBBhhhvBxBBhBBhhhBBhhhhh-xhhhhhhhhhhhhhhBBhBBvBBvzhvBxBBhBBzBvhBBhhhhhhhhhhhhhhhhh-xhhhBBhhhBBhvBxBBhBBhhxBhBBvhhhh-x,,,,O33*0aaat9*%X$*w40*3+,,,,,-xhhBBhBBhBBhhhvBBBBxhBBhhhBBhhhBBhBBhh-xhhhhvBBBBxhBhBhBBhBhBhBBhvBxBBhhhh-xhhhhhh-xhhhhhhhhhhhhhhhhhhhhhhhhhhhhhhhhhhhhhhhhhhhhhhhhhhhhhhhhhhhhh->",
" xhhhBBBBxBBBBhxBBBxhBBBBhBBBBxhh-xhhhhhhhhhhhhhhvBBBBzzBBBBxvBBvhBBhBBhBBBBhhhhhhhhhhhhhhh-xhhhBBBBxBBhxBBBxhBBBBvBBBBzhhhh-x,,,,O$99gnnggaau099qba9*+,,,,,-xhhBBhBBhBBBBhvBhhBvhBBBBxBBhhhBBhBBhh-xhhhhvBhhBvhBhBhBBhBhBhBBhxvBBvhhhh-xhhhhhh-xhhhhhhhhhhhhhhhhhhhhhhhhhhhhhhhhhhhhhhhhhhhhhhhhhhhhhhhhhhhhh->",
" xhhhBBBBzBBBBhhxBxhhBBBBhBBBBzhh-xhhhhhhhhhhhhhhhzvBhhhzvBBhxBvzhBBhBBhBBBBhhhhhhhhhhhhhhh-xhhhBBBBzBBhhxBxhhBBBBhvBBvhhhhh-x,,,,O$9aMMMMMMbsa0f4bMt$O,,,,,-xhhBBhBBhBBBBhBBhhBBhBBBBzBBhhhBBhBBhh-xhhhhBBhhBBhBhBhBBhBhBhBBhhxBvzhhhh-xhhhhhh-xhhhhhhhhhhhhhhhhhhhhhhhhhhhhhhhhhhhhhhhhhhhhhhhhhhhhhhhhhhhhh->",
" xhhhhhhhhhhhhhhhhhhhhhhhhhhhhhhh-xhhhhhhhhhhhhhhhhhhhhhhhhhhhhhhhhhhhhhhhhhhhhhhhhhhhhhhhh-xhhhhhhhhhhhhhhhhhhhhhhhhhhhhhhh-x,,,,O$9bfgbMMMMbsufbMMa$O,,,,,-xhhhhhhhhhhhhhhhhhhhhhhhhhhhhhhhhhhhhh-xhhhhhhhhhhhhhhhhhhhhhhhhhhhhhhhhhh-xhhhhhh=xhhhhhhhhhhhhhhhhhhhhhhhhhhhhhhhhhhhhhhhhhhhhhhhhhhhhhhhhhhhhh=>",
" xhhhhhhhhhhhhhhhhhhhhhhhhhhhhhhh-xhhhhhhhhhhhhhhhhhhhhhhhhhhhhhhhhhhhhhhhhhhhhhhhhhhhhhhhh-xhhhhhhhhhhhhhhhhhhhhhhhhhhhhhhh-x,,,,O@tabMZAZMMMaubMAba$O,,,,,-xhhhhhhhhhhhhhhhhhhhhhhhhhhhhhhhhhhhhh-xhhhhhhhhhhhhhhhhhhhhhhhhhhhhhhhhhh-xhhhhhh=xhhhhhhhhhhhhhhhhhhhhhhhhhhhhhhhhhhhhhhhhhhhhhhhhhhhhhhhhhhhhh=>",
" xhhhhhhhhhhhhhhhhhhhhhhhhhhhhhhh-xhhhhhhhhhhhhhhhhhhhhhhhhhhhhhhhhhhhhhhhhhhhhhhhhhhhhhhhh-xhhhhhhhhhhhhhhhhhhhhhhhhhhhhhhh-x,,,,O@tb+O,rannbfa,,<Za@O,,,,,-xhhhhhhhhhhhhhhhhhhhhhhhhhhhBSBhlVVhhh-xhhhhhhhhhhhhhhhhhhhhhhhhhhhhhhhhhh-xhhhhhh=xhhhhhhhhhhhhhhhhhhhhhhhhhhhhhhhhhhhhhhhhhhhhhhhhhhhhhhhhhhhhh=>",
" xhhhhhhhhhhhhhhhhhhhhhhhhhhhhhhh-xhhhhhhhhhhhhhhhhhhhhhhhhhhhhhhhhhhhhhhhhhhhhhhhhhhhhhhhh-xhhhhhhhhhhhhhhhhhhhhhhhhhhhhhhh=x,,,Og.a<1;   rrr  O;1<b.gO,,,,-xhhhhhhhhhhhhhhhhhhhhhhhhhhhSSShvSVhhh=xhhhhhhhhhhhhhhhhhhhhhhhhhhhhhhhhhh=xhhhhhh=xhhhhhhhhhhhhhhhhhhhhhhhhhhhhhhhhhhhhhhhhhhhhhhhhhhhhhhhhhhhhh=>",
"oxhhhhhhhhhhhhhhhhhhhhhhhhhhhhhhh=xhhhhhhhhhhhhhhhhhhhhhhhhhhhhhhhhhhhhhhhhhhhhhhhhhhhhhhhh-xhhhhhhhhhhhhhhhhhhhhhhhhhhhhhhh=x,,,Oa.aaCjkD2ydr2CjkDaa.fO,,,,-xhhhhhhhhhhhhhhhhhhhhhhhhhhhBSBhVSvhhh=xhhhhhhhhhhhhhhhhhhhhhhhhhhhhhhhhhh=xhhhhhh=xhhhhhhhhhhhhhhhhhhhhhhhhhhhhhhhhhhhhhhhhhhhhhhhhhhhhhhhhhhhhh=>",
"oxhhhhhhhhhhhhhhhhhhhhhhhhhhhhhhh=xhhhhhhhhhhhhhhhhhhhhhhhhhhhhhhhhhhhhhhhhhhhhhhhhhhhhhhhh=xhhhhhhhhhhhhhhhhhhhhhhhhhhhhhhh=x,,,Ot8anggggnbNgMggggna8tO,,,,-xhhhhhhhhhhhhhhhhhhhhhhhhhhhhhhlVSlhhh=xhhhhhhhhhhhhhhhhhhhhhhhhhhhhhhhhhh=xhhhhhh=xhhhhhhhhhhhhhhhhhhhhhhhhhhhhhhhhhhhhhhhhhhhhhhhhhhhhhhhhhhhhh=>",
"oxhhhhhhhhhhhhhhhhhhhhhhhhhhhhhhh=xhhhhhhhhhhhhhhhhhhhhhhhhhhhhhhhhhhhhhhhhhhhhhhhhhhhhhhhh=xhhhhhhhhhhhhhhhhhhhhhhhhhhhhhhh=x,,,OafgNNAANngZMMMNAANgnaO,,,,-xhhhhhhhhhhhhhhhhhhhhhhhhhhhhhhBSVhhhh=xhhhhhhhhhhhhhhhhhhhhhhhhhhhhhhhhhh=xhhhhhh=xhhhhhhhhhhhhhhhhhhhhhhhhhhhhhhhhhhhhhhhhhhhhhhhhhhhhhhhhhhhhh=>",
"oxhhhhhhhhhhhhhhhhhhhhhhhhhhhhhhh=xhhhhhhhhhhhhhhhhhhhhhhhhhhhhhhhhhhhhhhhhhhhhhhhhhhhhhhhh=xhhhhhhhhhhhhhhhhhhhhhhhhhhhhhhh=x,,,OfygMNNMMpbNMdMMNNMgagO,,,,-xhhhhhhhhhhhhhhhhhhhhhhhhhhhhhhVSvhhhh=xhhhhhhhhhhhhhhhhhhhhhhhhhhhhhhhhhh=xhhhhhh=xhhhhhhhhhhhhhhhhhhhhhhhhhhhhhhhhhhhhhhhhhhhhhhhhhhhhhhhhhhhhh=>",
"oxhhhhhhhhhhhhhhhhhhhhhhhhhhhhhhh=xhhhhhhhhhhhhhhhhhhhhhhhhhhhhhhhhhhhhhhhhhhhhhhhhhhhhhhhh=xhhhhhhhhhhhhhhhhhhhhhhhhhhhhhhh=x,,,,r6ybMMMdr7779gMMMby6r,,,,,-xhhhhhhhhhhhhhhhhhhhhhhhhhhhhhlVSlhhhh=xhhhhhhhhhhhhhhhhhhhhhhhhhhhhhhhhhh=xhhhhhh=xhhhhhhhhhhhhhhhhhhhhhhhhhhhhhhhhhhhhhhhhhhhhhhhhhhhhhhhhhhhhh=>",
"oxhhhhhhhhhhhhhhhhhhhhhhhhhhhhhhh=xhhhhhhhhhhhhhhhhhhhhhhhhhhhhhhhhhhhhhhhhhhhhhhhhhhhhhhhh=xhhhhhhhhhhhhhhhhhhhhhhhhhhhhhhh=x,,,,O6gagnngffpgnbMMgaf6O,,,,,-xhhhhhhhhhhhhhhhhhhhhhhhhhhhhhvSVhhhhh=xhhhhhhhhhhhhhhhhhhhhhhhhhhhhhhhhhh=xhhhhhh=xhhhhhhhhhhhhhhhhhhhhhhhhhhhhhhhhhhhhhhhhhhhhhhhhhhhhhhhhhhhhh=c",
"oxhhhhhhhhhhhhhhhhhhhhhhhhhhhhhhh=xhhhhhhhhhhhhhhhhhhhhhhhhhhhhhhhhhhhhhhhhhhhhhhhhhhhhhhhh=xhhhhhhhhhhhhhhhhhhhhhhhhhhhhhhh=x,,,,+6bfnndbnngnMbdMMfg6+,,,,,-xhhhhhhhhhhhhhhhhhhhhhhhhhhhhhBSvhhhhh=xhhhhhhhhhhhhhhhhhhhhhhhhhhhhhhhhhh=xhhhhhh=xhhhhhhhhhhhhhhhhhhhhhhhhhhhhhhhhhhhhhhhhhhhhhhhhhhhhhhhhhhhhh=c",
"oxhhhhhhhhhhhhhhhhhhhhhhhhhhhhhhh=xhhhhhhhhhhhhhhhhhhhhhhhhhhhhhhhhhhhhhhhhhhhhhhhhhhhhhhhh=xhhhhhhhhhhhhhhhhhhhhhhhhhhhhhhh=x,,,,,ObgnMy9ypppy9yMMgbO,,,,,,-xhhhhhhhhhhhhhhhhhhhhhhhhhhhhlVSlhhhhh=xhhhhhhhhhhhhhhhhhhhhhhhhhhhhhhhhhh=xhhhhhh=xhhhhhhhhhhhhhhhhhhhhhhhhhhhhhhhhhhhhhhhhhhhhhhhhhhhhhhhhhhhhh=c",
"oxhhhhhhhhhhhhhhhhhhhhhhhhhhhhhhh=xhhhhhhhhhhhhhhhhhhhhhhhhhhhhhhhhhhhhhhhhhhhhhhhhhhhhhhhh=xhhhhhhhhhhhhhhhhhhhhhhhhhhhhhhh=x,,,,,ObbMgbfnMMZMfbgMmno,,,,,,-xhhhhhhhhhhhhhhhhhhhhhhhhhhhhBSVhhhhhh=xhhhhhhhhhhhhhhhhhhhhhhhhhhhhhhhhhh=xhhhhhh=xhhhhhhhhhhhhhhhhhhhhhhhhhhhhhhhhhhhhhhhhhhhhhhhhhhhhhhhhhhhhh=c",
"oxhhhhhhhhhhhhhhhhhhhhhhhhhhhhhhh=xhhhhhhhhhhhhhhhhhhhhhhhhhhhhhhhhhhhhhhhhhhhhhhhhhhhhhhhh=xhhhhhhhhhhhhhhhhhhhhhhhhhhhhhhh=x,,,,,OabMMMbgdsdgbMMMbno,,,,,,-xhhhhhhhhhhhhhhhhhhhhhhhhhhhhVSzhhhhhh=xhhhhhhhhhhhhhhhhhhhhhhhhhhhhhhhhhh=xhhhhhh=xhhhhhhhhhhhhhhhhhhhhhhhhhhhhhhhhhhhhhhhhhhhhhhhhhhhhhhhhhhhhh=c",
"oxhhhhhhhhhhhhhhhhhhhhhhhhhhhhhhh=xhhhhhhhhhhhhhhhhhhhhhhhhhhhhhhhhhhhhhhhhhhhhhhhhhhhhhhhh=xhhhhhhhhhhhhhhhhhhhhhhhhhhhhhhh=x,,,,,O9amMNANMMMMNAMbgMo,,,,,,-xhhhhhhhhhhhhhhhhhhhhhhhhhhhlSVhBSBhhh=xhhhhhhhhhhhhhhhhhhhhhhhhhhhhhhhhhh=xhhhhhh=xhhhhhhhhhhhhhhhhhhhhhhhhhhhhhhhhhhhhhhhhhhhhhhhhhhhhhhhhhhhhh=c",
"oxhhhhhhhhhhhhhhhhhhhhhhhhhhhhhhh=xhhhhhhhhhhhhhhhhhhhhhhhhhhhhhhhhhhhhhhhhhhhhhhhhhhhhhhhh=xhhhhhhhhhhhhhhhhhhhhhhhhhhhhhhh=x,,,,,O89agMMMbabMMMgdfM+,,,,,,-xhhhhhhhhhhhhhhhhhhhhhhhhhhhVSvhSSShhh=xhhhhhhhhhhhhhhhhhhhhhhhhhhhhhhhhhh=xhhhhhh=xhhhhhhhhhhhhhhhhhhhhhhhhhhhhhhhhhhhhhhhhhhhhhhhhhhhhhhhhhhhhh=c",
"oxhhhhhhhhhhhhhhhhhhhhhhhhhhhhhhh=xhhhhhhhhhhhhhhhhhhhhhhhhhhhhhhhhhhhhhhhhhhhhhhhhhhhhhhhh=xhhhhhhhhhhhhhhhhhhhhhhhhhhhhhhh=x,,,,,O8&9yaaauruaaay9MM+,,,,,,-xhhhhhhhhhhhhhhhhhhhhhhhhhhhVVlhBSBhhh=xhhhhhhhhhhhhhhhhhhhhhhhhhhhhhhhhhh=xhhhhhh=xhhhhhhhhhhhhhhhhhhhhhhhhhhhhhhhhhhhhhhhhhhhhhhhhhhhhhhhhhhhhh=c",
"oxhhhhhhhhhhhhhhhhhhhhhhhhhhhhhhh=xhhhhhhhhhhhhhhhhhhhhhhhhhhhhhhhhhhhhhhhhhhhhhhhhhhhhhhhh=xhhhhhhhhhhhhhhhhhhhhhhhhhhhhhhh=x,,,,,+8%&#####%&**88uMM+,,,,,,-xhhhhhhhhhhhhhhhhhhhhhhhhhhhhhhhhhhhhh=xhhhhhhhhhhhhhhhhhhhhhhhhhhhhhhhhhh=xhhhhhh=xhhhhhhhhhhhhhhhhhhhhhhhhhhhhhhhhhhhhhhhhhhhhhhhhhhhhhhhhhhhhh=c",
"oxhhhhhhhhhhhhhhhhhhhhhhhhhhhhhhh=xhhhhhhhhhhhhhhhhhhhhhhhhhhhhhhhhhhhhhhhhhhhhhhhhhhhhhhhh=xhhhhhhhhhhhhhhhhhhhhhhhhhhhhhhh=x,,,,,+8%6**699999ruMMug,,,,,,,-xhhhhhhhhhhhhhhhhhhhhhhhhhhhhhhhhhhhhh=xhhhhhhhhhhhhhhhhhhhhhhhhhhhhhhhhhh=xhhhhhh=xhhhhhhhhhhhhhhhhhhhhhhhhhhhhhhhhhhhhhhhhhhhhhhhhhhhhhhhhhhhhh=c",
"oxhhhhhhhhhhhhhhhhhhhhhhhhhhhhhhh=xhhhhhhhhhhhhhhhhhhhhhhhhhhhhhhhhhhhhhhhhhhhhhhhhhhhhhhhh=xhhhhhhhhhhhhhhhhhhhhhhhhhhhhhhh=x,,,,,,*%*699atuuurbmMMu,,,,,,,-xhhhhhhhhhhhhhhhhhhhhhhhhhhhhhhhhhhhhh=xhhhhhhhhhhhhhhhhhhhhhhhhhhhhhhhhhh=xhhhhhh=xhhhhhhhhhhhhhhhhhhhhhhhhhhhhhhhhhhhhhhhhhhhhhhhhhhhhhhhhhhhhh=c",
"oxhhhhhhhhhhhhhhhhhhhhhhhhhhhhhhh=xhhhhhhhhhhhhhhhhhhhhhhhhhhhhhhhhhhhhhhhhhhhhhhhhhhhhhhhh=xhhhhhhhhhhhhhhhhhhhhhhhhhhhhhhh=x,,,,,,**69pabaMMguaNgg0,,,,,,,-xhhhhhhhhhhhhhhhhhhhhhhhhhhhhhhhhhhhhh=xhhhhhhhhhhhhhhhhhhhhhhhhhhhhhhhhhh=xhhhhhh=xhhhhhhhhhhhhhhhhhhhhhhhhhhhhhhhhhhhhhhhhhhhhhhhhhhhhhhhhhhhhh=c",
"oh--------------==================h-------------------------================================h------------====================,-------------------------------h------------------====================h----------=========================h-======h----------------------========================================c",
"O:::::::::::::::::::::::::::::::::::::::::::::::::::::::::::::::::::::::::::::::::::::::::::::::::>>>>>>>>>>>>>>>>>>>>>>>>>>>>>>>>>>>>>>>>>>>>>>>>>>>>>>>>>>>>>>>>>>>>>>>>>>>>>>>>>>>>>>>>>>>>>>>>>>>>>>>>>>>>>>>>>>>>>>>>>>>>>>>>>>>>>>>>>>>>>>>>>>>>>>>>>>>>>>>>>ccccccccccccccccccccccccccccccccccccccccccccc"
};
