/* XPM */
static char *_616ba15fb4e4887cfdd57f90001f329QUXZozb9Iv0y839t[] = {
/* columns rows colors chars-per-pixel */
"304 35 17 1 ",
"  c black",
". c #202020",
"X c #2C2C2C",
"o c #000040",
"O c #000070",
"+ c #005858",
"@ c #007070",
"# c #484848",
"$ c #0000A4",
"% c #2024FC",
"& c #4040FC",
"* c #5C60FC",
"= c #008484",
"- c #7C80FC",
"; c #9C9CFC",
": c #B8BCFC",
"> c #D8D8FC",
/* pixels */
"                                                                                                                 ..............................................................................................................................................................................................X",
" ----****************************$----------***********************************************$----****************************$------*************************#---***********************************$------*****************************$--*****$-------------*************************************************$@",
" -$$$$$$$$$$$$$$$$$$$$$$$$$$$$$$$O-$$$$$$$$$$$$$$$$$$$$$$$$$$$$$$$$$$$$$$$$$$$$$$$$$$$$$$$$O-$$$$$$$$$$$$$$$$$$$$$$$$$$$$$$$O-##############################O-$$$$$$$$$$$$$$$$$$$$$$$$$$$$$$$$$$$$$O-$$$$$$$$$$$$$$$$$$$$$$$$$$$$$$$$$$O-$$$$$$O-$$$$$$$$$$$$$$$$$$$$$$$$$$$$$$$$$$$$$$$$$$$$$$$$$$$$$$$$$$$$$O@",
" -$$$;;$$$$-;;$;;$;;$$-;;$;;$$$$$O-$$$$$$$$$$$$$$$$-;&$$*;&$$-;*$$$---$$$-;;$$$$$$$$$$$$$$$O-$$$;;$$$;;$;;$;;$$-;;$$-;&$$$$$O-##############################O-$$;;$;;$$-;;$$$-;$$$;;$*;;;;;$;;$;;$$O-$$$$$$-;$$$;;%;;;$;;%;;;$$-;*$$$$$O-$$$$$$O-$$$$$$$$$$$$$$$$$$$$$$$$$$$$$$$$$$$$$$$$$$$$$$$$$$$$$$$$$$$$$O@",
" -$$$;;$$$-;;;$;;$;;$-;;;$;;$$$$$O-$$$$$$$$$$$$$$$;;;;-*;;;*-;;;&$-;;;-$-;;;$$$$$$$$$$$$$$$O-$$$;;$$$;;$;;$;;$-;;;$;;;;-$$$$O-##############################O-$$;;$;;$-;;;$$-;;*$$;;$;;;;;;$;;$;;$$O-$$$$$-;;*$$;;*;;;$;;*;;;$-;;;&$$$$O-$$$$$$O-$$$$$$$$$$$$$$$$$$$$$$$$$$$$$$$$$$$$$$$$$$$$$$$$$$$$$$$$$$$$$O@",
" -$$$;;$$$;;$$$;;$;;$;;$$$;;$$$$$O-$$$$$$$$$$$$$$;;;$;&;;&;&;;&;-$;;$;;$;;$$$$$$$$$$$$$$$$$O*$$$;;$$$;;$;;$;;$;;$$*;;$;&$$$$O-##############################O-$$;;$;;$;;$$$$;;;*$$;;$$$;;$$$;;$;;$$O-$$$$$;;;*$$;;-;;;$;;-;;;$;;&;-$$$$O-$$$$$$O-$$$$$$$$$$$$$$$$$$$$$$$$$$$$$$$$$$$$$$$$$$$$$$$$$$$$$$$$$$$$$O@",
" *$$$;;$$$;;$$$;;$;;$;;$$$;;$$$$$O*$$$$$$$$$$$$$$-;;;$$;;$$$;;$;;$;;$;*$;;$$$$$$$$$$$$$$$$$O*$$$;;$$$;;$;;$;;$;;$$*;;;$$$$$$O*##############################O*$$;;$;;$;;$$$%;*;-$$;;$$$;;$$$;;$;;$$O*$$$$%;*;-$$;;-;;;$;;-;;;$;;$;;$$$$O*$$$$$$O-$$$$$$$$$$$$$$$$$$$$$$$$$$$$$$$$$$$$$$$$$$$$$$$$$$$$$$$$$$$$$O@",
" *$$$;;$$$;;;;$;;$;;$;;;;$;;$$$$$O*$$$$$$$$$$$$$$$-;;;$;;$$$;;$;;$;;;-$$;;;;$$$$$$$$$$$$$$$O*$$$;;$$$;;$;;$;;$;;;;$-;;;$$$$$O*##############################O*$$;;;;;$;;;;$*;$;;$$;;$$$;;$$$;;;;;$$O*$$$$*;$;;$$;-;-;;$;-;-;;$;;$;;$$$$O*$$$$$$O*$$$$$$$$$$$$$$$$$$$$$$$$$$$$$$$$$$$$$$$$$$$$$$$$$$$$$$$$$$$$$O@",
" *$$$;;$$$;;$$$;;$;;$;;$$$;;$$$$$O*$$$$$$$$$$$$$$$$-;;-;;$$$;;$;;$;;;;*$;;$$$$$$$$$$$$$$$$$O*$$$;;$$$;;$;;$;;$;;$$$$-;;-$$$$O*##############################O*$$;;$;;$;;$$$*;$;;%$;;$$$;;$$$;;$;;$$O*$$$$*;$;;%$;*;&;;$;*;&;;$;;$;;$$$$O*$$$$$$O*$$$$$$$$$$$$$$$$$$$$$$$$$$$$$$$$$$$$$$$$$$$$$$$$$$$$$$$$$$$$$O@",
" *$$$;;$$$;;$$$-;*;;$;;$$$;;$$$$$O*$$$$$$$$$$$$$$;;$;;-;;-&$-;*;;$;;&;-$;;$$$$$$$$$$$$$$$$$O*$$$;;$$$;;$-;*;;$;;$$*;$;;-$$$$O*##############################O*$$;;$;;$;;$$$-;;;;*$;;$$$;;$$$;;$;;$$O*$$$$-;;;;*$;$;$;;$;$;$;;$-;*;;$$$$O*$$$$$$O*$$$$$$$$$$$$$$$$$$$$$$$$$$$$$$$$$$$$$$$$$$$$$$$$$$$$$$$$$$$$$O@",
" *$$$;;;;*;;;;$*;;;*$;;;;$;;;;*$$O*$$$$$$$$$$$$$$-;;;;&&;;;;*-;;-$;;$;;$;;;;$$$$$$$$$$$$$$$O*$$$;;;;*;;$*;;;*$;;;;-;;;;&$$$$O*##############################O*$$;;$;;$;;;;$-;$$;-$;;;;*;;$$$;;$;;$$O*$$$$-;$$;-$;$;$;;$;$;$;;$*-;;-$$$$O*$$$$$$O*$$$$$$$$$$$$$$$$$$$$$$$$$$$$$$$$$$$$$$$$$$$$$$$$$$$$$$$$$$$$$O@",
" *$$$;;;;&;;;;$$*;*$$;;;;$;;;;&$$O*$$$$$$$$$$$$$$$&-;$$$&-;;$*;-&$;;$;;$;;;;$$$$$$$$$$$$$$$O*$$$;;;;&;;$$*;*$$;;;;$-;;-$$$$$O*##############################O*$$;;$;;$;;;;$;;$$;;$;;;;&;;$$$;;$;;$$O*$$$$;;$$;;$;$;$;;$;$;$;;$$*;-&$$$$O*$$$$$$O*$$$$$$$$$$$$$$$$$$$$$$$$$$$$$$$$$$$$$$$$$$$$$$$$$$$$$$$$$$$$$O@",
" *$$$$$$$$$$$$$$$$$$$$$$$$$$$$$$$O*$$$$$$$$$$$$$$$$$$$$$$$$$$$$$$$$$$$$$$$$$$$$$$$$$$$$$$$$O*$$$$$$$$$$$$$$$$$$$$$$$$$$$$$$$O*##############################O*$$$$$$$$$$$$$$$$$$$$$$$$$$$$$$$$$$$$$O*$$$$$$$$$$$$$$$$$$$$$$$$$$$$$$$$$$O*$$$$$$o*$$$$$$$$$$$$$$$$$$$$$$$$$$$$$$$$$$$$$$$$$$$$$$$$$$$$$$$$$$$$$o@",
" *$$$$$$$$$$$$$$$$$$$$$$$$$$$$$$$O*$$$$$$$$$$$$$$$$$$$$$$$$$$$$$$$$$$$$$$$$$$$$$$$$$$$$$$$$O*$$$$$$$$$$$$$$$$$$$$$$$$$$$$$$$O*##############################O*$$$$$$$$$$$$$$$$$$$$$$$$$$$$$$$$$$$$$O*$$$$$$$$$$$$$$$$$$$$$$$$$$$$$$$$$$O*$$$$$$o*$$$$$$$$$$$$$$$$$$$$$$$$$$$$$$$$$$$$$$$$$$$$$$$$$$$$$$$$$$$$$o@",
" *$$$$$$$$$$$$$$$$$$$$$$$$$$$$$$$O*$$$$$$$$$$$$$$$$$$$$$$$$$$$$$$$$$$$$$$$$$$$$$$$$$$$$$$$$O*$$$$$$$$$$$$$$$$$$$$$$$$$$$$$$$O*##############################O*$$$$$$$$$$$$$$$$$$$$$$$$$$$;>;$%::$$$O*$$$$$$$$$$$$$$$$$$$$$$$$$$$$$$$$$$O*$$$$$$o*$$$$$$$$$$$$$$$$$$$$$$$$$$$$$$$$$$$$$$$$$$$$$$$$$$$$$$$$$$$$$o@",
" *$$$$$$$$$$$$$$$$$$$$$$$$$$$$$$$O*$$$$$$$$$$$$$$$$$$$$$$$$$$$$$$$$$$$$$$$$$$$$$$$$$$$$$$$$O*$$$$$$$$$$$$$$$$$$$$$$$$$$$$$$$o*##############################O*$$$$$$$$$$$$$$$$$$$$$$$$$$$>>>$->:$$$o*$$$$$$$$$$$$$$$$$$$$$$$$$$$$$$$$$$o*$$$$$$o*$$$$$$$$$$$$$$$$$$$$$$$$$$$$$$$$$$$$$$$$$$$$$$$$$$$$$$$$$$$$$o@",
".*$$$$$$$$$$$$$$$$$$$$$$$$$$$$$$$o*$$$$$$$$$$$$$$$$$$$$$$$$$$$$$$$$$$$$$$$$$$$$$$$$$$$$$$$$O*$$$$$$$$$$$$$$$$$$$$$$$$$$$$$$$o*##############################O*$$$$$$$$$$$$$$$$$$$$$$$$$$$;>;$:>-$$$o*$$$$$$$$$$$$$$$$$$$$$$$$$$$$$$$$$$o*$$$$$$o*$$$$$$$$$$$$$$$$$$$$$$$$$$$$$$$$$$$$$$$$$$$$$$$$$$$$$$$$$$$$$o@",
".*$$$$$$$$$$$$$$$$$$$$$$$$$$$$$$$o*$$$$$$$$$$$$$$$$$$$$$$$$$$$$$$$$$$$$$$$$$$$$$$$$$$$$$$$$o*$$$$$$$$$$$$$$$$$$$$$$$$$$$$$$$o*##############################O*$$$$$$$$$$$$$$$$$$$$$$$$$$$$$$%:>%$$$o*$$$$$$$$$$$$$$$$$$$$$$$$$$$$$$$$$$o*$$$$$$o*$$$$$$$$$$$$$$$$$$$$$$$$$$$$$$$$$$$$$$$$$$$$$$$$$$$$$$$$$$$$$o@",
".*$$$$$$$$$$$$$$$$$$$$$$$$$$$$$$$o*$$$$$$$$$$$$$$$$$$$$$$$$$$$$$$$$$$$$$$$$$$$$$$$$$$$$$$$$o*$$$$$$$$$$$$$$$$$$$$$$$$$$$$$$$o*##############################O*$$$$$$$$$$$$$$$$$$$$$$$$$$$$$$;>:$$$$o*$$$$$$$$$$$$$$$$$$$$$$$$$$$$$$$$$$o*$$$$$$o*$$$$$$$$$$$$$$$$$$$$$$$$$$$$$$$$$$$$$$$$$$$$$$$$$$$$$$$$$$$$$o@",
".*$$$$$$$$$$$$$$$$$$$$$$$$$$$$$$$o*$$$$$$$$$$$$$$$$$$$$$$$$$$$$$$$$$$$$$$$$$$$$$$$$$$$$$$$$o*$$$$$$$$$$$$$$$$$$$$$$$$$$$$$$$o*##############################O*$$$$$$$$$$$$$$$$$$$$$$$$$$$$$$:>-$$$$o*$$$$$$$$$$$$$$$$$$$$$$$$$$$$$$$$$$o*$$$$$$o*$$$$$$$$$$$$$$$$$$$$$$$$$$$$$$$$$$$$$$$$$$$$$$$$$$$$$$$$$$$$$o@",
".*$$$$$$$$$$$$$$$$$$$$$$$$$$$$$$$o*$$$$$$$$$$$$$$$$$$$$$$$$$$$$$$$$$$$$$$$$$$$$$$$$$$$$$$$$o*$$$$$$$$$$$$$$$$$$$$$$$$$$$$$$$o*##############################O*$$$$$$$$$$$$$$$$$$$$$$$$$$$$$%:>%$$$$o*$$$$$$$$$$$$$$$$$$$$$$$$$$$$$$$$$$o*$$$$$$o*$$$$$$$$$$$$$$$$$$$$$$$$$$$$$$$$$$$$$$$$$$$$$$$$$$$$$$$$$$$$$o@",
".*$$$$$$$$$$$$$$$$$$$$$$$$$$$$$$$o*$$$$$$$$$$$$$$$$$$$$$$$$$$$$$$$$$$$$$$$$$$$$$$$$$$$$$$$$o*$$$$$$$$$$$$$$$$$$$$$$$$$$$$$$$o*##############################O*$$$$$$$$$$$$$$$$$$$$$$$$$$$$$->:$$$$$o*$$$$$$$$$$$$$$$$$$$$$$$$$$$$$$$$$$o*$$$$$$o*$$$$$$$$$$$$$$$$$$$$$$$$$$$$$$$$$$$$$$$$$$$$$$$$$$$$$$$$$$$$$o=",
".*$$$$$$$$$$$$$$$$$$$$$$$$$$$$$$$o*$$$$$$$$$$$$$$$$$$$$$$$$$$$$$$$$$$$$$$$$$$$$$$$$$$$$$$$$o*$$$$$$$$$$$$$$$$$$$$$$$$$$$$$$$o*##############################O*$$$$$$$$$$$$$$$$$$$$$$$$$$$$$;>-$$$$$o*$$$$$$$$$$$$$$$$$$$$$$$$$$$$$$$$$$o*$$$$$$o*$$$$$$$$$$$$$$$$$$$$$$$$$$$$$$$$$$$$$$$$$$$$$$$$$$$$$$$$$$$$$o=",
".*$$$$$$$$$$$$$$$$$$$$$$$$$$$$$$$o*$$$$$$$$$$$$$$$$$$$$$$$$$$$$$$$$$$$$$$$$$$$$$$$$$$$$$$$$o*$$$$$$$$$$$$$$$$$$$$$$$$$$$$$$$o*##############################O*$$$$$$$$$$$$$$$$$$$$$$$$$$$$%:>%$$$$$o*$$$$$$$$$$$$$$$$$$$$$$$$$$$$$$$$$$o*$$$$$$o*$$$$$$$$$$$$$$$$$$$$$$$$$$$$$$$$$$$$$$$$$$$$$$$$$$$$$$$$$$$$$o=",
".*$$$$$$$$$$$$$$$$$$$$$$$$$$$$$$$o*$$$$$$$$$$$$$$$$$$$$$$$$$$$$$$$$$$$$$$$$$$$$$$$$$$$$$$$$o*$$$$$$$$$$$$$$$$$$$$$$$$$$$$$$$o*##############################O*$$$$$$$$$$$$$$$$$$$$$$$$$$$$;>:$$$$$$o*$$$$$$$$$$$$$$$$$$$$$$$$$$$$$$$$$$o*$$$$$$o*$$$$$$$$$$$$$$$$$$$$$$$$$$$$$$$$$$$$$$$$$$$$$$$$$$$$$$$$$$$$$o=",
".*$$$$$$$$$$$$$$$$$$$$$$$$$$$$$$$o*$$$$$$$$$$$$$$$$$$$$$$$$$$$$$$$$$$$$$$$$$$$$$$$$$$$$$$$$o*$$$$$$$$$$$$$$$$$$$$$$$$$$$$$$$o*##############################O*$$$$$$$$$$$$$$$$$$$$$$$$$$$$:>&$$$$$$o*$$$$$$$$$$$$$$$$$$$$$$$$$$$$$$$$$$o*$$$$$$o*$$$$$$$$$$$$$$$$$$$$$$$$$$$$$$$$$$$$$$$$$$$$$$$$$$$$$$$$$$$$$o=",
".*$$$$$$$$$$$$$$$$$$$$$$$$$$$$$$$o*$$$$$$$$$$$$$$$$$$$$$$$$$$$$$$$$$$$$$$$$$$$$$$$$$$$$$$$$o*$$$$$$$$$$$$$$$$$$$$$$$$$$$$$$$o*##############################O*$$$$$$$$$$$$$$$$$$$$$$$$$$$%>:$;>;$$$o*$$$$$$$$$$$$$$$$$$$$$$$$$$$$$$$$$$o*$$$$$$o*$$$$$$$$$$$$$$$$$$$$$$$$$$$$$$$$$$$$$$$$$$$$$$$$$$$$$$$$$$$$$o=",
".*$$$$$$$$$$$$$$$$$$$$$$$$$$$$$$$o*$$$$$$$$$$$$$$$$$$$$$$$$$$$$$$$$$$$$$$$$$$$$$$$$$$$$$$$$o*$$$$$$$$$$$$$$$$$$$$$$$$$$$$$$$o*##############################O*$$$$$$$$$$$$$$$$$$$$$$$$$$$:>-$>>>$$$o*$$$$$$$$$$$$$$$$$$$$$$$$$$$$$$$$$$o*$$$$$$o*$$$$$$$$$$$$$$$$$$$$$$$$$$$$$$$$$$$$$$$$$$$$$$$$$$$$$$$$$$$$$o=",
".*$$$$$$$$$$$$$$$$$$$$$$$$$$$$$$$o*$$$$$$$$$$$$$$$$$$$$$$$$$$$$$$$$$$$$$$$$$$$$$$$$$$$$$$$$o*$$$$$$$$$$$$$$$$$$$$$$$$$$$$$$$o*##############################O*$$$$$$$$$$$$$$$$$$$$$$$$$$$::%$;>;$$$o*$$$$$$$$$$$$$$$$$$$$$$$$$$$$$$$$$$o*$$$$$$o*$$$$$$$$$$$$$$$$$$$$$$$$$$$$$$$$$$$$$$$$$$$$$$$$$$$$$$$$$$$$$o=",
".*$$$$$$$$$$$$$$$$$$$$$$$$$$$$$$$o*$$$$$$$$$$$$$$$$$$$$$$$$$$$$$$$$$$$$$$$$$$$$$$$$$$$$$$$$o*$$$$$$$$$$$$$$$$$$$$$$$$$$$$$$$o*##############################O*$$$$$$$$$$$$$$$$$$$$$$$$$$$$$$$$$$$$$o*$$$$$$$$$$$$$$$$$$$$$$$$$$$$$$$$$$o*$$$$$$o*$$$$$$$$$$$$$$$$$$$$$$$$$$$$$$$$$$$$$$$$$$$$$$$$$$$$$$$$$$$$$o=",
".*$$$$$$$$$$$$$$$$$$$$$$$$$$$$$$$o*$$$$$$$$$$$$$$$$$$$$$$$$$$$$$$$$$$$$$$$$$$$$$$$$$$$$$$$$o*$$$$$$$$$$$$$$$$$$$$$$$$$$$$$$$o*##############################O*$$$$$$$$$$$$$$$$$$$$$$$$$$$$$$$$$$$$$o*$$$$$$$$$$$$$$$$$$$$$$$$$$$$$$$$$$o*$$$$$$o*$$$$$$$$$$$$$$$$$$$$$$$$$$$$$$$$$$$$$$$$$$$$$$$$$$$$$$$$$$$$$o=",
".*$$$$$$$$$$$$$$$$$$$$$$$$$$$$$$$o*$$$$$$$$$$$$$$$$$$$$$$$$$$$$$$$$$$$$$$$$$$$$$$$$$$$$$$$$o*$$$$$$$$$$$$$$$$$$$$$$$$$$$$$$$o*##############################O*$$$$$$$$$$$$$$$$$$$$$$$$$$$$$$$$$$$$$o*$$$$$$$$$$$$$$$$$$$$$$$$$$$$$$$$$$o*$$$$$$o*$$$$$$$$$$$$$$$$$$$$$$$$$$$$$$$$$$$$$$$$$$$$$$$$$$$$$$$$$$$$$o=",
".*$$$$$$$$$$$$$$$$$$$$$$$$$$$$$$$o*$$$$$$$$$$$$$$$$$$$$$$$$$$$$$$$$$$$$$$$$$$$$$$$$$$$$$$$$o*$$$$$$$$$$$$$$$$$$$$$$$$$$$$$$$o*##############################O*$$$$$$$$$$$$$$$$$$$$$$$$$$$$$$$$$$$$$o*$$$$$$$$$$$$$$$$$$$$$$$$$$$$$$$$$$o*$$$$$$o*$$$$$$$$$$$$$$$$$$$$$$$$$$$$$$$$$$$$$$$$$$$$$$$$$$$$$$$$$$$$$o=",
".$OOOOOOOOOOOOOOoooooooooooooooooo$OOOOOOOOOOOOOOOOOOOOOOOOOoooooooooooooooooooooooooooooooo$OOOOOOOOOOOOoooooooooooooooooooo#OOOOOOOOOOOOOOOOOOOOOOOOOOOOOOO$OOOOOOOOOOOOOOOOOOoooooooooooooooooooo$OOOOOOOOOOooooooooooooooooooooooooo$Ooooooo$OOOOOOOOOOOOOOOOOOOOOOoooooooooooooooooooooooooooooooooooooooo=",
"X+++++++++++++++++++++++++++++++++++++++++++++++++++++++++++++++++++++++++++++++++++++++++++++++++@@@@@@@@@@@@@@@@@@@@@@@@@@@@@@@@@@@@@@@@@@@@@@@@@@@@@@@@@@@@@@@@@@@@@@@@@@@@@@@@@@@@@@@@@@@@@@@@@@@@@@@@@@@@@@@@@@@@@@@@@@@@@@@@@@@@@@@@@@@@@@@@@@@@@@@@@@@@@@@@@============================================="
};
