/* XPM */
static char *result[] = {
/* columns rows colors chars-per-pixel */
"48 24 6 1 ",
"  c black",
". c #00004C",
"X c #000064",
"o c #000070",
"O c #000088",
"+ c #0000A4",
/* pixels */
"++++++++++++++++++++++++++++++++++++++++++++++++",
"++++++++++++++++++++++++++++++++++++++++++++++++",
"++++++++++++++++++++++++++++++++++++++++++++++++",
"++++++++++++++++++++++++++++++++++++++++++++++++",
"++++++++++++++++++++++++++++++++++++++++++++++++",
"++++++++++++++++++++++++++++++++++++++++++++++++",
"+++++++++++++++++++++++++++++++++   ++++++++++++",
"++++++  +++++++++++++++++++++++       ++++++++++",
"++++++   +++++++++++++++                 +++++++",
"++++                                     X++++++",
"++++                                      ++++++",
"++++                                      ++++++",
"++++++++++++++++++++++                   X++++++",
"++++++++++++++++++++++X  ++            +++++++++",
"+++++++++++++++++++++++.    o          +++++++++",
"+++++++++++++++++++++++O.              +++++++++",
"++++++++++++++++++++++++++++++         X++++++++",
"++++++++++++++++++++++++++++++X        .++++++++",
"+++++++++++++++++++++++++++++++         ++++++++",
"+++++++++++++++++++++++++++++++         X+++++++",
"+++++++++++++++++++++++++++++++         .+++++++",
"+++++++++++++++++++++++++++++++.        .+++++++",
"+++++++++++++++++++++++++++++++X.      .X+++++++",
"++++++++++++++++++++++++++++++++++++++++++++++++"
};
