/* XPM */
static char *result[] = {
/* columns rows colors chars-per-pixel */
"48 24 5 1 ",
"  c black",
". c #00004C",
"X c #00007C",
"o c #000088",
"O c #0000A4",
/* pixels */
"OOOOOOOOOOOOOOOOOOOOOOOOOOOOOOOOOOOOOOOOOOOOOOOO",
"OOOOOOOOOOOOOOOOOOOOOOOOOOOOOOOOOOOOOOOOOOOOOOOO",
"OOOOOOOOOOOOOOOOOOOOOOOOOOOOOOOOOOOOOOOOOOOOOOOO",
"OOOOOOOOOOOOOOOOOOOOOOOOOOOOOOOOOOOOOOOOOOOOOOOO",
"OOOOOOOOOOOOOOOOOOOOOOOOOOOOOOOOOOOOOOOOOOOOOOOO",
"OOO OOOOOOOOOOOOOOOOOOOOOOOO        OOOOOOOOOOOO",
"OOO  OOOOOOOOOOO                             OOO",
"O                                            OOO",
"O                                            OOO",
"O                                            OOO",
"OOOOOOO    OOOOO                             OOO",
"OOOOOOOOOOOOOOOOOOOX                         OOO",
"OOOOOOOOOOOOOOOOOOOOOO                       OOO",
"OOOOOOOOOOOOOOOOOOOOOO      OOOO OO        oOOOO",
"OOOOOOOOOOOOOOOOOOOOOO      OOOO X X       .OOOO",
"OOOOOOOOOOOOOOOOOOOOOO      OOOOX           oOOO",
"OOOOOOOOOOOOOOOOOOOOOO      OOOOOOOOO       .OOO",
"OOOOOOOOOOOOOOOOOOOOOO      OOOOOOOOO        OOO",
"OOOOOOOOOOOOOOOOOOOOO        OOOOOOOO        OOO",
"OOOOOOOOOOOOOOOOOOOOO        OOOOOOOOX      XOOO",
"OOOOOOOOOOOOOOOOOOOOOOOOOOOOOOOOOOOOOOOOOOOOOOOO",
"OOOOOOOOOOOOOOOOOOOOOOOOOOOOOOOOOOOOOOOOOOOOOOOO",
"OOOOOOOOOOOOOOOOOOOOOOOOOOOOOOOOOOOOOOOOOOOOOOOO",
"OOOOOOOOOOOOOOOOOOOOOOOOOOOOOOOOOOOOOOOOOOOOOOOO"
};
