/* XPM */
static char *result[] = {
/* columns rows colors chars-per-pixel */
"48 24 6 1 ",
"  c black",
". c #00004C",
"X c #000058",
"o c #000064",
"O c #000088",
"+ c #0000A4",
/* pixels */
"++++++++++++++++++++++++++++++++++++++++++++++++",
"++++++++++++++++++++++++++++++++++++++++++++++++",
"++++++++++++++++++++++++++++++++++++++++++++++++",
"++++++++++++++++++++                     XO+++++",
"++  ++++++++++   +                           XO+",
"                                              X+",
"                                               +",
"++  ++++++++++   +                             +",
"                                               +",
"                                               +",
"                                               +",
"++  ++++++++++   +                            X+",
"                                             XO+",
"                                             O++",
"++  ++++++++++   +                 ++ X      X++",
"++++++++++++++++++++         +++X             ++",
"++++++++++++++++++++         ++++++++++       O+",
"+++++++++++++++++++O         ++++++++++X      X+",
"+++++++++++++++++++o        .++++++++++O       +",
"++++++++++++++++++O         X++++++++++O       +",
"+++++++++++++++++O          O++++++++++X       +",
"+++++++++++++++++            ++++++++++       ++",
"+++++++++++++++++            +++++++++++++++++++",
"++++++++++++++++++++++++++++++++++++++++++++++++"
};
