/* XPM */
static char *result[] = {
/* columns rows colors chars-per-pixel */
"8 16 18 1 ",
"  c #585400",
". c #000040",
"X c #000070",
"o c #A86840",
"O c #BC7848",
"+ c #C87C4C",
"@ c #848400",
"# c #9C9C00",
"$ c #B4AC00",
"% c #E4D800",
"& c #F0945C",
"* c #FC9C60",
"= c #0000A4",
"- c #5C60FC",
"; c #7C80FC",
": c #FCD4BC",
"> c #FCD8C4",
", c #FCE8DC",
/* pixels */
";;;;;;-=",
";======X",
";======X",
";=,%:@ X",
";,$o#*OX",
"-%o= %OX",
"-:$o#$OX",
"-=*%$O=X",
"-==+@==X",
"-==%@==.",
"-==,@==.",
"->&%@==.",
"-==,@==.",
"->&%@==.",
"-======.",
"=XXXX..."
};
