/* XPM */
static char *result[] = {
/* columns rows colors chars-per-pixel */
"8 16 17 1 ",
"  c #000040",
". c #000070",
"X c #484848",
"o c gray33",
"O c #646464",
"+ c #7C7C7C",
"@ c #0000A4",
"# c #005C9C",
"$ c #5C60FC",
"% c #20A8FC",
"& c #7C80FC",
"* c gray55",
"= c gray66",
"- c #B4B4B4",
"; c #B8FCFC",
": c #C0C0C0",
"> c #D0D0D0",
/* pixels */
"&&&&&&$@",
"&@@@@@@.",
"&@@@@@@.",
"&@->>+X.",
"&>*X=>O.",
"$-O@X-o.",
"$>-#=>+.",
"$@->>+@.",
"$@@O+@@.",
"$@@>+@@ ",
"$@@;+@@ ",
"$:=>+@@ ",
"$@@%+@@ ",
"$:=>+@@ ",
"$@@@@@@ ",
"@....   "
};
