/* XPM */
static char *_79faa4abcc548bbcda17fc6d51838b8yuej5NbmDtgeyp2F[] = {
/* columns rows colors chars-per-pixel */
"64 64 13 1 ",
"  c black",
". c #202020",
"X c #2C2C2C",
"o c gray22",
"O c gray25",
"+ c #484848",
"@ c #4C4C4C",
"# c gray33",
"$ c gray36",
"% c #646464",
"& c gray44",
"* c #7C7C7C",
"= c gray55",
/* pixels */
"XXXXXXXXXXXXXXXXXXXXXXXXXXXXXXXXXXXXXXXXXXXXXXXXXXXXXXXXXXXXXXXX",
"XXXXXXXXXX.****************  +%*&&&&&&**%+X ..........XXXXXXXXXX",
"........ X.*&&&*&&&&&&*&&&+  +*&+%++++++%X   +++++++o+o.........",
"++++++++ X.*&*&&&&*&&**&&+o  %*%%++%+%+%+X   +*******&%+++++++++",
"*****%o+ X.*&%%%%+%%%%#%%oX  +*%++%%%%+++X   +*****&************",
"++&#%+o+ ..=*#%%%%%%#%+%%+X  .%+%%+%++%+XX   +*&%+%+%%%++%+++%+%",
"%*&%%%oX ..=&%+%#%+###+#%+X  .o++%++%+%%.    +*&+%+#+++%++%+%%%%",
"#*&&+#oX  .=&+#+%%%+o+#%+oX  ..+%%%++%%+.    +*&%+#o%#o+%*%%+#*%",
"+&+%%+oX  .**%#%+%+#+#++%+X  .X.o....        o**+%+o#o##%+++#%%#",
"%%&++#oX  .%=%%%++#++++%+Xo   .            ...*&+++####*+#++#+#+",
"#+###+..  .+*+%+#o+#%#%#%#X   .            .X.*&+%+%+++#+o+%+%++",
"+++++X..  .+*%+#ooo%#++o#+o   ....+o+%%%%#+ X.&+++oooXXXXXoooooo",
"ooooX.    X.*&+#+####%o+%#X   .+%%**=*&&#+X X.++ooX...XXXXXXXXXX",
"...XX     X.%&#%#o+%+###++X    %**&&@%@%++.      ...............",
"          X.+&%#%#+o+o+%#XX   .%**%@@@+++X                      ",
"          X.+*#%#+%#%+%#%X+.  .%=%$$$@%+%X   .XXXX .............",
"#########  X.**##+##o+#+++XX  .%=+$%%$%$+X   +%**X.Xo###########",
"******&&+  X.+*#%#o+##%#+++.  .%&%%$+%+%+X   %**% .o************",
"%#+%#%%+&  X.+#%#%%#%+#+X+X.  .%&%+++++XXX   **%+ .#*&&&&&&&&&&&",
"%+%#%++++  .X.##+##+XX+X+X.    %++++.....   o*&++ .#*&%#%#%+#+##",
"%##%#%#+X  .X.oXXXX...         ++...        o*%%+ .#*%@$@$+#@o++",
"%+%#%##+X  .X.                  X           +*%#+ .+*@%$%$%$#+##",
"+%oo+#%+X   XX.         .......++#%%#++oX  o**%+o .+*%@#+#+#OO++",
"++oo+%#o.   +*****&%+o .oo%%**&*******&#o  o**%#+ .o*%#+%+%+OO+#",
"+#%%##+o.   **%###%## X.o&==**&********+X  +*&#++ .+*+%#+#++%+%+",
"#%##%#+X    *%+#%%##% X.#=*+%+%#+%#%#+#o.  +=%+%X ..++oXXXoo+o++",
"oooooX.     *%%%#%+%o ..#=%%%+o%%#+#%#%X.  +=%##X X  ........XXX",
"X..         *#%#%&#+o ..#=#%##%++%#####X.  +=#%+X X            .",
"      ......*%#+%#%+o  .#=##%++o##%#+#+X.  +=%%#X X             ",
".oo++#++++. *%##+%++o  .#=%++#o+###o++#X.  +=#%%X X...XXXXXXX   ",
"o+&***&&&%+ *%%+@+%+o  .+**##%+#oO+o+#+X.  +*+#%X .%**&+oX.....X",
"o&&&*&%%#%. =##%@#%#+. .o&*%+#o#OO++%+oX   +*%##X .*++&******# X",
"o*&%%+%##+% =#%#%%+%+.  X*=%%####%OO$#+X   +*+%+X .*##%%##%#+o X",
"o*&#+%+##%+ =#+#%#%+oX  X%=%%%#+o+oO#++.  .+&%%#X .*%%##%%#%#o .",
"o*%#%#%%o%X *%%%#+#%oX  X+=*%+%#+#+#+#o.  .+&%#%X .&%#%$+++#%o .",
"o*&%##%#%+X **@#o%%#oX  .+&*%+o##+#+#+o   .+&#%XX .*%+#++#++%X .",
"o*&+%%#%+#X **+#%+#+oX  .X&*%+%#%##++oX   .o%oX   .%%+%#$%#+#X  ",
"o*&%%###%#X &*@%+++%+X   X+*%+oooX..      .X    .. +X.XXXXXXXX  ",
"o*&#%%##o#X #*#@%%+++X   X.++oX.          .X..XXXXX             ",
"o*&+#$%+%+X o*%#%$+%oX   ..              ..XX.........          ",
"o*&%%#$%$%X X=@%$+%+oX   ...     ..........XXooooooooooooooooo X",
"o*&+$%#%#+X .=%@@#+%+X    oooooooooooooo++##%&&******&*******o X",
"o&&%%#%#%X  .=%$%+++oX    o***************&**===========**&&#o .",
"o&&#%+%%+X  .=+%o#+%oX    o*&======*==*======**&*&***%**&**&oX .",
"o*&%+%+++X  .*%%+%++oX    o*&&*****%**%***&&%##+#%#%#+#%#%$%+X  ",
".*++%++++X  .&++%+%++X    o**&+++#+#%#%%#+#%%%$O$#%%#+%#%%%$+X  ",
".&%%%+XXX   .&%++%+++X    .***+#+%#%##%++#%%+#+#$+O###$%$%#%+X  ",
".oooXXXXX   .##%++++oX     &*&%%#+#+O++%+#+%#O+$%#+%+OO%o#+#+X  ",
".    XXXX  ..oooooooXX     %*&##%$%$+%+OO##+%+%#$%#+o#++%+oo+X  ",
"XXX.       .               +&&&##%$%O++#O#+#o%++o#+#+%#o+#oo+X  ",
".......    .               +###++++#%#%%++o+++o++%#%##%#+++#+X  ",
".o%%%%#+o..X               X.    ...X++ooooooooooooooooooooooX  ",
".%*******%%++oX.          .X..       .XXXXXXXXXXXXXXXXXXXXXXX.  ",
".%*%%+*&****%%%%%%%%+++oo+ooXX.....    ......................  .",
".%*%%%&&+%*************&&**%%%%%+.X.                          ..",
".%*%$+o#%#+o%+%+%+%%+%#%%&****&*o .X...                     ...X",
".%&%%$++$#+#%++%#o+%o#+#%+%#%%%oo  X.%**%o...XXX............XXXX",
".%*%+$oo#%+%%#+o#o+o#+%+##%##%%oX  ..*%%****&XX.#*******&*&#o..X",
".%+ooooooooooooooooooooooooooooX.   .*&&&&&&&oXo*%%$+$+$#%+%*# X",
".+o..............................   .&%&&#&#+o.&%+$+$$$+%+%+%X X",
".                                   . . XXoooo.*%##%%#$%$$%++X X",
"X.                                   XX.       XXXXXXXXXXXXXXX X",
"XXXX........                         XXX..     XX              X",
"oooooooooooooooooooooooooooooooooooooooooooooooooooooooooooooooo"
};
