/* XPM */
static char *_5a2ba2f2d0f49f3ced7f70ac6c144a0yS8qDW0emXZ0AZHP[] = {
/* columns rows colors chars-per-pixel */
"64 64 9 1 ",
"  c black",
". c #202020",
"X c #2C2C2C",
"o c gray22",
"O c #484848",
"+ c gray33",
"@ c #646464",
"# c gray44",
"$ c #7C7C7C",
/* pixels */
"XXXXXXXXXXXXXXXXXXXXXXXXXXXXXXXXXXXXXXXXXXXXXXXXXXXXXXXXXXXXXXXX",
"XXXXXXXXXXXXXXXXXXXXXXXXXXXXXXXXXXXXXXXXXXXXXXXXXXXXXXXXXXXXXXXX",
"X$$$$$$$$$$$$$$$$$$$$@X XX@$$$$$$$$#@o  XXX@$$$$@@OX.XXXXXXXXXXX",
"X$$$$$$$$$$$$$$$$$$$$XX X@$$#########@o XX@$$$$$$$$$$$$$$$$$$+ X",
"X$$$O+@@@@@+@@O@O@@@OXX X$$#O@O@@@O@@o. .X$$#@O@O@$#$$$$$$$$+X X",
"X$$@@@oO@@+@+@@+@OoO@XX X$#O++@O@O@@O.. .X$$OO@OOOO@OOO@@OO@XX X",
"X#$O@O@o@O++OOo+O@O@OXX X$#@O@O@O@OO@.. .X$$@OOO+O@OO@OoO@OOXX X",
"X#$+@@O@OOO++Oo+@OOOOoX .$#O@@+OOOO@O.. .X$#@OOO+@OO+O@+@O@+XX X",
"XO$O+O@O@+@+@++OOO+O+oX .$#O@+OOoo@O+.. .X$#+OOO@OO+oo@++@o+XX X",
"XO$OO+OOOOOO+OO@O++O+OX .$#@+OOOooOOO.. .X$#OoO+@OOOoOO@O@O+XX X",
" X$@O+@@+O+@O+O++@O+OOX .$#OO@O+O++oO.. .X$#O+@OO@+OO@+O+++OXX X",
" X$O+O@OO+@OOOo+@O+OOOX .$#O@OoO@OOo@.. .X$#O@O@OOO+OO+OoooooX X",
" X$o@@O+O+@@+O+@OOO++OX .$#@O@O@OOO@O.. .X$#@OOooooooooXXXXXXX X",
" XoXXXXX.Xoo+@@O@O@@OoX  $#OOO+O@o@O+.. .X@@oXXXXXXXXXXX....   X",
"     ...XXXXXXXXXXXXXXX  $#OO@++@OO+O.. .X@OXX......           X",
"X                        $#@OOo+O@OOo.. .X                     X",
"X...                     $#O+O@++O+Oo.  .XXXXXXXXXXXXXXXXXXXXXXX",
"XXXXXXXXXXXXXXXXXX       $#+Oo+OOoo+X.  .XXXXXO@$$$$$@+ XX      ",
".........XXO+#$$$$$$@    $#@O+O@Ooo+X.  .X +#$$$$$@@OOX XO@$$$$$",
"$$$$$$$$$$$$$$$$$$$@X.   $#@+O@OOO+O..  .X+$#@O@O@OO@OX X@$$$$$$",
"$$$$$$$$$$#$#@+@@+@OX.   $#O@+O@O@O@..  .X$$OO@OO+O+OOX X$$$@++@",
"@OOO+@+O+O@@O+@+@@+@X.   $#++@oO+OOO..  .X$$O+@++OO@OOX X$$$O+OO",
"OO+O+@@@@+OO@O+OO+OOX.   $#@@O@Ooo+O..  .X#$OO@OO+O+OOX X$$@OOO+",
"+@@+@+@O+@@+OO+O@OO+X.   $#@O@OOooOO..  .X+$+OOO+O@O@+X  $$O+@@+",
"@O+@O+OOO+@O@OOOO+O@X.  .$#OOOO+OOO@..  .XX$OOO++OOOOOX  $$@O+OO",
"O@+O+O@+O@++@OOO@OO@X.  .$#O@ooOO@Oo..  .X $O+@OO@OO@+X  $$O@+++",
"XXXoooOOOOOOOOOOOOOXX.  .$#@O@+oOOOO..  .X @O@OoXXXXXXX  $@oXXXX",
"XXXXXXXXXXXXXXXXXXXXX.  .$#O@OOO@O@O..  .X OoXXXX....    @oXXXXX",
".....................   .$#OO@+oOOO+..  .X                      ",
".                       .$#@@OO@O++O..  .X.                     ",
"XX.                    ..$#oO++O+++X.   .XX.................. .X",
"XXXX                  XXX$#O@O+OOoX..  .XXXXO@$$$$$$$$$$$$$$@  X",
"XXX@#$$$$$$$$$$$$$$$@ .XX$#@O@+OoX..   .XXX@$$$$$$$$$$$$$$$@O  X",
"XX@$$$$$$$$$$$$$$$$@X .XX$#OoOOo...   .XXXO$$$@++++@+++@+@+O.  X",
"XX#$#@@@O@O@@O@O@+@oX .XX$#OO@@X..   XXXXX@$$O+@+O@OOO@+O+OX.  X",
"XX$$O@O@@@+@+O+@+O+X. .XX$#@OOO..  X+$$$XX$$@+O+@+OO+@O+@+OX.  X",
"XX$$@++++O@+O@OOO@OX. .XX$#O+OO.  X$$$$+.X$$O+O+O+OOO++@+@+X.  X",
"XX$$O++@O+OO+OOO@+OX. .XX$#@OoX.  +$O@@o.X$$O@++O@@+OOO++O+X.  X",
"XX$@O+@+OO+OOO+@+O+X. .XX$#O+o..  $@@++ . $$O+@++@+@++OO++@X.  X",
"XX@XXX+O++@+@+@+@OOX. .XX$#+OX.  O$@++O . $$@OOO++++@@@@+O@X.  X",
"X  ...X@@O+O+@+O+OoX. .XX$#+o..  $$+@OX . $$O@O+@@+O@O@+@@OX.  X",
"X.    .XXXXXXXXXXXXX. .XX#$o...  $O@++X . $$@@@+@+@@+@+@++OX.  X",
"XXXX.   ............. .XX$+...   $@++OX . $$O+O@O@++OO+O+O@X.  X",
"XXXXX.                .XX+X..   Xo@@O+X . $$OO+OOOOOOOO+OOXX.  X",
"XXXXXX.               .X.       X     X . $#+oXXXXXXXXXXXXXX   X",
"XXXXXXXXXXXXXXXXXXXXXXX.....  XXXX      . #+o..............    X",
"X+####@+OoXXXXXXXXXX..............XX    .                      X",
"X#$$$$$$$$$$@+OoXXX.@###########@OX   ...                      X",
"X#$$$$$$$$$$$$$@X X.#$$$$$$$$$$$$$$$@+X   XX                  XX",
"X#$$+OOOO@@+O@O.X X.#$@@O@@+O+@O@O@#$$$#O  .XXXX      X         ",
"X#$+OO+@@@+OOOO.X X.#$+@@O@O@@O@OOOO@O@#$@  .XXo@@@@@@@@@@@@@@o ",
"X#$O+@OOO+OO@OO.X X.#$O+O@O@OOOOo+O@@OOOO+X .Xo@$$$$$$$$$$$$$$X ",
"X#$@O@@O@+O@O+oX  X.#$OO@OOOO+OO@@@oO@OO+XX .X@$$@O@OOO@@OO@OOX ",
"X#$@@+O+OOOO@OXX  X.#$OO+OOOO+OO@+O@@@+++XX .X@$$O@OOOO@O@OO@OX ",
"X#$O+O@O@O@O+OXX  XX#$@OoO+O+oo++@+@@O@OXXX .X@$O@O@O@+OO@O+O@X ",
"X#$@O+OOO+O@O+.X  X+$@oOO@+OOooO+O@O++@OXX. .X@$O+O@+OOO+O@O@OX ",
"X#$O@O+OOOOO@O.X  X@$@O+@OO@OO@+O@+@O@O@XX. .X@$OOO+++O@O+O++.X ",
"X#$OO+OOOOOOOOXX   $$@O@O@OO+OO++O+O@O+OXX. .X@ooooooooooooooXX ",
"X#$@OOOOO@O+O@X.   $@XXXXXXXXXXXXXXXXXXXXX  XXo................ ",
"X##OOO@O+O@@O.X.   @X.....................  X                   ",
"X+#XXXXXXXXXXXX. X                          X                   ",
"XX+............  X                         .X.                 X",
"X                X..........................XXX................X",
"oooooooooooooooooooooooooooooooooooooooooooooooooooooooooooooooo"
};
