/* XPM */
static char *result[] = {
/* columns rows colors chars-per-pixel */
"64 64 20 1 ",
"  c black",
". c #00001C",
"X c #00002C",
"o c #000034",
"O c #202020",
"+ c #2C2C2C",
"@ c gray22",
"# c #000040",
"$ c #00004C",
"% c #000058",
"& c #000064",
"* c #000070",
"= c #00007C",
"- c #484848",
"; c gray33",
": c #646464",
"> c #000088",
", c #0000A4",
"< c #0000B0",
"1 c #0000BC",
/* pixels */
"@&&&&&&&&&&&&&&&&&&&&&&&&&&&@@&&&&&&&&&&&&&@@&&&&&&&&&&&&@&&&&&@",
"O&&&&&&&&&&&&&&&&&&&&&%%%$##OO&&&&&&&&%$$$$OO&&&&&&&&$$XXX****%O",
" &&&$&#&**#%%%%%%##&$####XXX  &&%%$&&%$$$$X  &=*=*=====%# **$%$ ",
" &%#$%%%***%$#$$#$##%%###X..  &%&&$%%#$#&XX  &*==&=>*=&%# &&*%X ",
" &$&&%&%#**%#$##$$$$#XX#X#..  &%$$%%#$#XXXX  &=*&>=*&%$$X $X##X ",
" &$#&&&&%%#%&#%$$#$%%$#X#X..  &&$&&#XXX$#XX  &=&><>&=&%X# %$XX. ",
" &%%&&&%&%###X$X$#$%%%$#X#XX  &&&$$#X$$$X.X  &*=&==&&*##X %#.XX ",
" &&%%&&&%#$$$##%#X#$%%#XXX..  &&$#$$$#$#X..  &*=*&***&#X# %XXX. ",
" &%#%&&$&&%##%#XXX#$$##X##..  &%$$X$&&#X#..  &*>**=&&&%XX       ",
" &$$$&##&&&$####X$X###X###X.  &$$X##$$XXXXX  &*=&*&&$%$XX %***& ",
" %#$&$$$%&&$##$##X#X#X#X##XX  %$##X$$X#XXXX  &*==&=&$$#.. &*%*$ ",
" %$%##&$$$$#X###XX$XX#X..XXX  %$#X#X$X...X.  &*==*&$&%#X. %&$%X ",
" %#%#X$$#####X##XXX..XX...X.  %#$###XXX...X  &*==&%%#$XXX %&%XX ",
" %%#####XX#.................OOX............OOOOOOOOOO##XX $$#X. ",
" %#%XX###XX.::-----------------------------------@@+ XXXX #XXXX ",
"           O:@OOOOOOOOOOOOOOOOOOOOOOOOOOOOOOOOOOOOOO X..X       ",
"&=*&*&&&&&*X-OOOOOOOOOOOOOOOOOOOOOOOOOOOOOOOOOOOOOOO #... X>>>>>",
"=*&%&=*&$&&X-OO                                  +OO #... $>>,=>",
"=*%%$&&$#%%X-OO   O      O      O      O     O   +OO #X.. &>,1,*",
"*&%&&%%###%X-OO   +O     +O     +O     +O    +O  @OO X#XX &>>,*>",
"&$%*=&##%%oX-OO   @O     @O     @O     @O    @O  @OO #X#X *>>*&*",
"&&$%*&&%#o..-OO   -O     -O     -O     -O    -O  -OO X#XX =>>*>&",
"*$#$%&&##%..-OO   -O     -O     -O     -O    -O  -OO #X#X *>*=*&",
"*&$%#%#%%#X.-OO   -O     -O     -O     -O    -O  -OO X#XX *>*&%=",
"**&**%%%%#oX-OO   -O     -O     -O     -O    -O  -OO@#XXX &>>*>>",
"*&=***$$#%#X-OO   -O     -O     -O     -O    -O  -OO;XXXX &>*>=*",
"&%&&**$$%#..-OO   -O     -O     -O     -O    -O  -OOOX..X &>>>*&",
"*%*%%#%$$#..-OO   -O     -O     -O     -O    -O  -OO@.... $>>>**",
"&$$##%$$$$#.-OO   -O     -O     -O     -O    -O  -OO;.... $>*>>&",
"&%$#%#%$%&#X-OO   -O     -O     -O     -O    -O  -OO@X... $>>=**",
"%$%%$##X%oo#-OO   -O     -O     -O     -O    -O  -OO XX.. $>>*%&",
"%$$#$$###ooo-OO   -O     -O     -O     -O    -O  -OO ##XX $>*>*%",
"%$&%&%#X##oo-OO+@-@O++   -O     -O     -O    -O  -OO X#XX $>*>$$",
"%&%$%&$#X###-OOOOOOOOO   -O     -O     -O    -O  -OO $XX. $>>$%$",
"#%%$#$$##XXX-OOOOOOOOO   -O     -O     -O    -O  -OO $#XX X>*>%%",
"#$$#X#X##X.X-OOOOOOOOO   -O     -O     -O    -O  -OO #X#X X>*%%$",
"#$XX#Xo#..XX-OOOOO OOO   -O     -O     -O    -O  -OO X#X. X**%$$",
"#%#XoXXX....-OO O   OO   -O     -O     -O    -O  -OO #X#. X*%$%$",
"#$%$XoXXX...-OO O   OO   -O     -O     -O    -O  -OO X#XX X*%%%$",
"#%$#XXoXXX..-OOOO O OO   -O     -O     -O    -O  -OO XXXX X%%%#%",
"           O-OOOO @ OO   -O     -O     -O    -O  -OO X...       ",
"      XXXX$O-OOOOO OOO   -O     -O     -O    -O  -OO X...  .XX. ",
"  %&*======X-OOOOOOOOO   -O     -O     -O    -O  -OO .X..  XX#X ",
"  &=====*&*X-OOOOOOOOO   -O     -O     -O    -O  -OO       .XX. ",
"  &=**&**==X-OOOOOOOOO   -O     -O     -O    -O  -OO            ",
"  ===**==**X-OO          -O     -O     -O    -O  -OO ======***& ",
"  =&*&*****X-OO   OO     -O     -O     -O    -O  -OO &***&&*=&$ ",
"  ==*%$**%=X-OO   +O     -O     -O     -O    -O  -OO &&*&%==%%$ ",
"  ==%&=*$&*X-OO   @O     -O     -O     -O    -O  -OO %&*%$#%X$# ",
"  ====&$=$*X-OO   -O     -O     -O     -O    -O  -OO@&*&%%&###X ",
"  =&=%&&=*%.-OO   -O     -O     -O     -O    -O  -OO;&%%$&$$%XX ",
"  =*%%=>=&$.-OO   -O     -O     -O     -O    -O  -OOO*&%*#X%%XX ",
"  =&=&><>%%.-OO   -O     -O     -O     -O    -O  -OO@%#%#$%%#X# ",
"  =*=&=>=&#.-OO   -O     -O     -O     -O    -O  -OO;$&$#$&$X#X ",
"  =&=&**$$$.-OO   -O     -O     -O     -O    -O  -OO@#$%%%$X##X ",
"  &=&%&##&$.-OO   -O     -O     -O     -O    -O  -OO X#$%#XXXX# ",
"  =&=*$$*##.-OO   -O     -O     -O     -O    -O  -OO XX###X#..X ",
"  =&=&%$#X..-OO   -O     -O     -O     -O    -O  -OO #XX###X... ",
"  *&$$$&X...-OO   -O     -O     -O     -O    -O  -OO #X#X#X#X.. ",
"  *&XX$X&#..-OO   -O     -O     -O     -O    -O  -OO #XXXX#X#XX ",
"  &&$$X$#X#X-OO   @O     @O     @O     @O    @O  ;+O X#X..XXXXX ",
"OO&%#$%XX#XX@OO@@-------------------------------;;+O.#XX...XXXXO",
"++%#o$o$oooo+OOOOOOOOOOOOOOOOOOOOOOOOOOOOOOOOOOOO++O..ooooooooo+",
"----------------------------------------------------------------"
};
