/* XPM */
static char *result[] = {
/* columns rows colors chars-per-pixel */
"64 64 5 1 ",
"  c #28200C",
". c #382C14",
"X c #403018",
"o c #483818",
"O c #5C4020",
/* pixels */
"                                                                ",
"XXXXXXXXXXXXXXXXXXXXXXXXXXXXXXXXXXXXXXXXXXXXXXXXXXXXXXXXXXXXXXXX",
"OOOOOOOOOOOOOOOOOOOOOOOOOOOOOOOOOOOOOOOOOOOOOOOOOOOOOOOOOOOOOOOO",
"                                                                ",
"  Xoooo O  O.    oo X X   O  Oo o O  O.   . O  O o  o o oo O  OX",
"  Xooo. O  OX    oo X X   O  Oo o O  Oo. .o O  O o  o o oo O  OX",
"  .ooo  O  Oo    oo X X   O  OX o O  Ooo.oo O  O o  o o oo O  OX",
"   Xoo  O  Oo   .oX X X   O  OX o O  Oooooo O  O o  o o oo O  OX",
"X  .o.  O  Oo.  XoX X X   O  OX o O  Oooooo O  O o  o o Xo O  O ",
"X   .   O  OoX .oo. X X   O  O. o O  Oooooo O  O o  o o Xo O  O ",
"o       O  Ooo.Xoo. X X   O  O. o O  Oooooo O  O o  o o .o O  O ",
"o       O  OooXooo  X X   O  O  o O  Oooooo O  O o  o o .o O  O ",
"Xo    o O  OooXooo  X X   O  O .o O  OXoooo O  O o  o o  o O  O ",
"Xo    o O  OoooooX  X X   O  O .o O  OXoooX O  O o  o o  o O  O ",
".oo  oo O  OoooooX  X X   O  O oo O  O.oooX O  O o  o o  o O  O ",
" ooo o. O  OXooooX  X X   O  O.oo O  O XoX. O  O o  o o  o O  O ",
" Xoo.o  O  OXoooo.  X X   O  O.oX O  O .X.  O  O o  o o. o O  O ",
" Xoooo  O  O.oooo.  X X   O  OooX O  O  .   O  O o  o o. X O  O ",
" .Xooo  O  O.oooo   X X   O  Ooo. O  O      O  O o  o oX X O  OX",
"  Xoo.  O  O Xooo   X X   O  OoX. O  O      O  O o  o oX X O  OX",
"  .oo   O  O XooX   X X   O  OoX  O  O      O  O o  o oX . O  OX",
"   oo   O  O .ooX   X X   O  Oo.  O  O.   . O  O o  o oo . O  OX",
"   .    O  O .oo.  .X X   O  OX   O  OX. .X O  O o  o Xo   O  OX",
"        O  O  XX.  .X X   O  O.   O  OoX.Xo O  O o  o Xo   O  OX",
"        O  O  ..   .. X   O  O    O  OooXoo O  O o  o .o   O  O.",
"X     X O  O       X  X   O  O    O  Oooooo O  O o  o .o.  O  O ",
"X     X O  O       X  X   O  O    O  Oooooo O  O o  o  o.  O  O ",
"X     . O  O       o  X   O  O    O  Oooooo O  O o  o  oX  O  O ",
".       O  O      .o  X   O  O  . O  OXoooo O  O o  o  oX  O  O ",
" X   X  O  O      .o  X   O  O  X O  OXoooo O  O o  o  oo. O  O ",
" X   X  O  O      Xo  X   O  O  X O  O.oooX O  O o  o  oo. O  O ",
" .  X.  O  O      Xo  X   O  O .o O  O.XooX O  O o  o  XoX O  O ",
"  X X   O  O.     oX  X   O  O Xo O  O Xoo. O  O o  o  XoX O  O ",
"  X X   O  OX    .oX  X   O  O.oo O  O .oX  O  O o  o  .oo O  O ",
"  .X.   O  Oo.   .o. .X   O  OXoo O  O  X.  O  O o  o  .oo O  O ",
"   .    O  OoX   oo  .X   O  Oooo O  O  .   O  O o  o   oo O  O ",
"        O  Ooo. .oo  .X   O  OooX O  O      O  O o  o   oo O  O.",
"        O  Oooo.ooo  XX   O  OooX O  O      O  O o  o.  oo O  OX",
"        O  OooooooX  XX   O  Ooo. O  O      O  O o  o.  Xo O  OX",
"        O  OXoooooX  oX   O  OoX. O  O.     O  O o  oX  Xo O  OX",
"      . O  OXooooo.  oX   O  OoX  O  O.     O  O o  XX  .o O  O ",
"X     . O  O.ooooo   o.   O  Oo.  O  OX.  . O  O o  Xo  .o O  O ",
"X     X O  O ooooo   o.   O  OX.  O  Oo. .. O  O o  .o   X O  O ",
"X.   .X O  O XoooX   o    O  OX   O  OoX..X O  O o  .o   X O  O ",
"XX   X. O  O .ooo.  .o    O  O.   O  Ooo.Xo O  O o   o   . O  O ",
".X. .X  O  O  XoX   Xo    O  O    O  OooXoo O  O o   o.  . O  O ",
" XX.XX  O  O   X.   Xo    O  O    O  Oooooo O  O o   o.    O  O ",
" XX.XX  O  O        oX    O  O    O  Oooooo O  O o   oX    O  O ",
" XoooX  O  O        oX    O  O  . O  OooooX O  O o   oX    O  O ",
" .oooX  O  O       .o.    O  O  X O  OXoooX O  O o   Xo.   O  O ",
"  XooX  O  O.      Xo.    O  O .o O  OXooo. O  O o   Xo.   O  O ",
"  Xoo.  O  OX      Xo     O  O Xo O  O.ooo. O  O o   .oX   O  O ",
"  .oX.  O  Oo      oX     O  OXoo O  O.ooX  O  O o   .oX.  O  O ",
"   XX   O  Oo.    .oX  .  O  Oooo O  O XoX  O  O o    Xo.  O  O.",
"   X.   O  OXX    Xo.  .  O  Oooo O  O Xo.  O  O o    .oX  O  O.",
"   ..   O  OXo    Xo   X  O  Oooo O  O .X   O  O o    .oX  O  OX",
"        O  O.oX   oo   X  O  Oooo O  O  .   O  O o     Xo  O  OX",
"        O  O XoX ooX   X  O  Oooo O  O      O  O X.    .oX O  Oo",
"        O  O .ooooo.   o  O  OooX O  O      O  O XX    .oX O  Oo",
".     X O  O  ooooX   .o  O  OooX O  O      O  O .X     XX O  Oo",
".     X O  O  .XoX.   Xo  O  OoX. O  O      O  O .o     .. O  Oo",
"X     X O  O   .X.    Xo  O  OoX. O  O      O  O  o        O  Oo",
"X.    X O  O    .    Xoo. O  OX.  O  O      O  O. o.       O  Oo",
"....... O  O.       ..... O  O.   O  O.   . O  O. ..       O  O."
};
