/* XPM */
static char *result[] = {
/* columns rows colors chars-per-pixel */
"64 64 14 1 ",
"  c gray22",
". c #484848",
"X c gray33",
"o c #646464",
"O c gray44",
"+ c #7C7C7C",
"@ c #A40000",
"# c #B00000",
"$ c #BC0000",
"% c #C80000",
"& c gray55",
"* c #989898",
"= c gray66",
"- c #B4B4B4",
/* pixels */
"                                                                ",
" XXXXXXXXXXXXXXXXXXXXXXXXXXXXXXXXXXXXXXXXXXXXXXXXXXXXXXXXXXXXXX ",
" XXoooooooooooooooooooooooooooooooooooooooooooooooooooooooooooo ",
" X.+++++++++++++++&+&+&+&&&&*&*****&&&&+&+&+&+++++O+O+O+OOoOOoo ",
" X.++*-*+++*-*+&+*-*+&&&&&&*&***&*&&&&+&+&+&+++++O+O+O+OOoOoooo ",
" X.++O*-+++O*-&+&O*-&&&&*&*****&&&&&&+&+&+&+++++O+O+O+OOoOooooo ",
" X.++XO*+&+XO*+&+XO*&&&*&****&&&&&&&+&+&+&+++++O+O+O+OO+&&Ooooo ",
" X.+++&+&+&+&+&&&&&&*&***-oX...................Xo*&+OOOO*&ooooo ",
" X.&+&+&+&+&&&&&&&&*&*****-OOOOOOOOOOOoooooooooO*&+OOOOXO+ooooo ",
" X.+&+&+&&&&&&&&*&*******&*-&&&+&+&+&+&+++++++O*&+OOOOoOooooooo ",
" X.&+&+&&&&&&&&*&*******&&*-*&+&+&+&+&+++++++O&*+OOOOOOoOoooooo ",
" X.+&&&&&&&&*&*********&&&&*-*&+&+&+&+++++++O&*&O+OOOOoOooooooo ",
" X.&&&&&#&&*&*******&*&&&&&&*-*&+&+&+++++++O&*&O+OOOOoOoooooooO ",
" X.&&&&##%*******++&*&&&&&&+&*-+&+&+++++++O+*&O+OOOOoOooo.ooooo ",
" X.&&&#$$$%******=o+&&&&*-*&+&=&+&+++++++O+&*O+OO+&&OoooX.ooooO ",
" X.&*%$$$$$%****&-+o&&&&O*-+&+&=&+++++++O+&*&+OOOO*&oOoXX.oooOo ",
" X.*%$$$$$$$%***&-&Xo&&&XO*&+&+&=&+++++O+&*&+OOOOXO+OooXX.ooooO ",
" X.**********&*&&-&+Xo&+&+&+&+&+&=&+++O+&*&+OOOOOOoOooXoX.oooOo ",
" X.*********&*&&&-&&+Xo&+&+&+&+++&=++++O*&+OOOOOOoOooXooX.ooOoO ",
" X.*$$$$$$$#@&&&&-&&&oX+&+&+&+++++=&++O&*+OOOOOOoOooXoooX.oooOo ",
" X.**$$$$$#@&&&&&-&&+&.o+&+&++++++&=&O&*&O+OOOOOOoOoXoooX.ooOoO ",
" X.***$$##@&&&&&&-&+&+o.o+&++++++++&=&*&O+OOOOOOoOoXooooX.oOoOO ",
" X.***&##@&&&&&&&-+&+&+o.o+&++*=*++O&=&O+O+&&OOoOoXoooooX.ooOoO ",
" X.**&*&@&&&&&&&&-&+&+&+o.o+++O*=+O+O+O+OOO*&OoOoXooooooX.oOoOO ",
" X.*&*&&&&&&&&&&+-+&+&+&+o.+++XO*O+O+O+OOOXO+OOoXXooooooX.OoOOO ",
" X.&*&&&&&&&&+&+&-&+&+&+&+.o++++O+O+O+OOOOOOOOooXoooooooX.oOoOO ",
" X.*&&&&&&&&+&+&+-+&+&+&++o.o++O+O+O+OOOOOOOOooXooooooooX.OoOOO ",
" X.&&&&&&&&&&+&+&-&+&+&++++o.oO+O+O+OOOOOOOOooXoooooooooX.oOOOO ",
" X.&&&&&&&&&+&+&+=+&+&++++++o.+O+O+OOOOOOOOoOXXoooooooooX.OoOOO ",
" X.&&&&&&+&+&+&+&=&+&++++++++.o+O+OO+&&OOOOOoXooooooooooX.oOO+O ",
" X.&&&+&+&+&+&+&+=+&+++++++++o.O+O+OO*&OOOOoXoooooooooooX.OO+O+ ",
" X.&&&&+&+&+&+&+&=&+++++++++O+&+O+OOXO+OOOoO+oooooooooooX.oOO+O ",
" X.&+&+&+&+&+&+&+=+&+++++++O+&*&+OOOOOOOOoOo&+ooooooooooX.OO+O+ ",
" X.+&+&+&+&+&+&+&=&+++++++O+&*&+OOOOOOOOOOoO+&+ooooooooOX.O+O+O ",
" X.&+&+&+&+&+&+&+=+++++++O+&*&+OOOOOOOOOOoOoo+&+ooooooooX.OO+O+ ",
" X.+&+&+&+&+&+&+&=++++++O+O&*+OOOOOOOOOOoOoooo++oooooooOX.O+O+O ",
" X.&+&+&+&+&+&+&+=+++++O+O&*+OOOOOOOOOOoOoooooo++oooooOoX.+O+O+ ",
" X.+&+&+&+&+&+&++=++++++O&*&OO+&&OOOOOoOooO&+oo+&+oooooOX.O+O+O ",
" X.&+&+&+&+&+&+++=+++++O&*&OOOO*&OOOOoOoOoO&&ooo+&+oooOoX.+O+O+ ",
" X.+&+&+&+&+&++++=++++O&*&O+OOXO+OOOoXXOooXOOoooo+&+oOoOX.O+O+O ",
" X.&+&+&+&+&+++++=+++O+&*O+OOOOOOOOoXo.Xoooooooooo+&ooOoX.+O+O+ ",
" X.+&+&+&+&++++++=++O+&*O+OOOOOOOOoXoOX.Xoooooooooo+&OoOX.O+O+O ",
" X.&+&+&+&+++++++=+O+&*&+OOOOOOOOOXoOoOX.oooooooooo+*&OOX.+O+O+ ",
" X.+&+&+&++++++++=O+&*&+OOOOOOOOOoXOoOoo.Xoooooooooo&*&Oo.O+O+O ",
" X.&+&+&+&+++++++=+O*&+OOOOOOOOOoXooOoooX.XoooooooooO&*Oo.+O+O+ ",
" X.+&+&+&+++++++O=O&*+OOOOOOOOOoXooOoooooX.XoooooooOoO*&OXO+O+O ",
" X.&+&+&+++++++O+=&*&OO+&&OOOOoXooOoooooooX.XooooO&+Oo&*&o+O+O+ ",
" X.+&+&+++++++++O=*&OOOO*&OOOOXoOOoOoooooooX.ooooO&&oOO&*OO+O++ ",
" X.&+*-*+++++++O+=&OOOOXO+OOOoXOOoOooooooooo.XoooXOOOOOO&O+O+O+ ",
" X.+&O*-++++++O+O=O+OOOOOOOOoXoOoOooooooooooX.XooooOoOO+O+O+O++ ",
" X.&+XO*+++++O+O+O+OOOOOOOOoXoOoOooooooooooooX.XooOoOOOO+O+O+O+ ",
" X.+++++++++O+O+O+OOOOOOOOOXoOoOooooooooooooooX.oOoOOOO+O+O+O++ ",
" X.++++++++O+O+O+OOOOOOOOOoXOOOoOoooooooooooooo.XoOoOOOO+O+O+++ ",
" X.+++++++O+O+O+OOOOOOOOOoXoOOoOoooooooooooooooX.XoOOOO*-*O+O++ ",
" X.++*-*+O+&**+OO+&&OOOOOXO*****&&&&&&&&&&&&&&&&O.OOOOOO*-+O+++ ",
" X.++O*-O+OO**OOOO*&OOOOOOOOoOoooooooooooooooooooOoOOOOXO*O+O++ ",
" X.++XO*+O+XO&OOOXO+OOOOOOOOOoOooooooooooooooooOOoOOOO+O+O+O+++ ",
" X.+++++O+O+OOOOOOOOOOOOOOOOoOoooooooooooooooooOoOOOO+O+O+O+O++ ",
" X.++++O+O+O+OOOOOOOOOOOOOOoOoooooooooooooooooooOoOOOO+O+O+O+++ ",
" X.oooooooooooooooooooooooooooooooooooooooooooooooooooooooooooo ",
" X............................................................. ",
" XXXXXXXXXXXXXXXXXXXXXXXXXXXXXXXXXXXXXXXXXXXXXXXXXXXXXXXXXXXXXX ",
" XXXXXXXXXXXXXXXXXXXXXXXXXXXXXXXXXXXXXXXXXXXXXXXXXXXXXXXXXXXXXX ",
"                                                                "
};
