/* XPM */
static char *result[] = {
/* columns rows colors chars-per-pixel */
"64 64 35 1 ",
"  c black",
". c #202020",
"X c #2C2C2C",
"o c gray19",
"O c #343434",
"+ c gray22",
"@ c #400000",
"# c #4C0000",
"$ c #580000",
"% c #640000",
"& c #700000",
"* c #7C0000",
"= c #404000",
"- c #585400",
"; c #706C00",
": c gray25",
"> c #484848",
", c gray33",
"< c gray36",
"1 c #646464",
"2 c #880000",
"3 c #980000",
"4 c #A40000",
"5 c #B00000",
"6 c #BC0000",
"7 c #C80000",
"8 c #D40000",
"9 c #E00000",
"0 c #EC0000",
"q c #848400",
"w c #9C9C00",
"e c #B4AC00",
"r c #CCC400",
"t c #E4D800",
"y c #FCF400",
/* pixels */
"++++++++++++++++++++++++++++++++++++++++++++++++++++++++++++++++",
",+,>>>>>,>>>>>>,>+>>>>>>>,,,,,,>>>>>>>>>,,,,,,,>>>>+++>>,,>>>>>+",
"+008888888884>>,008888888888888888884>+,00009999998888877776664>",
">07558248274%X>,06262626*63636*6*674&X>+84757557&7*757254*7374*X",
">84*4243&42&%X>,862242&44&344&34&43&$X>,844*%42&24*24424*24$4&%X",
">8*44&344&4$@X>,826424&424&4&2*4&3*&$X>>8&4%24%4&4*424%43*4*4&#X",
">74*23*4&24&@X>,66242234&;wrrrrewerrrrr;6&4*42%4&&44&4244*4$42#X",
">6*44&43&3&$@X>>6724&4&ww;qerrewttttttteww4%24*2&2*424%4*24*4&@X",
">64&2$&*$&2&@X+,33&&#;;ww;;;eeqrrrrrr;-;ww;;&&#2#&$2#&#2%#&2&2@X",
">*%%%@@@@@@@@X+>*%%;ww;--qtq;eqeeeetyrtq--;ww;%%%%%$$$$$$$$$@@@X",
">>XXXXXXXX...X+,>X-qwwtttttrq;wwwwwywrrwtt;wwq-XXXXX.....XXXXXXX",
",++++>>>>+++++>+>----;ttyyqqw;qqqqq-wqqyyet;----<,,>>:+:,+,>>>,+",
"0888666666666664-ww;tttrqq;r=;;;;;;-rr;qqrwtt;ww-#&64>:,00888888",
"52253*5*325%524ww-w-tyyqwwe;=------w-;ewwqyyt-w-ww##&+>+07*52525",
"2424*22%42%244-ww---eqq;;rr-=======ww-rr;;qqe---ww-#@+>,75*42*43",
"&4423%4*223%4----qrq-qwq----=======qq----qwq-qrq----@.:>7*444*4*",
"42242**2*43%ww--qrtt-;rr-w;==...;XX===ww-rr;-tqrq--ww..>75*4*43*",
"&4%4&2*3%4%2ww-tttq=;----;.....;qeXXXXq-----;=tqtt-ww..>5*44$4*2",
"&5%&#*&3&3&===qetqtw;ww;-.....;qqqyXXXXX-;ww;wttqtq=== .54*&$&3&",
"@##########-=tetqwq=--w;.....;qqqqewX+XXXww--=qwtqtt=- .4%@%@@%@",
"XXX.XXX...wwqrwtqet;w--.....;qqqqq-XX++XXX--w;ttrqwrqww ....XXXX",
",,>++>,+,+wwq;ttqwr-;w.....;qqqqq-XX,,,+XXXw;-rwwrq;qww ..+:,>>>",
",008888888;-tttqe;-w-.....;qqqqq-XX,,yy,+XXX-w-;ttqtt-;#$&66664>",
",0256*6*6q;-tetqet-w;....;qqqqq-XX+,yeey,+XXww-ttrtwt-;q##%4$4@X",
"+052434*&w;-ertqer--....;qqqqq-XX+,yeqqey++XX--reetqe-;w#@#&*&@X",
">6%44&2$4ww--;;ee=;;....-;qqqqqe-+yeqqqqey+XX;;=ee;;--ww@@##$&@X",
">6524#4$&wq-=;;;=ww-...X+-;qqqqeyyeqqqqqqey+X-ww=;;;=-qw##@#&&@X",
",6&%4#2*4w---tt=www..;wX++-;qqqqeeqqq-qqqqeyXXwww=tt---w@@##&&@X",
">74%&&&$&q--;tw----.;qqy+++-;qqqqqqq-X-qqqqeyX----er;--q#@##&&@X",
">43%%%%%%-;eetqtt;;;wqqey+++-;qqqqq-XXX-qqqqq-;;ttrwtt;-@@@#&$@X",
">>+XXXXXX-;rttqew-wX-qqqey+++wqqqqqqyX+X-qqq-Xw-werwwr;-   ...XX",
",,,,,>>+>-=;ttqq--wXX-qqqey+yqqqqqqqwy++X-q-XXw--wtqw;=-....>>,+",
"666666666w-=;wqtt;;-XX-qqqeyeqqq-qqqqwy++X-++;;;tttq;=-w#$%&6666",
"454537557ww;eetqe-w;XXX-qqqeqqq-X-qqqqwy++++>ww-eetqt;ww##@#&4&4",
"4*2434*42--;rtrqq---XXXX-qqqqq-XXXwqqqqww+>>,---qerqr;--@###&32&",
"2*43*4*34&-=;ttqtq-q-XXXX-qqq-XXXyqqqqq-XX+,;qqqttqw;=-@#@##&*4&",
"42*4343*2&;-=;wtqet-qXXXXX-q-XXXywqqqq-XX++>q-teetq;=-;@#@@#&*&2",
"42*4*4*34&eq-ettqtw-w;X+XXX-XXXywqqqq-XX+>,;w-wtrqtt-qe@@@##&24&",
"&&23&&3&&&q;-retqq==-;;++XXXXXywqqqq-XX+>,;ww==qqqer-;q@#@#&*44&",
"@@#######@@-=;tw;;-;;-ww>+XXXwwqqqq-XX+>,;w--;-;;wt;=-@@@@#$$$$@",
"XXXXXXXXXXX--=;;=tw;tt--;>>>+X-qqq-XX+>>;--rr;wt=;;=--   ....XXX",
",>,+>++>>+++-;---;tttr;;-e,,>XX-q-XX++;w-;;rtrt;---;-  ....+,+,+",
"+0888888866&#wwq-q;ttqet-w;rwXXX-XXqerrw-weqrq;q-qww##$$&&66664>",
",84224%44*3&#;wq-;wqttttrqq;rrrrqrrrrrq-retrqqw;-qw;@####*3&24@X",
">84%42%423*4%#;--;rw;tttwrt;werqtttttqwe;rrq;wr;--;#@####&34%2@X",
">82%4%2&%4%4&##-;--;wqqttttq;eqrrrrrrqetrqqew;--;-#@#@@#*4&2%4@X",
"+84242%42*34*$##;eq=rq;qqttw;eqeeeeeeqrrqe;wr=qe;##@@#@#$*&424@X",
",84%24%4%4%4%&###;--===weqqq;qwwwwwww;qqew===--;##@@#@#*$*32%&@X",
"+74%4%2&23*422&####-wq=rrw-q;qwwwwwww--wrr=qw-#@@@#@##&$*3&4%4@X",
",4%%%%%%%%%#########;w-=-----qqqqqqqq-;--=-w;@@@@@@@@@#######@@X",
"+>XXXXXXXXXX+++X.     -;;;q--;;;;;;;;-q;;;-      ..X.XX...XXXXXX",
",+,+,>,>>>>,11,>++X..   qqq-----------qqq     ..X.XXX++o..o+>>,>",
"888886666666666664>+X%$$#@@@=========@@@@@####@..X08888866666666",
"*4$44%3%4*7*4%4*4@X>+8######@@@@@@@@@@@@@@@@@@@.XX84%24$4&4&4%4&",
"4**4*4%3*%4$*%2%2@X>>8*&#####@#@#@@@#@#@@@#@@#@.XX8%4$4&4&24&42#",
"4*$*4%3%*4*$42%3*@X>:8**&&%##@#@@#@@#@@@#@@@##@.X+8%4&&442&2&%&2",
"*3$3%%4%4*4$*&%4%@X>:84#&4%&#&#@###@#@##@#####@X+>84%$42&&4&4%&4",
"%4*4%4%24%4*$24*2@X>:8#44%4*&2$*#&#&%#$%#&$*&%@X>>8%424&42&&$4&4",
"%4**%33%3%*$4%4%3@X>>8#4&4%**2#3%##%*$$2#4$4$2@X+>8%4$&$4&4&$%4#",
"*3$4%%2%**4$4%&2*@X>,74#&4%4#2%4#*&%4%*4%2&2%2@X+>7%%$4$4&4&4%4&",
"################@@X>>4@@@@@##################@@.>,4@@###########",
"XXXXXXXXXXXXXXXXXXX>,>+OOXXXXXXXXXXXXXX.....X...+>>XXXXXX.....XX",
"+,+,+++>>>>>,,+>>>>,,,,,>>>,>>>,>>+>>>:++:++:>:+:,>>+,>>>>:+:>>>",
",,,,,,,,,,,,,,,,,,,,,,,,,,,,,,,,,,,,,,,,,,,,,,,,,,,,,,,,,,,,,,,,"
};
