/* XPM */
static char *result[] = {
/* columns rows colors chars-per-pixel */
"64 64 46 1 ",
"  c black",
". c gray11",
"X c #382C14",
"o c #202020",
"O c #282828",
"+ c #2C2C2C",
"@ c gray19",
"# c gray22",
"$ c #400000",
"% c #4C0000",
"& c #580000",
"* c #640000",
"= c #700000",
"- c #7C0000",
"; c #543C1C",
": c #585400",
"> c #706C00",
", c #5C4020",
"< c #6C4824",
"1 c #744C28",
"2 c #400040",
"3 c #480048",
"4 c #500050",
"5 c #580058",
"6 c #6C0070",
"7 c gray25",
"8 c #484848",
"9 c gray33",
"0 c #646464",
"q c gray44",
"w c #7C7C7C",
"e c #880000",
"r c #980000",
"t c #A40000",
"y c #B00000",
"u c #BC0000",
"i c #C80000",
"p c #80502C",
"a c #885830",
"s c #905C34",
"d c #848400",
"f c #9C9C00",
"g c #B4AC00",
"h c gray55",
"j c #989898",
"k c gray66",
/* pixels */
"################################################################",
"#o#+++++#++++++#+o+++++++######+++++++++#######++++ooo++##+++++o",
"oiiiittttttte++#uuuuyyyyttttrrrrrrrre+o#iiiiyyyyytttttttrrrrrre+",
"+fyrru=eu=ye%o+#ut=t=t=t*t-t-t*t*tye&o+oieyryrry&y*yry=re*y-yefo",
"fddhhhhhhhhhhhhhhhhhhhhhhhhhhhhhhhhhhhhhhhhhhhhhhhhhhhhhhhhhhgg>",
"1>:8899999999999999999999999999999999999999999999999999999888:a:",
"+Xe9999qqqqqqqqqqqqqqqqqqqqqqqqqqqqqqqqqqqqqqqqqqqqqqqqqq9899$,o",
"+-*q9t=$$+%%%%%%%%%%%%%%%%%%%%%%%%%%%%%%%%%%%%%%%*eriy9$$$9j8$%o",
"+-ew9=jq8$9wjkjjhhhhhhhhhhhhhhhhhhhhhhhhhhhhhhhhjjjjj9$98qu98$%o",
"+*%hq$qjq90qww09wkjhhhhhhhhhhhhhhhhhhhhhhhhhhhh03#jhwww8wk-89%%o",
"++okw$qwjq99qq#28wkkjjhhhhhhhhhhhhhhhhhhhhhhjj0#2oqwwqqwk9$9q  o",
"#ookh+8qhjq990o+229wkjjjjjhho8#oooo,1sqhhhjj0#2+ooqqqqwkj#+0w oo",
"yyyhk$9qwhjq8#+.oO+29whhhhhhooooo9o,,1shhh0#2+ooo+qqqwjjw9$qw$*y",
"r==hk=q0qwh948#+..oO++290hhh8oooooo,0hh0#22++ooo+88o8wjw09$wh$$r",
"=e=hkywq0q955+8#+o.oo5++280hhoooooo0h0#22+5ooo.+8#3258wq90%wh$$-",
"&eehhrhq002454++#++o.2o++22hhoooooohh+22+o2..o+#+o2455q090%wh$$*",
"e==hh=jwq0.24542++#+o..oo+#hhoooooohh#OOoo..o++.oO35430900%wh$$*",
"&e%hh%khwq+.22332+oo.....0hh8oooooo8hh0oo......oO2443#090q%hh$$=",
"&r%hh%kjhq#+.22232O3....0o8hooooooooh8.0....+..O2333#9900w%hh$$&",
"%&%hh%kk#o8#+oO223+5oo..o.ohhoooooohh......+3oO223#9#++#qw%hh$$%",
"ooohh%hk+o.+#++O223O5ooo.o.9#oooooo#9......3++22#09#+...qw%hh  o",
"##+hh%hk2+oo.o+++##+oOoo..oooooooooo......oO+##09#o.....ww%hh oo",
"#uuhh%hh22Oo....oo+6+oOoOooooooooooo.....oOO6++OOo.....+ww%hh$*o",
"#y=hh%hq+2+oo....oo2OOoOoOooooooooooo..ooOOO5++Oo......+qw%hh$$o",
"oyrhh%hq8+2Oo......2OoOoOooo###88###ooooOOO+4+Oo.......8qw%hh$$o",
"+y%hh%hqq8++Oo..o.oO2Ooooooo#252252#oooOOO+4+Oo......+8qqh%hh$$o",
"+yrhh%ho++#88##++OO.oO2Ooooo95222259ooOoO4++OooOOOO++#+23h%hh$$o",
"#y&hh%hoo++++o.o.o.o.oO22ooo+222222+oOo34O+OoO.......o+23h%hh$$o",
"+yehh&hooooooooooooooooooooo8o2222o8ooOOOOOoOooooooooooooh%hh$$o",
"+e-jj&jooooooooooooooooooooo+25o252+oOoOoOoOoooooooooooooh%hh$$o",
"++ojj*jooooooooooo++oooo+ooo#+2o22+#ooooOoOooooooooooooo+h%hh  o",
"###kk*k#oooooooo+#ooooo+oooo+#@++@#+oooOoOoooo#oooooooo+#h%hh .o",
"tttkk*kq#+ooo+##+ooooo#ooooooo+@@+ooooooo#ooooo+88+ooo+#qh%hh$*t",
"erejj*jhhqqq98+oooooo#oooooooooooooooooooo#oooooo+89qqqhhh%hh$$e",
"e*=jj&jhq98+oooooooo8oooooooooooooooooooooo8oooooooo+89qhh%hh$$&",
"=*ehh&hh+oooooooooo8oooo8o8oooooooooo8o8oooo8oooooooooo+hh%hh$$&",
"e=*hh%hh+ooooooooo8oooo#q8oooooooooooo8q#oooo8ooooooooo+hh%hh$$=",
"e=*hh%hh8oooooooo8oooooqooooooooooooooo#qooooo8oooooooo8hh%hh$$&",
"&&=hh%hhq+oooooo8oooooqooooooooooooooooo#qooooo8oooooo+qhh%hh$$&",
"%%%ww$www8+ooo+8ooooooooooooooooooooooooo##ooooo8oooo+8hhh%hh$$%",
"oooww$wwww8+o+8ooooooqooooooooooooooooooooq#ooooo8oo+8hhhh%hh  o",
"#+#ww$wwwhwqqqq8ooo+qh5oooooo8oooo8oooooo5hq#ooo#qqqqhhhhh%hh oo",
"ouuww$wwhwhwhhqq8++qhhh8oooooooooooooooo8hhhq#o#qqhhhhhhhh%hh$*o",
"#ueww$whwhwhh9aa9hhhh9,oooooooooooooooooop9hhhh9pp9hhhhhhh%hh$$o",
"+yehh%hhhhhhha,1aassaaa1,oo8hooooooh8oo,paasssaa1;1hhhhhhh%hh$$o",
"+y=hh%hhhhhhhh9#,ssaap,9hhhh8oooooo8hhhh9,1pssp,#9hhhhhhhh%hh$$o",
"oyehh%hhhhhhh0aaasa1,,<ahhh8oooooooo8hhha1,,1ssap10hhhhhhh%hh$$o",
"#yehh%hhhhhhha,,0aa,00,<h9oooooooooooo9h1,00,ap1,,1hhhhhhh%hh$$o",
"oyehh%hhhhhhh190h1ahhhh9+oooooooooooooo+9hhhhaph09,hhhhhhh%hh$$o",
"#e%hh%hhhhhhhhhhh,1hh9+oooooooooooooooooo+9hh1,hhhhhhhhhhh%hh$$o",
"o+ohh%qhhhhhhhhhh0,h8oooooooo9oooo9oooooooooh,0hhhhhhhhhhq%hh  o",
"#o#hh%9hhhhhhhhhhhhh0+ooooo9hooooooh9ooooo+9hhhhhhhhhhhhh9%hh oo",
"tttwh9%9qhhhhhhhhhhhhq9+o#9h9oooooo9h9#o+9hhhhhhhhhhhhhq9%9hw$*t",
"*e%0hh9%%%9qhhhhhhhhhhhhhhhh8oooooo8hhhhhhhhhhhhhhhhq0%%%9qh0$$&",
"e**80hhhq9%%%%9qhhhhhhhhhhhhh8oooo8hhhhhhhhhhhhhq9%%%%0qhhw08$$%",
"e*%$$80whhhhq9%%%9qhhhhhhhhhhh8oo8hhhhhhhhhhhq9%%%9qhhhhw08$$$$=",
"*-%$$$$80whhhhhq9%%%9qhhhhhhhhh88hhhhhhhhhq9%%%9qhhhhw08$$$$$$&e",
"%e*e$$%$$$$80whhhhq9%%%9qhhhhhhhhhhhhhhq9%%%9qhhhhw08$$$$$$&%e&e",
"%e**%-$$$%$$$$80whhhhq9%%%%9qhhhhhhq9%%%%9qhhhhw08$$$$$%$&e&%%e%",
"*-%e%%=%*$$$$$$$$$80whhhhq9%%%9qq9%%%9qhhhhw08%   $$$$$%e&e&e%e&",
"%%%%%%%%%%$$$$$$$$ ..80whhhhq9%%%%9qhhhw08%%%%% ..$%%%%%%%%%%%%%",
"oooooooooooo       ......80whhhhhhhhw08........ooooooooooooooooo",
"o#o#ooo+++++#oooooooooo......80ww08........oooooo#++o#++++ooo+++",
"888888888888887777#########################777788888888888888888"
};
