/* XPM */
static char *result[] = {
/* columns rows colors chars-per-pixel */
"64 64 31 1 ",
"  c #2C2C2C",
". c gray22",
"X c #483818",
"o c #585400",
"O c #706C00",
"+ c #5C4020",
"@ c #004040",
"# c #005858",
"$ c #007070",
"% c #484848",
"& c gray33",
"* c #646464",
"= c gray44",
"- c #7C7C7C",
"; c #9C4C00",
": c #A85400",
"> c #B45400",
", c #80502C",
"< c #CC6000",
"1 c #A86840",
"2 c #B47044",
"3 c #C87C4C",
"4 c #9C9C00",
"5 c #FCFC54",
"6 c #008484",
"7 c #009C9C",
"8 c #00B4B4",
"9 c #00CCCC",
"0 c #00E4E4",
"q c gray55",
"w c #989898",
/* pixels */
"%qqqqqqwqwqwwwwwwwwwwwwwwwqwqwqqqq-q-q-q-q--------=-=-=-=-*=*=* ",
"%qqqwqwqwqwwwwwwwwwwwwwqwqwqqqqqqqq-q----------------========*= ",
"&w60qwqwqwwwwwwwwwwwwwqwqwqqqq-q-q-q-q-q--------=-=-=-=-==*=#6* ",
"&q#6wqwwwwwwwwwwwwwwwqwqwqqqqqqqq-q----------------========*@#= ",
"&wqwwwwwwwwwwwwwwwqwqwqqqqqq-q-q-q-q-q--------=-=-=-=-==*=*=*=* ",
"&wwwwwwwwwwwwwwwwqwqwqqqqqqqqqq-q----------------==========*=** ",
"&wwwwwwwwwwwwwwwqwqwqqqqqq-q-q-q-q-q--------=-=-=-=-====*=*=*=* ",
"&wwwwwwwwwwwwwwqwqqqqqqqqqqqq-q----------------=-========*=**** ",
"&wwwwwwwwwwwqwqwqqqqqqqq-q-q-q-q-q--------=-=-=-=-====*=*=*=*=* ",
"&w60wwwwwwwqwqwqqqqqqqqqq-q-q----------------=-==========*=*#$* ",
"&w#6wwwwwwqwqwqqqqqq-q-q-q-q-q-q----------=-=-=-====*=*=*=*=@#* ",
"&wwwwwwqwqwqqqqqqqqqqqq-q-q----------------=-==========*=****** ",
"&wwwwwqwqwqqqqqqqq-q-q-q-q-q-q----------=-=-=-=-====*=*=*=*=*=* ",
"&wwwwqwqwqqqqqqqqqqqq-q-q----------------=-==========*=*=****** ",
"&wqwqwqqqqqqqqqq-q-q-q-q-q-q----------=-=-=-=-====*=*=*=*=***=* ",
"&qwqwqqqqqqqqqqqqqq-q-q----------------=-============*=******** ",
"&w60qqqqqqqqqq-q-q-q-q-q-q----------=-=-=-=-====*=*=*=*=*=**#$* ",
"&q#6qqqqqqqqqqq-q-q-q------------------============*=*=*****@#* ",
"&qqqqqqqqq-q-q-q-q-q-q-q----------=-=-=-=-======*=*=*=*=***=*=* ",
"&qqqqqqqqqqqq-q-q-q------------------=-==========*=*=*********= ",
"&qqqqqqq-q-q-q-q-q-q-q----------=-=-=-=-======*=*=*=*=*=***=*=* ",
"&qqqqqqqqqq-q-q-q------------------=-============*=***********= ",
"&qqqqq-q-q-q-q-q-q-q----------=-=-=-=-========*=*=*=*=*****=*=* ",
"&q$9qqqqq-q-q-q------------------=-============*=*=*********#6= ",
"&q@$-q-q-q-q-q-q-q------------=-=-=-=-======*=*=*=*=*****=*=@#* ",
"&qqqq-q-q-q-q------------------=-==============*=***********=*= ",
"&q-q-q-q-q-q-q-q------------=-=-=-=-======*=*=*=*=*=*****=*=*=* ",
"&qq-q-q-q-q------------------=-==============*=*=***********=== ",
"&q-q-q-q-q-q-q------------=-=-=-=-========*=*=*=*=*****=*=*=*=* ",
"&-q-q-q-q------------------=-=-============*=*=***********=*===.",
"&q$8-q-q-q-q------------=-=-=-=-========*=*=*=*=*=*****=*=*=#6*.",
"&-@$q-q--------------------=-==============*=*************=*@#=.",
"&q-q-q-q-q------------=-=-=-=-========*=*=*=*=*=*******=*=*=*=*.",
"&-q-q--------------------=-==============*=*=***********=*=*===.",
"&q-q-q-q------------=-=-=-=-==========*=*=*=*=*******=*=*=*=*=*.",
"&-q--------------------=-================*=*************=*=====.",
"&q-q-q------------=-=-=-=-=-========*=*=*=*=*=*******=*=*=*=*==.",
"&-$8-333333333333333322222222222222221111111111111111111222&#7=.",
"&q@$,><<<<<<<<<<:::::::::::::::;;;;;;;;;;;;;;;;;;;;;;;;:::12@#=.",
"&----++++++++++++++++++++XXXXXXXXXXXXXXXXXXXXXXXXXXXXXX++++&*==.",
"&q----&&o4O&&&%%%%%%%%%%%%%%%%o4O%%..................o4O.%%**==.",
"&------*o5O------=-=-========%o5O====*=*************%o5O**=====.",
"&-------*o----=-=-=-=-========%o==*=*=*=*=*********=*%o**=*====.",
"&--------------=-=-================*=*=***************=*=======.",
"&-#7--------=-=-=-=-============*=*=*=*=*********=*=*=*=*=*=#7=.",
"&-@#---------=-=-================*=*=***************=*=*====@#=.",
"&---------=-=-=-=-=-==========*=*=*=*=*=*********=*=*=*=*=*====.",
"&------------=-==================*=*=***************=*=*=======.",
"&-------=-=-=-=-=-==========*=*=*=*=*=***********=*=*=*=*=*====.",
"&----------=-==================*=*=***************=*=*=========.",
"%-----=-=-=-=-=-============*=*=*=*=*=*********=*=*=*=*=*======.",
"%-#7-----=-====================*=*****************=*=*======#7=.",
"%-@#=-=-=-=-=-============*=*=*=*=*=***********=*=*=*=*=*===@#=.",
"%------=-=-==================*=*=*****************=*=*=========.",
"%---=-=-=-=-==============*=*=*=*=*=*********=*=*=*=*=*=*======.",
"%----=-=-==================*=*=*****************=*=*===========.",
"%-=-=-=-=-==============*=*=*=*=*=***********=*=*=*=*=*========.",
"%----=-====================*=*=*****************=*=*===========.",
"%-#6=-=-=-============*=*=*=*=*=*************=*=*=*=*=*=====#7=.",
"%-@#-====================*=*=*****************=*=*=*========@#=.",
"%-=-=-=-==============*=*=*=*=*=***********=*=*=*=*=*=*========.",
"%=-=-====================*=*=*****************=*===============.",
"................................................................",
"                                                                "
};
