/* XPM */
static char *result[] = {
/* columns rows colors chars-per-pixel */
"64 64 47 1 ",
"  c black",
". c #202020",
"X c #2C2C2C",
"o c gray19",
"O c gray22",
"+ c #4C0000",
"@ c #640000",
"# c #7C0000",
"$ c #706C00",
"% c #004040",
"& c #005858",
"* c #007070",
"= c gray25",
"- c #484848",
"; c #4C4C4C",
": c gray33",
"> c gray36",
", c #646464",
"< c gray44",
"1 c #7C7C7C",
"2 c #A40000",
"3 c #A80000",
"4 c #BC0000",
"5 c #D40000",
"6 c #FC0000",
"7 c #9C4C00",
"8 c #B45400",
"9 c #CC6000",
"0 c #E46C00",
"q c #FC5454",
"w c #848400",
"e c #9C9C00",
"r c #FC8820",
"t c #FCA85C",
"y c #008484",
"u c #009C9C",
"i c #00B4B4",
"p c #00CCCC",
"a c #00E4E4",
"s c gray55",
"d c #989898",
"f c gray66",
"g c #B4B4B4",
"h c #C0C0C0",
"j c #D0D0D0",
"k c gainsboro",
"l c gray99",
/* pixels */
"-ssssssdsdsdsdsdsdddddddddddsdsdssssss1s1s11111111<<<<<<<<<<<<<X",
"-sssdsdsdsdsdsdddddddddddsdsdsdssssss1s1s11111111<1<fd<fd<<<<<<X",
":dyasdsdsdddddddddddddddsdsdssssss1s1s1s11111111<1<,sf,sf,<<&y,X",
":s&ydsdsdddddddddddddsdsdsdssssss1s1s1111111111<1<1,sf,sf,<<%&<X",
":dsds::::::,,,,,,<<<<<<<<sssssss1s1s1111111111<1<1O;::::>>,<,<,X",
":sds1:1ffffffggggggghhhh<ssss1s1s1s11111111<1<1<1<O=-----::,<,<X",
":ddd1-<ssssddddddddddffh<sss1s1s1s11111111<1<1<1<<<O,<O,<:,<,<,X",
":ddd1-<sOsOsOsOdOdOdOdfh,ss1s1s1s11111111<1<1<1<<<<,sf,sf,<,<,,X",
":ddd1O<s-s-s-s-s-d-d-ddg,s1sfffgggghhkl1<1<1<<<<<<<,sf,sd,,<,,,X",
":dya1O<s-s-s-s-s-s-d-d:f,1s:f-ffg6ggh<k<1<1<<<<<<<<,sd,1d:<,&*,X",
":d&y1O<s:s:s:s:s:s:s:sdf:s1:ffff536gggh1<1<<<<<<<<<,1d:1d:,,%&,X",
":ddd1O<ssssssssssssssssf:11-dff53336ggg<1<<<<<<<<<<:1d:<d:,,,,,X",
":ddd<X<<<<<<<<<<<<<<<<<1:11-dd5333336gg<<<<<<<<<<<<:1d:<s:,,,,,X",
":dds<XXXXOOOOOOO-----::::11-dd++@3++@gg<<<<<<<<<<<<:1d:<s-,,,,,X",
":dsd<<<<<<<<<<<<<<<<<<<<111-sddd+3@fffg<<<<<<<<<<<<:<d:<s-,,,,,X",
":sdssssssssss1s1s1s11111111Ossdd+3#ffff<<<<<<<<<<<<:<d-<s-,,,,,X",
":dyassssss1s1s1s1s111111111Os sd++#df-f<<<<<<<<<<<,-<s-<s-,,&*,X",
":s&ysssss1s1s1s1s1111111111Ossssdddddff<<<<<<<<<<,<-<s-<s-,,%&,X",
":sssssss1s1s1s1111111,d1111OOOOOO---:::<<<<<,s<<,<XO=------,,<,X",
":ssss1s1s1s1s1111111,O,1111<1<1<1<<<<<<<<<<:O,<,<,XoOOOOO=-,,,,X",
":sss1s1s1s:::,,,,,,,,,1:XXXXXXXXXXXXXXXXXXXX:<,<,<,O::O::-,,,<,X",
":ss1s1s1s1-sssdddsd,1111===================X<,<,<,,-<s-<s-,,,,,X",
":s1s1s1s11-sddddsds,111d::::::::::::::::::=X,<,<,<,-<s-<s-,<,<,X",
":s*ps1s111-de,,ew:s,111d,:::::::::::::::::=X<,<,<,,-<s-<s-,,&y<X",
":s%*1s1111Xd,,ew::s,<1<d,:::::::::::::::::=X,<,<,,,-<s-<s-,<%&,X",
":1s1s11111Od,ew::ws,1<1d,:::::::::::::::::=X<,<,::,-<1-<s-,,,,<X",
":111111111Xdew::w$s,<1<d,:::::::::::::::::=X,<--::--<<-<s-,<,<,X",
":111111111-sw::w$-s,1<1d,:::::::::::::::::=X<-,1--11<,-<s-,,,,<X",
":111111111-dsssssss:<1<d,:::::::::::::::::=X:-::==::::-<1-,<,<,O",
":111111111-ssssssss:1<<d,::hl::::::::::hl:=X::-OOOO---,<<-,,<,<O",
":1*i111111-sssssO:s:<<<d,-1dj1111<<<<,,dlf=X:-,1OO1111<,,-,<&y,O",
":1%*111111-ssss<.O1:<<<d,OXdjXXXXXXXXXXdjX=X:O--oo------:-,,%&<O",
":1111111<1-ssss<<1s:<<<d,-Xsj::::::::-Xdj==X::OOXXOOOOOO-<,<,<,O",
":11111111<-sssss1s1:<<<d<-Xsj::::::::-Xdj:=X,:::XX::::::,,<,<,<O",
":111<1<1<1-ssss1s11:<<<d<-X1j::::::::-Xdj:=X,,,,,,,,,,,<,<,<,<,O",
":111111<1<Xsss1s111:<<<d<-X1jllljjjhhgfdj:=X,,,,,,,,,,,,,,<,<<<O",
":1<1<1<1<1Oss1s1111:<<<d<-X7X77X77X89-0rt:=X,,,,,,,,,<,<,<,<,<<O",
":1*i1<1<1<Xsss11111-<<<d<-XXXXXXXO,XXXXX::=X,,,,,,,,,,,,<,<,&u<O",
":1%*<1<1<1-ss1s1111-<<<d<-------X:f----:::=X,,,,,,,,,<,<,<,<%&<O",
":11<1<1<1<-s1s11111-<<<d<<<,,,:-X::<<<,,,:=X,,,,,,,,,,,,<,<,<<<O",
":1<1<1<1<1----------<<<dddddddsssssss1111<:-,,,,,,,,,<,<,<,<,<<O",
":<1<1<1<1<<<<<<<<<<<,,s<<<<,<,<,<,,,,,,,,,,,:<,,,,,,,,,,<,<<<<<O",
":1<1<1<1<1<<<<<<<<<<:O,<,<,<,<,<,,,,,,,,,,,:O:,,,,,<,<,<,<,<,<<O",
":<1<1<1<<<<<<<<<<<<<::,<<,<,fffffgghhkl,,,,::,,,,,,,,,<,<,<<<<<O",
":1&u<1<1<<<<<<<<<<<<,<,<,<,:f-ff566gh<k,,,,,,,,,,,,<,<,<,<,<&u<O",
":<%&<<<<<<<<<<<<<<<<<<<,<,<:dffs4q6gghh,,,,,,,,,,,,,,,<,<,<<%&1O",
":1<1<1<<<<<<<<<<<<,<,<,<,<,:ddfs4q6fggh,,,,,,,,,,<,<,<,<,<,<<<<O",
":<<<<<<<<<<<<<<<<<<<<,<,<,<-dd444q555gg,,,,,,,,,,,,,<,<,<<<<<<1O",
":1<<<<<<<<<<<<<<,<,<,<,<,<,-s12qqqqq4gg,,,,,,,,,,<,<,<,<,<,<<1<O",
":<<<<<<<<<<<<<<<<<<,<,<,<,<Oss<2qqq4ffg,,,,,,,,,,,,,<,<,<<<<<<1O",
"-<<<<<<<<<<<<<,<,<,<,<,<,<,Osss<2q2ffff,,,,,,,,<,<,<,<,<,<,<<1<O",
"-<&u<<<<<<<<<<<<<,<,<,<,<,,Os ss<2ddf-f,,,,,,,,,,,<,<,<,<<<<&u1O",
"-<%&<<<<<<<<,<,<,<,<,<,<,<,Osssssddddff,,,,,,,,<,<,<,<,<,<<<%&<O",
"-<<<<<<<<<<<<<<,<,<,<,<,<,,OOOOOOO---::,,,,,,,,,,,<,<,<,<<<<1<1O",
"-<<<<<<<<<,<,<,<,<,<,<,<,<,<,,,,,,,,,,,,,,,,,,,<,<,<,<,<,<<<<1<O",
"-<<<<<<<<<<<<,<,<,<,<,<,,,,,,,,,,,,,,,,,,,,,,,,,,,<,<,<<<<<<1<1O",
"-<<<<<<<,<,<,<,<,<,<,<,<,<,,,,,,,,,,,,,,,,,,,<,<,<,<,<,<,<<1<11O",
"-<<<<<<<<<<<<,<,<,<,<,,,,,,,,,,,,,,,,,,,,,,,,,,,<,<,<,<<<<<<1<1O",
"-<&y<<,<,<,<,<,<,<,<,<,<,,,,,,,,,,,,,,,,,,,,,<,<,<,<,<,<,<<1&u1O",
"-<%&<<<<<<<,<,<,<,<,,,,,,,,,,,,,,,,,,,,,,,,,,,,,<,<,<,<<<<<<%&1O",
"-<<<,<,<,<,<,<,<,<,<,<,<,,,,,,,,,,,,,,,,,,,<,<,<,<,<,<,<<<<1<11O",
"-<<<<<<<<,<,<,<,<,,,,,,,,,,,,,,,,,,,,,,,,,,,,,<,<,<,<<<<<<1<111O",
"OOOOOOOOOOOOOOOOOOOOOOOOOOOOOOOOOOOOOOOOOOOOOOOOOOOOOOOOOOOOOOOO",
"XXXXXXXXXXXXXXXXXXXXXXXXXXXXXXXXXXXXXXXXXXXXXXXXXXXXXXXXXXXXXXXX"
};
