/* XPM */
static char *_80cff39acad437d9849eade4330e3d3jaXBks5FED8K8mG1[] = {
/* columns rows colors chars-per-pixel */
"64 64 256 2 ",
"   c #020001",
".  c #0B0103",
"X  c #02020C",
"o  c #0A020A",
"O  c #140104",
"+  c #1B0205",
"@  c #160608",
"#  c #1D0209",
"$  c #040413",
"%  c #05061A",
"&  c #1B0617",
"*  c #091317",
"=  c #210106",
"-  c #23020A",
";  c #2B030C",
":  c #280809",
">  c #38060C",
",  c #2B0413",
"<  c #280618",
"1  c #370815",
"2  c #33041C",
"3  c #2D1411",
"4  c #391616",
"5  c #081529",
"6  c #181427",
"7  c #280C25",
"8  c #350523",
"9  c #3B0425",
"0  c #3D042A",
"q  c #3C0A28",
"w  c #271729",
"e  c #3A1629",
"r  c #371535",
"t  c #08293B",
"y  c #192939",
"u  c #312934",
"i  c #460C0D",
"p  c #470A16",
"a  c #510E10",
"s  c #461518",
"d  c #561718",
"f  c #6D1219",
"g  c #4C2817",
"h  c #592619",
"j  c #6D2A1A",
"k  c #420725",
"l  c #43032C",
"z  c #49042D",
"x  c #450A2D",
"c  c #4A0B2E",
"v  c #57062C",
"b  c #48142A",
"n  c #541528",
"m  c #450630",
"M  c #4B0632",
"N  c #450A31",
"B  c #4C0A33",
"V  c #4F0D39",
"C  c #520635",
"Z  c #5C0637",
"A  c #520A35",
"S  c #550B39",
"D  c #5B0A3C",
"F  c #4C1334",
"G  c #491739",
"H  c #531435",
"J  c #531B35",
"K  c #5A1C35",
"L  c #55173A",
"P  c #5C133B",
"I  c #5B1B3B",
"U  c #65083A",
"Y  c #62133C",
"T  c #631B3E",
"R  c #711332",
"E  c #4A2B2F",
"W  c #5A273A",
"Q  c #58323B",
"!  c #672927",
"~  c #782925",
"^  c #713428",
"/  c #64233C",
"(  c #682B3D",
")  c #62323C",
"_  c #6D4D27",
"`  c #754531",
"'  c #043649",
"]  c #0D354E",
"[  c #32334A",
"{  c #263055",
"}  c #5E0740",
"|  c #5E0C41",
" . c #4E1C41",
".. c #5A1A42",
"X. c #630D44",
"o. c #690D45",
"O. c #641344",
"+. c #641B43",
"@. c #6B1B45",
"#. c #661748",
"$. c #6C144B",
"%. c #6C1A4A",
"&. c #75104B",
"*. c #72144D",
"=. c #721B4C",
"-. c #731551",
";. c #791954",
":. c #7D1C5B",
">. c #552243",
",. c #5A2947",
"<. c #5B3544",
"1. c #502D50",
"2. c #5C3351",
"3. c #6C2443",
"4. c #6C2B42",
"5. c #65254C",
"6. c #732B46",
"7. c #74244B",
"8. c #76264A",
"9. c #762B4A",
"0. c #7C2D4C",
"q. c #623443",
"w. c #653745",
"e. c #743345",
"r. c #783647",
"t. c #7C334B",
"y. c #7D384A",
"u. c #6D2452",
"i. c #672A53",
"p. c #6A2A52",
"a. c #732357",
"s. c #7C2453",
"d. c #7E2B52",
"f. c #633355",
"g. c #7E1E61",
"h. c #503D64",
"j. c #723268",
"k. c #00425B",
"l. c #38424E",
"z. c #054568",
"x. c #164971",
"c. c #364A71",
"v. c #4B4451",
"b. c #6D4D50",
"n. c #79635B",
"m. c #4E4F76",
"M. c #584B78",
"N. c #6F4D76",
"B. c #716478",
"V. c #831119",
"C. c #A00E1A",
"Z. c #922E1C",
"A. c #911532",
"S. c #B51A37",
"D. c #8A2F2C",
"F. c #973925",
"G. c #A23827",
"H. c #D71D37",
"J. c #8A4C2F",
"K. c #9A4529",
"L. c #984938",
"P. c #995335",
"I. c #B04B30",
"U. c #A95639",
"Y. c #B8593A",
"T. c #8E6320",
"R. c #AE6539",
"E. c #C85536",
"W. c #D2673C",
"Q. c #E76539",
"!. c #890B4A",
"~. c #90104E",
"^. c #84185A",
"/. c #A31A57",
"(. c #8B2F4F",
"). c #832659",
"_. c #B02B55",
"`. c #8B1B65",
"'. c #A81866",
"]. c #B3196A",
"[. c #AF1972",
"{. c #822362",
"}. c #8A2A66",
"|. c #92286A",
" X c #95326E",
".X c #B02C72",
"XX c #D32E5A",
"oX c #904D4F",
"OX c #AD594B",
"+X c #B7684B",
"@X c #8B4C79",
"#X c #B44E6F",
"$X c #9E6B6C",
"%X c #CA6746",
"&X c #D76A47",
"*X c #D8744A",
"=X c #C97155",
"-X c #DB7853",
";X c #E67148",
":X c #E67D57",
">X c #D66068",
",X c #BF8833",
"<X c #BB8359",
"1X c #DB8457",
"2X c #E6865A",
"3X c #ED8F5D",
"4X c #D28D6C",
"5X c #EA916B",
"6X c #EA9868",
"7X c #EEA26B",
"8X c #ECA877",
"9X c #F2A977",
"0X c #F1B67C",
"qX c #076B97",
"wX c #22628E",
"eX c #2D7094",
"rX c #4D5988",
"tX c #575785",
"yX c #695989",
"uX c #576C93",
"iX c #69658A",
"pX c #726D8F",
"aX c #5671A3",
"sX c #6D74A1",
"dX c #BA2D8B",
"fX c #CD3790",
"gX c #9A5D8E",
"hX c #94748E",
"jX c #AD7497",
"kX c #B67BA5",
"lX c #CB5690",
"zX c #D06A8F",
"xX c #F4699F",
"cX c #D572AD",
"vX c #2993B4",
"bX c #4B8BAE",
"nX c #7B8BAC",
"mX c #AD869C",
"MX c #9A8BA9",
"NX c #9296B7",
"BX c #B293AD",
"VX c #B3A2BA",
"CX c #EFB283",
"ZX c #F3BA84",
"AX c #D68DB3",
"SX c #F18AB6",
"DX c #C6A6BC",
"FX c #F4C488",
"GX c #96A1C4",
"HX c #B7ACC7",
"JX c #F98BC3",
"KX c #C8B1CD",
"LX c #F2B1CF",
"PX c #D4C4DC",
"IX c #D7C1E0",
"UX c #E9CCE4",
/* pixels */
"Q E Q E E Q W J b q 9 0 0 k m B n J H H H H c A c A n B A B B A B B B B H L  .>.,.,.1.>. .G G N M M l M M z z z k l k k l 9 9 9 ",
"<.Q Q <.Q Q W J b 9 9 9 9 k c n K K J J J H J A H A A A c A c A A A B S L  ...1.,.1.,.>.>. .G M V V M M M z M z l z l l l k l 9 ",
"Q Q Q W W ! W J x k 0 k k c F K K K W K K K H P H P H A A A A A A A A S L ..>.,.2.2.2.,.>.>.q 9 M M A C v M M M M M z z l l l 0 ",
"<.Q Q Q ) ) W J b k k 0 x c H W W K T T I I I I H H P P P A H H D H S P L ..,.2.2.2.2.,.>.>.b 8 l A A C B C A M M l M l l l l 0 ",
"<.Q Q ) ) W W F F k k k c n I / / T / / T T W T I Y I P P S D S P S P S ..>.,.f.2.f.2.5.>.>.B 2 2 A A A A B A M A M M M z z k 0 ",
"<.Q <.) ) W W F x x k c F K / / / ( ( / / / T T T T Y T P P P D D D D D ..5.,.f.f.f.2.,.,...F 9 2 A A S S A A C M z C M z z l l ",
"<.` <.) ) W J c x k x c J / ( ( ( ( ( ( 3./ T T T T T Y T T Y O.I D D T +.,.5.2.f.2.f.,.5...G 9 2 z Z S S A A S A B M M z M z l ",
"<.<.<.<.W W n c x x x b K ( ( ( ( 6.3.( 6.3.3.3.T T T T Y Y O.D Y Y X...+.5.q.p.f.f.5.5.5...P z k 2 A S A Z C v A C A M M M M l ",
"<.q.q.Q W W F x x c c J / ( e.e.4.4.4.4.4.4.3.3.3.T T T T O.+.O.O.T O.T +.5.q.f.f.f.i.5.5...O.U v 2 k S D A S S A A C z B z M m ",
"w.w.w.) W J c x z c B J / ( e.e.e.e.e.6.6.9.4.3.3.3.3.@.@.T @.O.O.O.O.O.5.5.i.i.p.p.i.5.5...O.Y v z 1 C P S Z S A A A A C B M B ",
"2.b.q.q.W G F x x x H W ) e.e.e.e.t.e.9.6.6.6.6.3.6.@.7.@.@.@.@.@.O.O.#.5.5.p.p.p.p.i.5.#.#.X.Y Z z k C D Z Z S S A A A A B B B ",
"w.Q <.W W G N x z B L / e.e.e.e.e.e.e.t.9.9.6.6.6.6.( 7.7.=.@.%.@.@.@.@.u.p.p.p.p.p.p.5.+.O.O.X.U v z M | D D D S Z A A A A M B ",
"w.<.q.Q J G x z x c I 4.e.( oXe.r.y.t.t.0.0.0.9.8.8.8.8.7.=.%.@.$.$.$.@.%.p.u.p.p.u.u.u.#.O.O.O.U v v U | D D Z Z S S S C C A A ",
"w.w.Q ,.J F x N c H I ( r.r.r.r.r.r.t.t.t.t.0.9.8.8.8.8.7.7.7.=.=.=.*.=.%.u.u.u.u.u.u.a.%.@.$.o.&.U v Z X.U X.D D D D Z S C A B ",
"w.w.) W G F x x B H ( e.r.r.y.y.(.y.t.t.t.0.0.0.0.8.8.8.7.7.7.=.=.=.=.=.%.u.u.u.3.u.u.=.$.#.$.$.~.U v U X.Y D X.D D D S Z A A B ",
"w.) ,. .F N B c B I ( ( y.y.y.y.t.t.r.t.r.(.0.9.(.0.s.s.7.s.7.;.u.=.=.*.=.u.7.u.u.u.u.=.$.$.$.$.!.U v U X.X.X.D X.D D D Z A C A ",
"w.q.Q L F N c B A I 4.r.y.y.(.y.y.9.9.9.0.t.d.t.(.d.s.0.d.s.s.7.;.=.&.=.Y U T P #.%.u.%.-.=.$.*.~.&.U Z X.o.| | | | D D Z S Z A ",
"w.<.>.G F x c F P W 4.r.y.y.t.r.9.6.@.6.0.(.d.d.0.d.d.a.d.s.s.:.s.).=.U a p d a i p +.u.%.$.-.$.~.~.U Z Z X.o.X.X.X.X.D D D S V ",
"q.q...F F x B H I 4.r.y.r.r.9.6.5.3.%.@.9.3.9.4.d.d.d.).s.s.d.s.).(.f p > > > h d ^ ! e.;.-.-.*.&.'.!.U C D O.X.X.X.| | D D } S ",
"q.q.W G x B B H T 3.K r.e.6.3.@.#.+...b 2 O # + b I 7.d.d.).).s.|._.a 1 ; > i > j h j ^ 9.-.-.-.-.'.'.A.Z C X.o.O.X.| | D } D S ",
"w.W J G N B F H T W ; 3.4.3.+.O.#.H + O @ O O O O + , 7.).).).).lXA.p i > > i d j _ j ^ ( ).;.=.-.;.[.~.&.v } o.$.X.X.X.| | D S ",
"<.,.W F F c A P / J , K +.Y Y X.H - . O O O + = # @ = , 7.).).).dXD.d h d j K.L.U.P.P.T.` a.;.;.;.-.[.].~.U X.-.#.o.X.X.| | D D ",
",.W J F B B H P / F 2 q O.| P P , . O ; > ; : = : - = = Y ).).}.lX#X! F.L.Y.*X:X:X1XY.R.T.t.s.;.;.-.^.[.~.!.!.o.$.#.o.X.| | D S ",
",.J G B N B A H T b , < P D O.c O O a V.G.I.I.I.j ; , = R }.).}.cXcXD.L.OXI.E.&X:X-X1X+XOXD.;.:.^.-.:.[.!.A.!.o.$.o.#.o.X.O.| | ",
"J L B N B B B H P x ; O P D +.1 . i V.C.G.E.E.Q.E._ = - 1 (.).).gXlX~ D.D.E.E.=XL.=X%X+XP.J.).:.:.:.:.[.'.~.~.&.$.$.| $.| X.X.| ",
"G B N B N B B A L 0 - . A Y 3., O a V.F.E.E.Q.E.Q.U.= ; , _.|.)..XzXn G.D.oX+X-XL.+X-X1XU.=X}.:.:.:.;.fX.X~.~.^.$.$.$.$.$.| | | ",
"N N B x N N B A A q O . H T 5.# + d ~ ^ I.+XL.OX%X%X> ; ; /.}.|.).xX XcX#Xd G.%X%X-X;X2X1X:X X^.:.:.;.fXfX/.~.~.$.$.$.X.$.X.X.X.",
"N N m N B N B C A 8 . . K 7.9.- E n ! s ~ L.^ =X=X%Xs s ; R .X|.|.cXJXcX( ! A.-X:X:X9X7X2X;X(.{.:.:.;.fXfX/.!.~.-.-.$.$.X.#.X.X.",
"q N N m B B M M A q + O I t.y.1 e ~ f f I.I.L.:X2X:Xd > ; a .X|.|.lXSXcX$XoXoX5X2X:X9X9X1X>X}.{.^.:.g.[.fX/.~.!.-.-.$.$.$.#.X.X.",
"0 N N m M B V V A S 1 - 3.(.(.W ; D.~ D.&X%X%X:X3X;Xj i > f XX|.|..XlXzX#X+XD.=X5X5X9X9X>X|.}.{.g.g.g.`.fX/.)./.-.-.-.$.$.X.#.X.",
"0 m m M M B B A A A , , I 7.(.A.n A.D.j =X&X-X5X3XQ.G.d i f XX|.|.}. XzXSXD.oXOXQ.:X8XCX4X}.}.{.{.g.g.^.fX/.^.!.$.-.-.$.$.$.X.| ",
"r M m M N B B A A H b.b r.@.~._.f D.W D.I.%X-X:X;XQ.E.; 1 S.XX X|.|.}. XcX#XG.I.2X9X0X0X4X}.}.}.{.{.g.g.[.].~.-.} -.-.$.$.#.| #.",
"q m N N , q 2 2 q 1 s > p k v > > ! ! D.Y.*X*X;XQ.E.i ; 1 C.xX.X}.|.|.|. XAX~ L.1X8X0X6X4X X}.}.g.{.{.`.'..X~.!.Y -.-.$.$.$.,.G ",
"N N N q .       . @ w & ; ; > ; - p ! ~ U.1XW.W.W.F.i ; p V.XXxX.X|.|.|. XlXZ.D.1X1X6X7X4X}.}.}.j.{.g.g.`.[.[.'.~.;.-.-.#.x 2 B ",
"0 N N x       @ @ 3 u _ ) 1 > ; # # p ) P.Y.R.E.E.F.1 > f C.xXSXlX|.|.|.|.S.Z.%X4X7X7X0XCXg.}.}.a.{.g.g.:.^.].].'.;.&.+.2 - 4 O.",
"0 0 x x o     . . & u B.<Xb p ; - + 4 E ` ` Z.K.K.s (.i f S.xXSXlX|.|.g.c ; 1 J.<X8XCX0XCX8 5. .b ..g.g.^.^.'.].~.&.-.1 E 4 b O.",
"N m m M @       w w u <.B.3 1 ; = + p W h d > = n (._.(.f H.>XSXfX|.)., - - - - : : ) oXn.= O O - 2 > b 5.:.~.~.R n K +.x 1 c O.",
"r m m m 7 * 6 e F 1 .     8 U .X0.- 1 p > ; b s..X#XzX_.(.H.xXJXAX#.- - - - - - + - + : = + O . o : 4 E I J e 1 s E 4 < 3 s O.#.",
"0 m N M M 1.b.H A x       q o.;.D 2 ; ; F {.}.gXjXkXLX(./.H.SXxXy.# # - # + # = + + - - = = O .   @ 4 3 1 4 < 4 4 4 4 4 E I #.#.",
"0 0 m M M >.A A S F o     k o.O.M 2 # P a.s.@XmXgXLXKX$X~.A.#XzX# @ O O + + + - = = = ; - + O O .   O : E 4 : # > L.OXK O.$.$.#.",
"m m m m M V M S S S #     z X.Z z 8 5.a.a.:.VXj.mXAXDX$XT T v - o . . O + = O + = = + = + ; + O       . + + : d F.3X:X>X-.%.-...",
"0 m m m m C M C S S 8     z | S B G j. X}.yXM.kXhXmXDXhXW H k o o o . O O + = + + = = = : > 3 4 : + O . O : a G.;X3X5X4X-.$.$.$.",
"0 m m C m M C C A S 8     z o.| | u.g.}.g.N.M.@XjXUXUXVX .q 6 o X   . O O + + + = + = - : : j i > > 3 : 3 j R.;X2X9X9XCX(.*.%.#.",
"0 m m m M V C C V D q     m o.X.5.u.a.p.j.M.N.N.mXVXDXBXh.[ 6 X o     o . O O + = - + - + > a a i i a j Y.W.*X3X6X0X9X9XoX=.%.#.",
"0 m m m m M C C S S 0 o X 0 X.#.5.i.j.g.N.j.tXyXVXDXKXDX[ { 5 $ X         o . O # - : @ . > a i i j K.W.1X3X3X7XZX8XZX0X$X;.%.$.",
"0 l m m M M V C S S N X   r X.#...g.@X XiXN.tXj.UXKXUXIX[ c.] X X             O + + : 3 O i h j j K.W.7X7X0X7X0X6X4X=X1X&XOX%.#.",
"0 l m m m M m C S S N     8 X.i. .i.h.j.tXm.iXgXHXMXVXHXh.x.k.$ X X           . O @ : : j F.I.R.W.,X7X0X0X0X8XP.U.U.5X6X1X-XoX$.",
"0 l m m m m C C A A B o X < X. . .i.N.j.tXM.h.hXPXkXKXKXB.{ qX% X $         . O + # s F.W.1XW.3X0XFXFXFX0X0X$X: F.%XE.6X8X2XOX%.",
"0 0 m m m M M C S C B X   < P r a.yXyXsXtXM.1.GXIXhXIXIXB.x.qX] $ X X       . . = h K.W.5X3X7XZXFXFXFXFX0X<X3 @ g J.%X&X2X1X+X+.",
"0 0 0 m m M M M C S | o X & ..G i.h.M.tXc.h.1.kXNXgXVXGXM.{ qXN.u $ X . .     O d D.Y.5X3X7X0XFXFXFXFXFX4Xs @ @ : g OX*X*XW.L.H ",
"9 m l m m m M M C C | % % & L  .$.rXyXrXrXr 1.KXGXsXHXKXpX] qXmXhX* $ X o   $ u Q ^ +X-X:X3XCXZXFXFXFX4Xg 3 @ + @ : j +XU.U.! , ",
"0 0 0 0 l M M M V M B 7 % & r  .j.sXyXaXrXr yXHXsXhXKXHXm.z.qXjXmX% $ X   $ t ] u Q P.E.*X8XZXZX0XFX8Xg 4 : O . . . @ : > h ; ; ",
"9 0 0 0 m m M M B S n b < , 2 >.h.tXM.rX[ [ B.NXM.yXMXMXh.z.qXAXmX* $ $ X   5 ' { [ ` OX-XCX9XCX8X1X,Xg h : - . . o @ + ; ; ; - ",
"9 0 0 0 l m m M V n n u w e 8 1.h.tXyXtXr [ GXNXyXsXNXKXGXx.rXAXLXw % $ $     X y k.[ ` %X2X:X=X<XT.T.3 g : I & & ..N O # O # # ",
"9 0 0 0 l l m m M c b u [ 6 6 N.yXaXtXr 7 m.iXM.h.yXGXNXMXwXuXcXcXw.% $ X         y ] u OX+X` 3 _ _ g @ : 3 $.| L $.P @ . . . O ",
"8 9 0 0 0 l l m z c c e w & w  .M.tX[ 7 7 tXM.M.h.yXpXhXNXnXNXkXkXN.$ $             X * 3 + O . 3 T.g O : 4 $.$.#.o.#.<   X @ < ",
"8 0 0 0 9 l l m z x r u y & w r M.M... .1.aXaXsXM.bXnXMXGXnXnXpXNXhX$ X                           h h - # r o.$.o.X.| L 7 9 S | ",
"8 9 9 9 0 0 l m z z r w w o ,.N.uXM.G 7 2 6 6 y u l.E l.c.GXsXiXtXgXX                               @ .   0 X.o.X.| | } } D | V ",
"8 8 9 9 0 0 l l l m N <   X c.m.c.w & 2 2 w y y u l.l.l.uXnXNXm.tX@X* X X                                 9 X.X.X.| } } } } V B ",
"8 9 8 9 0 0 0 0 0 m m 7 o X 6 c.{ & , 8 w y t ' ' ' l.v.B.nXiXm.m.@X<.X                                   8 X.} | } } } C S C V ",
"8 8 8 0 9 9 0 0 l m z 2 .   , < , 2 1 w t ' ' k.k.z.eXB.B.$XiXc.rXf.f.X                                   < } | | } } C V C C V ",
"8 8 8 8 9 9 0 0 l l p p > 1 b 2 , 4 w ' ' k.k.k.k.c.vXB.m.B.pXm.wX2.,.                                    & | } } | C | C C C m ",
"8 8 8 9 8 9 9 0 0 l 2 > > 1 1 2 6 * t ' k.k.k.z.vXvXvXbXaXuXuXeXaX..5.o                                   < | } } M S C C C C m ",
"7 8 7 8 8 9 0 9 0 0 7 < 2 < 7 5 5 t t t k.vXvXz.qXx.eXbXvXvXaXwXc.N r & $ $ $ % % X * X X X X X X X X * $ 8  .} C  .V M V M V m "
};
