/* XPM */
static char *result[] = {
/* columns rows colors chars-per-pixel */
"23 31 54 1 ",
"  c #28200C",
". c #382C14",
"X c #202020",
"o c #2C2C2C",
"O c gray22",
"+ c #403018",
"@ c #483818",
"# c #543C1C",
"$ c #5C4020",
"% c #6C4824",
"& c #744C28",
"* c #000064",
"= c #484848",
"- c gray33",
"; c #646464",
": c gray44",
"> c #7C7C7C",
", c #A80000",
"< c #9C4C00",
"1 c #A85400",
"2 c #B45400",
"3 c #80502C",
"4 c #885830",
"5 c #905C34",
"6 c #9C6038",
"7 c #A0643C",
"8 c #CC6000",
"9 c #E46C00",
"0 c #FC7800",
"q c #A86840",
"w c #B47044",
"e c #BC7848",
"r c #C87C4C",
"t c #FC8820",
"y c #D08050",
"u c #DC8854",
"i c #E88C58",
"p c #F0945C",
"a c #FC9C60",
"s c #FCA470",
"d c #0000A8",
"f c #0000C8",
"g c #0000FC",
"h c #2024FC",
"j c #B4B4B4",
"k c #FCB080",
"l c #FCB890",
"z c #FCBC9C",
"x c #FCC4A4",
"c c #FCD4BC",
"v c #D0D0D0",
"b c gainsboro",
"n c #FCD8C4",
"m c #FCE8DC",
/* pixels */
"====OOOOOOOOOOOOO======",
"===o<8288989999998<O===",
"==o<128288888890998<O==",
"==#11111111122890t08%==",
"=o<11<#&%%1&&3380t994O=",
"=o<1<#&@@&&1$#&<901&8O=",
"=o<<&7uuuw6&$.#&917&<O=",
"=o#66sllssuur7668ku6&O=",
"=o#6uxxxxxxkiu7a1axw#o=",
"=o#6kaskxxxksiraknpu#o=",
"=o+wukxnmnxxluXoo=nu#o=",
"=o+wkOo=qulsyX@$%e;u+5=",
"or u=:-XXXqqq&O;>*sk ko",
"oi uujvdg,epq,jbfhsu&io",
"oe5ulsssslkcsxssssluwro",
"ouasccmmclsnxxxcmmcslao",
"oaesxccxxykcxpxxccxsyao",
"=w3ekxxxpq4446sxxxke3&=",
"=&3iuslxsaiuslkxxkpa3o=",
"=O3salxpklsklxpkxlas3O=",
"=O3ksxx6weyye6exllkko==",
"=O3kxxkalxxnxasxlzllX==",
"==3kxxxkspipskxxlkklX==",
"==ouzxcmcxxxxcmxkslxX==",
"==o6usxxxkukxxxspaxxO==",
"==o%6euuurqruuue6lxxO==",
"==O5$@@@@@$%&&55rixxO==",
"==O5$3&&366666qrxsus===",
"===&$&366uwrrrekzxar===",
"===&&36yukuxlprscss7===",
"===&&667akpsxkprls77==="
};
