/* XPM */
static char *result[] = {
/* columns rows colors chars-per-pixel */
"23 31 53 1 ",
"  c black",
". c #28200C",
"X c #382C14",
"o c #202020",
"O c #2C2C2C",
"+ c gray22",
"@ c #403018",
"# c #483818",
"$ c #543C1C",
"% c #5C4020",
"& c #6C4824",
"* c #744C28",
"= c #00007C",
"- c #484848",
"; c gray33",
": c gray44",
"> c #980000",
", c #A80000",
"< c #9C4C00",
"1 c #A85400",
"2 c #B45400",
"3 c #80502C",
"4 c #885830",
"5 c #905C34",
"6 c #9C6038",
"7 c #A0643C",
"8 c #CC6000",
"9 c #E46C00",
"0 c #FC7800",
"q c #A86840",
"w c #B47044",
"e c #BC7848",
"r c #FC4040",
"t c #C87C4C",
"y c #FC8820",
"u c #D08050",
"i c #DC8854",
"p c #E88C58",
"a c #F0945C",
"s c #FC9C60",
"d c #FCA470",
"f c #0000A8",
"g c #0000FC",
"h c #B4B4B4",
"j c #FCB080",
"k c #FCB890",
"l c #FCBC9C",
"z c #FCC4A4",
"x c #FCD4BC",
"c c #D0D0D0",
"v c #FCD8C4",
"b c #FCE8DC",
"n c gray99",
/* pixels */
"----+++++++++++++------",
"---O<8288989999998<+---",
"--O<128288888890998<+--",
"--$11111111122890y08&--",
"-O<11<$*&&1**3380y994+-",
"-O<1<$*##**1%$*<901*8+-",
"-O<<*7iiiw6*%X$*917*<+-",
"-O$66dkkddiit7668ji6*+-",
"-O$6izzzzzzjpi7s1jzw$O-",
"-O$6jsdjzzzzjptsjzzi$O-",
"-O@wijzvbvzzzitjzbji$O-",
"-O@wj+Oqijkkjsiq-;vi@O-",
"Od.i-:=   qqq  O=:;j.dO",
"Oi.iicfgh,eaq,hfgnii.sO",
"Ow5ikddddkjxdzddddki5wO",
"OisdxxbbxkdvzzzxbbxdkiO",
"OsedzxxzzujxzazzxxzdidO",
"-q3ejzzzaq4446dzzzje3q-",
"-O3didzkdssudkjzzdis3O-",
"-+3jsjzajkkdkzjazjsd3+-",
"--Ojdjze6euuu>6ezjdjO--",
"--Ojjjzjskzzvrsjzjlko--",
"--Oijjzzjdapadjzzjjko--",
"--O6ijzxbxzzzzxbzjdzo--",
"--O56idzzzjijzzzdasz+--",
"--O5&6eiiitqtiiie6zz+--",
"--+5%&#####%&**55tzz+--",
"--+5%3**366666qtzztd---",
"---*%*366iwtttqjlzzt---",
"---**36uijizzdtixdd7---",
"---**667sjidzkdtkd77---"
};
