/* XPM */
static char *result[] = {
/* columns rows colors chars-per-pixel */
"23 31 60 1 ",
"  c #28200C",
". c #382C14",
"X c #202020",
"o c #2C2C2C",
"O c gray22",
"+ c #403018",
"@ c #483818",
"# c #543C1C",
"$ c #5C4020",
"% c #6C4824",
"& c #744C28",
"* c #000064",
"= c #484848",
"- c gray33",
"; c #646464",
": c gray44",
"> c #7C7C7C",
", c #880000",
"< c #A80000",
"1 c #E00000",
"2 c #EC0000",
"3 c #9C4C00",
"4 c #A85400",
"5 c #B45400",
"6 c #80502C",
"7 c #885830",
"8 c #905C34",
"9 c #9C6038",
"0 c #A0643C",
"q c #CC6000",
"w c #E46C00",
"e c #FC7800",
"r c #A86840",
"t c #B47044",
"y c #BC7848",
"u c #FC4040",
"i c #FC5C5C",
"p c #C87C4C",
"a c #FC7C7C",
"s c #FC8820",
"d c #D08050",
"f c #DC8854",
"g c #E88C58",
"h c #F0945C",
"j c #FC9C60",
"k c #FCA470",
"l c #0000A8",
"z c #0000C8",
"x c #0000FC",
"c c #2024FC",
"v c #B4B4B4",
"b c #FC9C9C",
"n c #FCB080",
"m c #FCB890",
"M c #FCBC9C",
"N c #FCC4A4",
"B c #FCD4BC",
"V c #D0D0D0",
"C c #FCD8C4",
"Z c #FCE8DC",
/* pixels */
"====OOOOOOOOOOOOO======",
"===o3q5qqwqwwwwwwq3O===",
"==o345q5qqqqqqwewwq3O==",
"==#44444444455qweseq%==",
"=o3443#&%%4&&66qesww7O=",
"=o343#&@@&&4$#&3we4&qO=",
"=o33&0ffft9&$.#&w40&3O=",
"=o#99kmmkkffp099qnf9&O=",
"=o#9fNNNNNNngf0j4jNt#o=",
"=o#9njknNNNnkgpjnChf#o=",
"=o+tfnNCZCNNmfXoo=Cf#o=",
"=o+tnOO=rfmkdX@$%y;f+8=",
"op f=:-XXXrrr&O;>*kn no",
"og ffvVlx<yhr<ubzckf&go",
"oy8fmkkkkmnBkNkkkkmftpo",
"ofjkBBZZBmkCNNNBZZBkmjo",
"ojykNBBNNdnBNhNNBBNkdjo",
"=t6ynNNNhr7779kNNNny6&=",
"=&6gfkmNkjgf1mnNNnhj6o=",
"=O6kjmNhnmkiiNhnNmjk6O=",
"=O6nkmN9tydd,9ynNmnno==",
"=O6nNknjmNNau2knNMmmX==",
"==6nNNNnkhghknNNNnnmX==",
"==ofMNBZBNNNNBZNnkmNX==",
"==o9fkNNNnfnNNNkhjNNO==",
"==o%9yfffprpfffy9mNNO==",
"==O8$@@@@@$%&&88pgNNO==",
"==O8$6&&699999rpNkfk===",
"===&$&699ftpppynMNjp===",
"===&&69dfnfNmhpkBkk0===",
"===&&990jnhkNnhpmk00==="
};
