/* XPM */
static char *result[] = {
/* columns rows colors chars-per-pixel */
"23 31 62 1 ",
"  c black",
". c #28200C",
"X c #382C14",
"o c #202020",
"O c #2C2C2C",
"+ c gray22",
"@ c #403018",
"# c #483818",
"$ c #543C1C",
"% c #5C4020",
"& c #6C4824",
"* c #744C28",
"= c #00007C",
"- c #484848",
"; c gray33",
": c gray44",
"> c #980000",
", c #A40000",
"< c #A80000",
"1 c #C80000",
"2 c #E00000",
"3 c #EC0000",
"4 c #FC0000",
"5 c #9C4C00",
"6 c #A85400",
"7 c #B45400",
"8 c #80502C",
"9 c #885830",
"0 c #905C34",
"q c #9C6038",
"w c #A0643C",
"e c #CC6000",
"r c #E46C00",
"t c #FC7800",
"y c #A86840",
"u c #B47044",
"i c #BC7848",
"p c #FC4040",
"a c #FC5C5C",
"s c #C87C4C",
"d c #FC7C7C",
"f c #FC8820",
"g c #D08050",
"h c #DC8854",
"j c #E88C58",
"k c #F0945C",
"l c #FC9C60",
"z c #FCA470",
"x c #0000A8",
"c c #0000FC",
"v c #B4B4B4",
"b c #FCB080",
"n c #FCB890",
"m c #FCBC9C",
"M c #FCC4A4",
"N c #FCCCB0",
"B c #FCD4BC",
"V c #D0D0D0",
"C c #FCD8C4",
"Z c #FCE0D0",
"A c #FCE8DC",
"S c gray99",
/* pixels */
"----+++++++++++++------",
"---O5e7eererrrrrre5+---",
"--O567e7eeeeeertrre5+--",
"--$66666666677ertfte&--",
"-O5665$*&&6**88etfrr9+-",
"-O565$*##**6%$*5rt6*e+-",
"-O55*whhhuq*%X$*r6w*5+-",
"-O$qqznnzzhhswqqebhq*+-",
"-O$qhMMMMMMbjhwl6bMu$O-",
"-O$qblzbMMMMbjslbMMh$O-",
"-O@uhbMCACMMMhsbMAbh$O-",
"-O@ub+Oyhbnnblh-+-Ch@O-",
"Oz.h;:=   yyyooo,b;b.zO",
"Oh.hhVxcv<iky<dxdpbk.lO",
"Ou0znznnznbBzMnNZZBb0uO",
"OhlmBZAABnzCMBCASSSCnhO",
"OlimNBBCMgbBMkCAAAACbzO",
"-y8hbMMMky999qMBCCCNly-",
"-O8zkbnnzl2g2nbMNNNMhO-",
"-+8blnnkbnazaMbkMMbzg+-",
"--ObznMiq1>g>>qiMMzby--",
"--ObbMzb3nMapp4azMmn$--",
"--OhbMMM,zkjkz2MMMbno--",
"--OqhmMBABMMMMdAMbzMo--",
"--O0qhzMMMbhbMpMzklM+--",
"--O0&qihhhsyshhhiqMM+--",
"--+0%&#####%&**00sMM+--",
"--+0%8**8qqqqqysMMsz---",
"---*%*8qqhusssybmMMs---",
"---**8qghbhMMzshBzzw---",
"---**qqwlbhzMnzsnzww---"
};
