/* XPM */
static char *result[] = {
/* columns rows colors chars-per-pixel */
"23 31 60 1 ",
"  c #202020",
". c #2C2C2C",
"X c gray22",
"o c #640000",
"O c #7C0000",
"+ c #403018",
"@ c #483818",
"# c #543C1C",
"$ c #5C4020",
"% c #6C4824",
"& c #744C28",
"* c #484848",
"= c gray33",
"- c #646464",
"; c #A80000",
": c #C80000",
"> c #D40000",
", c #FC0000",
"< c #9C4C00",
"1 c #A85400",
"2 c #B45400",
"3 c #80502C",
"4 c #885830",
"5 c #905C34",
"6 c #9C6038",
"7 c #A0643C",
"8 c #CC6000",
"9 c #E46C00",
"0 c #FC7800",
"q c #A86840",
"w c #B47044",
"e c #BC7848",
"r c #FC4040",
"t c #FC5454",
"y c #C87C4C",
"u c #FC7C7C",
"i c #FC8820",
"p c #D08050",
"a c #DC8854",
"s c #FC9840",
"d c #E88C58",
"f c #F0945C",
"g c #FC9C60",
"h c #FCA470",
"j c #0000A8",
"k c #C800CC",
"l c #FC20FC",
"z c #FC54FC",
"x c #FC7CFC",
"c c #FCB080",
"v c #FCB890",
"b c #FCBC9C",
"n c #FCC4A4",
"m c #FCCCB0",
"M c #FCD4BC",
"N c #C0C0C0",
"B c gainsboro",
"V c #FCD8C4",
"C c #FCE0D0",
"Z c #FCE8DC",
/* pixels */
"****XXXXXXXXXXXXX******",
"***.899999999999991X***",
"**.88999990000iii091X**",
"**2889990000000iis001**",
"*.12888999099990isi08X*",
"*.<2222888i88800iii08X*",
"*.312333229335280i093X*",
"*.313$$$322$$352909<3X*",
"*.%1$$576q233$$2897$%X*",
"*.%$$7ydd61y63q299g7%X*",
"*.#$wahncpcfawq19gcy#X*",
"*.#$pfvvnmncga.9**ng#X*",
".w#wfX.*pvmnc.<$qy=c#fX",
".a$w*p-   afa5ooo*dV3aX",
".q$pcNBj*;6qe;>ru>tb5qX",
".qacnncchhdhhclkzxnVcgX",
".favnVVVnnhnnnmVVZZCvpX",
"*3avnMVMnycMVfmMMCCZc@*",
"*XphcvnnbdpghhvmVVVVh$*",
"*XwfhccvcgO6OcvvmVVmd&*",
"**7afcchaftytcccbbmmp**",
"**7afff7+&ooo#ehcbnbw**",
"** whp;tcbt;;:thvncb5**",
"** 7dv:;fayaf,hnnchb&**",
"**.4whntnvhvntnnggcb+**",
"**.4@wyfffyf;fffycnbX**",
"**X4#@@@@@$&&&&5ecnbX**",
"**X5$3&&366666qynehh***",
"***&$&366ywyyyecbnef***",
"***&&36pacanvfyhMhh7***",
"***&&667gcfhncfyvh77***"
};
