/* XPM */
static char *result[] = {
/* columns rows colors chars-per-pixel */
"23 31 63 1 ",
"  c #202020",
". c #2C2C2C",
"X c gray22",
"o c #700000",
"O c #7C0000",
"+ c #403018",
"@ c #483818",
"# c #543C1C",
"$ c #5C4020",
"% c #6C4824",
"& c #744C28",
"* c #484848",
"= c #646464",
"- c #880000",
"; c #980000",
": c #A80000",
"> c #B00000",
", c #D40000",
"< c #EC0000",
"1 c #FC0000",
"2 c #FC2020",
"3 c #9C4C00",
"4 c #A85400",
"5 c #B45400",
"6 c #80502C",
"7 c #885830",
"8 c #905C34",
"9 c #9C6038",
"0 c #A0643C",
"q c #CC6000",
"w c #E46C00",
"e c #FC7800",
"r c #A86840",
"t c #B47044",
"y c #BC7848",
"u c #FC4040",
"i c #FC5454",
"p c #FC5C5C",
"a c #C87C4C",
"s c #FC7C7C",
"d c #FC8820",
"f c #D08050",
"g c #DC8854",
"h c #E88C58",
"j c #F0945C",
"k c #FC9C60",
"l c #FCA470",
"z c #0000A8",
"x c #B400B4",
"c c #E000E4",
"v c #FC20FC",
"b c #FC5CFC",
"n c gray66",
"m c #FCB080",
"M c #FCB890",
"N c #FCBC9C",
"B c #FCB8B8",
"V c #FCC4A4",
"C c #FCCCB0",
"Z c #FCD4BC",
"A c #FCD8C4",
"S c #FCE0D0",
"D c #FCE8DC",
/* pixels */
"****XXXXXXXXXXXXX******",
"***.qwwwwwwwwwwwwwwX***",
"**.qqweeeeeeeeeddeqqX**",
"**4qqweeeeeeeeedddde4**",
"*.85qweeeeeeeeeddddeqX*",
"*.655qwwwwwwwwwweddeqX*",
"*.%3335qqqqqqqqwwdww3X*",
"*.%3&$$3333&7555qwqq3X*",
"*.$3$@@@3&3@&3334wq3$X*",
"*.$&$68&3$3@@3334q33$X*",
"*.$$6at3q8486$$34qy$$X*",
"*7$$agyahgaa06$33fjf$X*",
".l$8g*akMMllf9$3qCMm$gX",
".0$t*0XXtmmmf93$.=Cm$aX",
".6$h0<>O  gj9   X*=mt0X",
".yfmkzzs2:7r7Oup1,sAV%X",
".9hVVMbvbja0tvcxcsBDstX",
"*XfmCAVVVMlMVVVnnAAD1X*",
"*XtmVAAAAMmAAjCASDDSmX*",
"**9kmVVVVfmmmfNNAAACm**",
"**6tkmmmjjyyyjlmNVVVj**",
"** 8fjjjjj101fgfmmMMy**",
"** &0tffr6:&:0&&flmh8**",
"**.&69gy:1mNio11ikgm8**",
"**.&$79jo;tt8tf-jtgV8**",
"**X&$+88timjfmj1gt9AX**",
"**X&$++88888+&77$8jAX**",
"**X&@$6++++#9#&7alfl***",
"***&$&699ataaaymNVyj***",
"***&&69fgmgVAjalZlly***",
"***&&990kmjlVmjarly0***"
};
