/* XPM */
static char *result[] = {
/* columns rows colors chars-per-pixel */
"23 31 58 1 ",
"  c #202020",
". c #2C2C2C",
"X c gray22",
"o c #700000",
"O c #7C0000",
"+ c #403018",
"@ c #483818",
"# c #543C1C",
"$ c #5C4020",
"% c #6C4824",
"& c #744C28",
"* c #484848",
"= c #880000",
"- c #980000",
"; c #A80000",
": c #D40000",
"> c #FC0000",
", c #9C4C00",
"< c #A85400",
"1 c #B45400",
"2 c #80502C",
"3 c #885830",
"4 c #905C34",
"5 c #9C6038",
"6 c #A0643C",
"7 c #CC6000",
"8 c #E46C00",
"9 c #FC7800",
"0 c #A86840",
"q c #B47044",
"w c #BC7848",
"e c #FC4040",
"r c #FC5454",
"t c #FC5C5C",
"y c #C87C4C",
"u c #FC7C7C",
"i c #FC8820",
"p c #D08050",
"a c #DC8854",
"s c #E88C58",
"d c #F0945C",
"f c #FC9C60",
"g c #FCA470",
"h c #0000A8",
"j c #B400B4",
"k c #E000E4",
"l c #FC20FC",
"z c #FC5CFC",
"x c gray66",
"c c #FCB080",
"v c #FCB890",
"b c #FCBC9C",
"n c #FCC4A4",
"m c #FCCCB0",
"M c #FCD4BC",
"N c #FCD8C4",
"B c #FCE0D0",
"V c #FCE8DC",
/* pixels */
"****XXXXXXXXXXXXX******",
"***.788888888888888X***",
"**.778999999999ii977X**",
"**<778999999999iiii9<**",
"*.4178999999999iiii97X*",
"*.211788888888889ii97X*",
"*.%,<<17777777788i88,X*",
"*.%,,&$,,,,&31117877,X*",
"*.$,&@@@,,,@&,,,<87,$X*",
"*.$,$$4&,$,@@,@,<7,,$X*",
"*.$$$4q,,4<44$$,<7p$$X*",
"*.$$4a,yywyyq5$,,7cp$X*",
".d$4agyfvvggp5$,7mvc$dX",
".q$qg*X*qcccp5,$.Xmc$qX",
".6$s*qO   ad5    **cq6X",
".%pcfuhhu;303O:et:xNv%X",
".qsnnvzlzdy6qlkjkruNbqX",
"*XsmmNnnnvgvnnnxxNNVuX*",
"*XpvmNNNNdcNNgmNBVVB>X*",
"**qcvnnnnpcccpbmBBBma**",
"**3pccccddwwwggbmmmna**",
"** qpddddd>6>fddcnnvw**",
"** 5qqqq@6;&;6@dpgcc4**",
"**.&5qa;>cbro>>rfccv4**",
"**.&$5do-qq4qq=dfapn4**",
"**X&+$4qrccpcc>aq5nNX**",
"**X&++$4444+&3324qvNX**",
"**X&$2++++#5#+$$gwgg***",
"***&$&255yqyyywcbnwd***",
"***&&25pacanNdygMggw***",
"***&&556fcdgncdy0gw6***"
};
