/* XPM */
static char *result[] = {
/* columns rows colors chars-per-pixel */
"23 31 61 1 ",
"  c #202020",
". c #2C2C2C",
"X c gray22",
"o c #700000",
"O c #7C0000",
"+ c #403018",
"@ c #483818",
"# c #543C1C",
"$ c #5C4020",
"% c #6C4824",
"& c #744C28",
"* c #484848",
"= c #646464",
"- c #880000",
"; c #980000",
": c #A80000",
"> c #C80000",
", c #D40000",
"< c #FC0000",
"1 c #9C4C00",
"2 c #A85400",
"3 c #B45400",
"4 c #80502C",
"5 c #885830",
"6 c #905C34",
"7 c #9C6038",
"8 c #A0643C",
"9 c #CC6000",
"0 c #E46C00",
"q c #FC7800",
"w c #A86840",
"e c #B47044",
"r c #BC7848",
"t c #FC4040",
"y c #FC5454",
"u c #C87C4C",
"i c #FC7C7C",
"p c #FC8820",
"a c #D08050",
"s c #DC8854",
"d c #E88C58",
"f c #F0945C",
"g c #FC9C60",
"h c #FCA470",
"j c #0000A8",
"k c #B400B4",
"l c #E000E4",
"z c #FC20FC",
"x c #FC5CFC",
"c c gray66",
"v c #FCB080",
"b c #FCB890",
"n c #FCBC9C",
"m c #FCB8B8",
"M c #FCC4A4",
"N c #FCCCB0",
"B c #FCD4BC",
"V c #C0C0C0",
"C c #FCD8C4",
"Z c #FCE0D0",
"A c #FCE8DC",
/* pixels */
"****XXXXXXXXXXXXX******",
"***.900000000000000X***",
"**.990qqqqqqqqqpppq9X**",
"**2990qqqqqqqqqppppq2**",
"*.6390qqqqqqqqqppppq9X*",
"*.433900000000000p0q9X*",
"*.%122399999999090901X*",
"*.%11111111&533320991X*",
"*.$1&@@@111@&1@12911$X*",
"*.$1$$%%1$1@@1@12911$X*",
"*.$$$461162&&$$129gw$X*",
"*.$$4s1uurur77$19dvg$6*",
".e$6shugbbddue619Xbv6sX",
".s$eh*X*evvvau1$55=v66X",
".8$d*eO   sf7 &;>efve4X",
".%afvtijj:5w5O,titnCbuX",
".ahMMbxzxfu8ezlklyiCn6X",
"*4hNNCMMbhdbMMVcVCmAnX*",
"*XabNCCCMavCCbNCZAAZiX*",
"**5gbMMMMevvvdnNZZZZ<**",
"**5agfhhffrrrhvMNCZMs**",
"** eaffa7e<8<gfMnNNbs**",
"** $88:%@8:&:8ahMnvNr**",
"**.$6so<dhyo<<ygvvbNr**",
"**.+$fe;ve6ee-fgggsN6**",
"**X$+6eyvfavf<suesbNX**",
"**X$4#$666+&5546ebNNX**",
"**X&$&4++#7#+$$sgdbN***",
"***&$&477ueuuufvnMsb***",
"***&&47asvsMCfuhBhhr***",
"***&&778gvfhMvfuwhr8***"
};
