/* XPM */
static char *result[] = {
/* columns rows colors chars-per-pixel */
"23 31 48 1 ",
"  c black",
". c #382C14",
"X c #2C2C2C",
"o c gray22",
"O c #483818",
"+ c #543C1C",
"@ c #5C4020",
"# c #6C4824",
"$ c #744C28",
"% c #484848",
"& c #646464",
"* c #A40000",
"= c #9C4C00",
"- c #A85400",
"; c #B45400",
": c #80502C",
"> c #885830",
", c #905C34",
"< c #9C6038",
"1 c #A0643C",
"2 c #CC6000",
"3 c #E46C00",
"4 c #FC7800",
"5 c #A86840",
"6 c #B47044",
"7 c #BC7848",
"8 c #C87C4C",
"9 c #FC8820",
"0 c #D08050",
"q c #DC8854",
"w c #E88C58",
"e c #F0945C",
"r c #FC9C60",
"t c #FCA470",
"y c #0000A8",
"u c #0000BC",
"i c #0000FC",
"p c #FCB080",
"a c #FCB890",
"s c #FCBC9C",
"d c #FCC4A4",
"f c #FCCCB0",
"g c #FCD4BC",
"h c #C0C0C0",
"j c #D0D0D0",
"k c gainsboro",
"l c #ECECEC",
"z c gray99",
/* pixels */
"%%%%ooooooooooooo%%%%%%",
"%%%X=2;22323333332=o%%%",
"%%X=-;2;22222234332=o%%",
"%%+----;;22222234942#%%",
"%X=--=$$#-;;<-224933>o%",
"%X=-=+$O$$--@+-234-$2o%",
"%X==$>@@OO-$@.+23-1$=o%",
"% $-$<777-$$$$$---$$$ %",
"% -$<7espe077,$$-$77- %",
"%X$$577rsggpr7,7-7s7$ %",
"%X-<77tserrrq717-sse- %",
"%X$57%%wsggsr77s%&st$X%",
"X7-7%7  %%777   &7&t-t ",
"Xq$77hyu%*%7%*%yihpt$r ",
"X6$7rpgdpr7depppgggp$6 ",
"Xq,7rpdgdrrdgfddddgp7q ",
"X,,710rrr7rdgerpp06e77 ",
"%#,q0rrrw77777wrrp0r7>%",
"%X,qrs$7wwwwwww7$prs7X%",
"%o,qrs7j7777777z7psd,o%",
"%% q7p7jjjllllzz7pdp o%",
"%% 77pr7jkllllz7psdp %%",
"%% 17prrqppppfppsdep %%",
"%% $1wsstw888wtddp7p %%",
"%% $O1wddppeppddd77t %%",
"%% $OO17ww7$7ww71#st %%",
"%%o,@#OOOOO@#$$,,8dto%%",
"%%o,@:$$:<<<<<58dd8t%%%",
"%%%$@$:<<q68885psdd8%%%",
"%%%$$:<0qpqddt8qgtt1%%%",
"%%%$$<<1rpqtdat8at11%%%"
};
